<svg version="1.1" xmlns="http://www.w3.org/2000/svg" xmlns:xlink="http://www.w3.org/1999/xlink" width="59.63044" height="59.63044" viewBox="0,0,59.63044,59.63044"><g transform="translate(-210.18478,-150.18479)"><g data-paper-data="{&quot;isPaintingLayer&quot;:true}" fill-rule="nonzero" stroke-linejoin="miter" stroke-miterlimit="10" stroke-dasharray="" stroke-dashoffset="0" style="mix-blend-mode: normal"><path d="M211.18478,208.81523v-57.63044h57.63044v57.63044z" fill="#fed87e" stroke="#808080" stroke-width="2" stroke-linecap="butt"/><path d="M220.16667,165.5v-5.66667h39.66667v5.66667z" fill="#a4a5a9" stroke="none" stroke-width="0" stroke-linecap="butt"/><path d="M216,160.5v-3h48v3z" fill="#636363" stroke="none" stroke-width="0" stroke-linecap="butt"/><path d="M234,193.33333v-26.66667h12v26.66667l-5.98768,-6z" fill="#1d9679" stroke="none" stroke-width="0" stroke-linecap="butt"/><path d="M217.34565,202.22727l6.66667,-8.33333l33.33333,0.33333l5,7.66667z" fill="#636363" stroke="none" stroke-width="0" stroke-linecap="butt"/><g stroke="none" stroke-width="0" stroke-linecap="butt"><path d="M225.16667,200.42614v-24h4.33333v24z" fill="#a4a5a9"/><path d="M222.82101,173.82386v-4.25h6.66667v4.25z" fill="#636363"/><path d="M223.16667,200.42614v-24h4.33333v24z" fill="#cfd2d2"/><path d="M222.5,176.75947l-2.33333,-5h11.66667l-2,5z" fill="#a4a5a9"/></g><g stroke="none" stroke-width="0" stroke-linecap="butt"><path d="M253.16667,200.42614v-24h4.33333v24z" fill="#a4a5a9"/><path d="M250.82101,173.82386v-4.25h6.66667v4.25z" fill="#636363"/><path d="M251.16667,200.42614v-24h4.33333v24z" fill="#cfd2d2"/><path d="M250.5,176.75947l-2.33333,-5h11.66666l-2,5z" fill="#a4a5a9"/></g><path d="M213.67899,169.89394v-4.33333h52v4.33333z" fill="#cfd2d2" stroke="none" stroke-width="0" stroke-linecap="butt"/><path d="M238.67899,184.89394v-14" fill="none" stroke="#ffffff" stroke-width="1" stroke-linecap="round"/><path d="M241.01232,184.89394v-14" fill="none" stroke="#ffffff" stroke-width="1" stroke-linecap="round"/><g stroke="none" stroke-linecap="butt"><path d="M237.01232,182.22727v-9h6v9z" fill="#1d9679" stroke-width="0"/><text transform="translate(235.5248,182.93542) scale(0.3411,0.3411)" font-size="40" xml:space="preserve" fill="#ffffff" fill-rule="nonzero" stroke="none" stroke-width="1" stroke-linecap="butt" stroke-linejoin="miter" stroke-miterlimit="10" stroke-dasharray="" stroke-dashoffset="0" font-family="Sans Serif" font-weight="normal" text-anchor="start" style="mix-blend-mode: normal"><tspan x="0" dy="0">B</tspan></text></g></g></g></svg>