<svg version="1.1" xmlns="http://www.w3.org/2000/svg" xmlns:xlink="http://www.w3.org/1999/xlink" width="59.63044" height="59.63044" viewBox="0,0,59.63044,59.63044"><g transform="translate(-210.18478,-150.18478)"><g data-paper-data="{&quot;isPaintingLayer&quot;:true}" fill-rule="nonzero" stroke-linejoin="miter" stroke-miterlimit="10" stroke-dasharray="" stroke-dashoffset="0" style="mix-blend-mode: normal"><path d="M211.18478,208.81522v-57.63044h57.63044v57.63044z" fill="#fdeecf" stroke="#808080" stroke-width="2" stroke-linecap="butt"/><path d="M231.19107,164.30811h16.73347" fill="#f4dcc0" stroke="#f1dec0" stroke-width="5" stroke-linecap="round"/><path d="M230.13637,170.13198c-1.84552,-1.3216 2.8127,-7.43287 4.55749,-6.32607c1.93017,1.2244 -2.87886,7.52816 -4.55749,6.32607z" fill="#288f6c" stroke="none" stroke-width="0" stroke-linecap="butt"/><path d="M222.51031,169.62471c0.13516,-2.06179 7.81771,-2.21958 7.79662,0.05025c-0.01918,2.06457 -7.94613,2.23062 -7.79662,-0.05025z" data-paper-data="{&quot;index&quot;:null}" fill="#288f6c" stroke="none" stroke-width="0" stroke-linecap="butt"/><path d="M232.22287,179.81499l-2.71814,-8.87843l1.46937,-0.6251l3.67045,8.4703z" fill="#853d29" stroke="none" stroke-width="0" stroke-linecap="butt"/><path d="M230.2312,170.54338c0.13516,-2.06179 7.81771,-2.21958 7.79662,0.05025c-0.01918,2.06457 -7.94613,2.23062 -7.79662,-0.05025z" data-paper-data="{&quot;index&quot;:null}" fill="#288f6c" stroke="none" stroke-width="0" stroke-linecap="butt"/><path d="M245.06495,177.9583l4.41577,-8.10674l1.40734,0.75444c0,0 -2.06121,5.05826 -2.69696,6.61838c-0.34776,0.8534 -0.80697,1.98031 -0.80697,1.98031z" data-paper-data="{&quot;index&quot;:null}" fill="#853d29" stroke="none" stroke-width="0" stroke-linecap="butt"/><g fill="#288f6c" stroke="none" stroke-width="0" stroke-linecap="butt"><path d="M243.18283,170.329c-0.06014,-2.28507 7.72344,-2.40925 7.89555,-0.33788c0.1904,2.29146 -7.84084,2.41632 -7.89555,0.33788z"/><path d="M250.39418,170.04715c-0.08167,-2.26846 7.60237,-2.31579 7.79251,-0.25833c0.21033,2.27607 -7.71822,2.32165 -7.79251,0.25833z"/><path d="M246.13546,163.70071c1.71462,-1.15297 6.5343,4.83179 4.72471,6.20217c-1.64595,1.24647 -6.62152,-4.92669 -4.72471,-6.20217z" data-paper-data="{&quot;index&quot;:null}"/><path d="M250.1265,170.37362c1.71462,-1.15297 6.5343,4.83179 4.72471,6.20217c-1.64595,1.24647 -6.62151,-4.92669 -4.72471,-6.20217z" data-paper-data="{&quot;index&quot;:null}"/></g><path d="M225.95263,176.01241c-1.84552,-1.3488 2.8127,-7.58582 4.55749,-6.45625c1.93017,1.2496 -2.87886,7.68307 -4.55749,6.45625z" fill="#288f6c" stroke="none" stroke-width="0" stroke-linecap="butt"/><path d="M212.1785,207.74827v-22.0392h55.64219v22.0392z" fill="#69b0e8" stroke="#808080" stroke-width="0" stroke-linecap="butt"/><path d="M221.32712,195.67396c0,0 -0.74399,-6.97145 3.92246,-12.67448c5.4368,-6.28573 15.12377,-5.69152 15.12377,-5.69152v18.366z" fill="#faca79" stroke="none" stroke-width="NaN" stroke-linecap="butt"/><path d="M240.16017,195.64031v-18.366c0,0 9.68697,-0.59421 15.12378,5.69152c4.66645,5.70304 3.92246,12.67448 3.92246,12.67448z" data-paper-data="{&quot;index&quot;:null}" fill="#df7545" stroke="none" stroke-width="NaN" stroke-linecap="butt"/><path d="M215.88534,176.76377h6.66618" fill="#f4dcc0" stroke="#f1dec0" stroke-width="5" stroke-linecap="round"/><path d="M257.75339,156.05137h6.66618" fill="#f4dcc0" stroke="#f1dec0" stroke-width="5" stroke-linecap="round"/><path d="M219.38885,157.30353h10.88356" fill="#f4dcc0" stroke="#f1dec0" stroke-width="5" stroke-linecap="round"/><path d="M263.43361,171.93493h1.77992" fill="#f4dcc0" stroke="#f1dec0" stroke-width="5" stroke-linecap="round"/></g></g></svg>