<svg version="1.1" xmlns="http://www.w3.org/2000/svg" xmlns:xlink="http://www.w3.org/1999/xlink" width="59.63044" height="59.63044" viewBox="0,0,59.63044,59.63044"><g transform="translate(-210.18478,-150.18478)"><g data-paper-data="{&quot;isPaintingLayer&quot;:true}" fill-rule="nonzero" stroke-linejoin="miter" stroke-miterlimit="10" stroke-dasharray="" stroke-dashoffset="0" style="mix-blend-mode: normal"><path d="M211.18478,208.81522v-57.63044h57.63044v57.63044z" fill="#90d7f4" stroke="#808080" stroke-width="2" stroke-linecap="butt"/><path d="M230.5,188.16667v-21h18.66666v21z" fill="#ffd97e" stroke="none" stroke-width="0" stroke-linecap="butt"/><path d="M230.16666,167.83333l9.35374,-8.66666l8.97959,9z" fill="#ffd97e" stroke="none" stroke-width="0" stroke-linecap="butt"/><path d="M227.16666,170.5l12.33333,-12.33334" fill="none" stroke="#d20000" stroke-width="2" stroke-linecap="round"/><path d="M252.16667,170.5l-12.33334,-12.33334" data-paper-data="{&quot;index&quot;:null}" fill="none" stroke="#d20000" stroke-width="2" stroke-linecap="round"/><path d="M212.16666,207.83333v-6.33333h55.66667v6.33333z" fill="#69c291" stroke="none" stroke-width="0" stroke-linecap="butt"/><path d="M216.5,199.83333c0,-2.20914 1.79086,-4 4,-4c2.20914,0 4,1.79086 4,4c0,2.20914 -1.79086,4 -4,4c-2.20914,0 -4,-1.79086 -4,-4z" fill="#69c291" stroke="none" stroke-width="0" stroke-linecap="butt"/><path d="M255.83333,199.83333c0,-2.20914 1.79086,-4 4,-4c2.20914,0 4,1.79086 4,4c0,2.20914 -1.79086,4 -4,4c-2.20914,0 -4,-1.79086 -4,-4z" fill="#69c291" stroke="none" stroke-width="0" stroke-linecap="butt"/><path d="M260.5,204.16667c0,-2.20914 1.79086,-4 4,-4c2.20914,0 4,1.79086 4,4c0,2.20914 -1.79086,4 -4,4c-2.20914,0 -4,-1.79086 -4,-4z" fill="#69c291" stroke="none" stroke-width="0" stroke-linecap="butt"/><path d="M211.5,204.16667c0,-2.20914 1.79086,-4 4,-4c2.20914,0 4,1.79086 4,4c0,2.20914 -1.79086,4 -4,4c-2.20914,0 -4,-1.79086 -4,-4z" fill="#69c291" stroke="none" stroke-width="0" stroke-linecap="butt"/><path d="M220.83333,207.83333v-22h38.33333v22z" fill="#ffd87d" stroke="none" stroke-width="0" stroke-linecap="butt"/><path d="M215.83333,188.83333l4.66667,-11.66666h38.33333l4.66666,11.66666z" fill="#d20000" stroke="none" stroke-width="0" stroke-linecap="butt"/><path d="M234.66667,208.5v-9h10.66667v9z" fill="#d20000" stroke="none" stroke-width="0" stroke-linecap="butt"/><path d="M232.11935,196.94824v-5.91048h15.7613v5.91048z" fill="#ffffff" stroke="#d20000" stroke-width="0.5" stroke-linecap="butt"/><path d="M249.5,203.16667v-9h7v9z" fill="#ffffff" stroke="#d20000" stroke-width="1" stroke-linecap="butt"/><path d="M249.83333,195.42593v-1.40741h6.33334v1.40741z" fill="#d20000" stroke="#d20000" stroke-width="0" stroke-linecap="butt"/><path d="M256.83333,199.16667h-7.33333" fill="none" stroke="#d20000" stroke-width="0.5" stroke-linecap="round"/><path d="M223.16666,203.16667v-9h7v9z" fill="#ffffff" stroke="#d20000" stroke-width="1" stroke-linecap="butt"/><path d="M223.5,195.42593v-1.40741h6.33333v1.40741z" fill="#d20000" stroke="#d20000" stroke-width="0" stroke-linecap="butt"/><path d="M230.5,199.16667h-7.33334" fill="none" stroke="#d20000" stroke-width="0.5" stroke-linecap="round"/><path d="M234.16666,170.16667c0,-3.12962 2.53705,-5.66666 5.66667,-5.66666c3.12962,0 5.66667,2.53705 5.66667,5.66666c0,3.12962 -2.53705,5.66666 -5.66667,5.66666c-3.12962,0 -5.66667,-2.53705 -5.66667,-5.66666z" fill="#ffffff" stroke="#d20000" stroke-width="0.5" stroke-linecap="butt"/><path d="M240.16666,165.5v5.21334l-4,2.45333" fill="none" stroke="#d20000" stroke-width="0.5" stroke-linecap="round"/><path d="M211.18478,208.81522v-57.63044h57.63044v57.63044z" fill="none" stroke="#808080" stroke-width="2" stroke-linecap="butt"/><text transform="translate(233.16132,195.92544) scale(0.14054,0.14054)" font-size="40" xml:space="preserve" fill="#d20000" fill-rule="nonzero" stroke-opacity="0" stroke="#000000" stroke-width="0" stroke-linecap="butt" stroke-linejoin="miter" stroke-miterlimit="10" stroke-dasharray="" stroke-dashoffset="0" font-family="Sans Serif" font-weight="normal" text-anchor="start" style="mix-blend-mode: normal"><tspan x="0" dy="0">NSES</tspan></text></g></g></svg>