<svg version="1.1" xmlns="http://www.w3.org/2000/svg" xmlns:xlink="http://www.w3.org/1999/xlink" width="59.63044" height="59.63044" viewBox="0,0,59.63044,59.63044"><g transform="translate(-210.18478,-150.18478)"><g data-paper-data="{&quot;isPaintingLayer&quot;:true}" fill-rule="nonzero" stroke-linejoin="miter" stroke-miterlimit="10" stroke-dasharray="" stroke-dashoffset="0" style="mix-blend-mode: normal"><path d="M211.18478,208.81522v-57.63044h57.63044v57.63044z" fill="#69b0e8" stroke="#808080" stroke-width="2" stroke-linecap="butt"/><path d="M212.0761,207.78192v-19.86249h55.50615v19.86249z" fill="#fbedd0" stroke="#808080" stroke-width="0" stroke-linecap="butt"/><path d="M240.37335,199.34716v-30.61l23.67174,30.61z" fill="#e67a4d" stroke="none" stroke-width="0" stroke-linecap="butt"/><path d="M216.66796,199.17747l23.67173,-30.47396v30.47397z" data-paper-data="{&quot;index&quot;:null}" fill="#fbc473" stroke="none" stroke-width="0" stroke-linecap="butt"/><path d="M260.06616,194.55196h-39.4529" fill="none" stroke="#742d19" stroke-width="0.5" stroke-linecap="round"/><path d="M255.81514,189.68874h-31.42628" fill="none" stroke="#742d19" stroke-width="0.5" stroke-linecap="round"/><path d="M252.51642,184.96156h-24.62406" fill="none" stroke="#742d19" stroke-width="0.5" stroke-linecap="round"/><path d="M249.35376,180.37042h-18.09392" fill="none" stroke="#742d19" stroke-width="0.5" stroke-linecap="round"/><path d="M245.919,175.77929h-11.01961" fill="none" stroke="#742d19" stroke-width="0.5" stroke-linecap="round"/><path d="M247.41622,180.40552v4.48947" fill="none" stroke="#742d19" stroke-width="0.5" stroke-linecap="round"/><path d="M250.78368,185.13343v4.48947" fill="none" stroke="#742d19" stroke-width="0.5" stroke-linecap="round"/><path d="M254.01511,189.7253v4.48947" fill="none" stroke="#742d19" stroke-width="0.5" stroke-linecap="round"/><path d="M247.17924,189.8277v4.48947" fill="none" stroke="#742d19" stroke-width="0.5" stroke-linecap="round"/><path d="M243.84688,175.88387v4.48947" fill="none" stroke="#742d19" stroke-width="0.5" stroke-linecap="round"/><path d="M243.88126,185.10125v4.48947" fill="none" stroke="#742d19" stroke-width="0.5" stroke-linecap="round"/><path d="M243.43948,194.86281v4.11535" fill="none" stroke="#742d19" stroke-width="0.5" stroke-linecap="round"/><path d="M250.61619,199.08056v-4.11535" fill="none" stroke="#742d19" stroke-width="0.5" stroke-linecap="round"/><path d="M257.65686,194.79552v4.11535" fill="none" stroke="#742d19" stroke-width="0.5" stroke-linecap="round"/><path d="M232.69563,184.9974v-4.48947" fill="none" stroke="#742d19" stroke-width="0.5" stroke-linecap="round"/><path d="M229.32816,185.23583v4.48947" fill="none" stroke="#742d19" stroke-width="0.5" stroke-linecap="round"/><path d="M226.09674,194.31718v-4.48947" fill="none" stroke="#742d19" stroke-width="0.5" stroke-linecap="round"/><path d="M232.93261,189.9301v4.48947" fill="none" stroke="#742d19" stroke-width="0.5" stroke-linecap="round"/><path d="M236.26496,175.85023v4.48948" fill="none" stroke="#742d19" stroke-width="0.5" stroke-linecap="round"/><path d="M236.23059,185.20366v4.48947" fill="none" stroke="#742d19" stroke-width="0.5" stroke-linecap="round"/><path d="M236.67236,199.08056v-4.11535" fill="none" stroke="#742d19" stroke-width="0.5" stroke-linecap="round"/><path d="M222.45499,199.01327v-4.11535" fill="none" stroke="#742d19" stroke-width="0.5" stroke-linecap="round"/><path d="M227.04099,199.21111v-4.62551h4.76156v4.62551z" fill="#742d19" stroke="none" stroke-width="0" stroke-linecap="butt"/></g></g></svg>