<svg version="1.1" xmlns="http://www.w3.org/2000/svg" xmlns:xlink="http://www.w3.org/1999/xlink" width="59.63044" height="59.63044" viewBox="0,0,59.63044,59.63044"><g transform="translate(-210.18478,-150.18478)"><g data-paper-data="{&quot;isPaintingLayer&quot;:true}" fill-rule="nonzero" stroke-linecap="butt" stroke-linejoin="miter" stroke-miterlimit="10" stroke-dasharray="" stroke-dashoffset="0" style="mix-blend-mode: normal"><path d="M211.18478,208.81522v-57.63044h57.63044v57.63044z" fill="#6cbd8a" stroke="#808080" stroke-width="2"/><path d="M226.93985,186v-17h3.42857v17z" fill="#cfd2d2" stroke="none" stroke-width="0"/><path d="M249.22557,186v-17h3.42857v17z" fill="#cfd2d2" stroke="none" stroke-width="0"/><path d="M220.797,180.71429v-9.42857h38.42857v9.42857z" fill="#000000" stroke="none" stroke-width="0"/><path d="M218.22557,191v-2.42857h43.97744v2.42857z" fill="#269b79" stroke="none" stroke-width="0"/><path d="M221.93985,189.42857v-1.85714h4.85715v1.85714z" fill="#cfd2d2" stroke="none" stroke-width="0"/><path d="M252.65414,189.42857v-1.85714h4.85714v1.85714z" fill="#cfd2d2" stroke="none" stroke-width="0"/><path d="M220.797,173.85714v-2.71428h38.42857v2.71428z" fill="#d76d3d" stroke="none" stroke-width="0"/><path d="M220.797,177.42857v-2.71428h38.42857v2.71428z" fill="#d76d3d" stroke="none" stroke-width="0"/><path d="M220.797,181.14286v-2.71428h38.42857v2.71428z" fill="#d76d3d" stroke="none" stroke-width="0"/><path d="M217.79699,187.57143v-4h43.26316v4z" fill="#d76d3d" stroke="none" stroke-width="0"/><g fill="#269b79" stroke="none" stroke-width="0"><path d="M218.43385,198.5974v-4.42857h1v4.42857z"/><path d="M220.43385,198.59741v-4.42857h1v4.42857z"/><path d="M222.29099,198.59741v-4.42857h1v4.42857z"/></g><g fill="#269b79" stroke="none" stroke-width="0"><path d="M257.14814,198.59741v-4.42857h1v4.42857z"/><path d="M259.14814,198.59741v-4.42857h1v4.42857z"/><path d="M261.00528,198.59741v-4.42857h1v4.42857z"/></g><g fill="#269b79" stroke="none" stroke-width="0"><path d="M238.57671,198.59741v-4.42857h1v4.42857z"/><path d="M240.57671,198.59741v-4.42857h1v4.42857z"/><path d="M242.43385,198.59741v-4.42857h1v4.42857z"/></g><g fill="#269b79" stroke="none" stroke-width="0"><path d="M228.14813,204.88312v-4.42857h1v4.42857z"/><path d="M230.14813,204.88312v-4.42857h1v4.42857z"/><path d="M232.00528,204.88312v-4.42857h1v4.42857z"/></g><g fill="#269b79" stroke="none" stroke-width="0"><path d="M248.71956,204.88312v-4.42857h1v4.42857z"/><path d="M250.71956,204.88312v-4.42857h1v4.42857z"/><path d="M252.57671,204.88312v-4.42857h1v4.42857z"/></g></g></g></svg>