<svg version="1.1" xmlns="http://www.w3.org/2000/svg" xmlns:xlink="http://www.w3.org/1999/xlink" width="59.63044" height="59.63044" viewBox="0,0,59.63044,59.63044"><g transform="translate(-210.18478,-150.18478)"><g data-paper-data="{&quot;isPaintingLayer&quot;:true}" fill-rule="nonzero" stroke-linejoin="miter" stroke-miterlimit="10" stroke-dasharray="" stroke-dashoffset="0" style="mix-blend-mode: normal"><path d="M211.18478,208.81522v-57.63044h57.63044v57.63044z" fill="#6fade9" stroke="#808080" stroke-width="2" stroke-linecap="butt"/><g data-paper-data="{&quot;index&quot;:null}"><path d="M218.65734,173.20951c0,0 -0.77574,-4.87994 2.15554,-4.87198c2.56976,0.00697 2.22085,1.73798 2.22085,1.73798c0,0 0.20015,-1.74559 2.33532,-1.76481c2.17207,-0.01955 2.29161,2.11398 2.29161,2.11398l11.42524,-0.04849c0,0 -0.03769,-3.57433 0.0288,-4.54254c0.12012,-1.74911 2.13744,-2.28041 3.83885,-2.07493c2.21374,0.26736 3.81152,2.15252 3.81152,2.15252c0,0 2.03385,-2.38097 4.11276,-1.98268c2.35321,0.45085 3.44617,4.78097 3.44617,4.78097c0,0 1.85126,0.31576 2.64872,1.08474c0.75586,0.72887 0.88807,2.91526 0.88807,2.91526z" fill="#288976" stroke="#288976" stroke-width="1" stroke-linecap="butt"/><g><path d="M247.90536,168.10376c0,-1.12967 1.80453,-1.59091 2.9091,-1.59091c1.10457,0 1.18182,0.64306 1.18182,1.77273c0,1.12968 -0.89543,2.04546 -2,2.04546c-1.10457,0 -2.09091,-1.0976 -2.09091,-2.22727z" fill="#f4f6e0" stroke="#f4f6e0" stroke-width="0.5" stroke-linecap="butt"/><path d="M249.99628,169.33105c-0.80332,0 -1.45454,-0.69193 -1.45454,-1.54546c0,-0.85354 0.65121,-1.54546 1.45454,-1.54546c0.80332,0 1.45454,0.69193 1.45454,1.54546c0,0.85354 -0.65121,1.54546 -1.45454,1.54546z" fill="#71331a" stroke="#71331a" stroke-width="0.5" stroke-linecap="butt"/><path d="M247.35991,167.42195l4.18182,-1.81818" fill="none" stroke="#36908d" stroke-width="1.5" stroke-linecap="round"/></g><g data-paper-data="{&quot;index&quot;:null}"><path d="M241.63263,166.51287c1.10457,0 2.9091,0.46124 2.9091,1.59091c0,1.12967 -0.98634,2.22727 -2.09091,2.22727c-1.10457,0 -2,-0.91579 -2,-2.04546c0,-1.12967 0.07725,-1.77273 1.18182,-1.77273z" fill="#f4f6e0" stroke="#f4f6e0" stroke-width="0.5" stroke-linecap="butt"/><path d="M240.99628,167.78558c0,-0.85354 0.65121,-1.54546 1.45454,-1.54546c0.80332,0 1.45454,0.69193 1.45454,1.54546c0,0.85354 -0.65121,1.54546 -1.45454,1.54546c-0.80332,0 -1.45454,-0.69193 -1.45454,-1.54546z" fill="#71331a" stroke="#71331a" stroke-width="0.5" stroke-linecap="butt"/><path d="M240.90537,165.60377l4.18182,1.81818" fill="none" stroke="#36908d" stroke-width="1.5" stroke-linecap="round"/></g></g><g data-paper-data="{&quot;index&quot;:null}"><path d="M219.01897,199.98227c0,0 0.13221,-2.18639 0.88807,-2.91526c0.79746,-0.76898 2.64872,-1.08474 2.64872,-1.08474c0,0 1.09296,-4.33012 3.44617,-4.78097c2.0789,-0.39829 4.11275,1.98268 4.11275,1.98268c0,0 1.59778,-1.88516 3.81152,-2.15252c1.70142,-0.20548 3.71873,0.32582 3.83885,2.07493c0.06649,0.96821 0.0288,4.54254 0.0288,4.54254l11.42524,0.04849c0,0 0.11955,-2.13353 2.29162,-2.11398c2.13517,0.01921 2.33532,1.76481 2.33532,1.76481c0,0 -0.34891,-1.73101 2.22085,-1.73798c2.93127,-0.00795 2.15554,4.87198 2.15554,4.87198z" fill="#288976" stroke="#288976" stroke-width="1" stroke-linecap="butt"/><g><path d="M226.06528,193.78559c1.10457,0 2.9091,0.46124 2.9091,1.59091c0,1.12967 -0.98634,2.22727 -2.09091,2.22727c-1.10457,0 -2,-0.91579 -2,-2.04546c0,-1.12967 0.07725,-1.77273 1.18182,-1.77273z" fill="#f4f6e0" stroke="#f4f6e0" stroke-width="0.5" stroke-linecap="butt"/><path d="M225.42894,195.05831c0,-0.85354 0.65121,-1.54546 1.45454,-1.54546c0.80332,0 1.45454,0.69193 1.45454,1.54546c0,0.85354 -0.65121,1.54546 -1.45454,1.54546c-0.80332,0 -1.45454,-0.69193 -1.45454,-1.54546z" fill="#71331a" stroke="#71331a" stroke-width="0.5" stroke-linecap="butt"/><path d="M229.51984,194.69467l-4.18182,-1.81818" fill="none" stroke="#36908d" stroke-width="1.5" stroke-linecap="round"/></g><g data-paper-data="{&quot;index&quot;:null}"><path d="M232.33801,195.37648c0,-1.12967 1.80453,-1.59091 2.9091,-1.59091c1.10457,0 1.18182,0.64306 1.18182,1.77273c0,1.12968 -0.89543,2.04546 -2,2.04546c-1.10457,0 -2.09091,-1.0976 -2.09091,-2.22727z" fill="#f4f6e0" stroke="#f4f6e0" stroke-width="0.5" stroke-linecap="butt"/><path d="M234.42894,196.60377c-0.80332,0 -1.45454,-0.69193 -1.45454,-1.54546c0,-0.85354 0.65121,-1.54546 1.45454,-1.54546c0.80332,0 1.45454,0.69193 1.45454,1.54546c0,0.85354 -0.65121,1.54546 -1.45454,1.54546z" fill="#71331a" stroke="#71331a" stroke-width="0.5" stroke-linecap="butt"/><path d="M235.97439,192.87649l-4.18182,1.81818" fill="none" stroke="#36908d" stroke-width="1.5" stroke-linecap="round"/></g></g></g></g></svg>