<svg version="1.1" xmlns="http://www.w3.org/2000/svg" xmlns:xlink="http://www.w3.org/1999/xlink" width="59.8551" height="59.85511" viewBox="0,0,59.8551,59.85511"><g transform="translate(-210.07245,-150.07245)"><g data-paper-data="{&quot;isPaintingLayer&quot;:true}" fill-rule="nonzero" stroke-linecap="butt" stroke-linejoin="miter" stroke-miterlimit="10" stroke-dasharray="" stroke-dashoffset="0" style="mix-blend-mode: normal"><path d="M211.18478,208.81526v-57.63044h57.63044v57.63044z" fill="#ffffff" stroke="#808080" stroke-width="2"/><text transform="translate(230.14805,191.40722) scale(0.81088,0.81088)" font-size="40" xml:space="preserve" fill="#ffffff" fill-rule="nonzero" stroke="none" stroke-width="1" stroke-linecap="butt" stroke-linejoin="miter" stroke-miterlimit="10" stroke-dasharray="" stroke-dashoffset="0" font-family="Sans Serif" font-weight="normal" text-anchor="start" style="mix-blend-mode: normal"><tspan x="0" dy="0">P</tspan></text><path d="M211.07245,208.92756v-57.8551h57.8551c0,0 0,20.89509 0,30.83405c0,9.30415 0,27.02106 0,27.02106z" fill="#fcdb7e" stroke="#808080" stroke-width="2"/><path d="M215.83545,181.26005l0.28061,-10.37613l9.459,-13.12878l14.75426,17.5317l14.19471,-17.42849l8.45734,11.38292l0.29593,11.73306z" fill="#fffffe" stroke="none" stroke-width="0"/><path d="M211.77762,199.54574l0.15307,-22.45081l6.61433,-10.01502l2.45252,2.27846l2.19767,-2.68439l2.47955,2.75557l2.2007,-2.71845l2.58398,2.71254l2.56169,-2.73554l7.25481,8.45295l6.42898,-8.17473l2.82881,2.55534l2.45868,-3.05805l2.47213,3.19418l2.06328,-2.85507l2.43629,2.93407l2.38015,-3.16272l6.44663,10.04573l0.2806,22.79329z" fill="#f2a358" stroke="none" stroke-width="0"/><path d="M214.59894,202.31436l0.28061,-12.47398l10.88757,-14.2356l14.18794,18.52642l14.32735,-18.45852l10.61041,14.16259l0.43368,12.90768z" fill="#fffffe" stroke="none" stroke-width="0"/><path d="M211.73158,208.02353l0.01021,-13.61684l6.75718,-9.58422l2.72802,2.11916l2.05992,-2.21934l2.47955,2.18032l2.2007,-2.15856l2.58398,1.91288l2.28619,-1.92636l6.97931,9.40128l7.12284,-9.11696l2.68596,1.94171l2.45868,-2.35762l2.33438,2.43741l2.20103,-2.23865l2.57404,1.96199l2.09954,-1.95316l6.73745,9.46236l0.14286,14.04541z" fill="#813472" stroke="none" stroke-width="0"/></g></g></svg>