<svg version="1.1" xmlns="http://www.w3.org/2000/svg" xmlns:xlink="http://www.w3.org/1999/xlink" width="59.63044" height="59.63044" viewBox="0,0,59.63044,59.63044"><g transform="translate(-210.18478,-150.18478)"><g data-paper-data="{&quot;isPaintingLayer&quot;:true}" fill-rule="nonzero" stroke-linejoin="miter" stroke-miterlimit="10" stroke-dasharray="" stroke-dashoffset="0" style="mix-blend-mode: normal"><path d="M211.18478,208.81522v-57.63044h57.63044v57.63044z" fill="#833376" stroke="#808080" stroke-width="2" stroke-linecap="butt"/><g><path d="M229.375,184.875l5.04688,-9.75h10.89062l5.3125,9.75z" fill="#592150" stroke="none" stroke-width="0" stroke-linecap="butt"/><path d="M234.125,175.125h11.25c0,0 -0.68629,4.5 -5.25,4.5c-4.56371,0 -6,-4.5 -6,-4.5z" fill="#000000" stroke="none" stroke-width="0" stroke-linecap="butt"/><path d="M239.75,177.375v7.33333" fill="none" stroke="#000000" stroke-width="1" stroke-linecap="round"/><path d="M235.7544,177.59624l-2.5088,6.89084" fill="none" stroke="#000000" stroke-width="1" stroke-linecap="round"/><path d="M243.7456,177.59624l2.5088,6.89085" data-paper-data="{&quot;index&quot;:null}" fill="none" stroke="#000000" stroke-width="1" stroke-linecap="round"/></g><g><path d="M244.375,169.875l5.04688,-9.75h10.89063l5.3125,9.75z" fill="#592150" stroke="none" stroke-width="0" stroke-linecap="butt"/><path d="M249.125,160.125h11.25c0,0 -0.68629,4.5 -5.25,4.5c-4.56371,0 -6,-4.5 -6,-4.5z" fill="#000000" stroke="none" stroke-width="0" stroke-linecap="butt"/><path d="M254.75,169.70834v-7.33334" fill="none" stroke="#000000" stroke-width="1" stroke-linecap="round"/><path d="M250.7544,162.59625l-2.5088,6.89085" fill="none" stroke="#000000" stroke-width="1" stroke-linecap="round"/><path d="M258.7456,162.59625l2.5088,6.89085" data-paper-data="{&quot;index&quot;:null}" fill="none" stroke="#000000" stroke-width="1" stroke-linecap="round"/></g><g><path d="M214.375,169.875l5.04688,-9.75h10.89063l5.3125,9.75z" fill="#592150" stroke="none" stroke-width="0" stroke-linecap="butt"/><path d="M219.125,160.125h11.25c0,0 -0.68629,4.5 -5.25,4.5c-4.56371,0 -6,-4.5 -6,-4.5z" fill="#000000" stroke="none" stroke-width="0" stroke-linecap="butt"/><path d="M224.75,162.375v7.33334" fill="none" stroke="#000000" stroke-width="1" stroke-linecap="round"/><path d="M220.7544,162.59625l-2.5088,6.89085" fill="none" stroke="#000000" stroke-width="1" stroke-linecap="round"/><path d="M228.7456,162.59625l2.5088,6.89085" data-paper-data="{&quot;index&quot;:null}" fill="none" stroke="#000000" stroke-width="1" stroke-linecap="round"/></g><g><path d="M214.375,199.875l5.04688,-9.75h10.89063l5.3125,9.75z" fill="#592150" stroke="none" stroke-width="0" stroke-linecap="butt"/><path d="M219.125,190.125h11.25c0,0 -0.68629,4.5 -5.25,4.5c-4.56371,0 -6,-4.5 -6,-4.5z" fill="#000000" stroke="none" stroke-width="0" stroke-linecap="butt"/><path d="M224.75,192.375v7.33334" fill="none" stroke="#000000" stroke-width="1" stroke-linecap="round"/><path d="M220.7544,192.59625l-2.5088,6.89085" fill="none" stroke="#000000" stroke-width="1" stroke-linecap="round"/><path d="M228.7456,192.59625l2.5088,6.89085" data-paper-data="{&quot;index&quot;:null}" fill="none" stroke="#000000" stroke-width="1" stroke-linecap="round"/></g><g><path d="M244.375,199.875l5.04688,-9.75h10.89063l5.3125,9.75z" fill="#592150" stroke="none" stroke-width="0" stroke-linecap="butt"/><path d="M249.125,190.125h11.25c0,0 -0.68629,4.5 -5.25,4.5c-4.56371,0 -6,-4.5 -6,-4.5z" fill="#000000" stroke="none" stroke-width="0" stroke-linecap="butt"/><path d="M254.75,192.375v7.33334" fill="none" stroke="#000000" stroke-width="1" stroke-linecap="round"/><path d="M250.7544,192.59625l-2.5088,6.89085" fill="none" stroke="#000000" stroke-width="1" stroke-linecap="round"/><path d="M258.7456,192.59625l2.5088,6.89085" data-paper-data="{&quot;index&quot;:null}" fill="none" stroke="#000000" stroke-width="1" stroke-linecap="round"/></g></g></g></svg>