<svg version="1.1" xmlns="http://www.w3.org/2000/svg" xmlns:xlink="http://www.w3.org/1999/xlink" width="59.63044" height="59.63044" viewBox="0,0,59.63044,59.63044"><g transform="translate(-210.18478,-150.18479)"><g data-paper-data="{&quot;isPaintingLayer&quot;:true}" fill-rule="nonzero" stroke-linecap="butt" stroke-linejoin="miter" stroke-miterlimit="10" stroke-dasharray="" stroke-dashoffset="0" style="mix-blend-mode: normal"><path d="M211.18478,208.81523v-57.63044h57.63044v57.63044z" fill="#feedcf" stroke="#808080" stroke-width="2"/><g><path d="M239.88348,174.22409l-9.25667,-9.25667l5.49197,-5.7647l7.12031,-0.13637l5.90107,5.90107z" fill="#62b4ec" stroke="#3d8fc1" stroke-width="0.5"/><path d="M230.88348,165.05832h4.84257l3.83371,8.27273z" fill="#3d8fc1" stroke="none" stroke-width="0"/><path d="M240.0653,173.33105l3.83371,-8.27273h4.84258z" data-paper-data="{&quot;index&quot;:null}" fill="#3d8fc1" stroke="none" stroke-width="0"/><path d="M235.79257,165.24014l1.54546,-6h5.09091l1.45455,6z" fill="#3d8fc1" stroke="none" stroke-width="0"/></g><g><path d="M239.75848,204.47409l-9.25667,-9.25667l5.49197,-5.7647l7.12031,-0.13637l5.90107,5.90107z" fill="#62b4ec" stroke="#3d8fc1" stroke-width="0.5"/><path d="M230.75848,195.30832h4.84257l3.83371,8.27273z" fill="#3d8fc1" stroke="none" stroke-width="0"/><path d="M239.9403,203.58105l3.83371,-8.27273h4.84258z" data-paper-data="{&quot;index&quot;:null}" fill="#3d8fc1" stroke="none" stroke-width="0"/><path d="M235.66757,195.49014l1.54546,-6h5.09091l1.45455,6z" fill="#3d8fc1" stroke="none" stroke-width="0"/></g><g><path d="M255.00848,189.22409l-9.25667,-9.25667l5.49197,-5.7647l7.12031,-0.13637l5.90107,5.90107z" fill="#f2474f" stroke="#863637" stroke-width="0.5"/><path d="M246.00848,180.05832h4.84257l3.83371,8.27273z" fill="#863637" stroke="none" stroke-width="0"/><path d="M255.1903,188.33105l3.83371,-8.27273h4.84258z" data-paper-data="{&quot;index&quot;:null}" fill="#863637" stroke="none" stroke-width="0"/><path d="M250.91757,180.24014l1.54546,-6h5.09091l1.45455,6z" fill="#863637" stroke="none" stroke-width="0"/></g><g><path d="M224.75847,189.34909l-9.25667,-9.25667l5.49197,-5.7647l7.12031,-0.13637l5.90107,5.90107z" fill="#f2474f" stroke="#863637" stroke-width="0.5"/><path d="M215.75847,180.18332h4.84257l3.83371,8.27273z" fill="#863637" stroke="none" stroke-width="0"/><path d="M224.9403,188.45605l3.83371,-8.27273h4.84258z" data-paper-data="{&quot;index&quot;:null}" fill="#863637" stroke="none" stroke-width="0"/><path d="M220.66756,180.36514l1.54546,-6h5.09091l1.45455,6z" fill="#863637" stroke="none" stroke-width="0"/></g></g></g></svg>