<svg version="1.1" xmlns="http://www.w3.org/2000/svg" xmlns:xlink="http://www.w3.org/1999/xlink" width="573.41176" height="367.57726" viewBox="0,0,573.41176,367.57726"><g transform="translate(-1.85478,3.1268)"><g data-paper-data="{&quot;isPaintingLayer&quot;:true}" fill-rule="nonzero" stroke-linejoin="miter" stroke-miterlimit="10" stroke-dasharray="" stroke-dashoffset="0" style="mix-blend-mode: normal"><path d="M214.00736,-0.09187v360.18382l-0.92831,-362.96875" fill="none" stroke="#13b5eb" stroke-width="0.5" stroke-linecap="round"/><path d="M244.0717,2.1232v360.18382l-0.92831,-362.96875" fill="none" stroke="#13b5eb" stroke-width="0.5" stroke-linecap="round"/><path d="M273.20773,1.55335v360.18382l-0.92831,-362.96875" fill="none" stroke="#13b5eb" stroke-width="0.5" stroke-linecap="round"/><path d="M303.27207,1.91181v360.18382l-0.92831,-362.96875" fill="none" stroke="#13b5eb" stroke-width="0.5" stroke-linecap="round"/><path d="M332.4081,1.34195v360.18382l-0.92831,-362.96875" fill="none" stroke="#13b5eb" stroke-width="0.5" stroke-linecap="round"/><path d="M362.47244,0.7721v360.18382l-0.92831,-362.96875" fill="none" stroke="#13b5eb" stroke-width="0.5" stroke-linecap="round"/><path d="M393.46508,1.13055v360.18382l-0.92831,-362.96875" fill="none" stroke="#13b5eb" stroke-width="0.5" stroke-linecap="round"/><path d="M423.52942,1.48901v360.18382l-0.92831,-362.96875" fill="none" stroke="#13b5eb" stroke-width="0.5" stroke-linecap="round"/><path d="M453.59376,1.84746v360.18382l-0.92831,-362.96875" fill="none" stroke="#13b5eb" stroke-width="0.5" stroke-linecap="round"/><path d="M481.80148,2.2059v360.18382l-0.92831,-362.96875" fill="none" stroke="#13b5eb" stroke-width="0.5" stroke-linecap="round"/><path d="M214.23714,1.99452v360.18382l-0.92831,-362.96875" fill="none" stroke="#13b5eb" stroke-width="0.5" stroke-linecap="round"/><path d="M479.01196,29.61401h-297.49541h298.91544" fill="none" stroke="#13b5eb" stroke-width="0.5" stroke-linecap="round"/><path d="M183.73162,60.60666h390.81801" fill="none" stroke="#4ec7f0" stroke-width="0" stroke-linecap="round"/><path d="M183.16177,91.59932h390.81802" fill="none" stroke="#4ec7f0" stroke-width="0" stroke-linecap="round"/><path d="M575.26654,119.80704h-390.81801" fill="none" stroke="#4ec7f0" stroke-width="0" stroke-linecap="round"/><path d="M182.95037,149.87138h390.81801" fill="none" stroke="#4ec7f0" stroke-width="0" stroke-linecap="round"/><path d="M570.4136,179.93573h-390.81801" fill="none" stroke="#4ec7f0" stroke-width="0" stroke-linecap="round"/><path d="M573.557,210.00006h-390.81802" fill="none" stroke="#4ec7f0" stroke-width="0" stroke-linecap="round"/><path d="M182.16912,269.77027h390.81801" fill="none" stroke="#4ec7f0" stroke-width="0" stroke-linecap="round"/><path d="M179.74265,299.83457h390.81801" fill="none" stroke="#4ec7f0" stroke-width="0" stroke-linecap="round"/><path d="M570.91913,329.89896h-390.81802" fill="none" stroke="#4ec7f0" stroke-width="0" stroke-linecap="round"/><path d="M479.37483,60.60666h-296.57152h297.98713" fill="none" stroke="#13b5eb" stroke-width="0.5" stroke-linecap="round"/><path d="M480.22059,90.67102h-297.98713h296.57151" fill="none" stroke="#13b5eb" stroke-width="0.5" stroke-linecap="round"/><path d="M480.57905,120.73535h-297.98713h296.57152" fill="none" stroke="#13b5eb" stroke-width="0.5" stroke-linecap="round"/><path d="M480.9375,149.87138h-297.98713h296.57152" fill="none" stroke="#13b5eb" stroke-width="0.5" stroke-linecap="round"/><path d="M480.36765,179.93573h-297.98713h296.57151" fill="none" stroke="#13b5eb" stroke-width="0.5" stroke-linecap="round"/><path d="M481.65441,210.92838h-297.98713h296.57152" fill="none" stroke="#13b5eb" stroke-width="0.5" stroke-linecap="round"/><path d="M479.66894,239.13608h-296.57151h297.98713" fill="none" stroke="#13b5eb" stroke-width="0.5" stroke-linecap="round"/><path d="M481.51471,271.1287h-297.98713h296.57151" fill="none" stroke="#13b5eb" stroke-width="0.5" stroke-linecap="round"/><path d="M481.87316,300.19306h-297.98713h296.57151" fill="none" stroke="#13b5eb" stroke-width="0.5" stroke-linecap="round"/><path d="M481.23162,330.25739h-297.98713h296.57152" fill="none" stroke="#13b5eb" stroke-width="0.5" stroke-linecap="round"/><path d="M189.56066,360.97154v-361h293v361z" fill="#ffffff" stroke="#13b5eb" stroke-width="0.5" stroke-linecap="butt"/><path d="M274.56066,179.97156v-30h30v30z" fill="#67c564" stroke="#386a36" stroke-width="0.5" stroke-linecap="butt"/><path d="M245.56066,179.97156v-30h30v30z" fill="#67c564" stroke="#386a36" stroke-width="0.5" stroke-linecap="butt"/><path d="M245.56066,239.97156v-30h30v30z" fill="#67c564" stroke="#386a36" stroke-width="0.5" stroke-linecap="butt"/><path d="M245.56066,209.97155v-30h30v30z" fill="#67c564" stroke="#386a36" stroke-width="0.5" stroke-linecap="butt"/><path d="M245.56066,268.97154v-30h30v30z" fill="#67c564" stroke="#386a36" stroke-width="0.5" stroke-linecap="butt"/><path d="M275.56066,268.97154v-30h30v30z" fill="#67c564" stroke="#396c37" stroke-width="0.5" stroke-linecap="butt"/><path d="M304.56066,179.97156v-30h30v30z" fill="#67c564" stroke="#386a36" stroke-width="0.5" stroke-linecap="butt"/><path d="M1.85478,364.45045v-363.89706h211.32052v363.89707z" fill="#fff1f1" stroke="none" stroke-width="0" stroke-linecap="butt"/></g></g></svg>