<svg version="1.1" xmlns="http://www.w3.org/2000/svg" xmlns:xlink="http://www.w3.org/1999/xlink" width="59.63044" height="59.63044" viewBox="0,0,59.63044,59.63044"><g transform="translate(-210.18478,-150.18478)"><g data-paper-data="{&quot;isPaintingLayer&quot;:true}" fill-rule="nonzero" stroke-linejoin="miter" stroke-miterlimit="10" stroke-dasharray="" stroke-dashoffset="0" style="mix-blend-mode: normal"><g><path d="M268.81522,151.18478v57.63044h-57.63044v-57.63044z" fill="#269b79" stroke="#808080" stroke-width="2" stroke-linecap="butt"/><g fill="none" stroke="#70c292" stroke-width="2.5" stroke-linecap="round"><path d="M218.41243,161.52266v-6.17469"/><path d="M218.36851,164.85975v6.17469"/><path d="M218.3246,174.23431v6.17469"/><path d="M218.41789,183.8833v6.17469"/><path d="M218.37397,199.56976v-6.17469"/></g><g fill="none" stroke="#70c292" stroke-width="2.5" stroke-linecap="round"><path d="M223.17105,166.36911v-6.17469"/><path d="M223.12713,169.7062v6.17469"/><path d="M223.08321,179.08076v6.17469"/><path d="M223.17651,188.72975v6.17469"/><path d="M223.13259,204.41622v-6.17469"/></g><g fill="none" stroke="#70c292" stroke-width="2.5" stroke-linecap="round"><path d="M227.92967,161.47328v-6.17469"/><path d="M227.88575,164.81036v6.17469"/><path d="M227.84183,180.35962v-6.17469"/><path d="M227.93513,190.00861v-6.17469"/><path d="M227.89121,193.3457v6.17469"/></g><g fill="none" stroke="#70c292" stroke-width="2.5" stroke-linecap="round"><path d="M232.68828,160.00783v6.17469"/><path d="M232.64436,169.51961v6.17469"/><path d="M232.60045,178.89417v6.17469"/><path d="M232.69375,188.54316v6.17469"/><path d="M232.64983,198.05494v6.17469"/></g><g fill="none" stroke="#70c292" stroke-width="2.5" stroke-linecap="round"><path d="M242.24944,166.36365v-6.17469"/><path d="M242.20552,175.87543v-6.17469"/><path d="M242.1616,179.0753v6.17469"/><path d="M242.2549,188.72429v6.17469"/><path d="M242.21099,204.41076v-6.17469"/></g><g fill="none" stroke="#70c292" stroke-width="2.5" stroke-linecap="round"><path d="M251.67338,166.40757v-6.17469"/><path d="M251.62946,169.74466v6.17469"/><path d="M251.58554,185.29391v-6.17469"/><path d="M251.67884,188.76821v6.17469"/><path d="M251.63493,204.45467v-6.17469"/></g><g fill="none" stroke="#70c292" stroke-width="2.5" stroke-linecap="round"><path d="M261.37175,160.2768v6.17469"/><path d="M261.32783,175.96326v-6.17469"/><path d="M261.28391,179.16314v6.17469"/><path d="M261.37721,194.98681v-6.17469"/><path d="M261.3333,198.3239v6.17469"/></g><g fill="none" stroke="#70c292" stroke-width="2.5" stroke-linecap="round"><path d="M246.82146,155.47972v6.17469"/><path d="M246.77755,164.9915v6.17469"/><path d="M246.73363,174.36606v6.17469"/><path d="M246.82693,184.01505v6.17469"/><path d="M246.78301,199.70152v-6.17469"/></g><g fill="none" stroke="#70c292" stroke-width="2.5" stroke-linecap="round"><path d="M237.58412,161.83555v-6.17469"/><path d="M237.5402,165.17263v6.17469"/><path d="M237.49628,180.72188v-6.17469"/><path d="M237.58958,190.37088v-6.17469"/><path d="M237.54566,199.88265v-6.17469"/></g><g fill="none" stroke="#70c292" stroke-width="2.5" stroke-linecap="round"><path d="M256.47592,155.56756v6.17469"/><path d="M256.432,165.07933v6.17469"/><path d="M256.38808,174.4539v6.17469"/><path d="M256.48138,184.10289v6.17469"/><path d="M256.43746,199.78936v-6.17469"/></g></g></g></g></svg>