<svg version="1.1" xmlns="http://www.w3.org/2000/svg" xmlns:xlink="http://www.w3.org/1999/xlink" width="402.04634" height="504.9364" viewBox="0,0,402.04634,504.9364"><g transform="translate(11.39476,72.43042)"><g data-paper-data="{&quot;isPaintingLayer&quot;:true}" fill-rule="nonzero" stroke-linejoin="miter" stroke-miterlimit="10" stroke-dasharray="" stroke-dashoffset="0" style="mix-blend-mode: normal"><path d="M49.85338,124.10562c0,0 0.38938,-25.26127 23.36669,-25.26127c22.97731,0 23.36668,25.26127 23.36668,25.26127h-24.50652z" fill="#ffffff" stroke="none" stroke-width="0" stroke-linecap="butt"/><path d="M51.34546,186.22479c0,0 0.38937,-25.26127 23.36668,-25.26127c22.97731,0 23.36668,25.26127 23.36668,25.26127h-24.50652z" fill="#ffffff" stroke="none" stroke-width="0" stroke-linecap="butt"/><path d="M50.31142,249.60702c0,0 0.38937,-25.26128 23.36668,-25.26128c22.97731,0 23.36668,25.26128 23.36668,25.26128h-24.50652z" fill="#ffffff" stroke="none" stroke-width="0" stroke-linecap="butt"/><path d="M50.54044,311.72612c0,0 0.38937,-25.26127 23.36668,-25.26127c22.97731,0 23.36668,25.26127 23.36668,25.26127h-24.50652z" fill="#ffffff" stroke="none" stroke-width="0" stroke-linecap="butt"/><g fill="none" stroke="none" stroke-width="0" stroke-linecap="butt"><path d="M217.03588,312.76016c0,0 0.38937,-25.26127 23.36669,-25.26127c22.97731,0 23.36668,25.26127 23.36668,25.26127h-24.50652z"/><path d="M216.80684,250.64104c0,0 0.38937,-25.26128 23.36668,-25.26128c22.97731,0 23.36668,25.26128 23.36668,25.26128h-24.50652z"/><path d="M217.84088,187.25883c0,0 0.38937,-25.26128 23.36669,-25.26128c22.97731,0 23.36668,25.26128 23.36668,25.26128h-24.50652z"/><path d="M216.34878,123.8766c0,0 0.38937,-25.26128 23.36669,-25.26128c22.97731,0 23.36668,25.26128 23.36668,25.26128h-24.50652z"/><path d="M154.40839,66.80969h24.50652c0,0 -0.38937,25.26128 -23.36668,25.26128c-22.97731,0 -23.36669,-25.26128 -23.36669,-25.26128z" data-paper-data="{&quot;index&quot;:null}"/><path d="M154.17936,128.92881h24.50652c0,0 -0.38937,25.26128 -23.36668,25.26128c-22.97731,0 -23.36669,-25.26128 -23.36669,-25.26128z" data-paper-data="{&quot;index&quot;:null}"/><path d="M155.21342,192.31105h24.50652c0,0 -0.38937,25.26128 -23.36668,25.26128c-22.97731,0 -23.36669,-25.26128 -23.36669,-25.26128z" data-paper-data="{&quot;index&quot;:null}"/><path d="M153.72132,254.43022h24.50652c0,0 -0.38937,25.26128 -23.36668,25.26128c-22.97731,0 -23.36669,-25.26128 -23.36669,-25.26128z" data-paper-data="{&quot;index&quot;:null}"/><path d="M343.1132,282.21761c0,0 0.38938,-25.26128 23.36669,-25.26128c22.97731,0 23.36668,25.26128 23.36668,25.26128h-24.50652z"/><path d="M342.88421,220.09844c0,0 0.38938,-25.26128 23.36669,-25.26128c22.97731,0 23.36668,25.26128 23.36668,25.26128h-24.50652z"/><path d="M343.91823,156.71618c0,0 0.38937,-25.26127 23.36668,-25.26127c22.97731,0 23.36668,25.26127 23.36668,25.26127h-24.50652z"/><path d="M342.42612,94.59708c0,0 0.38937,-25.26128 23.36668,-25.26128c22.97731,0 23.36668,25.26128 23.36668,25.26128h-24.50652z"/></g><path d="M-0.63957,416.86226c-8.47425,-11.48181 -9.00519,-25.26127 -9.00519,-25.26127v-212.19474v-209.66862c0,0 4.33427,-18.13345 9.82384,-26.52433c5.48957,-8.39088 16.61888,-13.89371 16.61888,-13.89371h126.89125h138.3524c0,0 10.59015,-1.61665 20.46633,10.10451c9.87618,11.72118 11.46114,27.7874 11.46114,27.7874v212.19475v203.35329c0,0 -0.45403,23.89266 -6.54922,34.10274c-6.0952,10.21006 -22.10363,13.89371 -22.10363,13.89371h-132.62182h-133.44047c0,0 -11.41925,-2.4119 -19.8935,-13.89371z" fill="#edd2bd" stroke="#419acf" stroke-width="3.5" stroke-linecap="butt"/><path d="M73.27561,6.06465v338.50113" fill="none" stroke="#419acf" stroke-width="4.5" stroke-linecap="round"/><path d="M155.14573,344.33677v-338.50113" fill="none" stroke="#419acf" stroke-width="4.5" stroke-linecap="round"/><path d="M240.1641,30.86789v310.71371" fill="none" stroke="#419acf" stroke-width="4.5" stroke-linecap="round"/><path d="M156.39163,348.18612c0,20.79142 18.66809,37.6462 41.69636,37.6462c23.02826,0 41.69636,-16.85478 41.69636,-37.6462c0,-12.57787 2.01002,8.40533 -8.8211,23.642c-7.0729,9.94982 -24.93627,15.04994 -34.03348,15.04994c-9.51876,0 -26.20227,-5.98033 -32.98838,-16.43648c-9.63121,-14.83992 -7.54974,-34.45271 -7.54974,-22.25544z" data-paper-data="{&quot;index&quot;:null}" fill="none" stroke="#419acf" stroke-width="4.5" stroke-linecap="butt"/><path d="M80.23336,-18.37496c6.68376,-10.45615 23.11559,-16.43648 32.49076,-16.43648c8.96,0 26.55387,5.10012 33.52009,15.04994c10.66772,15.23667 8.68803,36.21987 8.68803,23.642c0,-20.79143 -18.38647,-37.6462 -41.06735,-37.6462c-22.68088,0 -41.06735,16.85478 -41.06735,37.64621c0,12.19727 -2.05009,-7.41552 7.43584,-22.25544z" data-paper-data="{&quot;index&quot;:null}" fill="none" stroke="#419acf" stroke-width="4.5" stroke-linecap="butt"/><path d="M64.43416,357.19643l8.84145,-10.1045l8.84144,10.1045z" fill="#419acf" stroke="#419acf" stroke-width="4.5" stroke-linecap="butt"/><text transform="translate(31.76137,399.0673) scale(0.73494,0.73494)" font-size="40" xml:space="preserve" fill="#419acf" fill-rule="nonzero" stroke="none" stroke-width="1" stroke-linecap="butt" stroke-linejoin="miter" stroke-miterlimit="10" stroke-dasharray="" stroke-dashoffset="0" font-family="Sans Serif" font-weight="normal" text-anchor="start" style="mix-blend-mode: normal"><tspan x="0" dy="0">START</tspan></text></g></g></svg>