<svg version="1.1" xmlns="http://www.w3.org/2000/svg" xmlns:xlink="http://www.w3.org/1999/xlink" width="574.41176" height="366.12007" viewBox="0,0,574.41176,366.12007"><g transform="translate(-0.85478,3.44661)"><g data-paper-data="{&quot;isPaintingLayer&quot;:true}" fill-rule="nonzero" stroke-linejoin="miter" stroke-miterlimit="10" stroke-dasharray="" stroke-dashoffset="0" style="mix-blend-mode: normal"><path d="M214.00736,-0.09188v360.18382l-0.92831,-362.96875" fill="none" stroke="#13b5eb" stroke-width="0.5" stroke-linecap="round"/><path d="M244.0717,2.12319v360.18382l-0.92831,-362.96875" fill="none" stroke="#13b5eb" stroke-width="0.5" stroke-linecap="round"/><path d="M273.20773,1.55334v360.18382l-0.92831,-362.96875" fill="none" stroke="#13b5eb" stroke-width="0.5" stroke-linecap="round"/><path d="M303.27207,1.9118v360.18382l-0.92831,-362.96875" fill="none" stroke="#13b5eb" stroke-width="0.5" stroke-linecap="round"/><path d="M332.4081,1.34194v360.18382l-0.92831,-362.96875" fill="none" stroke="#13b5eb" stroke-width="0.5" stroke-linecap="round"/><path d="M362.47244,0.77209v360.18382l-0.92831,-362.96875" fill="none" stroke="#13b5eb" stroke-width="0.5" stroke-linecap="round"/><path d="M393.46508,1.13054v360.18382l-0.92831,-362.96875" fill="none" stroke="#13b5eb" stroke-width="0.5" stroke-linecap="round"/><path d="M423.52942,2.489v360.18382l-0.92831,-362.96875" fill="none" stroke="#13b5eb" stroke-width="0.5" stroke-linecap="round"/><path d="M453.59376,1.84745v360.18382l-0.92831,-362.96875" fill="none" stroke="#13b5eb" stroke-width="0.5" stroke-linecap="round"/><path d="M481.80148,2.20589v360.18382l-0.92831,-362.96875" fill="none" stroke="#13b5eb" stroke-width="0.5" stroke-linecap="round"/><path d="M214.23714,1.99451v360.18382l-0.92831,-362.96875" fill="none" stroke="#13b5eb" stroke-width="0.5" stroke-linecap="round"/><path d="M480.43199,29.614h-298.91544h297.49541" fill="none" stroke="#13b5eb" stroke-width="0.5" stroke-linecap="round"/><path d="M574.54963,60.60665h-390.81801" fill="none" stroke="#4ec7f0" stroke-width="0" stroke-linecap="round"/><path d="M183.16177,91.59931h390.81802" fill="none" stroke="#4ec7f0" stroke-width="0" stroke-linecap="round"/><path d="M575.26654,119.80703h-390.81801" fill="none" stroke="#4ec7f0" stroke-width="0" stroke-linecap="round"/><path d="M573.76838,149.87137h-390.81801" fill="none" stroke="#4ec7f0" stroke-width="0" stroke-linecap="round"/><path d="M179.59559,179.93572h390.81801" fill="none" stroke="#4ec7f0" stroke-width="0" stroke-linecap="round"/><path d="M573.557,210.00005h-390.81802" fill="none" stroke="#4ec7f0" stroke-width="0" stroke-linecap="round"/><path d="M182.16912,269.77027h390.81801" fill="none" stroke="#4ec7f0" stroke-width="0" stroke-linecap="round"/><path d="M570.56066,299.83457h-390.81801" fill="none" stroke="#4ec7f0" stroke-width="0" stroke-linecap="round"/><path d="M180.10111,329.89896h390.81802" fill="none" stroke="#4ec7f0" stroke-width="0" stroke-linecap="round"/><path d="M480.79044,60.60665h-297.98713h296.57152" fill="none" stroke="#13b5eb" stroke-width="0.5" stroke-linecap="round"/><path d="M480.22059,90.67101h-297.98713h296.57151" fill="none" stroke="#13b5eb" stroke-width="0.5" stroke-linecap="round"/><path d="M479.16344,120.73534h-296.57152h297.98713" fill="none" stroke="#13b5eb" stroke-width="0.5" stroke-linecap="round"/><path d="M480.9375,149.87137h-297.98713h296.57152" fill="none" stroke="#13b5eb" stroke-width="0.5" stroke-linecap="round"/><path d="M478.95203,179.93572h-296.57151h297.98713" fill="none" stroke="#13b5eb" stroke-width="0.5" stroke-linecap="round"/><path d="M481.65441,210.92837h-297.98713h296.57152" fill="none" stroke="#13b5eb" stroke-width="0.5" stroke-linecap="round"/><path d="M479.66894,239.13607h-296.57151h297.98713" fill="none" stroke="#13b5eb" stroke-width="0.5" stroke-linecap="round"/><path d="M479.09909,270.1287h-296.57151h297.98713" fill="none" stroke="#13b5eb" stroke-width="0.5" stroke-linecap="round"/><path d="M481.87316,300.19306h-297.98713h296.57151" fill="none" stroke="#13b5eb" stroke-width="0.5" stroke-linecap="round"/><path d="M481.23162,330.25739h-297.98713h296.57152" fill="none" stroke="#13b5eb" stroke-width="0.5" stroke-linecap="round"/><path d="M188.56066,359.97153v-361h293v361z" fill="#ffffff" stroke="#13b5eb" stroke-width="0.5" stroke-linecap="butt"/><path d="M333.56066,209.97155v-30h30v30z" fill="#67c564" stroke="#396c37" stroke-width="0.5" stroke-linecap="butt"/><path d="M333.56066,179.97155v-30h30v30z" fill="#67c564" stroke="#396c37" stroke-width="0.5" stroke-linecap="butt"/><path d="M363.56066,209.97155v-30h30v30z" fill="#67c564" stroke="#396c37" stroke-width="0.5" stroke-linecap="butt"/><path d="M363.56066,239.97154v-30h30v30z" fill="#67c564" stroke="#396c37" stroke-width="0.5" stroke-linecap="butt"/><path d="M392.56066,269.97153v-30h30v30z" fill="#67c564" stroke="#396c37" stroke-width="0.5" stroke-linecap="butt"/><path d="M363.56066,269.97153v-30h30v30z" fill="#67c564" stroke="#396c37" stroke-width="0.5" stroke-linecap="butt"/><path d="M303.56066,179.97155v-30h30v30z" fill="#67c564" stroke="#396c37" stroke-width="0.5" stroke-linecap="butt"/><path d="M0.85478,360.45045v-363.89706h211.32052v363.89707z" fill="#fff1f1" stroke="none" stroke-width="0" stroke-linecap="butt"/></g></g></svg>