<svg version="1.1" xmlns="http://www.w3.org/2000/svg" xmlns:xlink="http://www.w3.org/1999/xlink" width="59.63044" height="59.63044" viewBox="0,0,59.63044,59.63044"><g transform="translate(-210.18478,-150.18478)"><g data-paper-data="{&quot;isPaintingLayer&quot;:true}" fill-rule="nonzero" stroke-linecap="butt" stroke-linejoin="miter" stroke-miterlimit="10" stroke-dasharray="" stroke-dashoffset="0" style="mix-blend-mode: normal"><path d="M211.18478,208.81522v-57.63044h57.63044v57.63044z" fill="#90d7f4" stroke="#808080" stroke-width="2"/><path d="" fill="#ffffff" stroke="none" stroke-width="0"/><path d="" fill="#ffffff" stroke="none" stroke-width="0"/><path d="" fill="#da703f" stroke="none" stroke-width="0"/><path d="" fill="#8c3a27" stroke="none" stroke-width="0"/><path d="" fill="#da703f" stroke="none" stroke-width="0"/><path d="" fill="#da703f" stroke="none" stroke-width="0"/><path d="" fill="#ed383c" stroke="none" stroke-width="0"/><path d="" fill="#ed383c" stroke="none" stroke-width="0"/><path d="" fill="#ed383c" stroke="none" stroke-width="0"/><path d="" fill="#ed383c" stroke="none" stroke-width="0"/><path d="" fill="#70c793" stroke="none" stroke-width="0"/><path d="M221.67899,198.56061c0,-2.48528 2.08934,-4.5 4.66667,-4.5c2.57733,0 4.66667,2.01472 4.66667,4.5c0,2.48528 -2.08934,4.5 -4.66667,4.5c-2.57733,0 -4.66667,-2.01472 -4.66667,-4.5z" fill="#000000" stroke="none" stroke-width="0"/><path d="M245.34565,198.56061c0,-2.48528 2.08934,-4.5 4.66667,-4.5c2.57733,0 4.66667,2.01472 4.66667,4.5c0,2.48528 -2.08934,4.5 -4.66667,4.5c-2.57733,0 -4.66667,-2.01472 -4.66667,-4.5z" fill="#000000" stroke="none" stroke-width="0"/><path d="M218.67899,198.72728v-12.33333h12.66666v12.33333z" fill="#f19452" stroke="none" stroke-width="0"/><path d="M219.34565,190.72727c0,-1.10457 0.89543,-2 2,-2c1.10457,0 2,0.89543 2,2c0,1.10457 -0.89543,2 -2,2c-1.10457,0 -2,-0.89543 -2,-2z" fill="#ffd77e" stroke="none" stroke-width="0"/><path d="M225.01232,190.72728c0,-1.10457 0.89543,-2 2,-2c1.10457,0 2,0.89543 2,2c0,1.10457 -0.89543,2 -2,2c-1.10457,0 -2,-0.89543 -2,-2z" fill="#ffd77e" stroke="none" stroke-width="0"/><path d="M249.77423,156.39394l6.90476,5.33334h-9.66667z" fill="#f19452" stroke="none" stroke-width="0"/><path d="M237.01232,161.39394l4,-5l10,0.33333l-2.66667,4.66667z" fill="#ffd77e" stroke="none" stroke-width="0"/><path d="M246.01232,188.72728v-26.33334c0,0 7.99449,0 10.76087,0c1.73631,0 4.23913,2.14316 4.23913,4.02745c0,4.43449 0,22.30588 0,22.30588z" data-paper-data="{&quot;index&quot;:null}" fill="#ffffff" stroke="#ffd77e" stroke-width="2"/><path d="M231.67899,188.72727c0,0 0,-17.87139 0,-22.30588c0,-1.8843 2.39159,-4.02745 4.05072,-4.02745c2.64342,0 10.28261,0 10.28261,0v26.33333z" fill="#ffffff" stroke="#f19452" stroke-width="2"/><path d="M231.01232,198.72727v-12.33333h31v12.33333z" fill="#ffd77e" stroke="none" stroke-width="0"/><text transform="translate(241.26801,194.89394) scale(0.22553,0.22553)" font-size="40" xml:space="preserve" fill="#f19452" fill-rule="nonzero" stroke="none" stroke-width="1" stroke-linecap="butt" stroke-linejoin="miter" stroke-miterlimit="10" stroke-dasharray="" stroke-dashoffset="0" font-family="Pixel" font-weight="normal" text-anchor="start" style="mix-blend-mode: normal"><tspan x="0" dy="0">CB</tspan></text><g stroke="none" stroke-width="0"><path d="M232.01232,198.89394c0,-2.48528 2.08934,-4.5 4.66666,-4.5c2.57733,0 4.66667,2.01472 4.66667,4.5c0,2.48528 -2.08934,4.5 -4.66667,4.5c-2.57733,0 -4.66666,-2.01472 -4.66666,-4.5z" fill="#000000"/><path d="M234.34565,199.06061c0,-1.28866 1.04467,-2.33333 2.33333,-2.33333c1.28866,0 2.33333,1.04467 2.33333,2.33333c0,1.28866 -1.04467,2.33333 -2.33333,2.33333c-1.28866,0 -2.33333,-1.04467 -2.33333,-2.33333z" fill="#ffffff"/></g><path d="M251.67899,198.89394c0,-2.48528 2.08934,-4.5 4.66666,-4.5c2.57733,0 4.66667,2.01472 4.66667,4.5c0,2.48528 -2.08934,4.5 -4.66667,4.5c-2.57733,0 -4.66666,-2.01472 -4.66666,-4.5z" fill="#000000" stroke="none" stroke-width="0"/><path d="M254.01232,199.06061c0,-1.28867 1.04467,-2.33334 2.33333,-2.33334c1.28867,0 2.33334,1.04467 2.33334,2.33334c0,1.28867 -1.04467,2.33333 -2.33334,2.33333c-1.28866,0 -2.33333,-1.04466 -2.33333,-2.33333z" fill="#ffffff" stroke="none" stroke-width="0"/></g></g></svg>