<svg version="1.1" xmlns="http://www.w3.org/2000/svg" xmlns:xlink="http://www.w3.org/1999/xlink" width="59.63044" height="59.63044" viewBox="0,0,59.63044,59.63044"><g transform="translate(-209.51771,-150.35145)"><g data-paper-data="{&quot;isPaintingLayer&quot;:true}" fill-rule="nonzero" stroke-linejoin="miter" stroke-miterlimit="10" stroke-dasharray="" stroke-dashoffset="0" style="mix-blend-mode: normal"><path d="M210.51772,208.98189v-57.63044h57.63044v57.63044z" fill="#000000" stroke="#808080" stroke-width="2" stroke-linecap="butt"/><path d="M226.72007,186.45873c0,-7.33432 5.94564,-13.27996 13.27996,-13.27996c7.33432,0 13.27996,5.94564 13.27996,13.27996c0,7.33432 -5.94564,13.27996 -13.27996,13.27996c-7.33432,0 -13.27996,-5.94564 -13.27996,-13.27996z" fill="#ffffff" stroke="none" stroke-width="0" stroke-linecap="butt"/><g><path d="M214.77477,199.10102v-25.28457h11.74509v25.28457z" fill="#5fb5ee" stroke="none" stroke-width="0" stroke-linecap="butt"/><path d="M220.6473,174.51344v23.89058" fill="none" stroke="#0d588e" stroke-width="1.5" stroke-linecap="round"/><path d="M215.30862,186.45873h10.67735" fill="none" stroke="#0d588e" stroke-width="1.5" stroke-linecap="round"/><path d="M225.98598,192.99861h-10.67735" fill="none" stroke="#0d588e" stroke-width="1.5" stroke-linecap="round"/><path d="M215.30862,179.91885h10.67735" fill="none" stroke="#0d588e" stroke-width="1.5" stroke-linecap="round"/></g><g data-paper-data="{&quot;index&quot;:null}"><path d="M253.48016,199.10102v-25.28457h11.74509v25.28457z" fill="#5fb5ee" stroke="none" stroke-width="0" stroke-linecap="butt"/><path d="M259.35272,174.51345v23.89058" fill="none" stroke="#0d588e" stroke-width="1.5" stroke-linecap="round"/><path d="M254.01404,186.45874h10.67735" fill="none" stroke="#0d588e" stroke-width="1.5" stroke-linecap="round"/><path d="M254.01405,192.99862h10.67735" fill="none" stroke="#0d588e" stroke-width="1.5" stroke-linecap="round"/><path d="M264.69139,179.91886h-10.67735" fill="none" stroke="#0d588e" stroke-width="1.5" stroke-linecap="round"/></g><g stroke="none" stroke-width="0" stroke-linecap="butt"><path d="M242.29746,184.16089l-4.63845,4.63845c0,0 -0.85169,-0.87433 -0.97469,-2.10602c-0.0866,-0.86715 0.42773,-2.10753 0.95694,-2.63673c0.53215,-0.53215 1.64972,-1.00115 2.52139,-0.91219c1.22642,0.12516 2.13481,1.01651 2.13481,1.01651z" fill="#feda7d"/><path d="M243.31435,186.29607c0.08895,0.87167 -0.38005,1.98922 -0.9122,2.52137c-0.52919,0.52919 -1.76958,1.04355 -2.63673,0.95695c-1.2317,-0.123 -2.10602,-0.97469 -2.10602,-0.97469l4.63845,-4.63845c0,0 0.89135,0.90839 1.01651,2.13481z" data-paper-data="{&quot;index&quot;:null}" fill="#fa9350"/></g><g stroke="none" stroke-width="0" stroke-linecap="butt"><path d="M234.27541,184.16089l-4.63843,4.63845c0,0 -0.85169,-0.87433 -0.97469,-2.10602c-0.0866,-0.86715 0.42773,-2.10753 0.95694,-2.63673c0.53215,-0.53215 1.64972,-1.00115 2.52139,-0.91219c1.22642,0.12516 2.1348,1.01651 2.1348,1.01651z" fill="#feda7d"/><path d="M235.2923,186.29607c0.08895,0.87167 -0.38005,1.98922 -0.9122,2.52137c-0.52919,0.52919 -1.76958,1.04355 -2.63673,0.95695c-1.2317,-0.123 -2.10602,-0.97469 -2.10602,-0.97469l4.63845,-4.63845c0,0 0.89135,0.90839 1.01651,2.13481z" data-paper-data="{&quot;index&quot;:null}" fill="#fa9350"/></g><g stroke="none" stroke-width="0" stroke-linecap="butt"><path d="M250.31952,184.16089l-4.63843,4.63845c0,0 -0.85169,-0.87433 -0.97469,-2.10602c-0.0866,-0.86715 0.42775,-2.10753 0.95695,-2.63673c0.53215,-0.53215 1.64972,-1.00115 2.52139,-0.91219c1.22642,0.12516 2.1348,1.01651 2.1348,1.01651z" fill="#feda7d"/><path d="M251.33641,186.29607c0.08895,0.87167 -0.38005,1.98922 -0.9122,2.52137c-0.52919,0.52919 -1.76958,1.04355 -2.63673,0.95695c-1.2317,-0.123 -2.10602,-0.97469 -2.10602,-0.97469l4.63845,-4.63845c0,0 0.89135,0.90839 1.01651,2.13481z" data-paper-data="{&quot;index&quot;:null}" fill="#fa9350"/></g><path d="M239.92578,168.14966v-5.61543h12.56789v5.61543z" fill="#fa9350" stroke="none" stroke-width="0" stroke-linecap="butt"/><path d="M239.99999,162.65997v15.50931" fill="none" stroke="#ffffff" stroke-width="2" stroke-linecap="round"/><path d="M233.7389,177.40058c-0.04353,-0.90144 0.1777,-2.70752 0.1777,-2.70752c0,0 1.43605,-1.54611 5.87209,-1.6763c4.19615,-0.12314 6.4284,1.81 6.4284,1.81c0,0 -0.01158,2.01793 0.03079,2.8833c0.03914,0.7994 0.23206,1.52883 -1.64258,1.52883c-2.2841,0 -7.56774,-0.13369 -9.09166,-0.13369c-2.01214,0 -1.72236,-0.62011 -1.77475,-1.70461z" fill="#fa9350" stroke="none" stroke-width="0" stroke-linecap="butt"/><path d="M249.01744,165.49206l6.15024,-5.23075v9.76017z" fill="#000000" stroke="none" stroke-width="0" stroke-linecap="butt"/><g stroke="none" stroke-width="0" stroke-linecap="butt"><path d="M223.75242,164.59805c0,-1.85017 1.49985,-3.35002 3.35002,-3.35002c1.85017,0 3.35002,1.49985 3.35002,3.35002c0,1.85017 -1.49985,3.35002 -3.35002,3.35002c-1.85017,0 -3.35002,-1.49985 -3.35002,-3.35002z" fill="#0d588e"/><path d="M224.12069,163.12499c0,0 0.28146,-0.50268 0.4708,-0.71963c0.1908,-0.21862 0.66963,-0.58712 0.66963,-0.58712l2.49469,-0.02376c0,0 0.21114,0.09813 0.24076,0.27289c0.02309,0.13624 0.02098,0.44204 0.01381,0.70104c-0.00312,0.11255 -0.0272,0.38618 -0.2731,0.46528c-0.2628,0.08453 -0.75192,-0.02609 -0.86834,0.07819c-0.23237,0.20817 0.07038,1.50465 -0.11637,1.72721c-0.2358,0.28104 -1.01113,0.34133 -1.27763,0.05788c-0.1813,-0.19283 0.11407,-1.70269 -0.13945,-1.8502c-0.32916,-0.19152 -1.21481,-0.1218 -1.21481,-0.1218z" fill="#5fb5ee"/><path d="M227.61326,164.57429c0,-0.22529 0,-0.49085 0,-0.61773c0,-0.14058 0.06761,-0.33263 0.30887,-0.33263c0.05204,0 0.10596,0 0.19007,0c0.05448,0 0.13542,0 0.19008,0c0.15237,0 0.2851,0.17601 0.2851,0.30887c0,0.13683 0,0.4463 0,0.68901c0,0.18589 -0.13657,0.33262 -0.23759,0.33262c-0.08759,0 -0.26756,0 -0.42766,0c-0.16498,0 -0.30887,-0.17306 -0.30887,-0.38014z" fill="#5fb5ee"/><path d="M224.91142,167.11684c0,0 -0.0299,-0.10287 -0.0299,-0.36972c0,-0.21465 -0.05414,-0.58098 0.32894,-0.58098c0.3599,0 0.58598,0 0.86721,0c0.41051,0 0.32894,0.36633 0.32894,0.58098c0,0.26685 -0.02376,1.03463 -0.02376,1.03463c0,0 -0.59291,-0.0753 -0.84076,-0.17161c-0.25052,-0.09734 -0.63066,-0.4933 -0.63066,-0.4933z" fill="#5fb5ee"/><path d="M223.96785,165.83372c0,0 -0.21264,-0.38826 -0.21398,-0.92667c-0.00167,-0.66901 0.12416,-0.97425 0.12416,-0.97425c0,0 0.36138,0 0.52454,0c0.12196,0 0.31969,0.22868 0.31969,0.4039c0,0.195 0,0.65726 0,0.99788c0,0.22958 -0.17066,0.4039 -0.28278,0.4039c-0.16455,0 -0.47163,0.09524 -0.47163,0.09524z" fill="#5fb5ee"/><path d="M227.23312,167.90055c0,0 0,-0.77645 0,-1.11667c0,-0.24755 0.31768,-0.6415 0.57022,-0.6415c0.49979,0 2.20959,0 2.20959,0c0,0 -0.2827,0.49666 -0.47545,0.71536c-0.21634,0.24546 -0.76002,0.68642 -0.76002,0.68642c0,0 -0.46075,0.17761 -0.70623,0.23426c-0.26742,0.06171 -0.83811,0.12213 -0.83811,0.12213z" fill="#5fb5ee"/><path d="M228.94376,166.1899c0,0 -0.03639,-0.80438 0.06496,-1.33172c0.07137,-0.37136 0.34222,-0.52149 0.41022,-0.52149c0.25867,0 0.99788,0 0.99788,0c0,0 -0.00304,0.71289 -0.05764,1.01109c-0.0473,0.25836 -0.34627,0.81836 -0.34627,0.81836z" fill="#5fb5ee"/></g></g></g></svg>