<svg version="1.1" xmlns="http://www.w3.org/2000/svg" xmlns:xlink="http://www.w3.org/1999/xlink" width="596.20806" height="395.78247" viewBox="0,0,596.20806,395.78247"><g transform="translate(-1.89597,-1.74271)"><g data-paper-data="{&quot;isPaintingLayer&quot;:true}" fill-rule="nonzero" stroke-linecap="butt" stroke-linejoin="miter" stroke-miterlimit="10" stroke-dasharray="" stroke-dashoffset="0" style="mix-blend-mode: normal"><path d="M6.14597,393.27518v-387.28247h587.70806v387.28247z" fill="#ffffff" stroke="#2d9200" stroke-width="8.5"/><text transform="translate(103.81261,73.6766) scale(0.62862,0.62862)" font-size="40" xml:space="preserve" fill="#2d9200" fill-rule="nonzero" stroke="none" stroke-width="1" stroke-linecap="butt" stroke-linejoin="miter" stroke-miterlimit="10" stroke-dasharray="" stroke-dashoffset="0" font-family="Sans Serif" font-weight="normal" text-anchor="start" style="mix-blend-mode: normal"><tspan x="0" dy="0">Please Wait While the App Loads</tspan></text><path d="M301.49767,366.42636c-21.67693,0 -39.24956,-20.92532 -39.24956,-46.73798c0,-25.81265 17.57263,-46.73798 39.24956,-46.73798c21.67693,0 39.24956,20.92537 39.24956,46.73798c0,25.81266 -17.57263,46.73798 -39.24956,46.73798z" fill="#00b900" stroke="#008000" stroke-width="1"/><g fill="#00b900" stroke="#008000" stroke-width="1.39668"><path d="M283.2292,150.08907c1.17174,-23.66075 9.18243,-40.66008 17.8924,-37.96905c8.70997,2.69103 14.82094,24.05338 13.64925,47.71413c-1.17174,23.66075 -9.18243,40.66002 -17.8924,37.96899c-8.70997,-2.69103 -14.82094,-24.05328 -13.6492,-47.71403z"/><g data-paper-data="{&quot;index&quot;:null}"><path d="M336.34878,253.68666c-6.24745,-6.17628 7.402,-19.83265 30.48692,-30.50246c23.08493,-10.66982 46.86356,-14.3126 53.11106,-8.13632c6.24745,6.17623 -7.40209,19.83265 -30.48702,30.50247c-23.08492,10.66982 -46.86352,14.31256 -53.11091,8.13632z"/><path d="M328.42954,191.63248c-6.47736,-4.47873 3.06914,-18.29016 21.32265,-30.84881c18.25346,-12.55865 38.30183,-19.10868 44.77919,-14.62995c6.47736,4.47868 -3.06923,18.29016 -21.32274,30.84881c-18.25346,12.55865 -38.30174,19.10868 -44.7791,14.63z"/></g><g data-paper-data="{&quot;index&quot;:null}"><path d="M208.54027,255.3555c-23.08492,-10.66982 -36.73446,-24.32623 -30.48702,-30.50246c6.24744,-6.17623 30.02608,-2.53345 53.11096,8.13632c23.08493,10.66982 36.73441,24.32623 30.48697,30.50246c-6.24744,6.17623 -30.02598,2.53349 -53.11091,-8.13632z"/><path d="M224.79137,186.8077c-18.25346,-12.5586 -27.80005,-26.37008 -21.32274,-30.84881c6.47736,-4.47873 26.52563,2.07135 44.77915,14.63c18.25346,12.5586 27.80001,26.37008 21.32264,30.84881c-6.47736,4.47873 -26.52553,-2.07135 -44.77909,-14.63z"/></g><path d="M299.00005,296.37345c-40.43041,0 -73.20576,-35.07037 -73.20576,-78.33196c0,-43.26155 32.77535,-78.33201 73.20576,-78.33201c40.43041,0 73.20571,35.07037 73.20571,78.33201c0,43.26155 -32.77526,78.33196 -73.20571,78.33196z"/></g><path d="M269.38442,269.68195c-6.10898,0 -11.06124,-4.53624 -11.06124,-10.132c0,-5.59576 4.95226,-10.132 11.06124,-10.132c6.10898,0 11.06124,4.53624 11.06124,10.132c0,5.59576 -4.95225,10.132 -11.06124,10.132z" fill="#008000" stroke="none" stroke-width="NaN"/><path d="M292.95642,239.5924c-9.26197,0 -16.77033,-6.87754 -16.77033,-15.36142c0,-8.48388 7.50836,-15.36142 16.77033,-15.36142c9.26197,0 16.77023,6.87754 16.77023,15.36142c0,8.48388 -7.50831,15.36142 -16.77023,15.36142z" fill="#008000" stroke="none" stroke-width="NaN"/><path d="M247.30643,221.9227c-6.10898,0 -11.06128,-4.53624 -11.06128,-10.132c0,-5.59576 4.95225,-10.132 11.06128,-10.132c6.10898,0 11.06124,4.53624 11.06124,10.132c0,5.59576 -4.95226,10.132 -11.06124,10.132z" fill="#008000" stroke="none" stroke-width="NaN"/><path d="M347.95031,250.66415c-6.10899,0 -11.06129,-4.53624 -11.06129,-10.132c0,-5.59576 4.95226,-10.132 11.06129,-10.132c6.10899,0 11.06124,4.53624 11.06124,10.132c0,5.59576 -4.95225,10.132 -11.06124,10.132z" fill="#008000" stroke="none" stroke-width="NaN"/><path d="M273.75518,171.54877c-6.10898,0 -11.06128,-4.53624 -11.06128,-10.132c0,-5.59576 4.95225,-10.132 11.06128,-10.132c6.10898,0 11.06124,4.53624 11.06124,10.132c0,5.59576 -4.95226,10.132 -11.06124,10.132z" fill="#008000" stroke="none" stroke-width="NaN"/><path d="M336.57676,182.6409c-6.10899,0 -11.06129,-4.53625 -11.06129,-10.13201c0,-5.59576 4.95225,-10.132 11.06129,-10.132c6.10899,0 11.06124,4.53624 11.06124,10.132c0,5.59576 -4.95225,10.13201 -11.06124,10.13201z" fill="#008000" stroke="none" stroke-width="NaN"/><path d="M309.83791,277.40381c-7.48842,0 -13.55896,-5.56056 -13.55896,-12.41985c0,-6.85933 6.07054,-12.41985 13.55896,-12.41985c7.48842,0 13.55891,5.56056 13.55891,12.41985c0,6.85934 -6.07054,12.41985 -13.55891,12.41985z" fill="#008000" stroke="none" stroke-width="NaN"/><path d="M299.8694,189.13694c-5.51776,0 -9.99078,-4.09723 -9.99078,-9.15149c0,-5.05421 4.47306,-9.1515 9.99078,-9.1515c5.51776,0 9.99078,4.09724 9.99078,9.1515c0,5.05421 -4.47302,9.15149 -9.99078,9.15149z" fill="#008000" stroke="none" stroke-width="NaN"/><path d="M334.52482,214.5896c-6.10899,0 -11.06129,-4.53624 -11.06129,-10.132c0,-5.59576 4.95225,-10.132 11.06129,-10.132c6.10899,0 11.06124,4.53624 11.06124,10.132c0,5.59576 -4.95225,10.132 -11.06124,10.132z" fill="#008000" stroke="none" stroke-width="NaN"/><g stroke-width="0.69834"><path d="M282.59921,309.79389c3.75287,-0.03539 7.17063,1.32961 9.66133,3.56164c2.4878,2.23469 4.04858,5.33631 4.0876,8.77392c0.03863,3.43761 -1.45157,6.56818 -3.88824,8.84964c-2.43963,2.27879 -5.82577,3.70847 -9.57864,3.7442c-3.75287,0.03539 -7.17063,-1.32961 -9.66133,-3.56164c-2.4878,-2.23469 -4.04858,-5.33631 -4.0876,-8.77392c-0.03863,-3.43761 1.45156,-6.56857 3.88828,-8.84964c2.43963,-2.27879 5.82572,-3.70848 9.5786,-3.74421z" fill="#ffffff" stroke="#000000"/><path d="M282.86417,316.85013c2.34077,-0.02207 4.4735,0.82898 6.02344,2.22249c1.5529,1.39085 2.52643,3.3265 2.55054,5.47022c0.02411,2.14373 -0.90498,4.09728 -2.42631,5.51747c-1.51843,1.42242 -3.63116,2.3138 -5.97193,2.33622c-2.34033,0.02207 -4.47306,-0.82932 -6.02344,-2.22249c-1.5529,-1.39085 -2.52599,-3.32655 -2.55011,-5.47027c-0.02454,-2.14373 0.90498,-4.09767 2.42631,-5.51743c1.51803,-1.42242 3.63121,-2.31414 5.97154,-2.33621z" fill="#000000" stroke="none"/></g><g stroke-width="0.69834"><path d="M328.54757,312.21038c2.43672,2.28107 3.92692,5.41203 3.88828,8.84964c-0.03902,3.43761 -1.59981,6.53923 -4.0876,8.77392c-2.4907,2.23203 -5.90846,3.59704 -9.66133,3.56164c-3.75287,-0.03573 -7.13901,-1.46542 -9.57864,-3.74421c-2.43667,-2.28146 -3.92687,-5.41203 -3.88824,-8.84964c0.03902,-3.43761 1.59981,-6.53923 4.0876,-8.77392c2.4907,-2.23203 5.90845,-3.59703 9.66133,-3.56164c3.75288,0.03573 7.13897,1.46541 9.57859,3.7442z" data-paper-data="{&quot;index&quot;:null}" fill="#ffffff" stroke="#000000"/><path d="M318.70392,315.52245c2.34033,0.02207 4.45351,0.91379 5.97154,2.33621c1.52133,1.41976 2.45085,3.3737 2.42631,5.51743c-0.02411,2.14373 -0.99721,4.07942 -2.5501,5.47027c-1.55037,1.39318 -3.68311,2.24457 -6.02344,2.22249c-2.34076,-0.02242 -4.45351,-0.9138 -5.97193,-2.33622c-1.52133,-1.42019 -2.45042,-3.37375 -2.42631,-5.51747c0.02411,-2.14373 0.99764,-4.07937 2.55054,-5.47022c1.54999,-1.39351 3.68267,-2.24457 6.02344,-2.22249z" data-paper-data="{&quot;index&quot;:null}" fill="#000000" stroke="none"/></g><g stroke="none" stroke-width="0"><path d="M301,357.98683c-12.16564,0 -22.02788,-4.44343 -22.02788,-9.92465c0,-5.48122 9.86225,-9.92465 22.02788,-9.92465c12.16564,0 22.02788,4.44344 22.02788,9.92465c0,5.48122 -9.86224,9.92465 -22.02788,9.92465z" fill="#ff0000"/><path d="M300.59208,349.70473c-10.13806,0 -18.35654,-2.69781 -18.35654,-6.02567c0,-3.32785 8.21853,-6.02567 18.35654,-6.02567c10.13806,0 18.35653,2.69781 18.35653,6.02567c0,3.32785 -8.21852,6.02567 -18.35653,6.02567z" fill="#00b900"/></g></g></g></svg>