<svg version="1.1" xmlns="http://www.w3.org/2000/svg" xmlns:xlink="http://www.w3.org/1999/xlink" width="59.63044" height="59.63044" viewBox="0,0,59.63044,59.63044"><g transform="translate(-210.18478,-150.18478)"><g data-paper-data="{&quot;isPaintingLayer&quot;:true}" fill-rule="nonzero" stroke-linecap="butt" stroke-linejoin="miter" stroke-miterlimit="10" stroke-dasharray="" stroke-dashoffset="0" style="mix-blend-mode: normal"><path d="M268.81522,208.81522h-57.63044v-57.63044h57.63044z" data-paper-data="{&quot;index&quot;:null}" fill="#000000" stroke="#808080" stroke-width="2"/><g data-paper-data="{&quot;index&quot;:null}" fill="#ffffff" stroke="none" stroke-width="0"><path d="M217.49433,204.66668c-0.77325,0 -1.40008,-0.62683 -1.40008,-1.40008c0,-0.77325 0.62683,-1.40008 1.40008,-1.40008c0.77325,0 1.40008,0.62683 1.40008,1.40008c0,0.77325 -0.62683,1.40008 -1.40008,1.40008z"/><path d="M217.72774,160.58333c-1.47276,0 -2.66667,-1.09441 -2.66667,-2.44444c0,-1.35003 1.19392,-2.44445 2.66667,-2.44445c1.47276,0 2.66666,1.09442 2.66666,2.44445c0,1.35003 -1.19391,2.44444 -2.66666,2.44444z"/><path d="M259.3944,170.58333c-1.47276,0 -2.66666,-1.09443 -2.66666,-2.44445c0,-1.35002 1.19391,-2.44444 2.66666,-2.44444c1.47276,0 2.66666,1.09442 2.66666,2.44444c0,1.35002 -1.19391,2.44445 -2.66666,2.44445z"/><path d="M221.3944,178c-0.82843,0 -1.5,-0.67157 -1.5,-1.5c0,-0.82843 0.67157,-1.5 1.5,-1.5c0.82843,0 1.5,0.67157 1.5,1.5c0,0.82843 -0.67157,1.5 -1.5,1.5z"/><path d="M233.3944,195c-0.82843,0 -1.5,-0.67157 -1.5,-1.5c0,-0.82843 0.67157,-1.5 1.5,-1.5c0.82843,0 1.5,0.67157 1.5,1.5c0,0.82843 -0.67157,1.5 -1.5,1.5z"/><path d="M253.72774,175.99999c-0.82843,0 -1.5,-0.67157 -1.5,-1.5c0,-0.82843 0.67157,-1.5 1.5,-1.5c0.82843,0 1.5,0.67157 1.5,1.5c0,0.82843 -0.67157,1.5 -1.5,1.5z"/><path d="M251.3944,161.00001c-0.82843,0 -1.5,-0.67157 -1.5,-1.5c0,-0.82843 0.67157,-1.5 1.5,-1.5c0.82843,0 1.5,0.67157 1.5,1.5c0,0.82843 -0.67157,1.5 -1.5,1.5z"/><path d="M263.06107,158.33335c-0.82843,0 -1.5,-0.67158 -1.5,-1.5c0,-0.82843 0.67157,-1.5 1.5,-1.5c0.82843,0 1.5,0.67157 1.5,1.5c0,0.82842 -0.67157,1.5 -1.5,1.5z"/><path d="M228.72774,185.16667c-0.55229,0 -1,-0.44771 -1,-1c0,-0.55229 0.44771,-1 1,-1c0.55229,0 1,0.44771 1,1c0,0.55229 -0.44771,1 -1,1z"/><path d="M238.72774,162.83333c-0.55229,0 -1,-0.44772 -1,-1c0,-0.55228 0.44771,-1 1,-1c0.55229,0 1,0.44772 1,1c0,0.55228 -0.44771,1 -1,1z"/><path d="M229.06108,160.16667c-0.55229,0 -1,-0.44772 -1,-1c0,-0.55228 0.44771,-1 1,-1c0.55229,0 1,0.44772 1,1c0,0.55228 -0.44771,1 -1,1z"/><path d="M243.72774,201.83333c-0.55229,0 -1,-0.44771 -1,-1c0,-0.55229 0.44771,-1 1,-1c0.55229,0 1,0.44771 1,1c0,0.55229 -0.44771,1 -1,1z"/><path d="M246.06108,189.5c-0.55229,0 -1,-0.44771 -1,-1c0,-0.55229 0.44771,-1 1,-1c0.55229,0 1,0.44771 1,1c0,0.55229 -0.44771,1 -1,1z"/><path d="M258.60561,187.33333c-0.36819,0 -0.66666,-0.29847 -0.66666,-0.66666c0,-0.36819 0.29847,-0.66667 0.66666,-0.66667c0.36819,0 0.66666,0.29848 0.66666,0.66667c0,0.36819 -0.29847,0.66666 -0.66666,0.66666z"/><path d="M264.27227,180.66668c-0.36819,0 -0.66666,-0.29847 -0.66666,-0.66666c0,-0.36819 0.29847,-0.66667 0.66666,-0.66667c0.36819,0 0.66666,0.29848 0.66666,0.66667c0,0.36819 -0.29847,0.66666 -0.66666,0.66666z"/><path d="M245.60561,175.66668c-0.36819,0 -0.66666,-0.29847 -0.66666,-0.66666c0,-0.36819 0.29847,-0.66667 0.66666,-0.66667c0.36819,0 0.66666,0.29848 0.66666,0.66667c0,0.36819 -0.29847,0.66666 -0.66666,0.66666z"/><path d="M242.93895,156.33333c-0.36819,0 -0.66666,-0.29847 -0.66666,-0.66667c0,-0.36819 0.29847,-0.66667 0.66666,-0.66667c0.36819,0 0.66666,0.29848 0.66666,0.66667c0,0.36819 -0.29847,0.66667 -0.66666,0.66667z"/><path d="M249.93895,205c-0.36819,0 -0.66666,-0.29847 -0.66666,-0.66666c0,-0.36819 0.29847,-0.66667 0.66666,-0.66667c0.36819,0 0.66666,0.29848 0.66666,0.66667c0,0.36819 -0.29847,0.66666 -0.66666,0.66666z"/><path d="M264.27227,204.33333c-0.36819,0 -0.66667,-0.29847 -0.66667,-0.66666c0,-0.36819 0.29848,-0.66667 0.66667,-0.66667c0.36819,0 0.66666,0.29848 0.66666,0.66667c0,0.36819 -0.29847,0.66666 -0.66666,0.66666z"/><path d="M226.60561,200c-0.36819,0 -0.66666,-0.29847 -0.66666,-0.66666c0,-0.36819 0.29847,-0.66667 0.66666,-0.66667c0.36819,0 0.66666,0.29848 0.66666,0.66667c0,0.36819 -0.29847,0.66666 -0.66666,0.66666z"/><path d="M236.60562,204.33333c-0.36819,0 -0.66666,-0.29847 -0.66666,-0.66666c0,-0.36819 0.29847,-0.66667 0.66666,-0.66667c0.36819,0 0.66667,0.29848 0.66667,0.66667c0,0.36819 -0.29848,0.66666 -0.66667,0.66666z"/><path d="M219.93894,188.66668c-0.36819,0 -0.66666,-0.29847 -0.66666,-0.66666c0,-0.36819 0.29847,-0.66667 0.66666,-0.66667c0.36819,0 0.66666,0.29848 0.66666,0.66667c0,0.36819 -0.29847,0.66666 -0.66666,0.66666z"/><path d="M225.60562,170.33333c-0.36819,0 -0.66666,-0.29847 -0.66666,-0.66666c0,-0.36819 0.29847,-0.66667 0.66666,-0.66667c0.36819,0 0.66667,0.29848 0.66667,0.66667c0,0.36819 -0.29848,0.66666 -0.66667,0.66666z"/><path d="M235.60561,179.33334c-0.36819,0 -0.66666,-0.29847 -0.66666,-0.66666c0,-0.36819 0.29847,-0.66667 0.66666,-0.66667c0.36819,0 0.66666,0.29848 0.66666,0.66667c0,0.36819 -0.29847,0.66666 -0.66666,0.66666z"/><path d="M256.79521,199.45c-1.36186,0 -2.46586,-1.01202 -2.46586,-2.26038c0,-1.24836 1.10401,-2.26037 2.46586,-2.26037c1.36186,0 2.46586,1.01201 2.46586,2.26037c0,1.24836 -1.10401,2.26038 -2.46586,2.26038z"/></g></g></g></svg>