<svg version="1.1" xmlns="http://www.w3.org/2000/svg" xmlns:xlink="http://www.w3.org/1999/xlink" width="59.63044" height="59.63044" viewBox="0,0,59.63044,59.63044"><g transform="translate(-210.18478,-150.18478)"><g data-paper-data="{&quot;isPaintingLayer&quot;:true}" fill-rule="nonzero" stroke-linejoin="miter" stroke-miterlimit="10" stroke-dasharray="" stroke-dashoffset="0" style="mix-blend-mode: normal"><path d="M211.18478,208.81522v-57.63044h57.63044v57.63044z" fill="#90d7f4" stroke="#808080" stroke-width="2" stroke-linecap="butt"/><path d="M229.34565,195.60298l3.33333,-4.33333l3.50001,4.49999l3.5,-4.5l3.66667,4.33333l3.33333,-4.33333l3.33333,4.33333" fill="none" stroke="#696e75" stroke-width="1" stroke-linecap="round"/><path d="" fill="#ffffff" stroke="none" stroke-width="0" stroke-linecap="butt"/><path d="" fill="#ffffff" stroke="none" stroke-width="0" stroke-linecap="butt"/><path d="" fill="#da703f" stroke="none" stroke-width="0" stroke-linecap="butt"/><path d="" fill="#8c3a27" stroke="none" stroke-width="0" stroke-linecap="butt"/><path d="" fill="#da703f" stroke="none" stroke-width="0" stroke-linecap="butt"/><path d="" fill="#da703f" stroke="none" stroke-width="0" stroke-linecap="butt"/><path d="" fill="#ed383c" stroke="none" stroke-width="0" stroke-linecap="butt"/><path d="" fill="#ed383c" stroke="none" stroke-width="0" stroke-linecap="butt"/><path d="" fill="#ed383c" stroke="none" stroke-width="0" stroke-linecap="butt"/><path d="" fill="#ed383c" stroke="none" stroke-width="0" stroke-linecap="butt"/><path d="" fill="#70c793" stroke="none" stroke-width="0" stroke-linecap="butt"/><path d="M219.01232,183.60298v-26.66666h42v26.66666z" fill="#4099ce" stroke="none" stroke-width="0" stroke-linecap="butt"/><path d="M221.30919,180.89465v-21.29166h37.73438v21.29166z" fill="#ffffff" stroke="none" stroke-width="0" stroke-linecap="butt"/><path d="M226.67899,190.93632h27.33333" fill="none" stroke="#696e75" stroke-width="1" stroke-linecap="round"/><path d="M226.34565,195.93632h27.33334" fill="none" stroke="#696e75" stroke-width="1" stroke-linecap="round"/><path d="M237.01232,157.60298v-2.66666h6v2.66666z" fill="#315b8f" stroke="none" stroke-width="0" stroke-linecap="butt"/><g stroke="none" stroke-width="0" stroke-linecap="butt"><path d="M253.67899,207.93632v-21.66667h2.66666v21.66667z" fill="#bdbdbd"/><path d="M252.01232,207.93632v-21.66667h2.66667v21.66667z" fill="#e7e7e8"/></g><g stroke="none" stroke-width="0" stroke-linecap="butt"><path d="M224.67899,207.93632v-21.66667h2.66666v21.66667z" fill="#bdbdbd"/><path d="M223.01232,207.93632v-21.66666h2.66667v21.66666z" fill="#e7e7e8"/></g><path d="M217.34565,187.26965l2.01493,-4l41.64179,0.33334l1.34328,3.66666z" fill="#315b8f" stroke="none" stroke-width="0" stroke-linecap="butt"/><path d="M234,176v-12h12v12c0,0 -0.48437,0 -0.99384,0c-1.69541,0 -11.00616,0 -11.00616,0z" fill="#ffdab7" stroke="none" stroke-width="0" stroke-linecap="butt"/><path d="M236.70755,167.69697c0,-0.71721 0.5814,-1.29861 1.29861,-1.29861c0.71721,0 1.29861,0.5814 1.29861,1.29861c0,0.71721 -0.5814,1.29861 -1.29861,1.29861c-0.71721,0 -1.29861,-0.5814 -1.29861,-1.29861z" fill="#000000" stroke="none" stroke-width="0" stroke-linecap="butt"/><path d="M241.04089,167.69697c0,-0.71721 0.5814,-1.29861 1.29861,-1.29861c0.71721,0 1.29861,0.5814 1.29861,1.29861c0,0.71721 -0.5814,1.29861 -1.29861,1.29861c-0.71721,0 -1.29861,-0.5814 -1.29861,-1.29861z" fill="#000000" stroke="none" stroke-width="0" stroke-linecap="butt"/><path d="M221.3395,181.03031v-7.83334c0,0 4.34896,-3.41839 8.16666,-3.16666c2.12534,0.14013 5.09819,1.27609 7.91943,2.46182c2.2465,0.94417 3.88056,2.48089 6.5693,2.63085c2.77178,0.1546 5.64157,-1.9349 6.47266,-2.66098c0.98754,-0.86276 3.11643,-1.91839 5.06097,-2.1476c3.581,-0.42212 3.47765,0.54924 3.47765,0.54924v10.16667z" fill="#e80000" stroke="none" stroke-width="0" stroke-linecap="butt"/><path d="M234.17283,176.19697l-0.00001,-4.83333c0,0 2.59819,0.94276 5.41943,2.12848c2.2465,0.94417 6.40264,1.46419 6.40264,1.46419l0.01127,1.57399z" fill="#b50000" stroke="none" stroke-width="0" stroke-linecap="butt"/></g></g></svg>