<svg version="1.1" xmlns="http://www.w3.org/2000/svg" xmlns:xlink="http://www.w3.org/1999/xlink" width="59.63044" height="59.63044" viewBox="0,0,59.63044,59.63044"><g transform="translate(-210.18478,-150.18478)"><g data-paper-data="{&quot;isPaintingLayer&quot;:true}" fill-rule="nonzero" stroke-linejoin="miter" stroke-miterlimit="10" stroke-dasharray="" stroke-dashoffset="0" style="mix-blend-mode: normal"><path d="M211.18478,208.81522v-57.63044h57.63044v57.63044z" fill="#90d7f4" stroke="#808080" stroke-width="2" stroke-linecap="butt"/><path d="M227.86242,162.24026c0,1.23609 -0.39229,2.76237 -2.10404,3.45329c-1.18361,0.47774 -3.37085,0.33242 -4.96738,0.33242c-2.02,0 -3.98504,0.118 -5.27363,-0.60911c-1.20276,-0.67868 -1.7978,-2.16722 -1.7978,-3.1766c0,-1.149 0.38471,-2.32129 1.89428,-3.01558c1.23735,-0.56909 3.41795,-0.77014 5.17715,-0.77014c1.31903,0 3.69657,0.05048 4.75341,0.38711c2.07231,0.66008 2.31801,2.01396 2.31801,3.3986z" fill="#ffffff" stroke="none" stroke-width="0" stroke-linecap="butt"/><path d="M247.00528,157.66883c0,1.23609 -0.3923,2.76237 -2.10405,3.45329c-1.18361,0.47774 -3.37085,0.33242 -4.96738,0.33242c-2.02,0 -3.98504,0.118 -5.27363,-0.60912c-1.20276,-0.67868 -1.7978,-2.16722 -1.7978,-3.1766c0,-1.149 0.38471,-2.32129 1.89428,-3.01558c1.23735,-0.56909 3.41795,-0.77014 5.17715,-0.77014c1.31903,0 3.69657,0.05048 4.75341,0.38711c2.07231,0.66008 2.31801,2.01396 2.31801,3.3986z" fill="#ffffff" stroke="none" stroke-width="0" stroke-linecap="butt"/><path d="M265.71957,162.38312c0,1.23609 -0.39229,2.76237 -2.10404,3.45329c-1.18361,0.47774 -3.37085,0.33242 -4.96738,0.33242c-2.02,0 -3.98504,0.118 -5.27363,-0.60912c-1.20276,-0.67868 -1.7978,-2.16722 -1.7978,-3.1766c0,-1.149 0.38471,-2.32129 1.89428,-3.01558c1.23735,-0.56909 3.41795,-0.77014 5.17715,-0.77014c1.31903,0 3.69657,0.05048 4.75341,0.38711c2.07231,0.66008 2.31801,2.01396 2.31801,3.3986z" fill="#ffffff" stroke="none" stroke-width="0" stroke-linecap="butt"/><path d="M217.71957,189.74026v-13h1.57143v13z" fill="#db7040" stroke="none" stroke-width="0" stroke-linecap="butt"/><path d="M260.291,189.74026v-13h1.57143v13z" fill="#db7040" stroke="none" stroke-width="0" stroke-linecap="butt"/><path d="M239.00528,190.16883v-24.42857h1.57143v24.42857z" fill="#db7040" stroke="none" stroke-width="0" stroke-linecap="butt"/><path d="M232.00528,190.02598v-23.42857h1.57143v23.42857z" fill="#db7040" stroke="none" stroke-width="0" stroke-linecap="butt"/><path d="M246.291,190.02598v-23.42857h1.57143v23.42857z" fill="#db7040" stroke="none" stroke-width="0" stroke-linecap="butt"/><path d="M225.00528,190.31169v-18.57143h1.57143v18.57143z" fill="#db7040" stroke="none" stroke-width="0" stroke-linecap="butt"/><path d="M253.29099,190.02598v-18.57143h1.57143v18.57143z" fill="#db7040" stroke="none" stroke-width="0" stroke-linecap="butt"/><path d="M218.71957,208.45455v-12.85715h6.85714v12.85715z" fill="#db7040" stroke="none" stroke-width="0" stroke-linecap="butt"/><path d="M235.291,208.16884v-13.28572h6.85714v13.28572z" fill="#db7040" stroke="none" stroke-width="0" stroke-linecap="butt"/><path d="M251.86242,208.3117v-13.57143h6.85714v13.57143z" fill="#db7040" stroke="none" stroke-width="0" stroke-linecap="butt"/><path d="M249.71957,195.88312v-4.28572h11.42857v4.28572z" fill="#f19451" stroke="none" stroke-width="0" stroke-linecap="butt"/><path d="M232.86243,195.74026v-4.28572h11.42857v4.28572z" fill="#f19451" stroke="none" stroke-width="0" stroke-linecap="butt"/><path d="M216.291,195.88313v-4.28572h11.42857v4.28572z" fill="#f19451" stroke="none" stroke-width="0" stroke-linecap="butt"/><path d="M211.71957,191.59741v-2.14286h56.42857v2.14286z" fill="#6e1c18" stroke="none" stroke-width="0" stroke-linecap="butt"/><path d="M212.04689,208.12579l-0.00342,-2.34875c0,0 1.25038,-1.82832 3.91955,-1.86574c3.08443,-0.04325 3.00502,2.30434 5.47664,2.34212c2.47162,0.03778 2.90306,-2.38249 5.14856,-2.32256c2.2455,0.05992 2.16307,2.19601 3.9873,2.27302c1.82423,0.07701 2.19906,-1.96624 4.17874,-1.92828c1.97968,0.03797 2.29395,2.41277 4.2267,2.38066c1.93275,-0.03211 3.38322,-2.49659 5.91748,-2.54919c2.53427,-0.0526 2.39789,2.32708 4.40781,2.33489c2.00992,0.00781 2.60989,-2.53243 4.47119,-2.58776c1.8613,-0.05533 2.83411,2.37269 4.79799,2.33345c1.96389,-0.03924 2.65317,-2.30991 5.1053,-2.25416c2.45214,0.05575 4.14466,2.48067 4.14466,2.48067l-0.00599,1.56877z" fill="#448fbc" stroke="none" stroke-width="0" stroke-linecap="butt"/><path d="M212.00528,177.55574c0,0 4.31445,-0.50335 6.81764,-1.60027c2.5032,-1.09691 4.42401,-2.75078 7.23495,-4.55766c2.81094,-1.80688 3.86381,-3.20703 6.77262,-4.4465c2.90881,-1.23946 4.30489,-1.57628 7.17583,-1.49703c2.87094,0.07925 4.82644,0.56059 7.57895,1.90431c2.75251,1.34372 4.07153,3.31629 6.89059,5.15938c2.81906,1.84309 4.04379,2.82247 6.96963,3.90236c2.92584,1.07989 6.13123,0.93302 6.13123,0.93302" fill="none" stroke="#6e1c18" stroke-width="3" stroke-linecap="round"/><path d="M211.18478,208.81522v-57.63044h57.63044v57.63044z" fill="none" stroke="#808080" stroke-width="2" stroke-linecap="butt"/></g></g></svg>