<svg version="1.1" xmlns="http://www.w3.org/2000/svg" xmlns:xlink="http://www.w3.org/1999/xlink" width="59.63044" height="59.63044" viewBox="0,0,59.63044,59.63044"><g transform="translate(-210.18478,-150.18478)"><g data-paper-data="{&quot;isPaintingLayer&quot;:true}" fill-rule="nonzero" stroke-linejoin="miter" stroke-miterlimit="10" stroke-dasharray="" stroke-dashoffset="0" style="mix-blend-mode: normal"><g><path d="M211.18478,208.81522v-57.63044h57.63044v57.63044z" fill="#6db0db" stroke="#7f7f7f" stroke-width="2" stroke-linecap="butt"/><path d="M229.40894,170.51265v-5.12908h9.81852v5.12908z" fill="#6c2c57" stroke="none" stroke-width="0" stroke-linecap="butt"/><path d="M221.93514,193.22714l4.39635,-23.15412h16.11996l7.32725,23.15412z" fill="#f9f5ea" stroke="none" stroke-width="0" stroke-linecap="butt"/><path d="M219.55505,198.35621l-4.65407,-10.4047h19.49049l4.19372,10.25815z" fill="#ee3b3f" stroke="none" stroke-width="0" stroke-linecap="butt"/><path d="M236.29656,195.27877v-2.34472h13.92178v2.34472z" fill="#ee3b3f" stroke="none" stroke-width="0" stroke-linecap="butt"/><path d="M226.0384,178.71918c0,-1.29495 1.04977,-2.34472 2.34472,-2.34472c1.29495,0 2.34472,1.04977 2.34472,2.34472c0,1.29495 -1.04977,2.34472 -2.34472,2.34472c-1.29495,0 -2.34472,-1.04977 -2.34472,-2.34472z" fill="#6db0db" stroke="#6c2c57" stroke-width="1" stroke-linecap="butt"/><path d="M232.04675,178.71918c0,-1.29495 1.04977,-2.34472 2.34472,-2.34472c1.29495,0 2.34472,1.04977 2.34472,2.34472c0,1.29495 -1.04977,2.34472 -2.34472,2.34472c-1.29495,0 -2.34472,-1.04977 -2.34472,-2.34472z" fill="#6db0db" stroke="#6c2c57" stroke-width="1" stroke-linecap="butt"/><path d="M238.0551,178.71918c0,-1.29495 1.04977,-2.34472 2.34472,-2.34472c1.29495,0 2.34472,1.04977 2.34472,2.34472c0,1.29495 -1.04977,2.34472 -2.34472,2.34472c-1.29495,0 -2.34472,-1.04977 -2.34472,-2.34472z" fill="#6db0db" stroke="#6c2c57" stroke-width="1" stroke-linecap="butt"/><path d="M239.22746,160.2545c0,1.94243 -1.60746,3.51708 -3.59035,3.51708c-1.9829,0 -3.59035,-1.57465 -3.59035,-3.51708c0,-1.94243 1.60746,-3.51708 3.59035,-3.51708c1.9829,0 3.59035,1.57465 3.59035,3.51708z" fill="#f9f5ea" stroke="none" stroke-width="0" stroke-linecap="butt"/><path d="M243.62381,158.49596c0,1.94243 -1.60746,3.51708 -3.59035,3.51708c-1.9829,0 -3.59035,-1.57465 -3.59035,-3.51708c0,-1.94243 1.60746,-3.51708 3.59035,-3.51708c1.9829,0 3.59035,1.57465 3.59035,3.51708z" fill="#f9f5ea" stroke="none" stroke-width="0" stroke-linecap="butt"/><path d="M247.43398,156.00469c0,1.94243 -1.60746,3.51708 -3.59035,3.51708c-1.9829,0 -3.59035,-1.57465 -3.59035,-3.51708c0,-1.94243 1.60746,-3.51708 3.59035,-3.51708c1.9829,0 3.59035,1.57465 3.59035,3.51708z" fill="#f9f5ea" stroke="none" stroke-width="0" stroke-linecap="butt"/><path d="M248.75289,157.3236c0,1.94243 -1.60746,3.51708 -3.59035,3.51708c-1.9829,0 -3.59035,-1.57465 -3.59035,-3.51708c0,-1.94243 1.60746,-3.51708 3.59035,-3.51708c1.9829,0 3.59035,1.57465 3.59035,3.51708z" fill="#f9f5ea" stroke="none" stroke-width="0" stroke-linecap="butt"/><path d="M229.40894,165.53012v-5.12908h9.81852v5.12908z" fill="#ee3b3f" stroke="none" stroke-width="0" stroke-linecap="butt"/><path d="M250.99415,155.53924c0,1.94243 -1.60746,3.51708 -3.59035,3.51708c-1.9829,0 -3.59035,-1.57465 -3.59035,-3.51708c0,-1.94243 1.60746,-3.51708 3.59035,-3.51708c1.9829,0 3.59035,1.57465 3.59035,3.51708z" fill="#f9f5ea" stroke="none" stroke-width="0" stroke-linecap="butt"/><path d="M253.58887,156.15124c0,1.94243 -1.60746,3.51708 -3.59035,3.51708c-1.9829,0 -3.59035,-1.57465 -3.59035,-3.51708c0,-1.94243 1.60746,-3.51708 3.59035,-3.51708c1.9829,0 3.59035,1.57465 3.59035,3.51708z" fill="#f9f5ea" stroke="none" stroke-width="0" stroke-linecap="butt"/><g stroke="none" stroke-width="0" stroke-linecap="butt"><g><path d="M254.06027,176.39751v-0.69156h14.1728v0.69156z" fill="#ed3b3b"/><path d="M254.06027,177.78063v-0.69156h14.1728v0.69156z" fill="#ed3b3b"/><path d="M254.06027,180.34929v-0.69156h14.1728v0.69156z" fill="#ed3b3b"/><path d="M254.10546,175.01439v-0.69156h14.1728v0.69156z" fill="#ed3b3b"/><path d="M254.06027,181.73241v-0.69156h14.1728v0.69156z" fill="#ed3b3b"/><path d="M254.06027,175.70595v-0.69156h14.1728v0.69156z" fill="#ffffff"/><path d="M254.06027,177.08907v-0.69156h14.1728v0.69156z" fill="#ffffff"/><path d="M254.00667,178.47219v-0.69156h14.1728v0.69156z" fill="#ffffff"/><path d="M253.96147,182.42397v-0.69156h14.1728v0.69156z" fill="#ffffff"/><path d="M253.96147,179.65772v-0.69156h14.1728v0.69156z" fill="#ffffff"/><path d="M253.96147,181.04085v-0.69156h14.1728v0.69156z" fill="#ffffff"/><path d="M254.15906,183.11553v-0.69156h14.17279v0.69156z" fill="#ed3b3b"/><path d="M254.06027,179.06496v-0.69156h14.1728v0.69156z" fill="#ed3b3b"/></g><path d="M254.00667,179.72982v-5.40699h6.54913v5.40699z" fill="#001eff"/></g><path d="M253.88196,173.00392v21.24903" fill="none" stroke="#6c2c57" stroke-width="2.5" stroke-linecap="round"/><path d="M248.02016,195.35262l2.63681,-4.76329h12.2547l-2.19353,4.68944z" data-paper-data="{&quot;index&quot;:null}" fill="#ee3b3f" stroke="none" stroke-width="0" stroke-linecap="butt"/><path d="M252.41651,172.63756c0,-0.84981 0.68891,-1.53872 1.53872,-1.53872c0.84981,0 1.53872,0.68891 1.53872,1.53872c0,0.84981 -0.68891,1.53872 -1.53872,1.53872c-0.84981,0 -1.53872,-0.68891 -1.53872,-1.53872z" fill="#eded3b" stroke="none" stroke-width="0" stroke-linecap="butt"/><path d="M222.52132,204.95074l-4.39635,-9.67197h42.49807l-3.95672,9.81852z" fill="#6c2c57" stroke="none" stroke-width="0" stroke-linecap="butt"/><path d="M212.2451,207.64534l0.5,-5.35069c0,0 6.47253,0.01793 8.75025,0.03705c1.63866,0.01375 2.51528,-2.88385 4.69213,-2.85569c2.17684,0.02815 2.20667,2.9534 4.24738,2.9713c2.04071,0.01789 2.79163,-2.90871 5.12996,-2.88908c2.33833,0.01963 2.29434,2.9511 4.39726,2.96903c2.10292,0.01793 2.58902,-2.90917 4.83565,-2.89032c2.24663,0.01885 2.3913,2.98735 4.54012,2.969c2.14881,-0.01835 2.85685,-3.1454 5.27665,-3.05284c2.4198,0.09256 2.20959,3.40015 4.25065,3.41728c5.10636,0.04285 8.56174,0.04576 8.56174,0.04576l0.05055,4.62921z" fill="#6db0db" stroke="none" stroke-width="0" stroke-linecap="butt"/><path d="M255.05433,155.18579c0,1.94243 -1.8699,3.51708 -4.17653,3.51708c-2.30664,0 -4.17653,-1.57465 -4.17653,-3.51708c0,-0.9722 0.46843,-1.85228 1.22559,-2.4889c0.75562,-0.63532 1.7988,-1.02819 2.95094,-1.02819c2.30664,0 4.17653,1.57465 4.17653,3.51708z" fill="#f9f5ea" stroke="none" stroke-width="0" stroke-linecap="butt"/></g></g></g></svg>