<svg version="1.1" xmlns="http://www.w3.org/2000/svg" xmlns:xlink="http://www.w3.org/1999/xlink" width="59.63044" height="59.63044" viewBox="0,0,59.63044,59.63044"><g transform="translate(-210.18478,-150.18478)"><g data-paper-data="{&quot;isPaintingLayer&quot;:true}" fill-rule="nonzero" stroke-linecap="butt" stroke-linejoin="miter" stroke-miterlimit="10" stroke-dasharray="" stroke-dashoffset="0" style="mix-blend-mode: normal"><g><path d="M211.18478,208.81522v-57.63044h57.63044v57.63044z" fill="#e99856" stroke="#808080" stroke-width="2"/><g fill="#fbd57a" stroke="none" stroke-width="0"><path d="M240.22967,158.47907c0,-1.09884 0.89079,-1.98962 1.98962,-1.98962c1.09884,0 1.98962,0.89079 1.98962,1.98962c0,1.09884 -0.89079,1.98962 -1.98962,1.98962c-1.09884,0 -1.98962,-0.89078 -1.98962,-1.98962z"/><path d="M240.32296,168.04023c0,-1.09884 0.89079,-1.98962 1.98962,-1.98962c1.09884,0 1.98962,0.89079 1.98962,1.98962c0,1.09884 -0.89079,1.98962 -1.98962,1.98962c-1.09884,0 -1.98962,-0.89079 -1.98962,-1.98962z"/><path d="M240.27905,177.60138c0,-1.09884 0.89079,-1.98962 1.98962,-1.98962c1.09884,0 1.98962,0.89079 1.98962,1.98962c0,1.09884 -0.89079,1.98962 -1.98962,1.98962c-1.09884,0 -1.98962,-0.89079 -1.98962,-1.98962z"/><path d="M240.23513,187.16254c0,-1.09884 0.89079,-1.98962 1.98962,-1.98962c1.09884,0 1.98962,0.89079 1.98962,1.98962c0,1.09884 -0.89079,1.98962 -1.98962,1.98962c-1.09884,0 -1.98962,-0.89079 -1.98962,-1.98962z"/><path d="M240.32843,196.72369c0,-1.09884 0.89079,-1.98962 1.98962,-1.98962c1.09884,0 1.98962,0.89079 1.98962,1.98962c0,1.09884 -0.89079,1.98962 -1.98962,1.98962c-1.09884,0 -1.98962,-0.89078 -1.98962,-1.98962z"/></g><g fill="#fbd57a" stroke="none" stroke-width="0"><path d="M249.65361,158.43515c0,-1.09884 0.89079,-1.98962 1.98962,-1.98962c1.09884,0 1.98962,0.89079 1.98962,1.98962c0,1.09884 -0.89078,1.98962 -1.98962,1.98962c-1.09884,0 -1.98962,-0.89078 -1.98962,-1.98962z"/><path d="M249.74691,167.99631c0,-1.09884 0.89079,-1.98962 1.98962,-1.98962c1.09884,0 1.98962,0.89079 1.98962,1.98962c0,1.09884 -0.89079,1.98962 -1.98962,1.98962c-1.09884,0 -1.98962,-0.89079 -1.98962,-1.98962z"/><path d="M249.70299,177.55746c0,-1.09884 0.89079,-1.98962 1.98962,-1.98962c1.09884,0 1.98962,0.89079 1.98962,1.98962c0,1.09884 -0.89079,1.98962 -1.98962,1.98962c-1.09884,0 -1.98962,-0.89079 -1.98962,-1.98962z"/><path d="M249.65907,187.11862c0,-1.09884 0.89079,-1.98962 1.98962,-1.98962c1.09884,0 1.98962,0.89079 1.98962,1.98962c0,1.09884 -0.89079,1.98962 -1.98962,1.98962c-1.09884,0 -1.98962,-0.89079 -1.98962,-1.98962z"/><path d="M249.75237,196.67977c0,-1.09884 0.89079,-1.98962 1.98962,-1.98962c1.09884,0 1.98962,0.89079 1.98962,1.98962c0,1.09884 -0.89079,1.98962 -1.98962,1.98962c-1.09884,0 -1.98962,-0.89078 -1.98962,-1.98962z"/></g><g fill="#fbd57a" stroke="none" stroke-width="0"><path d="M259.35198,158.52845c0,-1.09884 0.89079,-1.98962 1.98962,-1.98962c1.09884,0 1.98962,0.89079 1.98962,1.98962c0,1.09884 -0.89079,1.98962 -1.98962,1.98962c-1.09884,0 -1.98962,-0.89078 -1.98962,-1.98962z"/><path d="M259.44528,168.08961c0,-1.09884 0.89079,-1.98962 1.98962,-1.98962c1.09884,0 1.98962,0.89079 1.98962,1.98962c0,1.09884 -0.89079,1.98962 -1.98962,1.98962c-1.09884,0 -1.98962,-0.89079 -1.98962,-1.98962z"/><path d="M259.40136,177.65076c0,-1.09884 0.89079,-1.98962 1.98962,-1.98962c1.09884,0 1.98962,0.89079 1.98962,1.98962c0,1.09884 -0.89079,1.98962 -1.98962,1.98962c-1.09884,0 -1.98962,-0.89078 -1.98962,-1.98962z"/><path d="M259.35744,187.21192c0,-1.09884 0.89079,-1.98962 1.98962,-1.98962c1.09884,0 1.98962,0.89079 1.98962,1.98962c0,1.09884 -0.89079,1.98962 -1.98962,1.98962c-1.09884,0 -1.98962,-0.89079 -1.98962,-1.98962z"/><path d="M259.45074,196.77307c0,-1.09884 0.89079,-1.98962 1.98962,-1.98962c1.09884,0 1.98962,0.89079 1.98962,1.98962c0,1.09884 -0.89079,1.98962 -1.98962,1.98962c-1.09884,0 -1.98962,-0.89079 -1.98962,-1.98962z"/></g><g fill="#fbd57a" stroke="none" stroke-width="0"><path d="M230.63006,158.62175c0,-1.09884 0.89079,-1.98962 1.98962,-1.98962c1.09884,0 1.98962,0.89079 1.98962,1.98962c0,1.09884 -0.89078,1.98962 -1.98962,1.98962c-1.09884,0 -1.98962,-0.89078 -1.98962,-1.98962z"/><path d="M230.72335,168.1829c0,-1.09884 0.89079,-1.98962 1.98962,-1.98962c1.09884,0 1.98962,0.89079 1.98962,1.98962c0,1.09884 -0.89079,1.98962 -1.98962,1.98962c-1.09884,0 -1.98962,-0.89079 -1.98962,-1.98962z"/><path d="M230.67944,177.74406c0,-1.09884 0.89079,-1.98962 1.98962,-1.98962c1.09884,0 1.98962,0.89079 1.98962,1.98962c0,1.09884 -0.89079,1.98962 -1.98962,1.98962c-1.09884,0 -1.98962,-0.89078 -1.98962,-1.98962z"/><path d="M230.63552,187.30521c0,-1.09884 0.89079,-1.98962 1.98962,-1.98962c1.09884,0 1.98962,0.89079 1.98962,1.98962c0,1.09884 -0.89079,1.98962 -1.98962,1.98962c-1.09884,0 -1.98962,-0.89079 -1.98962,-1.98962z"/><path d="M230.72881,196.86637c0,-1.09884 0.89079,-1.98962 1.98962,-1.98962c1.09884,0 1.98962,0.89079 1.98962,1.98962c0,1.09884 -0.89079,1.98962 -1.98962,1.98962c-1.09884,0 -1.98962,-0.89079 -1.98962,-1.98962z"/></g><g fill="#fbd57a" stroke="none" stroke-width="0"><path d="M221.11828,158.44062c0,-1.09884 0.89079,-1.98962 1.98962,-1.98962c1.09884,0 1.98962,0.89079 1.98962,1.98962c0,1.09884 -0.89079,1.98962 -1.98962,1.98962c-1.09884,0 -1.98962,-0.89079 -1.98962,-1.98962z"/><path d="M221.21158,168.00177c0,-1.09884 0.89079,-1.98962 1.98962,-1.98962c1.09884,0 1.98962,0.89079 1.98962,1.98962c0,1.09884 -0.89079,1.98962 -1.98962,1.98962c-1.09884,0 -1.98962,-0.89079 -1.98962,-1.98962z"/><path d="M221.16766,177.56293c0,-1.09884 0.89079,-1.98962 1.98962,-1.98962c1.09884,0 1.98962,0.89079 1.98962,1.98962c0,1.09884 -0.89079,1.98962 -1.98962,1.98962c-1.09884,0 -1.98962,-0.89078 -1.98962,-1.98962z"/><path d="M221.12374,187.12408c0,-1.09884 0.89079,-1.98962 1.98962,-1.98962c1.09884,0 1.98962,0.89079 1.98962,1.98962c0,1.09884 -0.89079,1.98962 -1.98962,1.98962c-1.09884,0 -1.98962,-0.89079 -1.98962,-1.98962z"/><path d="M221.21704,196.68524c0,-1.09884 0.89079,-1.98962 1.98962,-1.98962c1.09884,0 1.98962,0.89079 1.98962,1.98962c0,1.09884 -0.89079,1.98962 -1.98962,1.98962c-1.09884,0 -1.98962,-0.89079 -1.98962,-1.98962z"/></g><g fill="#fbd57a" stroke="none" stroke-width="0"><path d="M254.36831,163.14985c0,-1.09884 0.89079,-1.98962 1.98962,-1.98962c1.09884,0 1.98962,0.89079 1.98962,1.98962c0,1.09884 -0.89078,1.98962 -1.98962,1.98962c-1.09884,0 -1.98962,-0.89078 -1.98962,-1.98962z"/><path d="M254.46161,172.71101c0,-1.09884 0.89079,-1.98962 1.98962,-1.98962c1.09884,0 1.98962,0.89079 1.98962,1.98962c0,1.09884 -0.89079,1.98962 -1.98962,1.98962c-1.09884,0 -1.98962,-0.89078 -1.98962,-1.98962z"/><path d="M254.41769,182.27216c0,-1.09884 0.89079,-1.98962 1.98962,-1.98962c1.09884,0 1.98962,0.89079 1.98962,1.98962c0,1.09884 -0.89079,1.98962 -1.98962,1.98962c-1.09884,0 -1.98962,-0.89079 -1.98962,-1.98962z"/><path d="M254.37377,191.83332c0,-1.09884 0.89079,-1.98962 1.98962,-1.98962c1.09884,0 1.98962,0.89079 1.98962,1.98962c0,1.09884 -0.89079,1.98962 -1.98962,1.98962c-1.09884,0 -1.98962,-0.89079 -1.98962,-1.98962z"/><path d="M254.46707,201.39447c0,-1.09884 0.89079,-1.98962 1.98962,-1.98962c1.09884,0 1.98962,0.89079 1.98962,1.98962c0,1.09884 -0.89079,1.98962 -1.98962,1.98962c-1.09884,0 -1.98962,-0.89078 -1.98962,-1.98962z"/></g><g fill="#fbd57a" stroke="none" stroke-width="0"><path d="M244.85653,163.24315c0,-1.09884 0.89079,-1.98962 1.98962,-1.98962c1.09884,0 1.98962,0.89079 1.98962,1.98962c0,1.09884 -0.89079,1.98962 -1.98962,1.98962c-1.09884,0 -1.98962,-0.89079 -1.98962,-1.98962z"/><path d="M244.94983,172.80431c0,-1.09884 0.89079,-1.98962 1.98962,-1.98962c1.09884,0 1.98962,0.89079 1.98962,1.98962c0,1.09884 -0.89079,1.98962 -1.98962,1.98962c-1.09884,0 -1.98962,-0.89079 -1.98962,-1.98962z"/><path d="M244.90591,182.36546c0,-1.09884 0.89079,-1.98962 1.98962,-1.98962c1.09884,0 1.98962,0.89079 1.98962,1.98962c0,1.09884 -0.89079,1.98962 -1.98962,1.98962c-1.09884,0 -1.98962,-0.89079 -1.98962,-1.98962z"/><path d="M244.86199,191.92662c0,-1.09884 0.89079,-1.98962 1.98962,-1.98962c1.09884,0 1.98962,0.89079 1.98962,1.98962c0,1.09884 -0.89079,1.98962 -1.98962,1.98962c-1.09884,0 -1.98962,-0.89079 -1.98962,-1.98962z"/><path d="M244.95529,201.48777c0,-1.09884 0.89079,-1.98962 1.98962,-1.98962c1.09884,0 1.98962,0.89079 1.98962,1.98962c0,1.09884 -0.89079,1.98962 -1.98962,1.98962c-1.09884,0 -1.98962,-0.89078 -1.98962,-1.98962z"/></g><g fill="#fbd57a" stroke="none" stroke-width="0"><path d="M235.48197,163.19923c0,-1.09884 0.89079,-1.98962 1.98962,-1.98962c1.09884,0 1.98962,0.89079 1.98962,1.98962c0,1.09884 -0.89078,1.98962 -1.98962,1.98962c-1.09884,0 -1.98962,-0.89079 -1.98962,-1.98962z"/><path d="M235.57527,172.76039c0,-1.09884 0.89079,-1.98962 1.98962,-1.98962c1.09884,0 1.98962,0.89079 1.98962,1.98962c0,1.09884 -0.89079,1.98962 -1.98962,1.98962c-1.09884,0 -1.98962,-0.89079 -1.98962,-1.98962z"/><path d="M235.53135,182.32154c0,-1.09884 0.89079,-1.98962 1.98962,-1.98962c1.09884,0 1.98962,0.89079 1.98962,1.98962c0,1.09884 -0.89079,1.98962 -1.98962,1.98962c-1.09884,0 -1.98962,-0.89079 -1.98962,-1.98962z"/><path d="M235.48743,191.8827c0,-1.09884 0.89079,-1.98962 1.98962,-1.98962c1.09884,0 1.98962,0.89079 1.98962,1.98962c0,1.09884 -0.89079,1.98962 -1.98962,1.98962c-1.09884,0 -1.98962,-0.89079 -1.98962,-1.98962z"/><path d="M235.58073,201.44385c0,-1.09884 0.89079,-1.98962 1.98962,-1.98962c1.09884,0 1.98962,0.89079 1.98962,1.98962c0,1.09884 -0.89079,1.98962 -1.98962,1.98962c-1.09884,0 -1.98962,-0.89079 -1.98962,-1.98962z"/></g><g fill="#fbd57a" stroke="none" stroke-width="0"><path d="M225.83298,163.29253c0,-1.09884 0.89079,-1.98962 1.98962,-1.98962c1.09884,0 1.98962,0.89079 1.98962,1.98962c0,1.09884 -0.89079,1.98962 -1.98962,1.98962c-1.09884,0 -1.98962,-0.89078 -1.98962,-1.98962z"/><path d="M225.92628,172.85369c0,-1.09884 0.89079,-1.98962 1.98962,-1.98962c1.09884,0 1.98962,0.89079 1.98962,1.98962c0,1.09884 -0.89079,1.98962 -1.98962,1.98962c-1.09884,0 -1.98962,-0.89079 -1.98962,-1.98962z"/><path d="M225.88236,182.41484c0,-1.09884 0.89079,-1.98962 1.98962,-1.98962c1.09884,0 1.98962,0.89079 1.98962,1.98962c0,1.09884 -0.89079,1.98962 -1.98962,1.98962c-1.09884,0 -1.98962,-0.89078 -1.98962,-1.98962z"/><path d="M225.83844,191.976c0,-1.09884 0.89079,-1.98962 1.98962,-1.98962c1.09884,0 1.98962,0.89079 1.98962,1.98962c0,1.09884 -0.89079,1.98962 -1.98962,1.98962c-1.09884,0 -1.98962,-0.89079 -1.98962,-1.98962z"/><path d="M225.93174,201.53715c0,-1.09884 0.89079,-1.98962 1.98962,-1.98962c1.09884,0 1.98962,0.89079 1.98962,1.98962c0,1.09884 -0.89079,1.98962 -1.98962,1.98962c-1.09884,0 -1.98962,-0.89078 -1.98962,-1.98962z"/></g><g fill="#fbd57a" stroke="none" stroke-width="0"><path d="M216.3212,163.38583c0,-1.09884 0.89079,-1.98962 1.98962,-1.98962c1.09884,0 1.98962,0.89079 1.98962,1.98962c0,1.09884 -0.89078,1.98962 -1.98962,1.98962c-1.09884,0 -1.98962,-0.89078 -1.98962,-1.98962z"/><path d="M216.4145,172.94698c0,-1.09884 0.89079,-1.98962 1.98962,-1.98962c1.09884,0 1.98962,0.89079 1.98962,1.98962c0,1.09884 -0.89079,1.98962 -1.98962,1.98962c-1.09884,0 -1.98962,-0.89079 -1.98962,-1.98962z"/><path d="M216.37058,182.50814c0,-1.09884 0.89079,-1.98962 1.98962,-1.98962c1.09884,0 1.98962,0.89079 1.98962,1.98962c0,1.09884 -0.89079,1.98962 -1.98962,1.98962c-1.09884,0 -1.98962,-0.89078 -1.98962,-1.98962z"/><path d="M216.32667,192.06929c0,-1.09884 0.89079,-1.98962 1.98962,-1.98962c1.09884,0 1.98962,0.89079 1.98962,1.98962c0,1.09884 -0.89079,1.98962 -1.98962,1.98962c-1.09884,0 -1.98962,-0.89079 -1.98962,-1.98962z"/><path d="M216.41996,201.63045c0,-1.09884 0.89079,-1.98962 1.98962,-1.98962c1.09884,0 1.98962,0.89079 1.98962,1.98962c0,1.09884 -0.89079,1.98962 -1.98962,1.98962c-1.09884,0 -1.98962,-0.89079 -1.98962,-1.98962z"/></g></g></g></g></svg>