<svg version="1.1" xmlns="http://www.w3.org/2000/svg" xmlns:xlink="http://www.w3.org/1999/xlink" width="59.63044" height="59.63044" viewBox="0,0,59.63044,59.63044"><g transform="translate(-210.18478,-150.18478)"><g data-paper-data="{&quot;isPaintingLayer&quot;:true}" fill-rule="nonzero" stroke-linejoin="miter" stroke-miterlimit="10" stroke-dasharray="" stroke-dashoffset="0" style="mix-blend-mode: normal"><path d="M211.18478,208.81523v-57.63044h57.63044v57.63044z" fill="#ffc77a" stroke="#808080" stroke-width="2" stroke-linecap="butt"/><g fill="#de7446" stroke="none" stroke-width="0" stroke-linecap="butt"><path d="M216.86929,166.80175v-1.25h46.75v1.25z"/><path d="M216.86929,157.55175v-1.25h46.75v1.25z"/><path d="M217.11929,164.05175l4.25,-5l4.25,5z"/><path d="M226.61929,163.92675l4.25,-5l4.25,5z"/><path d="M235.86929,163.80175l4.25,-5l4.25,5z"/><path d="M245.24429,163.80175l4.25,-5l4.25,5z"/><path d="M254.74429,163.92675l4.25,-5l4.25,5z"/></g><path d="M216.86929,203.55176v-1.25h46.75v1.25z" fill="#de7446" stroke="none" stroke-width="0" stroke-linecap="butt"/><path d="M216.86929,194.30176v-1.25h46.75v1.25z" fill="#de7446" stroke="none" stroke-width="0" stroke-linecap="butt"/><path d="M217.11929,200.80176l4.25,-5l4.25,5z" fill="#de7446" stroke="none" stroke-width="0" stroke-linecap="butt"/><path d="M226.61929,200.67676l4.25,-5l4.25,5z" fill="#de7446" stroke="none" stroke-width="0" stroke-linecap="butt"/><path d="M235.86929,200.55176l4.25,-5l4.25,5z" fill="#de7446" stroke="none" stroke-width="0" stroke-linecap="butt"/><path d="M245.24429,200.55176l4.25,-5l4.25,5z" fill="#de7446" stroke="none" stroke-width="0" stroke-linecap="butt"/><path d="M254.74429,200.67676l4.25,-5l4.25,5z" fill="#de7446" stroke="none" stroke-width="0" stroke-linecap="butt"/><path d="M223.24429,189.92676v-16.5h1.375v16.5z" fill="#de7446" stroke="none" stroke-width="0" stroke-linecap="butt"/><path d="M240.24429,189.42676v-18.125h18.5v18.125z" fill="#de7446" stroke="none" stroke-width="0" stroke-linecap="butt"/><path d="M244.99429,175.80176c0,-0.75939 0.61561,-1.375 1.375,-1.375c0.75939,0 1.375,0.61561 1.375,1.375c0,0.75939 -0.61561,1.375 -1.375,1.375c-0.75939,0 -1.375,-0.61561 -1.375,-1.375z" fill="#9b3914" stroke="none" stroke-width="0" stroke-linecap="butt"/><path d="M251.86929,175.67676c0,-0.75939 0.61561,-1.375 1.375,-1.375c0.75939,0 1.375,0.61561 1.375,1.375c0,0.75939 -0.61561,1.375 -1.375,1.375c-0.75939,0 -1.375,-0.61561 -1.375,-1.375z" fill="#9b3914" stroke="none" stroke-width="0" stroke-linecap="butt"/><path d="M245.61929,179.05176h7.75c0,0 -0.3622,3.75487 -3.875,3.875c-3.26558,0.11167 -3.875,-3.875 -3.875,-3.875z" fill="#9b3914" stroke="none" stroke-width="0" stroke-linecap="butt"/><path d="M241.49429,180.05176l-3.25,-0.125v-4.75l-3.25,-0.125" fill="none" stroke="#de7446" stroke-width="1.5" stroke-linecap="round"/><path d="M264.49429,184.92676l-3.25,-0.125v-4.75l-3.25,-0.125" data-paper-data="{&quot;index&quot;:null}" fill="none" stroke="#de7446" stroke-width="1.5" stroke-linecap="round"/><path d="M224.49055,175.69538c-0.72316,1.0527 -3.15454,0.63854 -5.43065,-0.92504c-2.27611,-1.56359 -3.53502,-3.6845 -2.81186,-4.7372c0.72316,-1.0527 3.15454,-0.63854 5.43065,0.92504c2.27611,1.56359 3.53502,3.6845 2.81186,4.7372z" fill="#de7446" stroke="none" stroke-width="0" stroke-linecap="butt"/><path d="M232.24055,181.07038c-0.72316,1.0527 -3.15454,0.63854 -5.43065,-0.92504c-2.27611,-1.56358 -3.53502,-3.68451 -2.81186,-4.7372c0.72316,-1.0527 3.15455,-0.63854 5.43065,0.92504c2.27611,1.56358 3.53502,3.6845 2.81186,4.7372z" fill="#de7446" stroke="none" stroke-width="0" stroke-linecap="butt"/><path d="M218.93489,176.08318c2.27611,-1.56358 4.70749,-1.97774 5.43065,-0.92504c0.72316,1.0527 -0.53576,3.17362 -2.81186,4.7372c-2.27611,1.56358 -4.70749,1.97774 -5.43065,0.92504c-0.72316,-1.0527 0.53575,-3.17362 2.81186,-4.7372z" data-paper-data="{&quot;index&quot;:null}" fill="#de7446" stroke="none" stroke-width="0" stroke-linecap="butt"/><path d="M229.17869,174.64534c-2.27611,1.56358 -4.70749,1.97774 -5.43065,0.92504c-0.72316,-1.0527 0.53576,-3.17362 2.81186,-4.7372c2.27611,-1.56358 4.70749,-1.97774 5.43065,-0.92504c0.72316,1.0527 -0.53575,3.17362 -2.81186,4.7372z" data-paper-data="{&quot;index&quot;:null}" fill="#de7446" stroke="none" stroke-width="0" stroke-linecap="butt"/></g></g></svg>