<svg version="1.1" xmlns="http://www.w3.org/2000/svg" xmlns:xlink="http://www.w3.org/1999/xlink" width="59.63044" height="59.63044" viewBox="0,0,59.63044,59.63044"><g transform="translate(-210.18478,-150.18478)"><g data-paper-data="{&quot;isPaintingLayer&quot;:true}" fill-rule="nonzero" stroke-linecap="butt" stroke-linejoin="miter" stroke-miterlimit="10" stroke-dasharray="" stroke-dashoffset="0" style="mix-blend-mode: normal"><path d="M211.18478,208.81522v-57.63044h57.63044v57.63044z" fill="#269b79" stroke="#808080" stroke-width="2"/><g stroke="none" stroke-width="5"><g><path d="M221.49652,164.96259v-4.51456h1.39888v4.51456z" fill="#e99856"/><path d="M220.16123,164.96259v-4.51456h1.39888v4.51456z" fill="#f7c476"/></g><g fill="#6cbd8a"><path d="M216.91838,158.0318c0,-1.15886 0.93945,-2.09832 2.09831,-2.09832c1.15886,0 2.09831,0.93945 2.09831,2.09832c0,1.15886 -0.93945,2.09831 -2.09831,2.09831c-1.15886,0 -2.09831,-0.93945 -2.09831,-2.09831z"/><path d="M221.98485,158.07503c0,-1.15886 0.93945,-2.09831 2.09832,-2.09831c1.15886,0 2.09831,0.93945 2.09831,2.09831c0,1.15886 -0.93945,2.09832 -2.09831,2.09832c-1.15886,0 -2.09832,-0.93945 -2.09832,-2.09832z"/><path d="M217.51353,160.59809c0,-1.15886 0.93945,-2.09831 2.09831,-2.09831c1.15886,0 2.09832,0.93945 2.09832,2.09831c0,1.15886 -0.93945,2.09831 -2.09832,2.09831c-1.15886,0 -2.09831,-0.93945 -2.09831,-2.09831z"/><path d="M221.30829,160.70491c0,-1.15886 0.93945,-2.09832 2.09832,-2.09832c1.15886,0 2.09831,0.93945 2.09831,2.09832c0,1.15886 -0.93945,2.09831 -2.09831,2.09831c-1.15886,0 -2.09832,-0.93945 -2.09832,-2.09831z"/><path d="M219.50756,156.10642c0,-1.15886 0.93945,-2.09831 2.09831,-2.09831c1.15886,0 2.09831,0.93945 2.09831,2.09831c0,1.15886 -0.93945,2.09832 -2.09831,2.09832c-1.15886,0 -2.09831,-0.93945 -2.09831,-2.09832z"/><path d="M219.34236,159.20456c0,-1.15886 0.93945,-2.09832 2.09832,-2.09832c1.15886,0 2.09831,0.93945 2.09831,2.09832c0,1.15886 -0.93944,2.09831 -2.09831,2.09831c-1.15886,0 -2.09832,-0.93945 -2.09832,-2.09831z"/></g></g><g stroke="none" stroke-width="5"><g><path d="M220.32183,193.05056v-4.51456h1.39888v4.51456z" fill="#e99856"/><path d="M218.98654,193.05056v-4.51456h1.39888v4.51456z" fill="#f7c476"/></g><g fill="#6cbd8a"><path d="M215.74369,186.11977c0,-1.15886 0.93945,-2.09832 2.09831,-2.09832c1.15886,0 2.09831,0.93945 2.09831,2.09832c0,1.15886 -0.93945,2.09831 -2.09831,2.09831c-1.15886,0 -2.09831,-0.93945 -2.09831,-2.09831z"/><path d="M220.81016,186.163c0,-1.15886 0.93945,-2.09831 2.09832,-2.09831c1.15886,0 2.09831,0.93945 2.09831,2.09831c0,1.15886 -0.93945,2.09832 -2.09831,2.09832c-1.15886,0 -2.09832,-0.93945 -2.09832,-2.09832z"/><path d="M216.33884,188.68606c0,-1.15886 0.93945,-2.09831 2.09831,-2.09831c1.15886,0 2.09832,0.93945 2.09832,2.09831c0,1.15886 -0.93945,2.09831 -2.09832,2.09831c-1.15886,0 -2.09831,-0.93945 -2.09831,-2.09831z"/><path d="M220.1336,188.79288c0,-1.15886 0.93945,-2.09832 2.09832,-2.09832c1.15886,0 2.09831,0.93945 2.09831,2.09832c0,1.15886 -0.93945,2.09831 -2.09831,2.09831c-1.15886,0 -2.09832,-0.93945 -2.09832,-2.09831z"/><path d="M218.33287,184.19439c0,-1.15886 0.93945,-2.09831 2.09831,-2.09831c1.15886,0 2.09831,0.93945 2.09831,2.09831c0,1.15886 -0.93945,2.09832 -2.09831,2.09832c-1.15886,0 -2.09831,-0.93945 -2.09831,-2.09832z"/><path d="M218.16767,187.29253c0,-1.15886 0.93945,-2.09832 2.09832,-2.09832c1.15886,0 2.09831,0.93945 2.09831,2.09832c0,1.15886 -0.93944,2.09831 -2.09831,2.09831c-1.15886,0 -2.09832,-0.93945 -2.09832,-2.09831z"/></g></g><g stroke="none" stroke-width="5"><g><path d="M220.08676,205.29911v-4.51456h1.39888v4.51456z" fill="#e99856"/><path d="M218.75147,205.29911v-4.51456h1.39888v4.51456z" fill="#f7c476"/></g><g fill="#6cbd8a"><path d="M215.50862,198.36832c0,-1.15886 0.93945,-2.09832 2.09831,-2.09832c1.15886,0 2.09831,0.93945 2.09831,2.09832c0,1.15886 -0.93945,2.09831 -2.09831,2.09831c-1.15886,0 -2.09831,-0.93945 -2.09831,-2.09831z"/><path d="M220.57509,198.41155c0,-1.15886 0.93945,-2.09831 2.09832,-2.09831c1.15886,0 2.09831,0.93945 2.09831,2.09831c0,1.15886 -0.93945,2.09832 -2.09831,2.09832c-1.15886,0 -2.09832,-0.93945 -2.09832,-2.09832z"/><path d="M216.10377,200.93461c0,-1.15886 0.93945,-2.09831 2.09831,-2.09831c1.15886,0 2.09832,0.93945 2.09832,2.09831c0,1.15886 -0.93945,2.09831 -2.09832,2.09831c-1.15886,0 -2.09831,-0.93945 -2.09831,-2.09831z"/><path d="M219.89853,201.04143c0,-1.15886 0.93945,-2.09832 2.09832,-2.09832c1.15886,0 2.09831,0.93945 2.09831,2.09832c0,1.15886 -0.93945,2.09831 -2.09831,2.09831c-1.15886,0 -2.09832,-0.93945 -2.09832,-2.09831z"/><path d="M218.0978,196.44294c0,-1.15886 0.93945,-2.09831 2.09831,-2.09831c1.15886,0 2.09831,0.93945 2.09831,2.09831c0,1.15886 -0.93945,2.09832 -2.09831,2.09832c-1.15886,0 -2.09831,-0.93945 -2.09831,-2.09832z"/><path d="M217.9326,199.54108c0,-1.15886 0.93945,-2.09832 2.09832,-2.09832c1.15886,0 2.09831,0.93945 2.09831,2.09832c0,1.15886 -0.93944,2.09831 -2.09831,2.09831c-1.15886,0 -2.09832,-0.93945 -2.09832,-2.09831z"/></g></g><g stroke="none" stroke-width="5"><g><path d="M220.79133,179.69413v-4.51456h1.39888v4.51456z" fill="#e99856"/><path d="M219.45604,179.69413v-4.51456h1.39888v4.51456z" fill="#f7c476"/></g><g fill="#6cbd8a"><path d="M216.21319,172.76334c0,-1.15886 0.93945,-2.09832 2.09831,-2.09832c1.15886,0 2.09831,0.93945 2.09831,2.09832c0,1.15886 -0.93945,2.09831 -2.09831,2.09831c-1.15886,0 -2.09831,-0.93945 -2.09831,-2.09831z"/><path d="M221.27966,172.80657c0,-1.15886 0.93945,-2.09831 2.09832,-2.09831c1.15886,0 2.09831,0.93945 2.09831,2.09831c0,1.15886 -0.93945,2.09832 -2.09831,2.09832c-1.15886,0 -2.09832,-0.93945 -2.09832,-2.09832z"/><path d="M216.80834,175.32963c0,-1.15886 0.93945,-2.09831 2.09831,-2.09831c1.15886,0 2.09832,0.93945 2.09832,2.09831c0,1.15886 -0.93945,2.09831 -2.09832,2.09831c-1.15886,0 -2.09831,-0.93945 -2.09831,-2.09831z"/><path d="M220.6031,175.43645c0,-1.15886 0.93945,-2.09832 2.09832,-2.09832c1.15886,0 2.09831,0.93945 2.09831,2.09832c0,1.15886 -0.93945,2.09831 -2.09831,2.09831c-1.15886,0 -2.09832,-0.93945 -2.09832,-2.09831z"/><path d="M218.80237,170.83796c0,-1.15886 0.93945,-2.09831 2.09831,-2.09831c1.15886,0 2.09831,0.93945 2.09831,2.09831c0,1.15886 -0.93945,2.09832 -2.09831,2.09832c-1.15886,0 -2.09831,-0.93945 -2.09831,-2.09832z"/><path d="M218.63717,173.9361c0,-1.15886 0.93945,-2.09832 2.09832,-2.09832c1.15886,0 2.09831,0.93945 2.09831,2.09832c0,1.15886 -0.93944,2.09831 -2.09831,2.09831c-1.15886,0 -2.09832,-0.93945 -2.09832,-2.09831z"/></g></g><g stroke="none" stroke-width="5"><g><path d="M233.57681,186.17068v-4.51456h1.39888v4.51456z" fill="#e99856"/><path d="M232.24152,186.17068v-4.51456h1.39888v4.51456z" fill="#f7c476"/></g><g fill="#6cbd8a"><path d="M228.99867,179.23989c0,-1.15886 0.93945,-2.09832 2.09831,-2.09832c1.15886,0 2.09831,0.93945 2.09831,2.09832c0,1.15886 -0.93945,2.09831 -2.09831,2.09831c-1.15886,0 -2.09831,-0.93945 -2.09831,-2.09831z"/><path d="M234.06514,179.28312c0,-1.15886 0.93945,-2.09831 2.09832,-2.09831c1.15886,0 2.09831,0.93945 2.09831,2.09831c0,1.15886 -0.93945,2.09832 -2.09831,2.09832c-1.15886,0 -2.09832,-0.93945 -2.09832,-2.09832z"/><path d="M229.59382,181.80618c0,-1.15886 0.93945,-2.09831 2.09831,-2.09831c1.15886,0 2.09832,0.93945 2.09832,2.09831c0,1.15886 -0.93945,2.09831 -2.09832,2.09831c-1.15886,0 -2.09831,-0.93945 -2.09831,-2.09831z"/><path d="M233.38858,181.913c0,-1.15886 0.93945,-2.09832 2.09832,-2.09832c1.15886,0 2.09831,0.93945 2.09831,2.09832c0,1.15886 -0.93945,2.09831 -2.09831,2.09831c-1.15886,0 -2.09832,-0.93945 -2.09832,-2.09831z"/><path d="M231.58785,177.31451c0,-1.15886 0.93945,-2.09831 2.09831,-2.09831c1.15886,0 2.09831,0.93945 2.09831,2.09831c0,1.15886 -0.93945,2.09832 -2.09831,2.09832c-1.15886,0 -2.09831,-0.93945 -2.09831,-2.09832z"/><path d="M231.42265,180.41265c0,-1.15886 0.93945,-2.09832 2.09832,-2.09832c1.15886,0 2.09831,0.93945 2.09831,2.09832c0,1.15886 -0.93944,2.09831 -2.09831,2.09831c-1.15886,0 -2.09832,-0.93945 -2.09832,-2.09831z"/></g></g><g stroke="none" stroke-width="5"><g><path d="M233.47598,172.51238v-4.51456h1.39888v4.51456z" fill="#e99856"/><path d="M232.14069,172.51238v-4.51456h1.39888v4.51456z" fill="#f7c476"/></g><g fill="#6cbd8a"><path d="M228.89784,165.58159c0,-1.15886 0.93945,-2.09832 2.09831,-2.09832c1.15886,0 2.09831,0.93945 2.09831,2.09832c0,1.15886 -0.93945,2.09831 -2.09831,2.09831c-1.15886,0 -2.09831,-0.93945 -2.09831,-2.09831z"/><path d="M233.96431,165.62482c0,-1.15886 0.93945,-2.09831 2.09832,-2.09831c1.15886,0 2.09831,0.93945 2.09831,2.09831c0,1.15886 -0.93945,2.09832 -2.09831,2.09832c-1.15886,0 -2.09832,-0.93945 -2.09832,-2.09832z"/><path d="M229.49299,168.14788c0,-1.15886 0.93945,-2.09831 2.09831,-2.09831c1.15886,0 2.09832,0.93945 2.09832,2.09831c0,1.15886 -0.93945,2.09831 -2.09832,2.09831c-1.15886,0 -2.09831,-0.93945 -2.09831,-2.09831z"/><path d="M233.28775,168.2547c0,-1.15886 0.93945,-2.09832 2.09832,-2.09832c1.15886,0 2.09831,0.93945 2.09831,2.09832c0,1.15886 -0.93945,2.09831 -2.09831,2.09831c-1.15886,0 -2.09832,-0.93945 -2.09832,-2.09831z"/><path d="M231.48702,163.65621c0,-1.15886 0.93945,-2.09831 2.09831,-2.09831c1.15886,0 2.09831,0.93945 2.09831,2.09831c0,1.15886 -0.93945,2.09832 -2.09831,2.09832c-1.15886,0 -2.09831,-0.93945 -2.09831,-2.09832z"/><path d="M231.32182,166.75435c0,-1.15886 0.93945,-2.09832 2.09832,-2.09832c1.15886,0 2.09831,0.93945 2.09831,2.09832c0,1.15886 -0.93944,2.09831 -2.09831,2.09831c-1.15886,0 -2.09832,-0.93945 -2.09832,-2.09831z"/></g></g><g stroke="none" stroke-width="5"><g><path d="M233.37514,199.39226v-4.51456h1.39888v4.51456z" fill="#e99856"/><path d="M232.03985,199.39226v-4.51456h1.39888v4.51456z" fill="#f7c476"/></g><g fill="#6cbd8a"><path d="M228.797,192.46147c0,-1.15886 0.93945,-2.09832 2.09831,-2.09832c1.15886,0 2.09831,0.93945 2.09831,2.09832c0,1.15886 -0.93945,2.09831 -2.09831,2.09831c-1.15886,0 -2.09831,-0.93945 -2.09831,-2.09831z"/><path d="M233.86347,192.5047c0,-1.15886 0.93945,-2.09831 2.09832,-2.09831c1.15886,0 2.09831,0.93945 2.09831,2.09831c0,1.15886 -0.93945,2.09832 -2.09831,2.09832c-1.15886,0 -2.09832,-0.93945 -2.09832,-2.09832z"/><path d="M229.39215,195.02776c0,-1.15886 0.93945,-2.09831 2.09831,-2.09831c1.15886,0 2.09832,0.93945 2.09832,2.09831c0,1.15886 -0.93945,2.09831 -2.09832,2.09831c-1.15886,0 -2.09831,-0.93945 -2.09831,-2.09831z"/><path d="M233.18691,195.13458c0,-1.15886 0.93945,-2.09832 2.09832,-2.09832c1.15886,0 2.09831,0.93945 2.09831,2.09832c0,1.15886 -0.93945,2.09831 -2.09831,2.09831c-1.15886,0 -2.09832,-0.93945 -2.09832,-2.09831z"/><path d="M231.38618,190.53609c0,-1.15886 0.93945,-2.09831 2.09831,-2.09831c1.15886,0 2.09831,0.93945 2.09831,2.09831c0,1.15886 -0.93945,2.09832 -2.09831,2.09832c-1.15886,0 -2.09831,-0.93945 -2.09831,-2.09832z"/><path d="M231.22098,193.63423c0,-1.15886 0.93945,-2.09832 2.09832,-2.09832c1.15886,0 2.09831,0.93945 2.09831,2.09832c0,1.15886 -0.93944,2.09831 -2.09831,2.09831c-1.15886,0 -2.09832,-0.93945 -2.09832,-2.09831z"/></g></g><g stroke="none" stroke-width="5"><g><path d="M246.83178,165.1964v-4.51456h1.39888v4.51456z" fill="#e99856"/><path d="M245.49649,165.1964v-4.51456h1.39888v4.51456z" fill="#f7c476"/></g><g fill="#6cbd8a"><path d="M242.25364,158.26561c0,-1.15886 0.93945,-2.09832 2.09831,-2.09832c1.15886,0 2.09831,0.93945 2.09831,2.09832c0,1.15886 -0.93945,2.09831 -2.09831,2.09831c-1.15886,0 -2.09831,-0.93945 -2.09831,-2.09831z"/><path d="M247.32011,158.30884c0,-1.15886 0.93945,-2.09831 2.09832,-2.09831c1.15886,0 2.09831,0.93945 2.09831,2.09831c0,1.15886 -0.93945,2.09832 -2.09831,2.09832c-1.15886,0 -2.09832,-0.93945 -2.09832,-2.09832z"/><path d="M242.84879,160.8319c0,-1.15886 0.93945,-2.09831 2.09831,-2.09831c1.15886,0 2.09832,0.93945 2.09832,2.09831c0,1.15886 -0.93945,2.09831 -2.09832,2.09831c-1.15886,0 -2.09831,-0.93945 -2.09831,-2.09831z"/><path d="M246.64355,160.93872c0,-1.15886 0.93945,-2.09832 2.09832,-2.09832c1.15886,0 2.09831,0.93945 2.09831,2.09832c0,1.15886 -0.93945,2.09831 -2.09831,2.09831c-1.15886,0 -2.09832,-0.93945 -2.09832,-2.09831z"/><path d="M244.84282,156.34023c0,-1.15886 0.93945,-2.09831 2.09831,-2.09831c1.15886,0 2.09831,0.93945 2.09831,2.09831c0,1.15886 -0.93945,2.09832 -2.09831,2.09832c-1.15886,0 -2.09831,-0.93945 -2.09831,-2.09832z"/><path d="M244.67762,159.43837c0,-1.15886 0.93945,-2.09832 2.09832,-2.09832c1.15886,0 2.09831,0.93945 2.09831,2.09832c0,1.15886 -0.93944,2.09831 -2.09831,2.09831c-1.15886,0 -2.09832,-0.93945 -2.09832,-2.09831z"/></g></g><g stroke="none" stroke-width="5"><g><path d="M246.46249,179.99537v-4.51456h1.39888v4.51456z" fill="#e99856"/><path d="M245.1272,179.99537v-4.51456h1.39888v4.51456z" fill="#f7c476"/></g><g fill="#6cbd8a"><path d="M241.88435,173.06458c0,-1.15886 0.93945,-2.09832 2.09831,-2.09832c1.15886,0 2.09831,0.93945 2.09831,2.09832c0,1.15886 -0.93945,2.09831 -2.09831,2.09831c-1.15886,0 -2.09831,-0.93945 -2.09831,-2.09831z"/><path d="M246.95082,173.10781c0,-1.15886 0.93945,-2.09831 2.09832,-2.09831c1.15886,0 2.09831,0.93945 2.09831,2.09831c0,1.15886 -0.93945,2.09832 -2.09831,2.09832c-1.15886,0 -2.09832,-0.93945 -2.09832,-2.09832z"/><path d="M242.4795,175.63087c0,-1.15886 0.93945,-2.09831 2.09831,-2.09831c1.15886,0 2.09832,0.93945 2.09832,2.09831c0,1.15886 -0.93945,2.09831 -2.09832,2.09831c-1.15886,0 -2.09831,-0.93945 -2.09831,-2.09831z"/><path d="M246.27426,175.73769c0,-1.15886 0.93945,-2.09832 2.09832,-2.09832c1.15886,0 2.09831,0.93945 2.09831,2.09832c0,1.15886 -0.93945,2.09831 -2.09831,2.09831c-1.15886,0 -2.09832,-0.93945 -2.09832,-2.09831z"/><path d="M244.47353,171.1392c0,-1.15886 0.93945,-2.09831 2.09831,-2.09831c1.15886,0 2.09831,0.93945 2.09831,2.09831c0,1.15886 -0.93945,2.09832 -2.09831,2.09832c-1.15886,0 -2.09831,-0.93945 -2.09831,-2.09832z"/><path d="M244.30833,174.23734c0,-1.15886 0.93945,-2.09832 2.09832,-2.09832c1.15886,0 2.09831,0.93945 2.09831,2.09832c0,1.15886 -0.93944,2.09831 -2.09831,2.09831c-1.15886,0 -2.09832,-0.93945 -2.09832,-2.09831z"/></g></g><g stroke="none" stroke-width="5"><g><path d="M245.6905,193.31778v-4.51456h1.39888v4.51456z" fill="#e99856"/><path d="M244.35521,193.31778v-4.51456h1.39888v4.51456z" fill="#f7c476"/></g><g fill="#6cbd8a"><path d="M241.11236,186.38699c0,-1.15886 0.93945,-2.09832 2.09831,-2.09832c1.15886,0 2.09831,0.93945 2.09831,2.09832c0,1.15886 -0.93945,2.09831 -2.09831,2.09831c-1.15886,0 -2.09831,-0.93945 -2.09831,-2.09831z"/><path d="M246.17883,186.43022c0,-1.15886 0.93945,-2.09831 2.09832,-2.09831c1.15886,0 2.09831,0.93945 2.09831,2.09831c0,1.15886 -0.93945,2.09832 -2.09831,2.09832c-1.15886,0 -2.09832,-0.93945 -2.09832,-2.09832z"/><path d="M241.70751,188.95328c0,-1.15886 0.93945,-2.09831 2.09831,-2.09831c1.15886,0 2.09832,0.93945 2.09832,2.09831c0,1.15886 -0.93945,2.09831 -2.09832,2.09831c-1.15886,0 -2.09831,-0.93945 -2.09831,-2.09831z"/><path d="M245.50227,189.0601c0,-1.15886 0.93945,-2.09832 2.09832,-2.09832c1.15886,0 2.09831,0.93945 2.09831,2.09832c0,1.15886 -0.93945,2.09831 -2.09831,2.09831c-1.15886,0 -2.09832,-0.93945 -2.09832,-2.09831z"/><path d="M243.70154,184.46161c0,-1.15886 0.93945,-2.09831 2.09831,-2.09831c1.15886,0 2.09831,0.93945 2.09831,2.09831c0,1.15886 -0.93945,2.09832 -2.09831,2.09832c-1.15886,0 -2.09831,-0.93945 -2.09831,-2.09832z"/><path d="M243.53634,187.55975c0,-1.15886 0.93945,-2.09832 2.09832,-2.09832c1.15886,0 2.09831,0.93945 2.09831,2.09832c0,1.15886 -0.93944,2.09831 -2.09831,2.09831c-1.15886,0 -2.09832,-0.93945 -2.09832,-2.09831z"/></g></g><g stroke="none" stroke-width="5"><g><path d="M245.45543,205.83479v-4.51456h1.39888v4.51456z" fill="#e99856"/><path d="M244.12014,205.83479v-4.51456h1.39888v4.51456z" fill="#f7c476"/></g><g fill="#6cbd8a"><path d="M240.87729,198.904c0,-1.15886 0.93945,-2.09832 2.09831,-2.09832c1.15886,0 2.09831,0.93945 2.09831,2.09832c0,1.15886 -0.93945,2.09831 -2.09831,2.09831c-1.15886,0 -2.09831,-0.93945 -2.09831,-2.09831z"/><path d="M245.94376,198.94723c0,-1.15886 0.93945,-2.09831 2.09832,-2.09831c1.15886,0 2.09831,0.93945 2.09831,2.09831c0,1.15886 -0.93945,2.09832 -2.09831,2.09832c-1.15886,0 -2.09832,-0.93945 -2.09832,-2.09832z"/><path d="M241.47244,201.47029c0,-1.15886 0.93945,-2.09831 2.09831,-2.09831c1.15886,0 2.09832,0.93945 2.09832,2.09831c0,1.15886 -0.93945,2.09831 -2.09832,2.09831c-1.15886,0 -2.09831,-0.93945 -2.09831,-2.09831z"/><path d="M245.2672,201.57711c0,-1.15886 0.93945,-2.09832 2.09832,-2.09832c1.15886,0 2.09831,0.93945 2.09831,2.09832c0,1.15886 -0.93945,2.09831 -2.09831,2.09831c-1.15886,0 -2.09832,-0.93945 -2.09832,-2.09831z"/><path d="M243.46647,196.97862c0,-1.15886 0.93945,-2.09831 2.09831,-2.09831c1.15886,0 2.09831,0.93945 2.09831,2.09831c0,1.15886 -0.93945,2.09832 -2.09831,2.09832c-1.15886,0 -2.09831,-0.93945 -2.09831,-2.09832z"/><path d="M243.30127,200.07676c0,-1.15886 0.93945,-2.09832 2.09832,-2.09832c1.15886,0 2.09831,0.93945 2.09831,2.09832c0,1.15886 -0.93944,2.09831 -2.09831,2.09831c-1.15886,0 -2.09832,-0.93945 -2.09832,-2.09831z"/></g></g><g stroke="none" stroke-width="5"><g><path d="M258.24091,172.84702v-4.51456h1.39888v4.51456z" fill="#e99856"/><path d="M256.90562,172.84702v-4.51456h1.39888v4.51456z" fill="#f7c476"/></g><g fill="#6cbd8a"><path d="M253.66277,165.91623c0,-1.15886 0.93945,-2.09832 2.09831,-2.09832c1.15886,0 2.09831,0.93945 2.09831,2.09832c0,1.15886 -0.93945,2.09831 -2.09831,2.09831c-1.15886,0 -2.09831,-0.93945 -2.09831,-2.09831z"/><path d="M258.72924,165.95946c0,-1.15886 0.93945,-2.09831 2.09832,-2.09831c1.15886,0 2.09831,0.93945 2.09831,2.09831c0,1.15886 -0.93945,2.09832 -2.09831,2.09832c-1.15886,0 -2.09832,-0.93945 -2.09832,-2.09832z"/><path d="M254.25792,168.48252c0,-1.15886 0.93945,-2.09831 2.09831,-2.09831c1.15886,0 2.09832,0.93945 2.09832,2.09831c0,1.15886 -0.93945,2.09831 -2.09832,2.09831c-1.15886,0 -2.09831,-0.93945 -2.09831,-2.09831z"/><path d="M258.05268,168.58934c0,-1.15886 0.93945,-2.09832 2.09832,-2.09832c1.15886,0 2.09831,0.93945 2.09831,2.09832c0,1.15886 -0.93945,2.09831 -2.09831,2.09831c-1.15886,0 -2.09832,-0.93945 -2.09832,-2.09831z"/><path d="M256.25195,163.99085c0,-1.15886 0.93945,-2.09831 2.09831,-2.09831c1.15886,0 2.09831,0.93945 2.09831,2.09831c0,1.15886 -0.93945,2.09832 -2.09831,2.09832c-1.15886,0 -2.09831,-0.93945 -2.09831,-2.09832z"/><path d="M256.08675,167.08899c0,-1.15886 0.93945,-2.09832 2.09832,-2.09832c1.15886,0 2.09831,0.93945 2.09831,2.09832c0,1.15886 -0.93944,2.09831 -2.09831,2.09831c-1.15886,0 -2.09832,-0.93945 -2.09832,-2.09831z"/></g></g><g stroke="none" stroke-width="5"><g><path d="M258.00585,187.51176v-4.51456h1.39888v4.51456z" fill="#e99856"/><path d="M256.67056,187.51176v-4.51456h1.39888v4.51456z" fill="#f7c476"/></g><g fill="#6cbd8a"><path d="M253.42771,180.58097c0,-1.15886 0.93945,-2.09832 2.09831,-2.09832c1.15886,0 2.09831,0.93945 2.09831,2.09832c0,1.15886 -0.93945,2.09831 -2.09831,2.09831c-1.15886,0 -2.09831,-0.93945 -2.09831,-2.09831z"/><path d="M258.49418,180.6242c0,-1.15886 0.93945,-2.09831 2.09832,-2.09831c1.15886,0 2.09831,0.93945 2.09831,2.09831c0,1.15886 -0.93945,2.09832 -2.09831,2.09832c-1.15886,0 -2.09832,-0.93945 -2.09832,-2.09832z"/><path d="M254.02286,183.14726c0,-1.15886 0.93945,-2.09831 2.09831,-2.09831c1.15886,0 2.09832,0.93945 2.09832,2.09831c0,1.15886 -0.93945,2.09831 -2.09832,2.09831c-1.15886,0 -2.09831,-0.93945 -2.09831,-2.09831z"/><path d="M257.81762,183.25408c0,-1.15886 0.93945,-2.09832 2.09832,-2.09832c1.15886,0 2.09831,0.93945 2.09831,2.09832c0,1.15886 -0.93945,2.09831 -2.09831,2.09831c-1.15886,0 -2.09832,-0.93945 -2.09832,-2.09831z"/><path d="M256.01689,178.65559c0,-1.15886 0.93945,-2.09831 2.09831,-2.09831c1.15886,0 2.09831,0.93945 2.09831,2.09831c0,1.15886 -0.93945,2.09832 -2.09831,2.09832c-1.15886,0 -2.09831,-0.93945 -2.09831,-2.09832z"/><path d="M255.85169,181.75373c0,-1.15886 0.93945,-2.09832 2.09832,-2.09832c1.15886,0 2.09831,0.93945 2.09831,2.09832c0,1.15886 -0.93944,2.09831 -2.09831,2.09831c-1.15886,0 -2.09832,-0.93945 -2.09832,-2.09831z"/></g></g><g stroke="none" stroke-width="5"><g><path d="M257.50232,200.9684v-4.51456h1.39888v4.51456z" fill="#e99856"/><path d="M256.16703,200.9684v-4.51456h1.39888v4.51456z" fill="#f7c476"/></g><g fill="#6cbd8a"><path d="M252.92418,194.03761c0,-1.15886 0.93945,-2.09832 2.09831,-2.09832c1.15886,0 2.09831,0.93945 2.09831,2.09832c0,1.15886 -0.93945,2.09831 -2.09831,2.09831c-1.15886,0 -2.09831,-0.93945 -2.09831,-2.09831z"/><path d="M257.99065,194.08084c0,-1.15886 0.93945,-2.09831 2.09832,-2.09831c1.15886,0 2.09831,0.93945 2.09831,2.09831c0,1.15886 -0.93945,2.09832 -2.09831,2.09832c-1.15886,0 -2.09832,-0.93945 -2.09832,-2.09832z"/><path d="M253.51933,196.6039c0,-1.15886 0.93945,-2.09831 2.09831,-2.09831c1.15886,0 2.09832,0.93945 2.09832,2.09831c0,1.15886 -0.93945,2.09831 -2.09832,2.09831c-1.15886,0 -2.09831,-0.93945 -2.09831,-2.09831z"/><path d="M257.31409,196.71072c0,-1.15886 0.93945,-2.09832 2.09832,-2.09832c1.15886,0 2.09831,0.93945 2.09831,2.09832c0,1.15886 -0.93945,2.09831 -2.09831,2.09831c-1.15886,0 -2.09832,-0.93945 -2.09832,-2.09831z"/><path d="M255.51336,192.11223c0,-1.15886 0.93945,-2.09831 2.09831,-2.09831c1.15886,0 2.09831,0.93945 2.09831,2.09831c0,1.15886 -0.93945,2.09832 -2.09831,2.09832c-1.15886,0 -2.09831,-0.93945 -2.09831,-2.09832z"/><path d="M255.34816,195.21037c0,-1.15886 0.93945,-2.09832 2.09832,-2.09832c1.15886,0 2.09831,0.93945 2.09831,2.09832c0,1.15886 -0.93944,2.09831 -2.09831,2.09831c-1.15886,0 -2.09832,-0.93945 -2.09832,-2.09831z"/></g></g></g></g></svg>