<svg version="1.1" xmlns="http://www.w3.org/2000/svg" xmlns:xlink="http://www.w3.org/1999/xlink" width="59.63044" height="59.63044" viewBox="0,0,59.63044,59.63044"><g transform="translate(-210.18478,-150.18478)"><g data-paper-data="{&quot;isPaintingLayer&quot;:true}" fill-rule="nonzero" stroke-linejoin="miter" stroke-miterlimit="10" stroke-dasharray="" stroke-dashoffset="0" style="mix-blend-mode: normal"><path d="M211.18478,208.81522v-57.63044h57.63044v57.63044z" fill="#fceed1" stroke="#808080" stroke-width="2" stroke-linecap="butt"/><path d="M240.94913,180.14884v-23.14122h8.01042c0,0 1.70189,0.14921 2.7203,1.2903c0.76453,0.85662 0.85254,2.56357 1.15475,3.57744c0.73377,2.46169 1.77704,10.72559 2.40513,15.13986c0.44781,3.14726 -1.85172,3.13362 -3.56964,3.13362c-2.74885,0 -10.72096,-0.00001 -10.72096,-0.00001z" fill="#9b3914" stroke="none" stroke-width="0" stroke-linecap="butt"/><path d="M245.24429,200.55176l4.25,-5l4.25,5z" fill="#de7446" stroke="none" stroke-width="0" stroke-linecap="butt"/><path d="M254.74429,200.67676l4.25,-5l4.25,5z" fill="#de7446" stroke="none" stroke-width="0" stroke-linecap="butt"/><path d="M216.4176,203.2036l2.00261,-7.12037h3.11516v7.12037z" fill="#df7543" stroke="none" stroke-width="0" stroke-linecap="butt"/><path d="M221.17681,203.33964v-18.17219h28.85276v18.17219z" fill="#fcc979" stroke="none" stroke-width="0" stroke-linecap="butt"/><path d="M238.74931,203.44438l2.00261,-6.94744h3.11516v6.94744z" fill="#df7543" stroke="none" stroke-width="0" stroke-linecap="butt"/><path d="M243.76234,203.42611v-6.89786h19.58104v6.89786z" fill="#df7543" stroke="none" stroke-width="0" stroke-linecap="butt"/><path d="M249.75747,202.74589v-17.35592h13.57322v17.35592z" fill="#df7543" stroke="none" stroke-width="0" stroke-linecap="butt"/><path d="M244.08401,185.5387v-5.52591l15.38337,0.24027l3.94979,5.28565z" fill="#df7543" stroke="none" stroke-width="0" stroke-linecap="butt"/><path d="M221.07172,185.54429l5.11777,-5.37717h18.02345l5.34029,5.37717z" fill="#fcc979" stroke="none" stroke-width="0" stroke-linecap="butt"/><path d="M227.37025,185.2914c0,-0.67589 0.54792,-1.22382 1.22382,-1.22382c0.67589,0 1.22382,0.54792 1.22382,1.22382c0,0.67589 -0.54792,1.22382 -1.22382,1.22382c-0.67589,0 -1.22382,-0.54792 -1.22382,-1.22382z" fill="#9b3914" stroke="none" stroke-width="0" stroke-linecap="butt"/><path d="M231.75229,185.39614c0,-0.67589 0.54792,-1.22382 1.22382,-1.22382c0.67589,0 1.22381,0.54792 1.22381,1.22382c0,0.67589 -0.54792,1.22382 -1.22381,1.22382c-0.67589,0 -1.22382,-0.54792 -1.22382,-1.22382z" fill="#9b3914" stroke="none" stroke-width="0" stroke-linecap="butt"/><path d="M236.03518,185.50088c0,-0.67589 0.54792,-1.22382 1.22382,-1.22382c0.67589,0 1.22382,0.54792 1.22382,1.22382c0,0.67589 -0.54792,1.22382 -1.22382,1.22382c-0.67589,0 -1.22382,-0.54792 -1.22382,-1.22382z" fill="#9b3914" stroke="none" stroke-width="0" stroke-linecap="butt"/><path d="M229.90959,188.05325c0,-0.67589 0.54792,-1.22382 1.22382,-1.22382c0.67589,0 1.22382,0.54792 1.22382,1.22382c0,0.67589 -0.54792,1.22382 -1.22382,1.22382c-0.67589,0 -1.22382,-0.54792 -1.22382,-1.22382z" fill="#9b3914" stroke="none" stroke-width="0" stroke-linecap="butt"/><path d="M234.01955,188.15799c0,-0.67589 0.54792,-1.22382 1.22382,-1.22382c0.67589,0 1.22382,0.54792 1.22382,1.22382c0,0.67589 -0.54792,1.22382 -1.22382,1.22382c-0.67589,0 -1.22382,-0.54792 -1.22382,-1.22382z" fill="#9b3914" stroke="none" stroke-width="0" stroke-linecap="butt"/><path d="M223.18283,180.1152c-1.71792,0 -4.01745,0.01363 -3.56964,-3.13362c0.62809,-4.41427 1.67136,-12.67817 2.40512,-15.13986c0.30221,-1.01387 0.39022,-2.72082 1.15475,-3.57744c1.01841,-1.14109 2.7203,-1.2903 2.7203,-1.2903h8.01042v23.14122c0,0 -7.97211,0.00001 -10.72096,0.00001z" data-paper-data="{&quot;index&quot;:null}" fill="#df7543" stroke="none" stroke-width="0" stroke-linecap="butt"/><path d="M231.5355,180.15973v-23.12756c0,0 10.30943,0 13.19127,0c1.40469,0 3.13407,0.29759 3.13407,2.65361c0,2.84302 1.26353,12.06433 1.90818,17.14051c0.31055,2.44531 -1.42763,3.20987 -2.86788,3.22046c-3.18783,0.02344 -15.36564,0.11298 -15.36564,0.11298z" fill="#df7543" stroke="none" stroke-width="0" stroke-linecap="butt"/><path d="M251.32255,167.48272h-29.22281" fill="none" stroke="#9b3914" stroke-width="1" stroke-linecap="round"/><path d="M250.32567,171.82335h-29.22281" fill="none" stroke="#9b3914" stroke-width="1.5" stroke-linecap="round"/><path d="M252.46329,162.74179h-29.22281" fill="none" stroke="#9b3914" stroke-width="0.5" stroke-linecap="round"/><path d="M226.03518,172.942c0,-3.47128 0,-14.01824 0,-14.01824h18.46848c0,0 0,9.85922 0,13.35071c0,2.25375 -2.08516,5.56279 -4.67275,5.56279c-3.06411,0 -6.83276,0 -8.67796,0c-2.1072,0 -5.11777,-2.84395 -5.11777,-4.89526z" fill="#fcc979" stroke="none" stroke-width="0" stroke-linecap="butt"/><path d="M233.289,162.70645v-5.11777h4.45023v5.11777z" fill="#df7543" stroke="none" stroke-width="0" stroke-linecap="butt"/><path d="M228.99429,167.30175c0,-0.75939 0.61561,-1.375 1.375,-1.375c0.75939,0 1.375,0.61561 1.375,1.375c0,0.75939 -0.61561,1.375 -1.375,1.375c-0.75939,0 -1.375,-0.61561 -1.375,-1.375z" fill="#9b3914" stroke="none" stroke-width="0" stroke-linecap="butt"/><path d="M238.61929,167.55175c0,-0.75939 0.61561,-1.375 1.375,-1.375c0.75939,0 1.375,0.61561 1.375,1.375c0,0.75939 -0.61561,1.375 -1.375,1.375c-0.75939,0 -1.375,-0.61561 -1.375,-1.375z" fill="#9b3914" stroke="none" stroke-width="0" stroke-linecap="butt"/><path d="M237.69487,161.92766c0,1.41323 -0.98629,2.55889 -2.20293,2.55889c-1.21665,0 -2.20293,-1.14565 -2.20293,-2.55889c0,-1.41323 0.98629,-2.55889 2.20293,-2.55889c1.21665,0 2.20293,1.14565 2.20293,2.55889z" fill="#df7543" stroke="none" stroke-width="0" stroke-linecap="butt"/><path d="M241.18961,202.94792l0.95231,-3.40111" fill="none" stroke="#9b3914" stroke-width="1" stroke-linecap="round"/><path d="M243.19663,202.91428l0.95231,-3.40112" fill="none" stroke="#9b3914" stroke-width="1" stroke-linecap="round"/><path d="M245.3397,202.88064l0.95231,-3.40112" fill="none" stroke="#9b3914" stroke-width="1" stroke-linecap="round"/></g></g></svg>