<svg version="1.1" xmlns="http://www.w3.org/2000/svg" xmlns:xlink="http://www.w3.org/1999/xlink" width="59.63044" height="59.63044" viewBox="0,0,59.63044,59.63044"><g transform="translate(-210.18478,-150.18479)"><g data-paper-data="{&quot;isPaintingLayer&quot;:true}" fill-rule="nonzero" stroke-linejoin="miter" stroke-miterlimit="10" stroke-dasharray="" stroke-dashoffset="0" style="mix-blend-mode: normal"><path d="M211.18478,208.81523v-57.63044h57.63044v57.63044z" fill="#fed87e" stroke="#808080" stroke-width="2" stroke-linecap="butt"/><path d="M224.83333,202.16667v-7h30.33333v7z" fill="#cfd2d2" stroke="none" stroke-width="0" stroke-linecap="butt"/><path d="M235.34565,198.26965v-16h8.66667v16z" fill="#d86d3d" stroke="none" stroke-width="0" stroke-linecap="butt"/><path d="M228.18741,178.40775l5.79729,-5.01689l7.85252,9.07402l-5.79729,5.01689z" fill="#d86d3d" stroke="none" stroke-width="0" stroke-linecap="butt"/><path d="M242.9847,187.8151l-5.79729,-5.01689l7.85252,-9.07403l5.79729,5.01689z" data-paper-data="{&quot;index&quot;:null}" fill="#d86d3d" stroke="none" stroke-width="0" stroke-linecap="butt"/><g stroke="none" stroke-width="0" stroke-linecap="butt"><path d="M214.67899,168.43632c0,-2.81373 1.66087,-5.71912 4.19068,-7.6837c3.01136,-2.33853 6.97599,-2.8163 6.97599,-2.8163v21c0,0 -3.54935,-0.10771 -6.52958,-2.39566c-2.57309,-1.97538 -4.63709,-5.24874 -4.63709,-8.10434z" fill="#1d9679"/><path d="M232.5419,176.54066c-2.98023,2.28795 -6.52958,2.39566 -6.52958,2.39566v-21c0,0 3.96463,0.47776 6.97599,2.8163c2.52981,1.96457 4.19068,4.86997 4.19068,7.6837c0,2.8556 -2.06399,6.12896 -4.63708,8.10434z" data-paper-data="{&quot;index&quot;:null}" fill="#6ec793"/></g><g stroke="none" stroke-width="0" stroke-linecap="butt"><path d="M258.5419,176.20732c-2.98024,2.28795 -6.52958,2.39566 -6.52958,2.39566v-21c0,0 3.96463,0.47776 6.97599,2.8163c2.52981,1.96457 4.19068,4.86997 4.19068,7.6837c0,2.8556 -2.06399,6.12896 -4.63708,8.10434z" data-paper-data="{&quot;index&quot;:null}" fill="#1d9679"/><path d="M240.67899,168.10298c0,-2.81373 1.66087,-5.71913 4.19068,-7.6837c3.01136,-2.33854 6.97599,-2.8163 6.97599,-2.8163v21c0,0 -3.54935,-0.10772 -6.52958,-2.39566c-2.57309,-1.97538 -4.63709,-5.24873 -4.63709,-8.10434z" data-paper-data="{&quot;index&quot;:null}" fill="#6ec793"/></g><path d="M225.34565,190.93632h28" fill="none" stroke="#000000" stroke-width="1.5" stroke-linecap="round"/><path d="M227.67899,200.26965l0.33333,-9.33333" fill="none" stroke="#000000" stroke-width="1.5" stroke-linecap="round"/><path d="M232.01232,200.26965l0.33333,-9.33334" fill="none" stroke="#000000" stroke-width="1.5" stroke-linecap="round"/><path d="M237.01232,200.26965l0.33333,-9.33334" fill="none" stroke="#000000" stroke-width="1.5" stroke-linecap="round"/><path d="M242.01232,200.26965l0.33333,-9.33334" fill="none" stroke="#000000" stroke-width="1.5" stroke-linecap="round"/><path d="M246.34565,200.26965l0.33333,-9.33334" fill="none" stroke="#000000" stroke-width="1.5" stroke-linecap="round"/><path d="M251.67898,190.93631l-0.33333,9.33334" fill="none" stroke="#000000" stroke-width="1.5" stroke-linecap="round"/><path d="M226.34565,188.60298c0,-0.55228 0.44772,-1 1,-1c0.55228,0 1,0.44772 1,1c0,0.55228 -0.44772,1 -1,1c-0.55228,0 -1,-0.44772 -1,-1z" fill="#000000" stroke="none" stroke-width="0" stroke-linecap="butt"/><path d="M231.34565,188.60298c0,-0.55229 0.44771,-1 1,-1c0.55229,0 1,0.44771 1,1c0,0.55229 -0.44771,1 -1,1c-0.55229,0 -1,-0.44771 -1,-1z" fill="#000000" stroke="none" stroke-width="0" stroke-linecap="butt"/><path d="M236.34565,188.60298c0,-0.55229 0.44771,-1 1,-1c0.55229,0 1,0.44771 1,1c0,0.55229 -0.44771,1 -1,1c-0.55229,0 -1,-0.44771 -1,-1z" fill="#000000" stroke="none" stroke-width="0" stroke-linecap="butt"/><path d="M241.34565,188.60298c0,-0.55229 0.44771,-1 1,-1c0.55229,0 1,0.44771 1,1c0,0.55229 -0.44771,1 -1,1c-0.55229,0 -1,-0.44771 -1,-1z" fill="#000000" stroke="none" stroke-width="0" stroke-linecap="butt"/><path d="M245.67898,188.60298c0,-0.55229 0.44771,-1 1,-1c0.55229,0 1,0.44771 1,1c0,0.55229 -0.44771,1 -1,1c-0.55229,0 -1,-0.44771 -1,-1z" fill="#000000" stroke="none" stroke-width="0" stroke-linecap="butt"/><path d="M250.34565,188.60298c0,-0.55229 0.44771,-1 1,-1c0.55229,0 1,0.44771 1,1c0,0.55229 -0.44771,1 -1,1c-0.55229,0 -1,-0.44771 -1,-1z" fill="#000000" stroke="none" stroke-width="0" stroke-linecap="butt"/></g></g></svg>