<svg version="1.1" xmlns="http://www.w3.org/2000/svg" xmlns:xlink="http://www.w3.org/1999/xlink" width="59.63044" height="59.63044" viewBox="0,0,59.63044,59.63044"><g transform="translate(-210.18478,-150.18478)"><g data-paper-data="{&quot;isPaintingLayer&quot;:true}" fill-rule="nonzero" stroke-linecap="butt" stroke-linejoin="miter" stroke-miterlimit="10" stroke-dasharray="" stroke-dashoffset="0" style="mix-blend-mode: normal"><path d="M211.18478,208.81523v-57.63044h57.63044v57.63044z" fill="#feedcf" stroke="#808080" stroke-width="2"/><g><path d="M219.375,175.8125c0,-11.04569 9.23413,-20 20.625,-20c11.39087,0 20.625,8.95431 20.625,20c0,11.04569 -9.23412,20 -20.625,20c-11.39087,0 -20.625,-8.95431 -20.625,-20z" fill="#ffc57a" stroke="none" stroke-width="0"/><path d="M243.87003,184.50793c-1.32064,0.26105 -2.64085,-0.79006 -2.94876,-2.34774c-0.30791,-1.55767 0.51307,-3.03205 1.83371,-3.29311c1.32064,-0.26105 2.64085,0.79006 2.94876,2.34774c0.30791,1.55767 -0.51307,3.03205 -1.83371,3.29311z" data-paper-data="{&quot;index&quot;:null}" fill="#e76f42" stroke="#000000" stroke-width="0.5"/><path d="M236.96875,204.1875l1.5,-33h3.8125l0.875,33z" fill="#973f29" stroke="none" stroke-width="0"/><path d="M234.92127,180.96482c0.30791,-1.55767 1.62812,-2.60879 2.94876,-2.34774c1.32064,0.26105 2.14162,1.73543 1.83371,3.29311c-0.30791,1.55767 -1.62812,2.60879 -2.94876,2.34774c-1.32064,-0.26105 -2.14162,-1.73543 -1.83371,-3.29311z" fill="#e76f42" stroke="#000000" stroke-width="0.5"/><path d="M240.74503,182.38293c-1.32064,0.26105 -2.64085,-0.79006 -2.94876,-2.34774c-0.30791,-1.55767 0.51307,-3.03205 1.83371,-3.29311c1.32064,-0.26105 2.64085,0.79006 2.94876,2.34774c0.30791,1.55767 -0.51307,3.03205 -1.83371,3.29311z" data-paper-data="{&quot;index&quot;:null}" fill="#e76f42" stroke="#000000" stroke-width="0.5"/><path d="M240.33736,171.32052c0,0 -5.16725,-3.29213 -10.14741,-1.8757c-4.79265,1.36309 -8.0273,6.48467 -8.0273,6.48467c0,0 5.69185,3.06001 10.14741,1.8757c5.00392,-1.33007 8.0273,-6.48466 8.0273,-6.48466z" fill="#28917d" stroke="none" stroke-width="0"/><path d="M240.92403,172.04702c0,0 -5.89692,-1.66282 -10.25736,1.1291c-4.19627,2.6868 -5.81721,8.5234 -5.81721,8.5234c0,0 6.33234,1.28934 10.25736,-1.1291c4.40808,-2.71608 5.81721,-8.5234 5.81721,-8.5234z" fill="#28917d" stroke="none" stroke-width="0"/><path d="M239.47446,171.79702c0,0 5.89692,-1.66282 10.25736,1.1291c4.19627,2.6868 5.81721,8.5234 5.81721,8.5234c0,0 -6.33233,1.28934 -10.25736,-1.1291c-4.40808,-2.71608 -5.81721,-8.5234 -5.81721,-8.5234z" data-paper-data="{&quot;index&quot;:null}" fill="#28917d" stroke="none" stroke-width="0"/><path d="M239.78765,171.07052c0,0 5.16725,-3.29213 10.14741,-1.8757c4.79265,1.36309 8.02729,6.48467 8.02729,6.48467c0,0 -5.69185,3.06001 -10.14741,1.8757c-5.00392,-1.33007 -8.0273,-6.48466 -8.0273,-6.48466z" data-paper-data="{&quot;index&quot;:null}" fill="#28917d" stroke="none" stroke-width="0"/></g></g></g></svg>