<svg version="1.1" xmlns="http://www.w3.org/2000/svg" xmlns:xlink="http://www.w3.org/1999/xlink" width="59.63044" height="59.63044" viewBox="0,0,59.63044,59.63044"><g transform="translate(-210.18478,-150.18478)"><g data-paper-data="{&quot;isPaintingLayer&quot;:true}" fill-rule="nonzero" stroke-linejoin="miter" stroke-miterlimit="10" stroke-dasharray="" stroke-dashoffset="0" style="mix-blend-mode: normal"><path d="M211.18478,208.81522v-57.63044h57.63044v57.63044z" fill="#90d7f4" stroke="#808080" stroke-width="2" stroke-linecap="butt"/><path d="M232.71957,168.31169c0,-3.94489 3.19797,-7.14286 7.14285,-7.14286c3.94489,0 7.14286,3.19797 7.14286,7.14286c0,3.94489 -3.19797,7.14285 -7.14286,7.14285c-3.94489,0 -7.14285,-3.19797 -7.14285,-7.14285z" fill="#f2383c" stroke="none" stroke-width="0" stroke-linecap="butt"/><path d="M226.71429,180h26.57143" fill="none" stroke="#f2383c" stroke-width="3.5" stroke-linecap="round"/><path d="M229.42857,182.16883c0,-1.15042 0,-4.0208 0,-4.71429c0,-0.93169 1.20309,-1.31169 3.00528,-1.31169c2.24647,0 5.20186,0 7.14286,0c2.18945,0 5.77581,0 8.28571,0c1.6619,0 2.85186,0.85069 2.85186,1.74026c0,0.6518 0,3.0135 0,4.14286c0,1.33527 -1.26619,1.83117 -2.99472,1.83117c-2.34143,0 -5.5312,0 -7.57143,0c-1.97323,0 -5.05192,0 -7.42857,0c-1.95426,0 -3.29099,-0.47596 -3.29099,-1.68831z" fill="#a41b34" stroke="#a41b34" stroke-width="3.5" stroke-linecap="butt"/><path d="M232.42857,200.57143v-32.57143h15.14286v32.57143z" fill="#f2383c" stroke="none" stroke-width="0" stroke-linecap="butt"/><path d="M232,169h16" fill="none" stroke="#a41b34" stroke-width="3.5" stroke-linecap="round"/><path d="M232,199.57143h16" fill="none" stroke="#a41b34" stroke-width="3.5" stroke-linecap="round"/><path d="M255.14814,192.09741c0,1.34519 -0.14023,1.79149 -0.57417,2.16366c-0.26185,0.22458 -0.63065,0.60386 -1.14011,0.62205c-1.35374,0.04835 -2.28572,-1.25024 -2.28572,-2.64286c0,-1.39262 2.14286,-4.64285 2.14286,-4.64285c0,0 1.85714,2.34307 1.85714,4.5z" fill="#ffffff" stroke="none" stroke-width="0" stroke-linecap="butt"/><path d="M238.14814,160.38312c0,-0.98622 0.76751,-1.78571 1.71428,-1.78571c0.94678,0 1.71429,0.79949 1.71429,1.78571c0,0.98622 -0.76752,1.78571 -1.71429,1.78571c-0.94678,0 -1.71428,-0.79949 -1.71428,-1.78571z" fill="#f2383c" stroke="none" stroke-width="0" stroke-linecap="butt"/><path d="M237.07143,161.42857h5.85714" fill="none" stroke="#a41b34" stroke-width="2" stroke-linecap="round"/><path d="M234.28572,180c0,-3.15591 2.55837,-5.71428 5.71428,-5.71428c3.15591,0 5.71428,2.55837 5.71428,5.71428c0,3.15591 -2.55837,5.71428 -5.71428,5.71428c-3.15591,0 -5.71428,-2.55837 -5.71428,-5.71428z" fill="none" stroke="#a41b34" stroke-width="2" stroke-linecap="butt"/><path d="M237.57143,180c0,-1.34126 1.08731,-2.42857 2.42857,-2.42857c1.34126,0 2.42857,1.08731 2.42857,2.42857c0,1.34126 -1.08731,2.42857 -2.42857,2.42857c-1.34126,0 -2.42857,-1.08731 -2.42857,-2.42857z" fill="#a41b34" stroke="none" stroke-width="0" stroke-linecap="butt"/></g></g></svg>