<svg version="1.1" xmlns="http://www.w3.org/2000/svg" xmlns:xlink="http://www.w3.org/1999/xlink" width="59.63044" height="59.63044" viewBox="0,0,59.63044,59.63044"><g transform="translate(-210.18479,-150.1848)"><g data-paper-data="{&quot;isPaintingLayer&quot;:true}" fill-rule="nonzero" stroke-linejoin="miter" stroke-miterlimit="10" stroke-dasharray="" stroke-dashoffset="0" style="mix-blend-mode: normal"><path d="M211.1848,208.81524v-57.63044h57.63044v57.63044z" fill="#62b4ee" stroke="#808080" stroke-width="2" stroke-linecap="butt"/><path d="M230.62502,159.00001h18.75" fill="#0d588f" stroke="#0d588f" stroke-width="4.5" stroke-linecap="round"/><path d="M230.62502,201.00002h18.75" fill="#0d588f" stroke="#0d588f" stroke-width="4.5" stroke-linecap="round"/><path d="M218.12502,180.00002h43.75" fill="#0d588f" stroke="#0d588f" stroke-width="4.5" stroke-linecap="round"/><path d="M218.12502,186.75002h43.75" fill="#0d588f" stroke="#0d588f" stroke-width="4.5" stroke-linecap="round"/><path d="M218.12502,173.25002h43.75" fill="#0d588f" stroke="#0d588f" stroke-width="4.5" stroke-linecap="round"/><path d="M221.87502,165.75001c0,0 14.44818,0 21.06056,0c5.88632,0 16.68944,0 16.68944,0" fill="#0d588f" stroke="#0d588f" stroke-width="4.5" stroke-linecap="round"/><path d="M235.49308,200.62502v-41.25h9.01389v41.25z" fill="#0d588f" stroke="none" stroke-width="0" stroke-linecap="butt"/><path d="M221.12502,194.00002h37.75" fill="#0d588f" stroke="#0d588f" stroke-width="4.5" stroke-linecap="round"/><path d="M222.37502,180.00002c0,-9.73402 7.89098,-17.625 17.625,-17.625c9.73402,0 17.625,7.89098 17.625,17.625c0,9.73402 -7.89098,17.625 -17.625,17.625c-9.73402,0 -17.625,-7.89098 -17.625,-17.625z" fill="#e9fdff" stroke="#e9fdff" stroke-width="0.5" stroke-linecap="butt"/><path d="M227.97639,192.82283c0,0 -1.73075,-1.44472 -2.25324,-2.27032c-0.42238,-0.66742 -1.21719,-2.31043 -1.21719,-2.31043c0,0 0.88756,-1.09945 1.88592,-2.37815c0.62502,-0.80053 0.29055,-2.13413 1.33894,-2.77625c3.13223,-1.91842 3.56612,0.84257 6.86022,-1.24039c3.21225,-2.0312 0.68864,-3.17349 3.44876,-4.9188c2.86326,-1.81052 3.5882,0.59545 6.45227,-1.21559c2.71521,-1.71691 0.03987,-2.81305 3.67568,-5.16605c0.946,-0.61222 2.86583,-0.10851 3.70735,-0.2672c1.52901,-0.28833 2.32403,-0.21418 2.32403,-0.21418c0,0 1.10496,1.07721 1.5394,1.76526c0.53358,0.84506 0.99766,3.21726 0.99766,3.21726c0,0 -4.23011,-0.85217 -6.35488,0.5323c-2.35178,1.53239 -1.4024,4.14872 -3.5143,5.24108c-1.68139,0.86969 -4.29696,0.13122 -5.66925,0.99896c-1.26563,0.8003 -1.72542,3.44345 -3.57655,4.75683c-2.12808,1.50988 -4.90915,0.13112 -6.79581,1.17294c-2.05694,1.13585 -2.84902,5.07273 -2.84902,5.07273z" fill="#62b4ee" stroke="none" stroke-width="0" stroke-linecap="butt"/><path d="M225.23257,179.23993c-1.24618,0.56763 -2.30707,0.23033 -2.64739,-0.46804c-0.27512,-0.56456 0.12783,-2.50776 0.12783,-2.50776c0,0 0.84065,-0.52547 1.65286,-1.51374c0.50848,-0.61871 0.33627,-1.72047 1.14945,-2.1885c2.4295,-1.39827 2.59445,0.8694 5.15323,-0.65432c2.49519,-1.48585 0.69014,-2.54512 2.83414,-3.82184c2.2241,-1.32442 2.62483,0.66956 4.84957,-0.65523c2.10911,-1.25594 0.18903,-2.28552 3.01629,-4.01117c0.73562,-0.44899 2.12951,0.05979 2.76201,-0.02579c1.14923,-0.1555 1.73407,-0.05413 1.73407,-0.05413c0,0 2.18273,1.03242 2.46561,1.61439c0.34743,0.71476 -0.704,2.26557 -0.704,2.26557c0,0 -3.2502,-0.60861 -4.90299,0.4075c-1.82937,1.12466 -1.27428,3.3013 -2.90097,4.08053c-1.29509,0.62038 -3.19116,-0.11525 -4.25712,0.51952c-0.98311,0.58543 -1.47363,2.71109 -2.91964,3.68352c-1.66235,1.11791 -3.64474,-0.14696 -5.10168,0.60281c-1.58843,0.81742 -1.06509,2.15906 -2.31127,2.72669z" fill="#62b4ee" stroke="none" stroke-width="0" stroke-linecap="butt"/><path d="M254.82233,181.79908c1.22433,-0.55768 2.26662,-0.22629 2.60098,0.45983c0.27029,0.55466 -0.12559,2.46379 -0.12559,2.46379c0,0 -0.82591,0.51626 -1.62387,1.4872c-0.49956,0.60786 -0.33037,1.69031 -1.1293,2.15012c-2.38691,1.37375 -2.54896,-0.85415 -5.06287,0.64285c-2.45144,1.4598 -0.67804,2.50049 -2.78444,3.75482c-2.1851,1.3012 -2.57881,-0.65782 -4.76454,0.64375c-2.07212,1.23392 -0.18571,2.24544 -2.9634,3.94084c-0.72273,0.44112 -2.09218,-0.05874 -2.71359,0.02534c-1.12907,0.15277 -1.70367,0.05318 -1.70367,0.05318c0,0 -2.14446,-1.01432 -2.42238,-1.58608c-0.34134,-0.70223 0.69166,-2.22585 0.69166,-2.22585c0,0 3.19321,0.59793 4.81702,-0.40035c1.79729,-1.10494 1.25193,-3.24342 2.85011,-4.00899c1.27238,-0.60951 3.13521,0.11323 4.18248,-0.51041c0.96587,-0.57517 1.44779,-2.66356 2.86844,-3.61893c1.63321,-1.09831 3.58084,0.14438 5.01222,-0.59224c1.56058,-0.80309 1.04642,-2.1212 2.27075,-2.67888z" data-paper-data="{&quot;index&quot;:null}" fill="#62b4ee" stroke="none" stroke-width="0" stroke-linecap="butt"/></g></g></svg>