<svg version="1.1" xmlns="http://www.w3.org/2000/svg" xmlns:xlink="http://www.w3.org/1999/xlink" width="59.63044" height="59.63044" viewBox="0,0,59.63044,59.63044"><g transform="translate(-210.18478,-150.18478)"><g data-paper-data="{&quot;isPaintingLayer&quot;:true}" fill-rule="nonzero" stroke-linecap="butt" stroke-linejoin="miter" stroke-miterlimit="10" stroke-dasharray="" stroke-dashoffset="0" style="mix-blend-mode: normal"><g><path d="M211.18478,208.81522v-57.63044h57.63044v57.63044z" fill="#67a8d0" stroke="#828282" stroke-width="2"/><path d="M212.18974,203.69721l-0.00342,-8.92018c0,0 1.40655,-1.25106 3.91955,-2.15145c1.57327,-0.56369 2.28088,-2.71256 4.30365,-2.68362c6.04328,0.08648 4.21865,4.30795 10.63177,4.30795c6.25376,0 3.74856,-3.80797 9.1221,-3.80797c5.57432,0 4.46669,3.98367 10.04261,3.98367c5.2861,0 2.52931,-3.87723 9.65514,-3.95227c1.85406,-0.01952 4.08111,2.36935 5.39102,2.8887c2.38006,0.94364 2.57323,1.76639 2.57323,1.76639l-0.00599,9.14019c0,0 -5.13366,-4.90523 -9.30625,-4.84833c-4.61838,0.06299 -5.59887,4.53659 -9.49668,4.19856c-3.10324,-0.26912 -6.09145,-3.59635 -8.7631,-3.59635c-2.46399,0 -5.42789,3.27165 -9.15738,3.47033c-4.28748,0.2284 -6.94278,-4.13486 -10.48287,-4.34509c-3.85961,-0.22922 -8.42338,4.54947 -8.42338,4.54947z" fill="#448fbc" stroke="none" stroke-width="0"/><path d="M212.18974,170.84007l-0.00342,-8.92018c0,0 1.40655,-1.25106 3.91955,-2.15145c1.57327,-0.56369 2.28088,-2.71256 4.30365,-2.68362c6.04328,0.08648 4.21865,4.30795 10.63177,4.30795c6.25376,0 3.74856,-3.80797 9.1221,-3.80797c5.57432,0 4.46669,3.98367 10.04261,3.98367c5.2861,0 2.52931,-3.87723 9.65514,-3.95227c1.85406,-0.01952 4.08111,2.36935 5.39102,2.8887c2.38006,0.94364 2.57323,1.76639 2.57323,1.76639l-0.00599,9.14019c0,0 -5.13366,-4.90523 -9.30625,-4.84833c-4.61838,0.06299 -5.59887,4.53659 -9.49668,4.19856c-3.10324,-0.26912 -6.09145,-3.59635 -8.7631,-3.59635c-2.46399,0 -5.42789,3.27165 -9.15738,3.47033c-4.28748,0.2284 -6.94278,-4.13486 -10.48287,-4.34509c-3.85961,-0.22922 -8.42338,4.54947 -8.42338,4.54947z" fill="#448fbc" stroke="none" stroke-width="0"/><path d="M212.18973,187.55435l-0.00342,-8.92018c0,0 1.40655,-1.25106 3.91955,-2.15145c1.57327,-0.56369 2.28088,-2.71256 4.30365,-2.68362c6.04328,0.08648 4.21865,4.30795 10.63177,4.30795c6.25376,0 3.74856,-3.80797 9.1221,-3.80797c5.57432,0 4.46669,3.98367 10.04261,3.98367c5.2861,0 2.52931,-3.87723 9.65514,-3.95227c1.85406,-0.01952 4.08111,2.36935 5.39102,2.8887c2.38006,0.94364 2.57323,1.76639 2.57323,1.76639l-0.00599,9.14019c0,0 -5.13366,-4.90523 -9.30625,-4.84833c-4.61838,0.06299 -5.59887,4.53659 -9.49668,4.19856c-3.10324,-0.26912 -6.09145,-3.59635 -8.7631,-3.59635c-2.46399,0 -5.42789,3.27165 -9.15738,3.47033c-4.28748,0.2284 -6.94278,-4.13486 -10.48287,-4.34509c-3.85961,-0.22922 -8.42338,4.54947 -8.42338,4.54947z" fill="#448fbc" stroke="none" stroke-width="0"/></g></g></g></svg>