<svg version="1.1" xmlns="http://www.w3.org/2000/svg" xmlns:xlink="http://www.w3.org/1999/xlink" width="59.63044" height="59.63044" viewBox="0,0,59.63044,59.63044"><g transform="translate(-210.18478,-150.18478)"><g data-paper-data="{&quot;isPaintingLayer&quot;:true}" fill-rule="nonzero" stroke-linejoin="miter" stroke-miterlimit="10" stroke-dasharray="" stroke-dashoffset="0" style="mix-blend-mode: normal"><path d="M268.81522,151.18478v57.63044h-57.63044v-57.63044z" data-paper-data="{&quot;index&quot;:null}" fill="#000000" stroke="#808080" stroke-width="2" stroke-linecap="butt"/><path d="M264.66668,202.50567c0,0.77325 -0.62683,1.40008 -1.40008,1.40008c-0.77325,0 -1.40008,-0.62683 -1.40008,-1.40008c0,-0.77325 0.62683,-1.40008 1.40008,-1.40008c0.77325,0 1.40008,0.62683 1.40008,1.40008z" fill="#ffffff" stroke="none" stroke-width="0" stroke-linecap="butt"/><path d="M220.58333,202.27226c0,1.47276 -1.09441,2.66667 -2.44444,2.66667c-1.35003,0 -2.44445,-1.19392 -2.44445,-2.66667c0,-1.47276 1.09442,-2.66666 2.44445,-2.66666c1.35003,0 2.44444,1.19391 2.44444,2.66666z" fill="#ffffff" stroke="none" stroke-width="0" stroke-linecap="butt"/><path d="M230.58333,160.6056c0,1.47276 -1.09443,2.66666 -2.44445,2.66666c-1.35002,0 -2.44444,-1.19391 -2.44444,-2.66666c0,-1.47276 1.09442,-2.66666 2.44444,-2.66666c1.35002,0 2.44445,1.19391 2.44445,2.66666z" fill="#ffffff" stroke="none" stroke-width="0" stroke-linecap="butt"/><path d="M238.00001,198.6056c0,0.82843 -0.67157,1.5 -1.5,1.5c-0.82843,0 -1.5,-0.67157 -1.5,-1.5c0,-0.82843 0.67157,-1.5 1.5,-1.5c0.82843,0 1.5,0.67157 1.5,1.5z" fill="#ffffff" stroke="none" stroke-width="0" stroke-linecap="butt"/><path d="M255.00001,186.6056c0,0.82843 -0.67157,1.5 -1.5,1.5c-0.82843,0 -1.5,-0.67157 -1.5,-1.5c0,-0.82843 0.67157,-1.5 1.5,-1.5c0.82843,0 1.5,0.67157 1.5,1.5z" fill="#ffffff" stroke="none" stroke-width="0" stroke-linecap="butt"/><path d="M236,166.27226c0,0.82843 -0.67157,1.5 -1.5,1.5c-0.82843,0 -1.5,-0.67157 -1.5,-1.5c0,-0.82843 0.67157,-1.5 1.5,-1.5c0.82843,0 1.5,0.67157 1.5,1.5z" fill="#ffffff" stroke="none" stroke-width="0" stroke-linecap="butt"/><path d="M221.00002,168.6056c0,0.82843 -0.67157,1.5 -1.5,1.5c-0.82843,0 -1.5,-0.67157 -1.5,-1.5c0,-0.82843 0.67157,-1.5 1.5,-1.5c0.82843,0 1.5,0.67157 1.5,1.5z" fill="#ffffff" stroke="none" stroke-width="0" stroke-linecap="butt"/><path d="M218.33336,156.93893c0,0.82843 -0.67158,1.5 -1.5,1.5c-0.82843,0 -1.5,-0.67157 -1.5,-1.5c0,-0.82843 0.67157,-1.5 1.5,-1.5c0.82842,0 1.5,0.67157 1.5,1.5z" fill="#ffffff" stroke="none" stroke-width="0" stroke-linecap="butt"/><path d="M245.16668,191.27226c0,0.55229 -0.44771,1 -1,1c-0.55229,0 -1,-0.44771 -1,-1c0,-0.55229 0.44771,-1 1,-1c0.55229,0 1,0.44771 1,1z" fill="#ffffff" stroke="none" stroke-width="0" stroke-linecap="butt"/><path d="M222.83333,181.27226c0,0.55229 -0.44772,1 -1,1c-0.55228,0 -1,-0.44771 -1,-1c0,-0.55229 0.44772,-1 1,-1c0.55228,0 1,0.44771 1,1z" fill="#ffffff" stroke="none" stroke-width="0" stroke-linecap="butt"/><path d="M220.16668,190.93892c0,0.55229 -0.44772,1 -1,1c-0.55228,0 -1,-0.44771 -1,-1c0,-0.55229 0.44772,-1 1,-1c0.55228,0 1,0.44771 1,1z" fill="#ffffff" stroke="none" stroke-width="0" stroke-linecap="butt"/><path d="M261.83333,176.27226c0,0.55229 -0.44771,1 -1,1c-0.55229,0 -1,-0.44771 -1,-1c0,-0.55229 0.44771,-1 1,-1c0.55229,0 1,0.44771 1,1z" fill="#ffffff" stroke="none" stroke-width="0" stroke-linecap="butt"/><path d="M249.50001,173.93892c0,0.55229 -0.44771,1 -1,1c-0.55229,0 -1,-0.44771 -1,-1c0,-0.55229 0.44771,-1 1,-1c0.55229,0 1,0.44771 1,1z" fill="#ffffff" stroke="none" stroke-width="0" stroke-linecap="butt"/><path d="M247.33333,161.39439c0,0.36819 -0.29847,0.66666 -0.66666,0.66666c-0.36819,0 -0.66667,-0.29847 -0.66667,-0.66666c0,-0.36819 0.29848,-0.66666 0.66667,-0.66666c0.36819,0 0.66666,0.29847 0.66666,0.66666z" fill="#ffffff" stroke="none" stroke-width="0" stroke-linecap="butt"/><path d="M240.66669,155.72773c0,0.36819 -0.29847,0.66666 -0.66666,0.66666c-0.36819,0 -0.66667,-0.29847 -0.66667,-0.66666c0,-0.36819 0.29848,-0.66666 0.66667,-0.66666c0.36819,0 0.66666,0.29847 0.66666,0.66666z" fill="#ffffff" stroke="none" stroke-width="0" stroke-linecap="butt"/><path d="M235.66669,174.39439c0,0.36819 -0.29847,0.66666 -0.66666,0.66666c-0.36819,0 -0.66667,-0.29847 -0.66667,-0.66666c0,-0.36819 0.29848,-0.66666 0.66667,-0.66666c0.36819,0 0.66666,0.29847 0.66666,0.66666z" fill="#ffffff" stroke="none" stroke-width="0" stroke-linecap="butt"/><path d="M216.33333,177.06105c0,0.36819 -0.29847,0.66666 -0.66667,0.66666c-0.36819,0 -0.66667,-0.29847 -0.66667,-0.66666c0,-0.36819 0.29848,-0.66666 0.66667,-0.66666c0.36819,0 0.66667,0.29847 0.66667,0.66666z" fill="#ffffff" stroke="none" stroke-width="0" stroke-linecap="butt"/><path d="M265.00001,170.06105c0,0.36819 -0.29847,0.66666 -0.66666,0.66666c-0.36819,0 -0.66667,-0.29847 -0.66667,-0.66666c0,-0.36819 0.29848,-0.66666 0.66667,-0.66666c0.36819,0 0.66666,0.29847 0.66666,0.66666z" fill="#ffffff" stroke="none" stroke-width="0" stroke-linecap="butt"/><path d="M264.33333,155.72773c0,0.36819 -0.29847,0.66667 -0.66666,0.66667c-0.36819,0 -0.66667,-0.29848 -0.66667,-0.66667c0,-0.36819 0.29848,-0.66666 0.66667,-0.66666c0.36819,0 0.66666,0.29847 0.66666,0.66666z" fill="#ffffff" stroke="none" stroke-width="0" stroke-linecap="butt"/><path d="M260.00001,193.39439c0,0.36819 -0.29847,0.66666 -0.66666,0.66666c-0.36819,0 -0.66667,-0.29847 -0.66667,-0.66666c0,-0.36819 0.29848,-0.66666 0.66667,-0.66666c0.36819,0 0.66666,0.29847 0.66666,0.66666z" fill="#ffffff" stroke="none" stroke-width="0" stroke-linecap="butt"/><path d="M264.33333,183.39438c0,0.36819 -0.29847,0.66666 -0.66666,0.66666c-0.36819,0 -0.66667,-0.29847 -0.66667,-0.66666c0,-0.36819 0.29848,-0.66667 0.66667,-0.66667c0.36819,0 0.66666,0.29848 0.66666,0.66667z" fill="#ffffff" stroke="none" stroke-width="0" stroke-linecap="butt"/><path d="M248.66669,200.06106c0,0.36819 -0.29847,0.66666 -0.66666,0.66666c-0.36819,0 -0.66667,-0.29847 -0.66667,-0.66666c0,-0.36819 0.29848,-0.66666 0.66667,-0.66666c0.36819,0 0.66666,0.29847 0.66666,0.66666z" fill="#ffffff" stroke="none" stroke-width="0" stroke-linecap="butt"/><path d="M230.33333,194.39438c0,0.36819 -0.29847,0.66666 -0.66666,0.66666c-0.36819,0 -0.66667,-0.29847 -0.66667,-0.66666c0,-0.36819 0.29848,-0.66667 0.66667,-0.66667c0.36819,0 0.66666,0.29848 0.66666,0.66667z" fill="#ffffff" stroke="none" stroke-width="0" stroke-linecap="butt"/><path d="M259.45,163.20479c0,1.36186 -1.01202,2.46586 -2.26038,2.46586c-1.24836,0 -2.26037,-1.10401 -2.26037,-2.46586c0,-1.36186 1.01201,-2.46586 2.26037,-2.46586c1.24836,0 2.26038,1.10401 2.26038,2.46586z" fill="#ffffff" stroke="none" stroke-width="0" stroke-linecap="butt"/><g><path d="M233.57967,180.04963c2.33622,0 4.2301,1.84532 4.2301,4.12164c0,2.27632 -1.89388,4.12164 -4.2301,4.12164c-2.33622,0 -4.2301,-1.84532 -4.2301,-4.12164c0,-2.27632 1.89388,-4.12164 4.2301,-4.12164z" fill="#fa9350" stroke="none" stroke-width="0" stroke-linecap="butt"/><path d="M237.3362,186.90665c0,0 0.64328,0.51004 0.80837,1.29686c0.11032,0.52582 -0.44493,1.02635 -0.9031,1.10705c-0.40031,0.0705 -0.9173,-0.2189 -1.37567,-0.57591c-1.62974,-1.26934 -4.88455,-4.966 -5.30234,-5.4005c-0.24312,-0.25284 -1.19667,-1.32093 -1.34449,-2.22913c-0.15042,-0.92414 0.50984,-1.43575 0.84099,-1.34937c0.68253,0.17804 1.13557,0.6891 1.13557,0.6891" fill="none" stroke="#c50300" stroke-width="1" stroke-linecap="round"/></g></g></g></svg>