<svg version="1.1" xmlns="http://www.w3.org/2000/svg" xmlns:xlink="http://www.w3.org/1999/xlink" width="59.63044" height="59.63044" viewBox="0,0,59.63044,59.63044"><g transform="translate(-210.18478,-150.18478)"><g data-paper-data="{&quot;isPaintingLayer&quot;:true}" fill-rule="nonzero" stroke-linecap="butt" stroke-linejoin="miter" stroke-miterlimit="10" stroke-dasharray="" stroke-dashoffset="0" style="mix-blend-mode: normal"><path d="M211.18478,208.81522v-57.63044h57.63044v57.63044z" fill="#000000" stroke="#808080" stroke-width="2"/><g stroke="none" stroke-width="0"><path d="M230.19802,173.65777l-8.70625,-8.70583l8.70713,-8.07959l0.48765,4.20184l6.89655,-1.9791l-2.93041,5.84112l4.47961,0.81304z" fill="#f6a357"/><path d="M219.97463,168.96507c0,-3.41372 2.76736,-6.18108 6.18108,-6.18108c3.41372,0 6.18109,2.76736 6.18109,6.18108c0,3.41372 -2.76737,6.18109 -6.18109,6.18109c-3.41372,0 -6.18108,-2.76737 -6.18108,-6.18109z" fill="#f6a357"/><path d="M221.29939,168.86985c0,-2.72175 2.20641,-4.92817 4.92816,-4.92817c2.72175,0 4.92817,2.20642 4.92817,4.92817c0,2.72175 -2.20641,4.92817 -4.92817,4.92817c-2.72175,0 -4.92816,-2.20642 -4.92816,-4.92817z" fill="#ffffff"/><path d="M223.48281,166.70981c0,-1.06102 0.86012,-1.92115 1.92114,-1.92115c1.06102,0 1.92115,0.86013 1.92115,1.92115c0,1.06102 -0.86013,1.92115 -1.92115,1.92115c-1.06102,0 -1.92114,-0.86013 -1.92114,-1.92115z" fill="#ecd9c3"/><path d="M226.47814,170.20631c0,-1.06102 0.86012,-1.92115 1.92114,-1.92115c1.06102,0 1.92115,0.86013 1.92115,1.92115c0,1.06102 -0.86013,1.92115 -1.92115,1.92115c-1.06102,0 -1.92114,-0.86013 -1.92114,-1.92115z" fill="#ecd9c3"/><path d="M222.96995,170.54042c0,-0.78423 0.63574,-1.41998 1.41998,-1.41998c0.78423,0 1.41998,0.63575 1.41998,1.41998c0,0.78423 -0.63575,1.41998 -1.41998,1.41998c-0.78423,0 -1.41998,-0.63575 -1.41998,-1.41998z" fill="#ecd9c3"/></g><g stroke="none" stroke-width="0"><path d="M228.34871,195.36341l-8.70625,-8.70583l8.70713,-8.07959l0.48765,4.20184l6.89655,-1.9791l-2.93041,5.84112l4.47961,0.81304z" fill="#f6a357"/><path d="M218.12531,190.67072c0,-3.41372 2.76736,-6.18108 6.18108,-6.18108c3.41372,0 6.18109,2.76736 6.18109,6.18108c0,3.41372 -2.76737,6.18109 -6.18109,6.18109c-3.41372,0 -6.18108,-2.76737 -6.18108,-6.18109z" fill="#f6a357"/><path d="M219.45007,190.5755c0,-2.72175 2.20641,-4.92817 4.92816,-4.92817c2.72175,0 4.92817,2.20642 4.92817,4.92817c0,2.72175 -2.20641,4.92817 -4.92817,4.92817c-2.72175,0 -4.92816,-2.20642 -4.92816,-4.92817z" fill="#ffffff"/><path d="M221.6335,188.41546c0,-1.06102 0.86012,-1.92115 1.92114,-1.92115c1.06102,0 1.92115,0.86013 1.92115,1.92115c0,1.06102 -0.86013,1.92115 -1.92115,1.92115c-1.06102,0 -1.92114,-0.86013 -1.92114,-1.92115z" fill="#ecd9c3"/><path d="M224.62882,191.91195c0,-1.06102 0.86012,-1.92115 1.92114,-1.92115c1.06102,0 1.92115,0.86013 1.92115,1.92115c0,1.06102 -0.86013,1.92115 -1.92115,1.92115c-1.06102,0 -1.92114,-0.86013 -1.92114,-1.92115z" fill="#ecd9c3"/><path d="M221.12063,192.24606c0,-0.78423 0.63575,-1.41998 1.41998,-1.41998c0.78423,0 1.41998,0.63575 1.41998,1.41998c0,0.78423 -0.63575,1.41998 -1.41998,1.41998c-0.78423,0 -1.41998,-0.63575 -1.41998,-1.41998z" fill="#ecd9c3"/></g><g stroke="none" stroke-width="0"><path d="M249.55318,200.69753l-8.70625,-8.70583l8.70713,-8.07959l0.48765,4.20184l6.89655,-1.9791l-2.93041,5.84112l4.47961,0.81304z" fill="#f6a357"/><path d="M239.32979,196.00483c0,-3.41372 2.76736,-6.18108 6.18108,-6.18108c3.41372,0 6.18109,2.76736 6.18109,6.18108c0,3.41372 -2.76737,6.18109 -6.18109,6.18109c-3.41372,0 -6.18108,-2.76737 -6.18108,-6.18109z" fill="#f6a357"/><path d="M240.65455,195.90961c0,-2.72175 2.20641,-4.92817 4.92816,-4.92817c2.72175,0 4.92817,2.20642 4.92817,4.92817c0,2.72175 -2.20641,4.92817 -4.92817,4.92817c-2.72175,0 -4.92816,-2.20642 -4.92816,-4.92817z" fill="#ffffff"/><path d="M242.83797,193.74957c0,-1.06102 0.86012,-1.92115 1.92114,-1.92115c1.06102,0 1.92115,0.86013 1.92115,1.92115c0,1.06102 -0.86013,1.92115 -1.92115,1.92115c-1.06102,0 -1.92114,-0.86013 -1.92114,-1.92115z" fill="#ecd9c3"/><path d="M245.8333,197.24607c0,-1.06102 0.86012,-1.92115 1.92114,-1.92115c1.06102,0 1.92115,0.86013 1.92115,1.92115c0,1.06102 -0.86013,1.92115 -1.92115,1.92115c-1.06102,0 -1.92114,-0.86013 -1.92114,-1.92115z" fill="#ecd9c3"/><path d="M242.32511,197.58018c0,-0.78423 0.63575,-1.41998 1.41998,-1.41998c0.78423,0 1.41998,0.63575 1.41998,1.41998c0,0.78423 -0.63575,1.41998 -1.41998,1.41998c-0.78423,0 -1.41998,-0.63575 -1.41998,-1.41998z" fill="#ecd9c3"/></g></g></g></svg>