<svg version="1.1" xmlns="http://www.w3.org/2000/svg" xmlns:xlink="http://www.w3.org/1999/xlink" width="59.63044" height="59.63044" viewBox="0,0,59.63044,59.63044"><g transform="translate(-210.18478,-150.18478)"><g data-paper-data="{&quot;isPaintingLayer&quot;:true}" fill-rule="nonzero" stroke-linecap="butt" stroke-linejoin="miter" stroke-miterlimit="10" stroke-dasharray="" stroke-dashoffset="0" style="mix-blend-mode: normal"><g><path d="M268.81522,151.18478v57.63044h-57.63044v-57.63044z" fill="#fbd57a" stroke="#808080" stroke-width="2"/><g fill="#e99856" stroke="none" stroke-width="0"><path d="M242.21929,199.53131c1.09883,0 1.98962,0.89078 1.98962,1.98962c0,1.09883 -0.89078,1.98962 -1.98962,1.98962c-1.09883,0 -1.98962,-0.89078 -1.98962,-1.98962c0,-1.09884 0.89078,-1.98962 1.98962,-1.98962z"/><path d="M242.31258,189.97015c1.09883,0 1.98962,0.89078 1.98962,1.98962c0,1.09883 -0.89078,1.98962 -1.98962,1.98962c-1.09883,0 -1.98962,-0.89078 -1.98962,-1.98962c0,-1.09883 0.89078,-1.98962 1.98962,-1.98962z"/><path d="M242.26867,180.409c1.09883,0 1.98962,0.89078 1.98962,1.98962c0,1.09883 -0.89078,1.98962 -1.98962,1.98962c-1.09883,0 -1.98962,-0.89078 -1.98962,-1.98962c0,-1.09883 0.89078,-1.98962 1.98962,-1.98962z"/><path d="M242.22475,170.84784c1.09883,0 1.98962,0.89078 1.98962,1.98962c0,1.09883 -0.89078,1.98962 -1.98962,1.98962c-1.09883,0 -1.98962,-0.89078 -1.98962,-1.98962c0,-1.09883 0.89078,-1.98962 1.98962,-1.98962z"/><path d="M242.31805,161.28669c1.09883,0 1.98962,0.89078 1.98962,1.98962c0,1.09883 -0.89078,1.98962 -1.98962,1.98962c-1.09883,0 -1.98962,-0.89078 -1.98962,-1.98962c0,-1.09884 0.89078,-1.98962 1.98962,-1.98962z"/></g><g fill="#e99856" stroke="none" stroke-width="0"><path d="M251.64323,199.57523c1.09884,0 1.98962,0.89078 1.98962,1.98962c0,1.09883 -0.89078,1.98962 -1.98962,1.98962c-1.09883,0 -1.98962,-0.89078 -1.98962,-1.98962c0,-1.09884 0.89078,-1.98962 1.98962,-1.98962z"/><path d="M251.73653,190.01407c1.09883,0 1.98962,0.89078 1.98962,1.98962c0,1.09883 -0.89078,1.98962 -1.98962,1.98962c-1.09883,0 -1.98962,-0.89078 -1.98962,-1.98962c0,-1.09883 0.89078,-1.98962 1.98962,-1.98962z"/><path d="M251.69261,180.45292c1.09883,0 1.98962,0.89078 1.98962,1.98962c0,1.09883 -0.89078,1.98962 -1.98962,1.98962c-1.09883,0 -1.98962,-0.89078 -1.98962,-1.98962c0,-1.09883 0.89078,-1.98962 1.98962,-1.98962z"/><path d="M251.64869,170.89176c1.09883,0 1.98962,0.89078 1.98962,1.98962c0,1.09883 -0.89078,1.98962 -1.98962,1.98962c-1.09883,0 -1.98962,-0.89078 -1.98962,-1.98962c0,-1.09883 0.89078,-1.98962 1.98962,-1.98962z"/><path d="M251.74199,161.33061c1.09883,0 1.98962,0.89078 1.98962,1.98962c0,1.09883 -0.89078,1.98962 -1.98962,1.98962c-1.09883,0 -1.98962,-0.89078 -1.98962,-1.98962c0,-1.09884 0.89078,-1.98962 1.98962,-1.98962z"/></g><path d="M223.11336,170.8863c1.09883,0 1.98962,0.89078 1.98962,1.98962c0,1.09883 -0.89078,1.98962 -1.98962,1.98962c-1.09883,0 -1.98962,-0.89078 -1.98962,-1.98962c0,-1.09883 0.89078,-1.98962 1.98962,-1.98962z" fill="#e99856" stroke="none" stroke-width="0"/><path d="M223.20666,161.32514c1.09883,0 1.98962,0.89078 1.98962,1.98962c0,1.09883 -0.89078,1.98962 -1.98962,1.98962c-1.09883,0 -1.98962,-0.89078 -1.98962,-1.98962c0,-1.09883 0.89078,-1.98962 1.98962,-1.98962z" fill="#e99856" stroke="none" stroke-width="0"/><g fill="#e99856" stroke="none" stroke-width="0"><path d="M256.35793,194.86053c1.09884,0 1.98962,0.89078 1.98962,1.98962c0,1.09883 -0.89078,1.98962 -1.98962,1.98962c-1.09883,0 -1.98962,-0.89078 -1.98962,-1.98962c0,-1.09884 0.89078,-1.98962 1.98962,-1.98962z"/><path d="M256.45123,185.29937c1.09883,0 1.98962,0.89078 1.98962,1.98962c0,1.09883 -0.89078,1.98962 -1.98962,1.98962c-1.09883,0 -1.98962,-0.89078 -1.98962,-1.98962c0,-1.09884 0.89078,-1.98962 1.98962,-1.98962z"/><path d="M256.40731,175.73822c1.09883,0 1.98962,0.89078 1.98962,1.98962c0,1.09883 -0.89078,1.98962 -1.98962,1.98962c-1.09883,0 -1.98962,-0.89078 -1.98962,-1.98962c0,-1.09883 0.89078,-1.98962 1.98962,-1.98962z"/><path d="M256.36339,166.17706c1.09883,0 1.98962,0.89078 1.98962,1.98962c0,1.09883 -0.89078,1.98962 -1.98962,1.98962c-1.09883,0 -1.98962,-0.89078 -1.98962,-1.98962c0,-1.09883 0.89078,-1.98962 1.98962,-1.98962z"/><path d="M256.45669,156.61591c1.09883,0 1.98962,0.89078 1.98962,1.98962c0,1.09883 -0.89078,1.98962 -1.98962,1.98962c-1.09883,0 -1.98962,-0.89078 -1.98962,-1.98962c0,-1.09884 0.89078,-1.98962 1.98962,-1.98962z"/></g><g fill="#e99856" stroke="none" stroke-width="0"><path d="M246.84615,194.76723c1.09883,0 1.98962,0.89078 1.98962,1.98962c0,1.09883 -0.89078,1.98962 -1.98962,1.98962c-1.09883,0 -1.98962,-0.89078 -1.98962,-1.98962c0,-1.09883 0.89078,-1.98962 1.98962,-1.98962z"/><path d="M246.93945,185.20607c1.09883,0 1.98962,0.89078 1.98962,1.98962c0,1.09883 -0.89078,1.98962 -1.98962,1.98962c-1.09883,0 -1.98962,-0.89078 -1.98962,-1.98962c0,-1.09883 0.89078,-1.98962 1.98962,-1.98962z"/><path d="M246.89553,175.64492c1.09883,0 1.98962,0.89078 1.98962,1.98962c0,1.09883 -0.89078,1.98962 -1.98962,1.98962c-1.09883,0 -1.98962,-0.89078 -1.98962,-1.98962c0,-1.09883 0.89078,-1.98962 1.98962,-1.98962z"/><path d="M246.85161,166.08376c1.09883,0 1.98962,0.89078 1.98962,1.98962c0,1.09883 -0.89078,1.98962 -1.98962,1.98962c-1.09883,0 -1.98962,-0.89078 -1.98962,-1.98962c0,-1.09883 0.89078,-1.98962 1.98962,-1.98962z"/><path d="M246.94491,156.52261c1.09883,0 1.98962,0.89078 1.98962,1.98962c0,1.09883 -0.89078,1.98962 -1.98962,1.98962c-1.09883,0 -1.98962,-0.89078 -1.98962,-1.98962c0,-1.09884 0.89078,-1.98962 1.98962,-1.98962z"/></g><path d="M237.47705,166.12768c1.09883,0 1.98962,0.89078 1.98962,1.98962c0,1.09883 -0.89078,1.98962 -1.98962,1.98962c-1.09883,0 -1.98962,-0.89078 -1.98962,-1.98962c0,-1.09883 0.89078,-1.98962 1.98962,-1.98962z" fill="#e99856" stroke="none" stroke-width="0"/><path d="M237.57035,156.56653c1.09883,0 1.98962,0.89078 1.98962,1.98962c0,1.09883 -0.89078,1.98962 -1.98962,1.98962c-1.09883,0 -1.98962,-0.89078 -1.98962,-1.98962c0,-1.09883 0.89078,-1.98962 1.98962,-1.98962z" fill="#e99856" stroke="none" stroke-width="0"/><path d="M218.3602,175.50224c1.09883,0 1.98962,0.89078 1.98962,1.98962c0,1.09883 -0.89078,1.98962 -1.98962,1.98962c-1.09883,0 -1.98962,-0.89078 -1.98962,-1.98962c0,-1.09884 0.89078,-1.98962 1.98962,-1.98962z" fill="#e99856" stroke="none" stroke-width="0"/><path d="M218.31629,165.94109c1.09883,0 1.98962,0.89078 1.98962,1.98962c0,1.09883 -0.89078,1.98962 -1.98962,1.98962c-1.09883,0 -1.98962,-0.89078 -1.98962,-1.98962c0,-1.09883 0.89078,-1.98962 1.98962,-1.98962z" fill="#e99856" stroke="none" stroke-width="0"/><path d="M218.40958,156.37993c1.09883,0 1.98962,0.89078 1.98962,1.98962c0,1.09883 -0.89078,1.98962 -1.98962,1.98962c-1.09883,0 -1.98962,-0.89078 -1.98962,-1.98962c0,-1.09883 0.89078,-1.98962 1.98962,-1.98962z" fill="#e99856" stroke="none" stroke-width="0"/><g fill="#e99856" stroke="none" stroke-width="0"><path d="M261.3416,199.48193c1.09883,0 1.98962,0.89078 1.98962,1.98962c0,1.09883 -0.89078,1.98962 -1.98962,1.98962c-1.09883,0 -1.98962,-0.89078 -1.98962,-1.98962c0,-1.09884 0.89078,-1.98962 1.98962,-1.98962z"/><path d="M261.4349,189.92077c1.09883,0 1.98962,0.89078 1.98962,1.98962c0,1.09883 -0.89078,1.98962 -1.98962,1.98962c-1.09883,0 -1.98962,-0.89078 -1.98962,-1.98962c0,-1.09883 0.89078,-1.98962 1.98962,-1.98962z"/><path d="M261.39098,180.35962c1.09883,0 1.98962,0.89078 1.98962,1.98962c0,1.09883 -0.89078,1.98962 -1.98962,1.98962c-1.09883,0 -1.98962,-0.89078 -1.98962,-1.98962c0,-1.09884 0.89078,-1.98962 1.98962,-1.98962z"/><path d="M261.34706,170.79846c1.09883,0 1.98962,0.89078 1.98962,1.98962c0,1.09883 -0.89078,1.98962 -1.98962,1.98962c-1.09883,0 -1.98962,-0.89078 -1.98962,-1.98962c0,-1.09883 0.89078,-1.98962 1.98962,-1.98962z"/><path d="M261.44036,161.23731c1.09883,0 1.98962,0.89078 1.98962,1.98962c0,1.09883 -0.89078,1.98962 -1.98962,1.98962c-1.09883,0 -1.98962,-0.89078 -1.98962,-1.98962c0,-1.09883 0.89078,-1.98962 1.98962,-1.98962z"/></g><g fill="#70c292" stroke="none"><path d="M223.33424,203.24546v-21h8.5v21z" stroke-width="NaN"/><path d="M223.24144,181.69927c0,-2.41625 1.95875,-4.375 4.375,-4.375c2.41625,0 4.375,1.95875 4.375,4.375c0,2.41625 -1.95875,4.375 -4.375,4.375c-2.41625,0 -4.375,-1.95875 -4.375,-4.375z" stroke-width="0"/></g><path d="M227.82806,166.03438c1.09883,0 1.98962,0.89078 1.98962,1.98962c0,1.09883 -0.89078,1.98962 -1.98962,1.98962c-1.09883,0 -1.98962,-0.89078 -1.98962,-1.98962c0,-1.09883 0.89078,-1.98962 1.98962,-1.98962z" fill="#e99856" stroke="none" stroke-width="0"/><path d="M227.92136,156.47323c1.09883,0 1.98962,0.89078 1.98962,1.98962c0,1.09883 -0.89078,1.98962 -1.98962,1.98962c-1.09883,0 -1.98962,-0.89078 -1.98962,-1.98962c0,-1.09884 0.89078,-1.98962 1.98962,-1.98962z" fill="#e99856" stroke="none" stroke-width="0"/><path d="M232.62514,170.70517c1.09883,0 1.98962,0.89078 1.98962,1.98962c0,1.09883 -0.89078,1.98962 -1.98962,1.98962c-1.09883,0 -1.98962,-0.89078 -1.98962,-1.98962c0,-1.09883 0.89078,-1.98962 1.98962,-1.98962z" fill="#e99856" stroke="none" stroke-width="0"/><path d="M232.71843,161.14401c1.09883,0 1.98962,0.89078 1.98962,1.98962c0,1.09883 -0.89078,1.98962 -1.98962,1.98962c-1.09883,0 -1.98962,-0.89078 -1.98962,-1.98962c0,-1.09883 0.89078,-1.98962 1.98962,-1.98962z" fill="#e99856" stroke="none" stroke-width="0"/><path d="M217.75616,195.36364v-4.5h18.66667v4.5z" fill="#70c292" stroke="none" stroke-width="0"/><g fill="#70c292" stroke="none"><path d="M233.95849,194.43846v-9.27419h4.61428v9.27419z" stroke-width="NaN"/><path d="M233.90811,184.92306c0,-1.06707 1.06331,-1.93213 2.375,-1.93213c1.31167,0 2.375,0.86506 2.375,1.93213c0,1.06707 -1.06333,1.93212 -2.375,1.93212c-1.31167,0 -2.375,-0.86504 -2.375,-1.93212z" stroke-width="0"/><path d="M233.90811,193.3846c0,-1.06707 1.06331,-1.93213 2.37498,-1.93213c1.31169,0 2.37501,0.86506 2.37501,1.93213c0,1.06707 -1.06333,1.93213 -2.37501,1.93213c-1.31169,0 -2.37498,-0.86504 -2.37498,-1.93213z" stroke-width="0"/></g><g fill="#70c292" stroke="none"><path d="M216.12515,194.43846v-9.27419h4.61428v9.27419z" stroke-width="NaN"/><path d="M216.07478,184.92306c0,-1.06707 1.06331,-1.93213 2.375,-1.93213c1.31168,0 2.375,0.86506 2.375,1.93213c0,1.06707 -1.06332,1.93212 -2.375,1.93212c-1.31168,0 -2.375,-0.86504 -2.375,-1.93212z" stroke-width="0"/><path d="M216.07478,193.3846c0,-1.06707 1.0633,-1.93213 2.37498,-1.93213c1.31169,0 2.37502,0.86506 2.37502,1.93213c0,1.06707 -1.06333,1.93213 -2.37502,1.93213c-1.31169,0 -2.37498,-0.86504 -2.37498,-1.93213z" stroke-width="0"/></g></g></g></g></svg>