<svg version="1.1" xmlns="http://www.w3.org/2000/svg" xmlns:xlink="http://www.w3.org/1999/xlink" width="59.63044" height="59.63044" viewBox="0,0,59.63044,59.63044"><g transform="translate(-210.18478,-150.18478)"><g data-paper-data="{&quot;isPaintingLayer&quot;:true}" fill-rule="nonzero" stroke-linejoin="miter" stroke-miterlimit="10" stroke-dasharray="" stroke-dashoffset="0" style="mix-blend-mode: normal"><g><path d="M211.18478,208.81522v-57.63044h57.63044v57.63044z" fill="#70c292" stroke="#808080" stroke-width="2" stroke-linecap="butt"/><path d="M227.92967,198.52672v6.17469" fill="none" stroke="#269b79" stroke-width="2.5" stroke-linecap="round"/><path d="M227.88575,189.01494v6.17469" fill="none" stroke="#269b79" stroke-width="2.5" stroke-linecap="round"/><g fill="none" stroke="#269b79" stroke-width="2.5" stroke-linecap="round"><path d="M261.37175,199.7232v-6.17469"/><path d="M261.32783,190.21143v-6.17469"/><path d="M261.28391,180.83687v-6.17469"/><path d="M261.37721,171.18787v-6.17469"/><path d="M261.33329,161.6761v-6.17469"/></g><path d="M237.58412,204.33914v-6.17469" fill="none" stroke="#269b79" stroke-width="2.5" stroke-linecap="round"/><path d="M237.5402,188.65268v6.17469" fill="none" stroke="#269b79" stroke-width="2.5" stroke-linecap="round"/><path d="M237.49628,179.27812v6.17469" fill="none" stroke="#269b79" stroke-width="2.5" stroke-linecap="round"/><g fill="none" stroke="#269b79" stroke-width="2.5" stroke-linecap="round"><path d="M256.47592,204.43244v-6.17469"/><path d="M256.432,194.92067v-6.17469"/><path d="M256.38808,185.5461v-6.17469"/><path d="M256.48138,175.89711v-6.17469"/><path d="M256.43746,160.21065v6.17469"/></g><path d="M218.41243,198.47734v6.17469" fill="none" stroke="#269b79" stroke-width="2.5" stroke-linecap="round"/><path d="M218.36851,195.14025v-6.17469" fill="none" stroke="#269b79" stroke-width="2.5" stroke-linecap="round"/><path d="M218.37397,166.60493v-6.17469" fill="none" stroke="#269b79" stroke-width="2.5" stroke-linecap="round"/><path d="M223.17105,199.80557v-6.17469" fill="none" stroke="#269b79" stroke-width="2.5" stroke-linecap="round"/><path d="M223.13259,155.58378v6.17469" fill="none" stroke="#269b79" stroke-width="2.5" stroke-linecap="round"/><path d="M232.68828,193.81748v6.17469" fill="none" stroke="#269b79" stroke-width="2.5" stroke-linecap="round"/><path d="M242.24944,199.81104v-6.17469" fill="none" stroke="#269b79" stroke-width="2.5" stroke-linecap="round"/><path d="M242.20552,190.29926v-6.17469" fill="none" stroke="#269b79" stroke-width="2.5" stroke-linecap="round"/><path d="M242.1616,174.75001v6.17469" fill="none" stroke="#269b79" stroke-width="2.5" stroke-linecap="round"/><path d="M251.67338,199.76712v-6.17469" fill="none" stroke="#269b79" stroke-width="2.5" stroke-linecap="round"/><path d="M251.62946,190.25534v-6.17469" fill="none" stroke="#269b79" stroke-width="2.5" stroke-linecap="round"/><path d="M251.58554,174.70609v6.17469" fill="none" stroke="#269b79" stroke-width="2.5" stroke-linecap="round"/><path d="M251.67884,171.23179v-6.17469" fill="none" stroke="#269b79" stroke-width="2.5" stroke-linecap="round"/><path d="M251.63492,155.54533v6.17469" fill="none" stroke="#269b79" stroke-width="2.5" stroke-linecap="round"/><path d="M246.82146,204.52027v-6.17469" fill="none" stroke="#269b79" stroke-width="2.5" stroke-linecap="round"/><path d="M246.77754,195.0085v-6.17469" fill="none" stroke="#269b79" stroke-width="2.5" stroke-linecap="round"/><path d="M246.73363,185.63394v-6.17469" fill="none" stroke="#269b79" stroke-width="2.5" stroke-linecap="round"/><path d="M246.82693,175.98495v-6.17469" fill="none" stroke="#269b79" stroke-width="2.5" stroke-linecap="round"/><path d="M246.78301,166.47317v-6.17469" fill="none" stroke="#269b79" stroke-width="2.5" stroke-linecap="round"/><g><path d="M230.42283,182.98864v-8.29166" fill="none" stroke="#824b00" stroke-width="2.5" stroke-linecap="round"/><path d="M232.92283,180.6553v-8.29166" fill="none" stroke="#824b00" stroke-width="2.5" stroke-linecap="round"/><path d="M219.92283,182.82197v-8.29166" fill="none" stroke="#824b00" stroke-width="2.5" stroke-linecap="round"/><path d="M222.42283,180.48864v-8.29166" fill="none" stroke="#824b00" stroke-width="2.5" stroke-linecap="round"/><path d="M228.69011,171.50337c0.26907,1.28323 -2.05759,2.96983 -5.19675,3.76711c-3.13916,0.79728 -5.90208,0.40332 -6.17115,-0.87991c-0.15911,-0.75882 6.15483,-7.19955 8.58554,-8.68768c1.67983,-1.02842 2.51329,4.51725 2.78236,5.80048z" fill="#824b00" stroke="#824b00" stroke-width="2.5" stroke-linecap="butt"/><path d="M237.32196,169.33116c-0.46445,2.8839 -5.96955,5.3507 -10.24007,5.92091c-4.27052,0.57021 -2.85597,-5.30538 -2.39153,-8.18929c0.28192,-1.75053 1.11412,-3.63695 4.38278,-5.76283c2.11628,-1.37639 8.71327,5.14731 8.24883,8.03121z" fill="#553100" stroke="none" stroke-width="0" stroke-linecap="butt"/><path d="M237.3395,168.11364c0,0.13807 0.33578,0.25 0.75,0.25c0.41422,0 0.75,-0.11193 0.75,-0.25c0,-0.13807 -0.33578,-0.25 -0.75,-0.25c-0.41422,0 -0.75,0.11193 -0.75,0.25z" fill="#553100" stroke="none" stroke-width="0" stroke-linecap="butt"/><path d="M239.17283,159.69697c0,0 -0.30249,2.36897 -0.99361,3.00692c-0.74871,0.69112 -3.33972,0.99308 -3.33972,0.99308" data-paper-data="{&quot;index&quot;:null}" fill="none" stroke="#000000" stroke-width="1.5" stroke-linecap="round"/><path d="M239.17283,165.61364c0,2.99154 -1.38045,5.41667 -3.08333,5.41667c-1.70288,0 -3.08334,-2.42513 -3.08334,-5.41667c0,-2.99154 1.38046,-5.41666 3.08334,-5.41666c1.70288,0 3.08333,2.42513 3.08333,5.41666z" fill="#402500" stroke="none" stroke-width="0" stroke-linecap="butt"/><path d="M235.83949,163.53031c0,0 -1.79377,-0.23905 -2.31211,-0.78619c-0.47847,-0.50505 -0.68788,-2.38048 -0.68788,-2.38048" data-paper-data="{&quot;index&quot;:null}" fill="none" stroke="#000000" stroke-width="1.5" stroke-linecap="round"/><path d="M240.48132,166.38274c0.28924,1.81808 -0.36059,3.43263 -1.45144,3.60617c-1.09085,0.17354 -2.20963,-1.15963 -2.49887,-2.97771c-0.28924,-1.81808 0.36059,-3.43262 1.45144,-3.60617c1.09085,-0.17354 2.20963,1.15962 2.49887,2.9777z" fill="#402500" stroke="none" stroke-width="0" stroke-linecap="butt"/><path d="M240.28019,168.20004c-0.00451,0.92047 -0.28799,1.66528 -0.63316,1.66359c-0.34518,-0.00169 -0.62133,-0.74924 -0.61682,-1.66971c0.00451,-0.92047 0.28799,-1.66528 0.63316,-1.66359c0.34518,0.00169 0.62133,0.74925 0.61682,1.66972z" fill="#000000" stroke="#000000" stroke-width="0" stroke-linecap="butt"/><path d="M238.17283,172.19697v-3" fill="none" stroke="#553100" stroke-width="0.5" stroke-linecap="round"/><path d="M238.3395,170.19697v1.33334" fill="none" stroke="#553100" stroke-width="0.5" stroke-linecap="round"/><path d="M239.17283,169.53031v2" fill="none" stroke="#553100" stroke-width="0.5" stroke-linecap="round"/><path d="M238.67283,169.36364v1.66667" fill="none" stroke="#553100" stroke-width="0.5" stroke-linecap="round"/><path d="M237.67283,170.19697v1.83334" fill="none" stroke="#553100" stroke-width="0.5" stroke-linecap="round"/><path d="M236.8395,164.53031c0,-0.55229 0.44771,-1 1,-1c0.55229,0 1,0.44771 1,1c0,0.55229 -0.44771,1 -1,1c-0.55229,0 -1,-0.44771 -1,-1z" fill="#000000" stroke="none" stroke-width="0" stroke-linecap="butt"/><path d="M218.17283,173.5303c0,0 -1.57052,-0.26753 -2.10125,0.0956c-0.52475,0.35905 -1.06541,2.07107 -1.06541,2.07107" fill="none" stroke="#824b00" stroke-width="1" stroke-linecap="round"/><path d="M215.33949,176.44697c0,0.59831 -0.14923,1.08333 -0.33333,1.08333c-0.1841,0 -0.33334,-0.48502 -0.33334,-1.08333c0,-0.59831 0.14924,-1.08333 0.33334,-1.08333c0.1841,0 0.33333,0.48502 0.33333,1.08333z" fill="none" stroke="#000000" stroke-width="1" stroke-linecap="butt"/><ellipse cx="429.34565" cy="368.06061" transform="scale(0.5,0.5)" rx="0" ry="0" fill="none" stroke="#000000" stroke-width="1" stroke-linecap="butt"/></g></g></g></g></svg>