<svg version="1.1" xmlns="http://www.w3.org/2000/svg" xmlns:xlink="http://www.w3.org/1999/xlink" width="59.63044" height="59.63044" viewBox="0,0,59.63044,59.63044"><g transform="translate(-210.18478,-150.18478)"><g data-paper-data="{&quot;isPaintingLayer&quot;:true}" fill-rule="nonzero" stroke-linejoin="miter" stroke-miterlimit="10" stroke-dasharray="" stroke-dashoffset="0" style="mix-blend-mode: normal"><path d="M211.18478,208.81522v-57.63044h57.63044v57.63044z" fill="#fcdb7e" stroke="#808080" stroke-width="2" stroke-linecap="butt"/><path d="M224.75,193.75l7.24375,-14.5h15.63126l7.625,14.5z" fill="#f2a358" stroke="none" stroke-width="0" stroke-linecap="butt"/><path d="M231.97379,179.25h15.59804c0,0 -0.95154,5.40747 -7.27908,5.40747c-6.32755,0 -8.31896,-5.40747 -8.31896,-5.40747z" fill="#f20909" stroke="none" stroke-width="0" stroke-linecap="butt"/><path d="M240,182.4828v10.0344" fill="none" stroke="#f20909" stroke-width="1.5" stroke-linecap="round"/><path d="M233.76916,181.63147l-3.53419,10.92891" fill="none" stroke="#f20909" stroke-width="1.5" stroke-linecap="round"/><path d="M245.52647,183.13147l3.53418,9.42891" data-paper-data="{&quot;index&quot;:null}" fill="none" stroke="#f20909" stroke-width="1.5" stroke-linecap="round"/><g fill="#ffffff" stroke="none" stroke-width="0" stroke-linecap="butt"><path d="M238.125,170.625c0,-3.17563 2.57437,-5.75 5.75,-5.75c3.17564,0 5.75,2.57437 5.75,5.75c0,3.17564 -2.57437,5.75 -5.75,5.75c-3.17563,0 -5.75,-2.57437 -5.75,-5.75z"/><path d="M237.625,172.625h5.25l-2.82692,9.25z"/><path d="M230.375,170.375c0,-3.17563 2.57437,-5.75 5.75,-5.75c3.17564,0 5.75,2.57437 5.75,5.75c0,3.17564 -2.57437,5.75 -5.75,5.75c-3.17563,0 -5.75,-2.57437 -5.75,-5.75z"/><path d="M234.375,165.375c0,-3.17563 2.57437,-5.75 5.75,-5.75c3.17564,0 5.75,2.57437 5.75,5.75c0,3.17564 -2.57437,5.75 -5.75,5.75c-3.17563,0 -5.75,-2.57437 -5.75,-5.75z"/></g><path d="M215.75,197.25l1.72188,-6h3.71563l1.8125,6z" fill="#f2a358" stroke="none" stroke-width="0" stroke-linecap="butt"/><path d="M219.75,186l1.60313,-3.5h3.45938l1.6875,3.5z" fill="#f2a358" stroke="none" stroke-width="0" stroke-linecap="butt"/><path d="M253.25,186.5l1.60313,-3.5h3.45938l1.6875,3.5z" fill="#f2a358" stroke="none" stroke-width="0" stroke-linecap="butt"/><path d="M236.625,202.5l1.60313,-3.5h3.45938l1.6875,3.5z" fill="#f2a358" stroke="none" stroke-width="0" stroke-linecap="butt"/><path d="M225.375,202l1.60313,-3.5h3.45938l1.6875,3.5z" fill="#f2a358" stroke="none" stroke-width="0" stroke-linecap="butt"/><path d="M247.875,202l1.60313,-3.5h3.45938l1.6875,3.5z" fill="#f2a358" stroke="none" stroke-width="0" stroke-linecap="butt"/><path d="M256.5,197.5l1.72188,-6h3.71563l1.8125,6z" fill="#f2a358" stroke="none" stroke-width="0" stroke-linecap="butt"/></g></g></svg>