<svg version="1.1" xmlns="http://www.w3.org/2000/svg" xmlns:xlink="http://www.w3.org/1999/xlink" width="57.50331" height="57.24906" viewBox="0,0,57.50331,57.24906"><g transform="translate(-211.24836,-151.37547)"><g data-paper-data="{&quot;isPaintingLayer&quot;:true}" fill-rule="nonzero" stroke-linecap="butt" stroke-linejoin="miter" stroke-miterlimit="10" stroke-dasharray="" stroke-dashoffset="0" style="mix-blend-mode: normal"><path d="M268.75167,151.37547v57.24906h-57.50331v-57.24906z" fill="#fffed8" stroke="#fff600" stroke-width="0"/><path d="M266.29324,179.48409c0,4.47751 -4.32226,8.10725 -9.65403,8.10725c-5.33177,0 -9.65403,-3.62974 -9.65403,-8.10725c0,-4.47751 4.32227,-8.10725 9.65403,-8.10725c5.33177,0 9.65403,3.62974 9.65403,8.10725z" fill="#00b900" stroke="#008000" stroke-width="1"/><g fill="#00b900" stroke="#008000" stroke-width="1.39668"><path d="M221.60738,183.25756c-4.88728,-0.24203 -8.3986,-1.89669 -7.84275,-3.69579c0.55585,-1.7991 4.96838,-3.06136 9.85566,-2.81934c4.88728,0.24203 8.39859,1.89669 7.84274,3.69579c-0.55585,1.7991 -4.96836,3.06136 -9.85564,2.81933z"/><g data-paper-data="{&quot;index&quot;:null}"><path d="M243.00613,172.28537c-1.27575,1.29045 -4.09656,-1.52893 -6.30048,-6.29727c-2.20392,-4.76834 -2.95636,-9.67997 -1.68061,-10.97043c1.27574,-1.29045 4.09656,1.52895 6.30048,6.29729c2.20392,4.76834 2.95635,9.67996 1.68061,10.9704z"/><path d="M230.18844,173.92114c-0.92511,1.33794 -3.77795,-0.63395 -6.37202,-4.40433c-2.59407,-3.77037 -3.94702,-7.91149 -3.02191,-9.24943c0.9251,-1.33794 3.77795,0.63397 6.37202,4.40435c2.59407,3.77037 3.94702,7.91147 3.02192,9.24941z"/></g><g data-paper-data="{&quot;index&quot;:null}"><path d="M243.35084,198.68504c-2.20392,4.76834 -5.02474,7.58774 -6.30048,6.29729c-1.27574,-1.29045 -0.5233,-6.20208 1.68061,-10.97041c2.20392,-4.76834 5.02474,-7.58773 6.30048,-6.29728c1.27574,1.29045 0.52331,6.20206 -1.68061,10.9704z"/><path d="M229.19185,195.32827c-2.59406,3.77037 -5.44691,5.74228 -6.37202,4.40435c-0.92511,-1.33794 0.42785,-5.47904 3.02192,-9.24942c2.59406,-3.77037 5.44691,-5.74227 6.37202,-4.40433c0.92511,1.33794 -0.42785,5.47902 -3.02192,9.24941z"/></g><path d="M251.82336,179.99999c0,8.35116 -7.24401,15.12112 -16.17997,15.12112c-8.93595,0 -16.17998,-6.76996 -16.17998,-15.12112c0,-8.35116 7.24401,-15.12111 16.17998,-15.12111c8.93595,0 16.17997,6.76994 16.17997,15.12111z"/></g><path d="M246.31006,186.11729c0,1.26185 -0.93699,2.28477 -2.09283,2.28477c-1.15584,0 -2.09283,-1.02292 -2.09283,-2.28477c0,-1.26185 0.93699,-2.28477 2.09283,-2.28477c1.15584,0 2.09283,1.02292 2.09283,2.28477z" fill="#008000" stroke="none" stroke-width="NaN"/><path d="M240.09487,181.24834c0,1.91312 -1.4206,3.46402 -3.173,3.46402c-1.7524,0 -3.173,-1.5509 -3.173,-3.46402c0,-1.91312 1.4206,-3.464 3.173,-3.464c1.7524,0 3.173,1.55089 3.173,3.464z" fill="#008000" stroke="none" stroke-width="NaN"/><path d="M236.44508,190.67764c0,1.26185 -0.93699,2.28478 -2.09283,2.28478c-1.15584,0 -2.09283,-1.02292 -2.09283,-2.28478c0,-1.26185 0.93699,-2.28477 2.09283,-2.28477c1.15584,0 2.09283,1.02292 2.09283,2.28477z" fill="#008000" stroke="none" stroke-width="NaN"/><path d="M242.38181,169.889c0,1.26185 -0.93699,2.28478 -2.09283,2.28478c-1.15584,0 -2.09283,-1.02292 -2.09283,-2.28478c0,-1.26185 0.93699,-2.28477 2.09283,-2.28477c1.15584,0 2.09283,1.02292 2.09283,2.28477z" fill="#008000" stroke="none" stroke-width="NaN"/><path d="M226.04002,185.21448c0,1.26185 -0.93699,2.28478 -2.09283,2.28478c-1.15584,0 -2.09283,-1.02292 -2.09283,-2.28478c0,-1.26185 0.93699,-2.28477 2.09283,-2.28477c1.15584,0 2.09283,1.02292 2.09283,2.28477z" fill="#008000" stroke="none" stroke-width="NaN"/><path d="M228.33117,172.23828c0,1.26185 -0.93699,2.28478 -2.09283,2.28478c-1.15584,0 -2.09283,-1.02292 -2.09283,-2.28478c0,-1.26185 0.93699,-2.28477 2.09283,-2.28477c1.15584,0 2.09283,1.02292 2.09283,2.28477z" fill="#008000" stroke="none" stroke-width="NaN"/><path d="M247.90506,177.76136c0,1.54678 -1.14857,2.80069 -2.5654,2.80069c-1.41684,0 -2.5654,-1.25391 -2.5654,-2.80069c0,-1.54678 1.14857,-2.80068 2.5654,-2.80068c1.41684,0 2.5654,1.25391 2.5654,2.80068z" fill="#008000" stroke="none" stroke-width="NaN"/><path d="M229.67297,179.82042c0,1.13973 -0.84631,2.06366 -1.8903,2.06366c-1.04398,0 -1.8903,-0.92394 -1.8903,-2.06366c0,-1.13973 0.84631,-2.06366 1.8903,-2.06366c1.04398,0 1.8903,0.92393 1.8903,2.06366z" fill="#008000" stroke="none" stroke-width="NaN"/><path d="M234.93038,172.66212c0,1.26185 -0.93699,2.28478 -2.09283,2.28478c-1.15584,0 -2.09283,-1.02292 -2.09283,-2.28478c0,-1.26185 0.93699,-2.28477 2.09283,-2.28477c1.15584,0 2.09283,1.02292 2.09283,2.28477z" fill="#008000" stroke="none" stroke-width="NaN"/><g stroke-width="0.69834"><path d="M254.59544,183.38769c-0.00731,-0.77518 0.27464,-1.48114 0.73568,-1.99561c0.46159,-0.51387 1.10225,-0.83626 1.81231,-0.84432c0.71006,-0.00798 1.3567,0.29983 1.82795,0.80314c0.4707,0.50392 0.76601,1.20335 0.77339,1.97853c0.00731,0.77518 -0.27464,1.48114 -0.73568,1.99561c-0.46159,0.51387 -1.10225,0.83626 -1.81231,0.84432c-0.71006,0.00798 -1.35678,-0.29983 -1.82795,-0.80315c-0.4707,-0.50392 -0.76601,-1.20334 -0.77339,-1.97852z" fill="#ffffff" stroke="#000000"/><path d="M256.05295,183.33296c-0.00456,-0.4835 0.17123,-0.92403 0.45907,-1.24418c0.28729,-0.32076 0.68711,-0.52185 1.12991,-0.52683c0.4428,-0.00498 0.84632,0.18693 1.13967,0.50117c0.29381,0.31364 0.47793,0.75004 0.48256,1.23354c0.00456,0.48341 -0.1713,0.92394 -0.45907,1.24418c-0.28729,0.32076 -0.68712,0.52176 -1.12992,0.52674c-0.4428,0.00507 -0.8464,-0.18693 -1.13966,-0.50117c-0.29381,-0.31356 -0.478,-0.75005 -0.48256,-1.23346z" fill="#000000" stroke="none"/></g><g stroke-width="0.69834"><path d="M255.09458,173.89676c0.47117,-0.50332 1.11789,-0.81113 1.82795,-0.80315c0.71006,0.00806 1.35072,0.33045 1.81231,0.84432c0.46104,0.51447 0.74299,1.22043 0.73568,1.99561c-0.00738,0.77518 -0.30269,1.47461 -0.77339,1.97853c-0.47125,0.50331 -1.11789,0.81112 -1.82795,0.80314c-0.71006,-0.00806 -1.35072,-0.33045 -1.81231,-0.84432c-0.46104,-0.51447 -0.74299,-1.22043 -0.73568,-1.99561c0.00738,-0.77518 0.30269,-1.4746 0.77339,-1.97852z" data-paper-data="{&quot;index&quot;:null}" fill="#ffffff" stroke="#000000"/><path d="M255.77871,175.93003c0.00456,-0.48341 0.18875,-0.9199 0.48256,-1.23346c0.29326,-0.31424 0.69686,-0.50624 1.13966,-0.50117c0.4428,0.00498 0.84263,0.20598 1.12992,0.52674c0.28777,0.32024 0.46363,0.76077 0.45907,1.24418c-0.00463,0.4835 -0.18875,0.9199 -0.48256,1.23354c-0.29335,0.31424 -0.69687,0.50615 -1.13967,0.50117c-0.4428,-0.00498 -0.84262,-0.20607 -1.12991,-0.52683c-0.28784,-0.32016 -0.46363,-0.76068 -0.45907,-1.24418z" data-paper-data="{&quot;index&quot;:null}" fill="#000000" stroke="none"/></g><g stroke="none" stroke-width="0"><path d="M264.55,180c0,2.51289 -0.91782,4.55 -2.05,4.55c-1.13218,0 -2.05,-2.03711 -2.05,-4.55c0,-2.51289 0.91782,-4.55 2.05,-4.55c1.13218,0 2.05,2.03711 2.05,4.55z" fill="#ff0000"/><path d="M262.83928,180.08426c0,2.09408 -0.55725,3.79166 -1.24464,3.79166c-0.68739,0 -1.24464,-1.69759 -1.24464,-3.79166c0,-2.09408 0.55725,-3.79166 1.24464,-3.79166c0.68739,0 1.24464,1.69759 1.24464,3.79166z" fill="#00b900"/></g></g></g></svg>