<svg version="1.1" xmlns="http://www.w3.org/2000/svg" xmlns:xlink="http://www.w3.org/1999/xlink" width="59.63044" height="59.63044" viewBox="0,0,59.63044,59.63044"><g transform="translate(-210.18478,-150.18478)"><g data-paper-data="{&quot;isPaintingLayer&quot;:true}" fill-rule="nonzero" stroke-linecap="butt" stroke-linejoin="miter" stroke-miterlimit="10" stroke-dasharray="" stroke-dashoffset="0" style="mix-blend-mode: normal"><path d="M268.81522,151.18478v57.63044h-57.63044v-57.63044z" fill="#fbd57a" stroke="#808080" stroke-width="2"/><g fill="#e99856" stroke="none" stroke-width="0"><path d="M242.21929,199.53131c1.09883,0 1.98962,0.89078 1.98962,1.98962c0,1.09883 -0.89078,1.98962 -1.98962,1.98962c-1.09883,0 -1.98962,-0.89078 -1.98962,-1.98962c0,-1.09884 0.89078,-1.98962 1.98962,-1.98962z"/><path d="M242.31258,189.97015c1.09883,0 1.98962,0.89078 1.98962,1.98962c0,1.09883 -0.89078,1.98962 -1.98962,1.98962c-1.09883,0 -1.98962,-0.89078 -1.98962,-1.98962c0,-1.09883 0.89078,-1.98962 1.98962,-1.98962z"/><path d="M242.26867,180.409c1.09883,0 1.98962,0.89078 1.98962,1.98962c0,1.09883 -0.89078,1.98962 -1.98962,1.98962c-1.09883,0 -1.98962,-0.89078 -1.98962,-1.98962c0,-1.09883 0.89078,-1.98962 1.98962,-1.98962z"/><path d="M242.22475,170.84784c1.09883,0 1.98962,0.89078 1.98962,1.98962c0,1.09883 -0.89078,1.98962 -1.98962,1.98962c-1.09883,0 -1.98962,-0.89078 -1.98962,-1.98962c0,-1.09883 0.89078,-1.98962 1.98962,-1.98962z"/><path d="M242.31805,161.28669c1.09883,0 1.98962,0.89078 1.98962,1.98962c0,1.09883 -0.89078,1.98962 -1.98962,1.98962c-1.09883,0 -1.98962,-0.89078 -1.98962,-1.98962c0,-1.09884 0.89078,-1.98962 1.98962,-1.98962z"/></g><g fill="#e99856" stroke="none" stroke-width="0"><path d="M251.64323,199.57523c1.09884,0 1.98962,0.89078 1.98962,1.98962c0,1.09883 -0.89078,1.98962 -1.98962,1.98962c-1.09883,0 -1.98962,-0.89078 -1.98962,-1.98962c0,-1.09884 0.89078,-1.98962 1.98962,-1.98962z"/><path d="M251.73653,190.01407c1.09883,0 1.98962,0.89078 1.98962,1.98962c0,1.09883 -0.89078,1.98962 -1.98962,1.98962c-1.09883,0 -1.98962,-0.89078 -1.98962,-1.98962c0,-1.09883 0.89078,-1.98962 1.98962,-1.98962z"/><path d="M251.69261,180.45292c1.09883,0 1.98962,0.89078 1.98962,1.98962c0,1.09883 -0.89078,1.98962 -1.98962,1.98962c-1.09883,0 -1.98962,-0.89078 -1.98962,-1.98962c0,-1.09883 0.89078,-1.98962 1.98962,-1.98962z"/><path d="M251.64869,170.89176c1.09883,0 1.98962,0.89078 1.98962,1.98962c0,1.09883 -0.89078,1.98962 -1.98962,1.98962c-1.09883,0 -1.98962,-0.89078 -1.98962,-1.98962c0,-1.09883 0.89078,-1.98962 1.98962,-1.98962z"/><path d="M251.74199,161.33061c1.09883,0 1.98962,0.89078 1.98962,1.98962c0,1.09883 -0.89078,1.98962 -1.98962,1.98962c-1.09883,0 -1.98962,-0.89078 -1.98962,-1.98962c0,-1.09884 0.89078,-1.98962 1.98962,-1.98962z"/></g><g fill="#e99856" stroke="none" stroke-width="0"><path d="M232.61968,199.38863c1.09884,0 1.98962,0.89078 1.98962,1.98962c0,1.09883 -0.89078,1.98962 -1.98962,1.98962c-1.09883,0 -1.98962,-0.89078 -1.98962,-1.98962c0,-1.09884 0.89078,-1.98962 1.98962,-1.98962z"/><path d="M232.71297,189.82748c1.09883,0 1.98962,0.89078 1.98962,1.98962c0,1.09883 -0.89078,1.98962 -1.98962,1.98962c-1.09883,0 -1.98962,-0.89078 -1.98962,-1.98962c0,-1.09883 0.89078,-1.98962 1.98962,-1.98962z"/><path d="M232.66906,180.26632c1.09883,0 1.98962,0.89078 1.98962,1.98962c0,1.09883 -0.89078,1.98962 -1.98962,1.98962c-1.09883,0 -1.98962,-0.89078 -1.98962,-1.98962c0,-1.09884 0.89078,-1.98962 1.98962,-1.98962z"/><path d="M232.62514,170.70517c1.09883,0 1.98962,0.89078 1.98962,1.98962c0,1.09883 -0.89078,1.98962 -1.98962,1.98962c-1.09883,0 -1.98962,-0.89078 -1.98962,-1.98962c0,-1.09883 0.89078,-1.98962 1.98962,-1.98962z"/><path d="M232.71843,161.14401c1.09883,0 1.98962,0.89078 1.98962,1.98962c0,1.09883 -0.89078,1.98962 -1.98962,1.98962c-1.09883,0 -1.98962,-0.89078 -1.98962,-1.98962c0,-1.09883 0.89078,-1.98962 1.98962,-1.98962z"/></g><g fill="#e99856" stroke="none" stroke-width="0"><path d="M223.1079,199.56976c1.09883,0 1.98962,0.89078 1.98962,1.98962c0,1.09883 -0.89078,1.98962 -1.98962,1.98962c-1.09883,0 -1.98962,-0.89078 -1.98962,-1.98962c0,-1.09883 0.89078,-1.98962 1.98962,-1.98962z"/><path d="M223.2012,190.00861c1.09883,0 1.98962,0.89078 1.98962,1.98962c0,1.09883 -0.89078,1.98962 -1.98962,1.98962c-1.09883,0 -1.98962,-0.89078 -1.98962,-1.98962c0,-1.09883 0.89078,-1.98962 1.98962,-1.98962z"/><path d="M223.15728,180.44745c1.09883,0 1.98962,0.89078 1.98962,1.98962c0,1.09883 -0.89078,1.98962 -1.98962,1.98962c-1.09883,0 -1.98962,-0.89078 -1.98962,-1.98962c0,-1.09884 0.89078,-1.98962 1.98962,-1.98962z"/><path d="M223.11336,170.8863c1.09883,0 1.98962,0.89078 1.98962,1.98962c0,1.09883 -0.89078,1.98962 -1.98962,1.98962c-1.09883,0 -1.98962,-0.89078 -1.98962,-1.98962c0,-1.09883 0.89078,-1.98962 1.98962,-1.98962z"/><path d="M223.20666,161.32514c1.09883,0 1.98962,0.89078 1.98962,1.98962c0,1.09883 -0.89078,1.98962 -1.98962,1.98962c-1.09883,0 -1.98962,-0.89078 -1.98962,-1.98962c0,-1.09883 0.89078,-1.98962 1.98962,-1.98962z"/></g><g fill="#e99856" stroke="none" stroke-width="0"><path d="M256.35793,194.86053c1.09884,0 1.98962,0.89078 1.98962,1.98962c0,1.09883 -0.89078,1.98962 -1.98962,1.98962c-1.09883,0 -1.98962,-0.89078 -1.98962,-1.98962c0,-1.09884 0.89078,-1.98962 1.98962,-1.98962z"/><path d="M256.45123,185.29937c1.09883,0 1.98962,0.89078 1.98962,1.98962c0,1.09883 -0.89078,1.98962 -1.98962,1.98962c-1.09883,0 -1.98962,-0.89078 -1.98962,-1.98962c0,-1.09884 0.89078,-1.98962 1.98962,-1.98962z"/><path d="M256.40731,175.73822c1.09883,0 1.98962,0.89078 1.98962,1.98962c0,1.09883 -0.89078,1.98962 -1.98962,1.98962c-1.09883,0 -1.98962,-0.89078 -1.98962,-1.98962c0,-1.09883 0.89078,-1.98962 1.98962,-1.98962z"/><path d="M256.36339,166.17706c1.09883,0 1.98962,0.89078 1.98962,1.98962c0,1.09883 -0.89078,1.98962 -1.98962,1.98962c-1.09883,0 -1.98962,-0.89078 -1.98962,-1.98962c0,-1.09883 0.89078,-1.98962 1.98962,-1.98962z"/><path d="M256.45669,156.61591c1.09883,0 1.98962,0.89078 1.98962,1.98962c0,1.09883 -0.89078,1.98962 -1.98962,1.98962c-1.09883,0 -1.98962,-0.89078 -1.98962,-1.98962c0,-1.09884 0.89078,-1.98962 1.98962,-1.98962z"/></g><g fill="#e99856" stroke="none" stroke-width="0"><path d="M246.84615,194.76723c1.09883,0 1.98962,0.89078 1.98962,1.98962c0,1.09883 -0.89078,1.98962 -1.98962,1.98962c-1.09883,0 -1.98962,-0.89078 -1.98962,-1.98962c0,-1.09883 0.89078,-1.98962 1.98962,-1.98962z"/><path d="M246.93945,185.20607c1.09883,0 1.98962,0.89078 1.98962,1.98962c0,1.09883 -0.89078,1.98962 -1.98962,1.98962c-1.09883,0 -1.98962,-0.89078 -1.98962,-1.98962c0,-1.09883 0.89078,-1.98962 1.98962,-1.98962z"/><path d="M246.89553,175.64492c1.09883,0 1.98962,0.89078 1.98962,1.98962c0,1.09883 -0.89078,1.98962 -1.98962,1.98962c-1.09883,0 -1.98962,-0.89078 -1.98962,-1.98962c0,-1.09883 0.89078,-1.98962 1.98962,-1.98962z"/><path d="M246.85161,166.08376c1.09883,0 1.98962,0.89078 1.98962,1.98962c0,1.09883 -0.89078,1.98962 -1.98962,1.98962c-1.09883,0 -1.98962,-0.89078 -1.98962,-1.98962c0,-1.09883 0.89078,-1.98962 1.98962,-1.98962z"/><path d="M246.94491,156.52261c1.09883,0 1.98962,0.89078 1.98962,1.98962c0,1.09883 -0.89078,1.98962 -1.98962,1.98962c-1.09883,0 -1.98962,-0.89078 -1.98962,-1.98962c0,-1.09884 0.89078,-1.98962 1.98962,-1.98962z"/></g><g fill="#e99856" stroke="none" stroke-width="0"><path d="M237.47159,194.81115c1.09884,0 1.98962,0.89078 1.98962,1.98962c0,1.09883 -0.89078,1.98962 -1.98962,1.98962c-1.09883,0 -1.98962,-0.89078 -1.98962,-1.98962c0,-1.09883 0.89078,-1.98962 1.98962,-1.98962z"/><path d="M237.56489,185.24999c1.09883,0 1.98962,0.89078 1.98962,1.98962c0,1.09883 -0.89078,1.98962 -1.98962,1.98962c-1.09883,0 -1.98962,-0.89078 -1.98962,-1.98962c0,-1.09883 0.89078,-1.98962 1.98962,-1.98962z"/><path d="M237.52097,175.68884c1.09883,0 1.98962,0.89078 1.98962,1.98962c0,1.09883 -0.89078,1.98962 -1.98962,1.98962c-1.09883,0 -1.98962,-0.89078 -1.98962,-1.98962c0,-1.09883 0.89078,-1.98962 1.98962,-1.98962z"/><path d="M237.47705,166.12768c1.09883,0 1.98962,0.89078 1.98962,1.98962c0,1.09883 -0.89078,1.98962 -1.98962,1.98962c-1.09883,0 -1.98962,-0.89078 -1.98962,-1.98962c0,-1.09883 0.89078,-1.98962 1.98962,-1.98962z"/><path d="M237.57035,156.56653c1.09883,0 1.98962,0.89078 1.98962,1.98962c0,1.09883 -0.89078,1.98962 -1.98962,1.98962c-1.09883,0 -1.98962,-0.89078 -1.98962,-1.98962c0,-1.09883 0.89078,-1.98962 1.98962,-1.98962z"/></g><g fill="#e99856" stroke="none" stroke-width="0"><path d="M227.8226,194.71785c1.09883,0 1.98962,0.89078 1.98962,1.98962c0,1.09883 -0.89078,1.98962 -1.98962,1.98962c-1.09883,0 -1.98962,-0.89078 -1.98962,-1.98962c0,-1.09884 0.89078,-1.98962 1.98962,-1.98962z"/><path d="M227.9159,185.15669c1.09883,0 1.98962,0.89078 1.98962,1.98962c0,1.09883 -0.89078,1.98962 -1.98962,1.98962c-1.09883,0 -1.98962,-0.89078 -1.98962,-1.98962c0,-1.09883 0.89078,-1.98962 1.98962,-1.98962z"/><path d="M227.87198,175.59554c1.09883,0 1.98962,0.89078 1.98962,1.98962c0,1.09883 -0.89078,1.98962 -1.98962,1.98962c-1.09883,0 -1.98962,-0.89078 -1.98962,-1.98962c0,-1.09884 0.89078,-1.98962 1.98962,-1.98962z"/><path d="M227.82806,166.03438c1.09883,0 1.98962,0.89078 1.98962,1.98962c0,1.09883 -0.89078,1.98962 -1.98962,1.98962c-1.09883,0 -1.98962,-0.89078 -1.98962,-1.98962c0,-1.09883 0.89078,-1.98962 1.98962,-1.98962z"/><path d="M227.92136,156.47323c1.09883,0 1.98962,0.89078 1.98962,1.98962c0,1.09883 -0.89078,1.98962 -1.98962,1.98962c-1.09883,0 -1.98962,-0.89078 -1.98962,-1.98962c0,-1.09884 0.89078,-1.98962 1.98962,-1.98962z"/></g><g fill="#e99856" stroke="none" stroke-width="0"><path d="M218.31082,194.62455c1.09884,0 1.98962,0.89078 1.98962,1.98962c0,1.09883 -0.89078,1.98962 -1.98962,1.98962c-1.09883,0 -1.98962,-0.89078 -1.98962,-1.98962c0,-1.09884 0.89078,-1.98962 1.98962,-1.98962z"/><path d="M218.40412,185.0634c1.09883,0 1.98962,0.89078 1.98962,1.98962c0,1.09883 -0.89078,1.98962 -1.98962,1.98962c-1.09883,0 -1.98962,-0.89078 -1.98962,-1.98962c0,-1.09883 0.89078,-1.98962 1.98962,-1.98962z"/><path d="M218.3602,175.50224c1.09883,0 1.98962,0.89078 1.98962,1.98962c0,1.09883 -0.89078,1.98962 -1.98962,1.98962c-1.09883,0 -1.98962,-0.89078 -1.98962,-1.98962c0,-1.09884 0.89078,-1.98962 1.98962,-1.98962z"/><path d="M218.31629,165.94109c1.09883,0 1.98962,0.89078 1.98962,1.98962c0,1.09883 -0.89078,1.98962 -1.98962,1.98962c-1.09883,0 -1.98962,-0.89078 -1.98962,-1.98962c0,-1.09883 0.89078,-1.98962 1.98962,-1.98962z"/><path d="M218.40958,156.37993c1.09883,0 1.98962,0.89078 1.98962,1.98962c0,1.09883 -0.89078,1.98962 -1.98962,1.98962c-1.09883,0 -1.98962,-0.89078 -1.98962,-1.98962c0,-1.09883 0.89078,-1.98962 1.98962,-1.98962z"/></g><g fill="#e99856" stroke="none" stroke-width="0"><path d="M261.3416,199.48193c1.09883,0 1.98962,0.89078 1.98962,1.98962c0,1.09883 -0.89078,1.98962 -1.98962,1.98962c-1.09883,0 -1.98962,-0.89078 -1.98962,-1.98962c0,-1.09884 0.89078,-1.98962 1.98962,-1.98962z"/><path d="M261.4349,189.92077c1.09883,0 1.98962,0.89078 1.98962,1.98962c0,1.09883 -0.89078,1.98962 -1.98962,1.98962c-1.09883,0 -1.98962,-0.89078 -1.98962,-1.98962c0,-1.09883 0.89078,-1.98962 1.98962,-1.98962z"/><path d="M261.39098,180.35962c1.09883,0 1.98962,0.89078 1.98962,1.98962c0,1.09883 -0.89078,1.98962 -1.98962,1.98962c-1.09883,0 -1.98962,-0.89078 -1.98962,-1.98962c0,-1.09884 0.89078,-1.98962 1.98962,-1.98962z"/><path d="M261.34706,170.79846c1.09883,0 1.98962,0.89078 1.98962,1.98962c0,1.09883 -0.89078,1.98962 -1.98962,1.98962c-1.09883,0 -1.98962,-0.89078 -1.98962,-1.98962c0,-1.09883 0.89078,-1.98962 1.98962,-1.98962z"/><path d="M261.44036,161.23731c1.09883,0 1.98962,0.89078 1.98962,1.98962c0,1.09883 -0.89078,1.98962 -1.98962,1.98962c-1.09883,0 -1.98962,-0.89078 -1.98962,-1.98962c0,-1.09883 0.89078,-1.98962 1.98962,-1.98962z"/></g></g></g></svg>