<svg version="1.1" xmlns="http://www.w3.org/2000/svg" xmlns:xlink="http://www.w3.org/1999/xlink" width="59.63044" height="59.63044" viewBox="0,0,59.63044,59.63044"><g transform="translate(-210.18478,-150.18478)"><g data-paper-data="{&quot;isPaintingLayer&quot;:true}" fill-rule="nonzero" stroke-linecap="butt" stroke-linejoin="miter" stroke-miterlimit="10" stroke-dasharray="" stroke-dashoffset="0" style="mix-blend-mode: normal"><g><path d="M211.18478,208.81522v-57.63044h57.63044v57.63044z" fill="#64b0e2" stroke="#808080" stroke-width="2"/><path d="M212.14814,207.02597v-36.71429h55.71429v36.71429z" fill="#bdbdbd" stroke="none" stroke-width="0"/><path d="M232.71957,190.02597v-29.28571h14.14286v29.28571z" fill="#bdbdbd" stroke="none" stroke-width="0"/><path d="M249.29099,190.02598v-29.28571h14.14286v29.28571z" fill="#bdbdbd" stroke="none" stroke-width="0"/><path d="M215.86242,190.16883v-29.28571h14.14286v29.28571z" fill="#bdbdbd" stroke="none" stroke-width="0"/><path d="M234.57671,185.45454v-29.28571h9.71429v29.28571z" fill="#bdbdbd" stroke="none" stroke-width="0"/><path d="M211.71957,207.88312v-8.57143h56.14286v8.57143z" fill="#6c2a57" stroke="none" stroke-width="0"/><path d="M215.71957,201.88312v-17.14286h14.57143v17.14286z" fill="#6c2a57" stroke="none" stroke-width="0"/><path d="M232.43385,201.74026v-17.14286h14.57143v17.14286z" fill="#6c2a57" stroke="none" stroke-width="0"/><path d="M249.14814,201.74026v-17.14286h14.57143v17.14286z" fill="#6c2a57" stroke="none" stroke-width="0"/><path d="M251.43385,197.16884v-17.14286h10v17.14286z" fill="#6c2a57" stroke="none" stroke-width="0"/><path d="M217.86242,197.16883v-17.14286h9.99999v17.14286z" fill="#6c2a57" stroke="none" stroke-width="0"/><path d="M219.29099,193.02597v-3.71429h2.28571v3.71429z" fill="#ffd778" stroke="none" stroke-width="0"/><path d="M219.43385,199.02598v-3.71428h2.28571v3.71428z" fill="#ffd778" stroke="none" stroke-width="0"/><path d="M224.29099,199.02598v-3.71428h2.28571v3.71428z" fill="#ffd778" stroke="none" stroke-width="0"/><path d="M236.291,199.02598v-3.71428h2.28571v3.71428z" fill="#ffd778" stroke="none" stroke-width="0"/><path d="M240.86242,193.02598v-3.71428h2.28571v3.71428z" fill="#ffd778" stroke="none" stroke-width="0"/><path d="M252.71957,193.02598v-3.71428h2.28571v3.71428z" fill="#ffd778" stroke="none" stroke-width="0"/><path d="M252.71957,199.02598v-3.71428h2.28572v3.71428z" fill="#ffd778" stroke="none" stroke-width="0"/></g></g></g></svg>