<svg version="1.1" xmlns="http://www.w3.org/2000/svg" xmlns:xlink="http://www.w3.org/1999/xlink" width="59.63044" height="59.63044" viewBox="0,0,59.63044,59.63044"><g transform="translate(-210.18478,-150.18478)"><g data-paper-data="{&quot;isPaintingLayer&quot;:true}" fill-rule="nonzero" stroke-linejoin="miter" stroke-miterlimit="10" stroke-dasharray="" stroke-dashoffset="0" style="mix-blend-mode: normal"><path d="M211.18478,208.81522v-57.63044h57.63044v57.63044z" fill="#833376" stroke="#808080" stroke-width="2" stroke-linecap="butt"/><path d="M249.375,159h-18.75" fill="#591f52" stroke="#591f52" stroke-width="4.5" stroke-linecap="round"/><path d="M230.625,201h18.75" fill="#591f52" stroke="#591f52" stroke-width="4.5" stroke-linecap="round"/><path d="M218.125,180h43.75" fill="#591f52" stroke="#591f52" stroke-width="4.5" stroke-linecap="round"/><path d="M261.875,186.65898h-43.75" fill="#591f52" stroke="#591f52" stroke-width="4.5" stroke-linecap="round"/><path d="M218.125,173.25h43.75" fill="#591f52" stroke="#591f52" stroke-width="4.5" stroke-linecap="round"/><path d="M221.875,165.75c0,0 14.44818,0 21.06056,0c5.88631,0 16.68944,0 16.68944,0" fill="#591f52" stroke="#591f52" stroke-width="4.5" stroke-linecap="round"/><path d="M235.49306,200.625v-41.25h9.01389v41.25z" fill="#591f52" stroke="#591f52" stroke-width="0" stroke-linecap="butt"/><path d="M221.125,194h37.75" fill="#591f52" stroke="#591f52" stroke-width="4.5" stroke-linecap="round"/><path d="M222.375,180c0,-9.73402 7.89098,-17.625 17.625,-17.625c9.73402,0 17.625,7.89098 17.625,17.625c0,9.73402 -7.89098,17.625 -17.625,17.625c-9.73402,0 -17.625,-7.89098 -17.625,-17.625z" fill="#ffffff" stroke="none" stroke-width="0" stroke-linecap="butt"/><path d="M229.26373,188.68133c0,-2.26223 1.83389,-4.09613 4.09612,-4.09613c2.26223,0 4.09613,1.8339 4.09613,4.09613c0,2.26223 -1.8339,4.09612 -4.09613,4.09612c-2.26223,0 -4.09612,-1.8339 -4.09612,-4.09612z" fill="#dedede" stroke="none" stroke-width="0" stroke-linecap="butt"/><path d="M224.70611,184.48781c0,-1.4076 1.1411,-2.5487 2.5487,-2.5487c1.4076,0 2.5487,1.1411 2.5487,2.5487c0,1.4076 -1.1411,2.54869 -2.5487,2.54869c-1.4076,0 -2.5487,-1.14109 -2.5487,-2.54869z" fill="#dedede" stroke="none" stroke-width="0" stroke-linecap="butt"/><path d="M230.88944,180.38531c0,-1.4076 1.1411,-2.5487 2.5487,-2.5487c1.4076,0 2.5487,1.1411 2.5487,2.5487c0,1.4076 -1.1411,2.5487 -2.5487,2.5487c-1.4076,0 -2.5487,-1.14109 -2.5487,-2.5487z" fill="#dedede" stroke="none" stroke-width="0" stroke-linecap="butt"/><path d="M245.44706,181.38022c0,-1.4076 1.1411,-2.5487 2.5487,-2.5487c1.4076,0 2.5487,1.1411 2.5487,2.5487c0,1.4076 -1.1411,2.5487 -2.5487,2.5487c-1.4076,0 -2.5487,-1.14109 -2.5487,-2.5487z" fill="#dedede" stroke="none" stroke-width="0" stroke-linecap="butt"/><path d="M249.80988,186.19817c0,-1.4076 1.1411,-2.5487 2.5487,-2.5487c1.4076,0 2.5487,1.1411 2.5487,2.5487c0,1.4076 -1.1411,2.5487 -2.5487,2.5487c-1.4076,0 -2.5487,-1.14109 -2.5487,-2.5487z" fill="#dedede" stroke="none" stroke-width="0" stroke-linecap="butt"/><path d="M238.6393,158.00592v12.74349" fill="none" stroke="#000000" stroke-width="1.5" stroke-linecap="round"/><path d="M237.16378,156.94002c0,-0.77921 0.63168,-1.41089 1.41089,-1.41089c0.77921,0 1.41089,0.63168 1.41089,1.41089c0,0.77921 -0.63168,1.41089 -1.41089,1.41089c-0.77921,0 -1.41089,-0.63168 -1.41089,-1.41089z" fill="#fed87e" stroke="none" stroke-width="0" stroke-linecap="butt"/><path d="M239.23124,164.51483v-6.21933h6.21933v6.21933z" fill="#ff0000" stroke="none" stroke-width="0" stroke-linecap="butt"/><text transform="translate(239.71921,163.15752) scale(0.10491,0.10491)" font-size="40" xml:space="preserve" fill="#ffffff" fill-rule="nonzero" stroke="none" stroke-width="1" stroke-linecap="butt" stroke-linejoin="miter" stroke-miterlimit="10" stroke-dasharray="" stroke-dashoffset="0" font-family="Pixel" font-weight="normal" text-anchor="start" style="mix-blend-mode: normal"><tspan x="0" dy="0">CB</tspan></text></g></g></svg>