<svg version="1.1" xmlns="http://www.w3.org/2000/svg" xmlns:xlink="http://www.w3.org/1999/xlink" width="59.63044" height="59.63044" viewBox="0,0,59.63044,59.63044"><g transform="translate(-210.18478,-150.18478)"><g data-paper-data="{&quot;isPaintingLayer&quot;:true}" fill-rule="nonzero" stroke-linecap="butt" stroke-linejoin="miter" stroke-miterlimit="10" stroke-dasharray="" stroke-dashoffset="0" style="mix-blend-mode: normal"><path d="M211.18478,151.18478h57.63044v57.63044l-57.63044,0z" data-paper-data="{&quot;index&quot;:null}" fill="#000000" stroke="#808080" stroke-width="2"/><g data-paper-data="{&quot;index&quot;:null}" fill="#ffffff" stroke="none" stroke-width="0"><path d="M262.50567,155.33332c0.77325,0 1.40008,0.62683 1.40008,1.40008c0,0.77325 -0.62683,1.40008 -1.40008,1.40008c-0.77325,0 -1.40008,-0.62683 -1.40008,-1.40008c0,-0.77325 0.62683,-1.40008 1.40008,-1.40008z"/><path d="M262.27226,199.41667c1.47276,0 2.66667,1.09441 2.66667,2.44444c0,1.35003 -1.19392,2.44445 -2.66667,2.44445c-1.47276,0 -2.66666,-1.09442 -2.66666,-2.44445c0,-1.35003 1.19391,-2.44444 2.66666,-2.44444z"/><path d="M220.6056,189.41667c1.47276,0 2.66666,1.09443 2.66666,2.44445c0,1.35002 -1.19391,2.44444 -2.66666,2.44444c-1.47276,0 -2.66666,-1.09442 -2.66666,-2.44444c0,-1.35002 1.19391,-2.44445 2.66666,-2.44445z"/><path d="M258.6056,182c0.82843,0 1.5,0.67157 1.5,1.5c0,0.82843 -0.67157,1.5 -1.5,1.5c-0.82843,0 -1.5,-0.67157 -1.5,-1.5c0,-0.82843 0.67157,-1.5 1.5,-1.5z"/><path d="M246.6056,165c0.82843,0 1.5,0.67157 1.5,1.5c0,0.82843 -0.67157,1.5 -1.5,1.5c-0.82843,0 -1.5,-0.67157 -1.5,-1.5c0,-0.82843 0.67157,-1.5 1.5,-1.5z"/><path d="M226.27226,184.00001c0.82843,0 1.5,0.67157 1.5,1.5c0,0.82843 -0.67157,1.5 -1.5,1.5c-0.82843,0 -1.5,-0.67157 -1.5,-1.5c0,-0.82843 0.67157,-1.5 1.5,-1.5z"/><path d="M228.6056,198.99999c0.82843,0 1.5,0.67157 1.5,1.5c0,0.82843 -0.67157,1.5 -1.5,1.5c-0.82843,0 -1.5,-0.67157 -1.5,-1.5c0,-0.82843 0.67157,-1.5 1.5,-1.5z"/><path d="M216.93893,201.66665c0.82843,0 1.5,0.67158 1.5,1.5c0,0.82843 -0.67157,1.5 -1.5,1.5c-0.82843,0 -1.5,-0.67157 -1.5,-1.5c0,-0.82842 0.67157,-1.5 1.5,-1.5z"/><path d="M251.27226,174.83333c0.55229,0 1,0.44771 1,1c0,0.55229 -0.44771,1 -1,1c-0.55229,0 -1,-0.44771 -1,-1c0,-0.55229 0.44771,-1 1,-1z"/><path d="M241.27226,197.16667c0.55229,0 1,0.44772 1,1c0,0.55228 -0.44771,1 -1,1c-0.55229,0 -1,-0.44772 -1,-1c0,-0.55228 0.44771,-1 1,-1z"/><path d="M250.93892,199.83333c0.55229,0 1,0.44772 1,1c0,0.55228 -0.44771,1 -1,1c-0.55229,0 -1,-0.44772 -1,-1c0,-0.55228 0.44771,-1 1,-1z"/><path d="M236.27226,158.16667c0.55229,0 1,0.44771 1,1c0,0.55229 -0.44771,1 -1,1c-0.55229,0 -1,-0.44771 -1,-1c0,-0.55229 0.44771,-1 1,-1z"/><path d="M233.93892,170.5c0.55229,0 1,0.44771 1,1c0,0.55229 -0.44771,1 -1,1c-0.55229,0 -1,-0.44771 -1,-1c0,-0.55229 0.44771,-1 1,-1z"/><path d="M221.39439,172.66667c0.36819,0 0.66666,0.29847 0.66666,0.66666c0,0.36819 -0.29847,0.66667 -0.66666,0.66667c-0.36819,0 -0.66666,-0.29848 -0.66666,-0.66667c0,-0.36819 0.29847,-0.66666 0.66666,-0.66666z"/><path d="M215.72773,179.33332c0.36819,0 0.66666,0.29847 0.66666,0.66666c0,0.36819 -0.29847,0.66667 -0.66666,0.66667c-0.36819,0 -0.66666,-0.29848 -0.66666,-0.66667c0,-0.36819 0.29847,-0.66666 0.66666,-0.66666z"/><path d="M234.39439,184.33332c0.36819,0 0.66666,0.29847 0.66666,0.66666c0,0.36819 -0.29847,0.66667 -0.66666,0.66667c-0.36819,0 -0.66666,-0.29848 -0.66666,-0.66667c0,-0.36819 0.29847,-0.66666 0.66666,-0.66666z"/><path d="M237.06105,203.66667c0.36819,0 0.66666,0.29847 0.66666,0.66667c0,0.36819 -0.29847,0.66667 -0.66666,0.66667c-0.36819,0 -0.66666,-0.29848 -0.66666,-0.66667c0,-0.36819 0.29847,-0.66667 0.66666,-0.66667z"/><path d="M230.06105,155c0.36819,0 0.66666,0.29847 0.66666,0.66666c0,0.36819 -0.29847,0.66667 -0.66666,0.66667c-0.36819,0 -0.66666,-0.29848 -0.66666,-0.66667c0,-0.36819 0.29847,-0.66666 0.66666,-0.66666z"/><path d="M215.72773,155.66667c0.36819,0 0.66667,0.29847 0.66667,0.66666c0,0.36819 -0.29848,0.66667 -0.66667,0.66667c-0.36819,0 -0.66666,-0.29848 -0.66666,-0.66667c0,-0.36819 0.29847,-0.66666 0.66666,-0.66666z"/><path d="M253.39439,160c0.36819,0 0.66666,0.29847 0.66666,0.66666c0,0.36819 -0.29847,0.66667 -0.66666,0.66667c-0.36819,0 -0.66666,-0.29848 -0.66666,-0.66667c0,-0.36819 0.29847,-0.66666 0.66666,-0.66666z"/><path d="M243.39438,155.66667c0.36819,0 0.66666,0.29847 0.66666,0.66666c0,0.36819 -0.29847,0.66667 -0.66666,0.66667c-0.36819,0 -0.66667,-0.29848 -0.66667,-0.66667c0,-0.36819 0.29848,-0.66666 0.66667,-0.66666z"/><path d="M260.06106,171.33332c0.36819,0 0.66666,0.29847 0.66666,0.66666c0,0.36819 -0.29847,0.66667 -0.66666,0.66667c-0.36819,0 -0.66666,-0.29848 -0.66666,-0.66667c0,-0.36819 0.29847,-0.66666 0.66666,-0.66666z"/><path d="M254.39438,189.66667c0.36819,0 0.66666,0.29847 0.66666,0.66666c0,0.36819 -0.29847,0.66667 -0.66666,0.66667c-0.36819,0 -0.66667,-0.29848 -0.66667,-0.66667c0,-0.36819 0.29848,-0.66666 0.66667,-0.66666z"/><path d="M244.39439,180.66666c0.36819,0 0.66666,0.29847 0.66666,0.66666c0,0.36819 -0.29847,0.66667 -0.66666,0.66667c-0.36819,0 -0.66666,-0.29848 -0.66666,-0.66667c0,-0.36819 0.29847,-0.66666 0.66666,-0.66666z"/><path d="M223.20479,160.55c1.36186,0 2.46586,1.01202 2.46586,2.26038c0,1.24836 -1.10401,2.26037 -2.46586,2.26037c-1.36186,0 -2.46586,-1.01201 -2.46586,-2.26037c0,-1.24836 1.10401,-2.26038 2.46586,-2.26038z"/></g></g></g></svg>