<svg version="1.1" xmlns="http://www.w3.org/2000/svg" xmlns:xlink="http://www.w3.org/1999/xlink" width="59.63044" height="59.63044" viewBox="0,0,59.63044,59.63044"><g transform="translate(-210.18477,-150.18478)"><g data-paper-data="{&quot;isPaintingLayer&quot;:true}" fill-rule="nonzero" stroke-linejoin="miter" stroke-miterlimit="10" stroke-dasharray="" stroke-dashoffset="0" style="mix-blend-mode: normal"><path d="M211.18478,208.81522v-57.63044h57.63044v57.63044z" fill="#baeefe" stroke="#808080" stroke-width="2" stroke-linecap="butt"/><g><path d="M225.00528,181.31169l0.14285,16.85715" fill="none" stroke="#969696" stroke-width="1.5" stroke-linecap="round"/><path d="M231.22997,195.5068l-12.02081,-11.81879" fill="none" stroke="#969696" stroke-width="1.5" stroke-linecap="round"/><path d="M231.12896,183.72985l-11.81879,12.02082" fill="none" stroke="#989898" stroke-width="1.5" stroke-linecap="round"/><path d="M216.64814,189.81169l16.85715,-0.14285" fill="none" stroke="#989898" stroke-width="1.5" stroke-linecap="round"/><path d="M216.43385,189.5974c0,-4.81277 3.90151,-8.71428 8.71428,-8.71428c4.81277,0 8.71428,3.90151 8.71428,8.71428c0,4.81277 -3.90151,8.71429 -8.71428,8.71429c-4.81277,0 -8.71428,-3.90152 -8.71428,-8.71429z" fill="none" stroke="#000000" stroke-width="1.5" stroke-linecap="butt"/><path d="M228.57671,189.74026c0,1.89355 -1.50304,3.42857 -3.35714,3.42857c-1.8541,0 -3.35715,-1.53502 -3.35715,-3.42857c0,-1.89355 1.50305,-3.42857 3.35715,-3.42857c1.8541,0 3.35714,1.53502 3.35714,3.42857z" fill="#bdbdbd" stroke="none" stroke-width="0" stroke-linecap="butt"/></g><g><path d="M254.00528,181.02597l0.14285,16.85715" fill="none" stroke="#969696" stroke-width="1.5" stroke-linecap="round"/><path d="M260.22997,195.22108l-12.02081,-11.81879" fill="none" stroke="#969696" stroke-width="1.5" stroke-linecap="round"/><path d="M260.12896,183.44414l-11.81879,12.02082" fill="none" stroke="#989898" stroke-width="1.5" stroke-linecap="round"/><path d="M245.64814,189.52597l16.85715,-0.14285" fill="none" stroke="#989898" stroke-width="1.5" stroke-linecap="round"/><path d="M245.43385,189.31169c0,-4.81277 3.90151,-8.71429 8.71428,-8.71429c4.81277,0 8.71428,3.90152 8.71428,8.71429c0,4.81277 -3.90151,8.71428 -8.71428,8.71428c-4.81277,0 -8.71428,-3.90151 -8.71428,-8.71428z" fill="none" stroke="#000000" stroke-width="1.5" stroke-linecap="butt"/><path d="M257.57671,189.45455c0,1.89355 -1.50304,3.42857 -3.35714,3.42857c-1.8541,0 -3.35715,-1.53502 -3.35715,-3.42857c0,-1.89355 1.50305,-3.42857 3.35715,-3.42857c1.8541,0 3.35714,1.53502 3.35714,3.42857z" fill="#bdbdbd" stroke="none" stroke-width="0" stroke-linecap="butt"/></g><path d="M242.00528,164.31795c0,0 3.7895,0.10449 4.43696,1.02388c0.64746,0.91939 3.25473,9.68415 3.25473,9.68415" fill="none" stroke="#bdbdbd" stroke-width="1.5" stroke-linecap="round"/><path d="M240.71957,164.45455h2.71429" fill="none" stroke="#000000" stroke-width="3" stroke-linecap="round"/><path d="M232.43385,169.02597l1,3.28571" fill="none" stroke="#bdbdbd" stroke-width="1.5" stroke-linecap="round"/><path d="M228.43385,169.02598h6.85715" fill="none" stroke="#000000" stroke-width="3" stroke-linecap="round"/><g fill="none" stroke="#f2363c" stroke-width="2" stroke-linecap="round"><path d="M233.57671,172.59741l5.57143,16.14285"/><path d="M254.14814,189.59741l-5.14285,-16.71429"/><path d="M225.57671,189.16883l13.5605,-0.14286l9.72521,-12.42857l-12.87563,-0.28572z"/></g><path d="M243.291,189.5974c0,1.89355 -1.50304,3.42857 -3.35714,3.42857c-1.8541,0 -3.35715,-1.53502 -3.35715,-3.42857c0,-1.89355 1.50305,-3.42857 3.35715,-3.42857c1.8541,0 3.35714,1.53502 3.35714,3.42857z" fill="#bdbdbd" stroke="none" stroke-width="0" stroke-linecap="butt"/><path d="M240.00528,190.16883l1.28571,6" fill="none" stroke="#969696" stroke-width="2" stroke-linecap="round"/><path d="M238.29099,196.16883h5.85714" fill="none" stroke="#000000" stroke-width="2" stroke-linecap="round"/></g></g></svg>