<svg version="1.1" xmlns="http://www.w3.org/2000/svg" xmlns:xlink="http://www.w3.org/1999/xlink" width="59.63044" height="59.63044" viewBox="0,0,59.63044,59.63044"><g transform="translate(-210.18478,-150.18478)"><g data-paper-data="{&quot;isPaintingLayer&quot;:true}" fill-rule="nonzero" stroke-linejoin="miter" stroke-miterlimit="10" stroke-dasharray="" stroke-dashoffset="0" style="mix-blend-mode: normal"><path d="M211.18478,208.81522v-57.63044h57.63044v57.63044z" fill="#f9c97e" stroke="#808080" stroke-width="2" stroke-linecap="butt"/><path d="M245.36929,187.72237v-15.92061h16.25v15.92061z" fill="#de7446" stroke="none" stroke-width="0" stroke-linecap="butt"/><path d="M248.74429,176.55176c0,-0.75939 0.61561,-1.375 1.375,-1.375c0.75939,0 1.375,0.61561 1.375,1.375c0,0.75939 -0.61561,1.375 -1.375,1.375c-0.75939,0 -1.375,-0.61561 -1.375,-1.375z" fill="#9b3914" stroke="none" stroke-width="0" stroke-linecap="butt"/><path d="M255.61929,176.42676c0,-0.75939 0.61561,-1.375 1.375,-1.375c0.75939,0 1.375,0.61561 1.375,1.375c0,0.75939 -0.61561,1.375 -1.375,1.375c-0.75939,0 -1.375,-0.61561 -1.375,-1.375z" fill="#9b3914" stroke="none" stroke-width="0" stroke-linecap="butt"/><path d="M253.61929,178.80406c3.5128,0.12013 3.875,3.875 3.875,3.875h-7.75c0,0 0.60942,-3.98667 3.875,-3.875z" data-paper-data="{&quot;index&quot;:null}" fill="#9b3914" stroke="none" stroke-width="0" stroke-linecap="butt"/><path d="M262.24428,156.67675c0,0 -1.17813,2.57189 -3.73768,2.62681c-2.19487,0.0471 -3.5787,-2.93868 -5.16677,-2.68984c-2.02581,0.31744 -3.51649,2.5457 -4.58955,2.5235c-1.78446,-0.03692 -3.88099,-2.71047 -3.88099,-2.71047" fill="none" stroke="#de7446" stroke-width="1" stroke-linecap="round"/><path d="M262.36928,161.30175c0,0 -1.17813,2.57189 -3.73768,2.62681c-2.19487,0.0471 -3.5787,-2.93868 -5.16677,-2.68984c-2.02582,0.31744 -3.51649,2.5457 -4.58955,2.5235c-1.78446,-0.03692 -3.88099,-2.71047 -3.88099,-2.71047" fill="none" stroke="#de7446" stroke-width="1" stroke-linecap="round"/><path d="M262.49428,166.05175c0,0 -1.17813,2.57189 -3.73768,2.62681c-2.19487,0.0471 -3.5787,-2.93868 -5.16677,-2.68984c-2.02581,0.31744 -3.51649,2.5457 -4.58955,2.5235c-1.78446,-0.03692 -3.88099,-2.71047 -3.88099,-2.71047" fill="none" stroke="#de7446" stroke-width="1" stroke-linecap="round"/><path d="M262.36928,191.30175c0,0 -1.17813,2.57189 -3.73768,2.62681c-2.19487,0.0471 -3.5787,-2.93868 -5.16677,-2.68984c-2.02581,0.31744 -3.51649,2.5457 -4.58955,2.5235c-1.78446,-0.03692 -3.88099,-2.71047 -3.88099,-2.71047" fill="none" stroke="#de7446" stroke-width="1" stroke-linecap="round"/><path d="M262.49428,195.92675c0,0 -1.17813,2.57189 -3.73768,2.62681c-2.19487,0.0471 -3.5787,-2.93868 -5.16677,-2.68984c-2.02581,0.31744 -3.51649,2.5457 -4.58955,2.5235c-1.78446,-0.03692 -3.88099,-2.71047 -3.88099,-2.71047" fill="none" stroke="#de7446" stroke-width="1" stroke-linecap="round"/><path d="M262.49428,200.55175c0,0 -1.17813,2.57189 -3.73768,2.62681c-2.19487,0.0471 -3.5787,-2.93868 -5.16677,-2.68984c-2.02581,0.31744 -3.51649,2.5457 -4.58955,2.5235c-1.78446,-0.03692 -3.88099,-2.71047 -3.88099,-2.71047" fill="none" stroke="#de7446" stroke-width="1" stroke-linecap="round"/><g stroke-linecap="butt"><path d="M230.61929,198.92675v-3.125h-1.25v3.125z" fill="#9b3914" stroke="none" stroke-width="0"/><path d="M233.11929,199.05175v-3.125h-1.25v3.125z" fill="#9b3914" stroke="none" stroke-width="0"/><path d="M235.49429,199.05175v-3.125h-1.25v3.125z" fill="#9b3914" stroke="none" stroke-width="0"/><path d="M216.11929,202.80175l-0.13122,-5.87255c0,0 -0.10022,-6.76423 0.00622,-6.87745c0.71546,-0.76101 1.49814,-1.29514 2.2439,-1.20146c1.13953,0.14314 2.19288,1.25153 2.78853,1.32988c1.00052,0.1316 2.13513,-1.09372 2.51446,-1.10024c2.58998,-0.04449 2.05773,4.31249 2.05773,4.31249l11.41617,0.10744c0,0 -0.28076,-2.0262 0.11942,-2.22154c2.10512,-1.02762 1.4905,1.048 2.24932,1.07243c0.77734,0.02503 0.52736,-2.43582 2.36048,-0.92399c0.77006,0.6351 0.05243,5.59493 0.05243,5.59493c0,0 -11.84078,0.0704 -16.04746,0.03688c-0.43926,-0.0035 -0.10075,2.05683 0.78255,2.70226c2.29741,1.67872 8.98516,0.07423 9.41723,0.89472c0.43945,0.83452 -0.32975,2.0212 -0.32975,2.0212z" fill="#de7446" stroke="#de7446" stroke-width="0.5"/><path d="M216.99429,191.48925c0,-0.86294 0.69956,-1.5625 1.5625,-1.5625c0.86294,0 1.5625,0.69956 1.5625,1.5625c0,0.86294 -0.69956,1.5625 -1.5625,1.5625c-0.86294,0 -1.5625,-0.69956 -1.5625,-1.5625z" fill="#f9cc78" stroke="none" stroke-width="0"/><path d="M221.74429,191.61425c0,-0.86294 0.69956,-1.5625 1.5625,-1.5625c0.86294,0 1.5625,0.69956 1.5625,1.5625c0,0.86294 -0.69956,1.5625 -1.5625,1.5625c-0.86294,0 -1.5625,-0.69956 -1.5625,-1.5625z" fill="#f9cc78" stroke="none" stroke-width="0"/><path d="M222.36929,191.61425c0,-0.51777 0.44772,-0.9375 1,-0.9375c0.55228,0 1,0.41973 1,0.9375c0,0.51777 -0.44772,0.9375 -1,0.9375c-0.55228,0 -1,-0.41973 -1,-0.9375z" fill="#9b3914" stroke="none" stroke-width="0"/><path d="M217.61929,191.48925c0,-0.51776 0.44771,-0.9375 1,-0.9375c0.55229,0 1,0.41974 1,0.9375c0,0.51776 -0.44771,0.9375 -1,0.9375c-0.55229,0 -1,-0.41974 -1,-0.9375z" fill="#9b3914" stroke="none" stroke-width="0"/><path d="M237.24429,192.05175c0,-0.34518 0.3078,-0.625 0.6875,-0.625c0.3797,0 0.6875,0.27982 0.6875,0.625c0,0.34518 -0.3078,0.625 -0.6875,0.625c-0.3797,0 -0.6875,-0.27982 -0.6875,-0.625z" fill="#9b3914" stroke="none" stroke-width="0"/><path d="M240.36929,192.05175c0,-0.34518 0.30781,-0.625 0.6875,-0.625c0.37969,0 0.6875,0.27982 0.6875,0.625c0,0.34518 -0.30781,0.625 -0.6875,0.625c-0.37969,0 -0.6875,-0.27982 -0.6875,-0.625z" fill="#9b3914" stroke="none" stroke-width="0"/></g><g stroke-linecap="butt"><path d="M230.86929,183.30175v-3.125h-1.25v3.125z" fill="#9b3914" stroke="none" stroke-width="0"/><path d="M233.36929,183.42675v-3.125h-1.25v3.125z" fill="#9b3914" stroke="none" stroke-width="0"/><path d="M235.74429,183.42675v-3.125h-1.25v3.125z" fill="#9b3914" stroke="none" stroke-width="0"/><path d="M216.36929,187.17675l-0.13123,-5.87256c0,0 -0.10022,-6.76422 0.00623,-6.87744c0.71545,-0.76101 1.49814,-1.29514 2.2439,-1.20146c1.13953,0.14314 2.19288,1.25153 2.78853,1.32988c1.00053,0.1316 2.13513,-1.09372 2.51445,-1.10024c2.58998,-0.04449 2.05773,4.31249 2.05773,4.31249l11.41617,0.10744c0,0 -0.28076,-2.0262 0.11942,-2.22155c2.10512,-1.02761 1.49051,1.048 2.24932,1.07244c0.77734,0.02503 0.52736,-2.43582 2.36048,-0.92399c0.77006,0.6351 0.05243,5.59493 0.05243,5.59493c0,0 -11.84077,0.07041 -16.04745,0.03689c-0.43926,-0.0035 -0.10075,2.05683 0.78254,2.70226c2.29741,1.67872 8.98516,0.07423 9.41723,0.89472c0.43945,0.83452 -0.32975,2.0212 -0.32975,2.0212z" fill="#de7446" stroke="#de7446" stroke-width="0.5"/><path d="M217.24429,175.86425c0,-0.86294 0.69956,-1.5625 1.5625,-1.5625c0.86294,0 1.5625,0.69956 1.5625,1.5625c0,0.86294 -0.69956,1.5625 -1.5625,1.5625c-0.86294,0 -1.5625,-0.69956 -1.5625,-1.5625z" fill="#f9cc78" stroke="none" stroke-width="0"/><path d="M221.99429,175.98925c0,-0.86294 0.69956,-1.5625 1.5625,-1.5625c0.86294,0 1.5625,0.69956 1.5625,1.5625c0,0.86294 -0.69956,1.5625 -1.5625,1.5625c-0.86294,0 -1.5625,-0.69956 -1.5625,-1.5625z" fill="#f9cc78" stroke="none" stroke-width="0"/><path d="M222.61929,175.98925c0,-0.51776 0.44771,-0.9375 1,-0.9375c0.55229,0 1,0.41974 1,0.9375c0,0.51776 -0.44771,0.9375 -1,0.9375c-0.55229,0 -1,-0.41974 -1,-0.9375z" fill="#9b3914" stroke="none" stroke-width="0"/><path d="M217.86929,175.86425c0,-0.51776 0.44771,-0.9375 1,-0.9375c0.55229,0 1,0.41974 1,0.9375c0,0.51776 -0.44771,0.9375 -1,0.9375c-0.55229,0 -1,-0.41974 -1,-0.9375z" fill="#9b3914" stroke="none" stroke-width="0"/><path d="M237.49429,176.42675c0,-0.34518 0.30781,-0.625 0.6875,-0.625c0.37969,0 0.6875,0.27982 0.6875,0.625c0,0.34518 -0.30781,0.625 -0.6875,0.625c-0.37969,0 -0.6875,-0.27982 -0.6875,-0.625z" fill="#9b3914" stroke="none" stroke-width="0"/><path d="M240.61929,176.42675c0,-0.34518 0.30781,-0.625 0.6875,-0.625c0.37969,0 0.6875,0.27982 0.6875,0.625c0,0.34518 -0.30781,0.625 -0.6875,0.625c-0.37969,0 -0.6875,-0.27982 -0.6875,-0.625z" fill="#9b3914" stroke="none" stroke-width="0"/></g><g stroke-linecap="butt"><path d="M230.86929,166.92675v-3.125h-1.25v3.125z" fill="#9b3914" stroke="none" stroke-width="0"/><path d="M233.36929,167.05175v-3.125h-1.25v3.125z" fill="#9b3914" stroke="none" stroke-width="0"/><path d="M235.74429,167.05175v-3.125h-1.25v3.125z" fill="#9b3914" stroke="none" stroke-width="0"/><path d="M216.36929,170.80175l-0.13123,-5.87256c0,0 -0.10022,-6.76422 0.00623,-6.87744c0.71545,-0.76101 1.49814,-1.29514 2.2439,-1.20146c1.13953,0.14314 2.19288,1.25153 2.78853,1.32988c1.00053,0.1316 2.13513,-1.09372 2.51445,-1.10024c2.58998,-0.04449 2.05773,4.31249 2.05773,4.31249l11.41617,0.10744c0,0 -0.28076,-2.0262 0.11942,-2.22155c2.10512,-1.02761 1.49051,1.048 2.24932,1.07244c0.77734,0.02503 0.52736,-2.43582 2.36048,-0.92399c0.77006,0.6351 0.05243,5.59493 0.05243,5.59493c0,0 -11.84077,0.07041 -16.04745,0.03689c-0.43926,-0.0035 -0.10075,2.05683 0.78254,2.70226c2.29741,1.67872 8.98516,0.07423 9.41723,0.89472c0.43945,0.83452 -0.32975,2.0212 -0.32975,2.0212z" fill="#de7446" stroke="#de7446" stroke-width="0.5"/><path d="M217.24429,159.48925c0,-0.86294 0.69956,-1.5625 1.5625,-1.5625c0.86294,0 1.5625,0.69956 1.5625,1.5625c0,0.86294 -0.69956,1.5625 -1.5625,1.5625c-0.86294,0 -1.5625,-0.69956 -1.5625,-1.5625z" fill="#f9cc78" stroke="none" stroke-width="0"/><path d="M221.99429,159.61425c0,-0.86294 0.69956,-1.5625 1.5625,-1.5625c0.86294,0 1.5625,0.69956 1.5625,1.5625c0,0.86294 -0.69956,1.5625 -1.5625,1.5625c-0.86294,0 -1.5625,-0.69956 -1.5625,-1.5625z" fill="#f9cc78" stroke="none" stroke-width="0"/><path d="M222.61929,159.61425c0,-0.51776 0.44771,-0.9375 1,-0.9375c0.55229,0 1,0.41974 1,0.9375c0,0.51776 -0.44771,0.9375 -1,0.9375c-0.55229,0 -1,-0.41974 -1,-0.9375z" fill="#9b3914" stroke="none" stroke-width="0"/><path d="M217.86929,159.48925c0,-0.51776 0.44771,-0.9375 1,-0.9375c0.55229,0 1,0.41974 1,0.9375c0,0.51776 -0.44771,0.9375 -1,0.9375c-0.55229,0 -1,-0.41974 -1,-0.9375z" fill="#9b3914" stroke="none" stroke-width="0"/><path d="M237.49429,160.05175c0,-0.34518 0.30781,-0.625 0.6875,-0.625c0.37969,0 0.6875,0.27982 0.6875,0.625c0,0.34518 -0.30781,0.625 -0.6875,0.625c-0.37969,0 -0.6875,-0.27982 -0.6875,-0.625z" fill="#9b3914" stroke="none" stroke-width="0"/><path d="M240.61929,160.05175c0,-0.34518 0.30781,-0.625 0.6875,-0.625c0.37969,0 0.6875,0.27982 0.6875,0.625c0,0.34518 -0.30781,0.625 -0.6875,0.625c-0.37969,0 -0.6875,-0.27982 -0.6875,-0.625z" fill="#9b3914" stroke="none" stroke-width="0"/></g></g></g></svg>