<svg version="1.1" xmlns="http://www.w3.org/2000/svg" xmlns:xlink="http://www.w3.org/1999/xlink" width="59.63044" height="59.63044" viewBox="0,0,59.63044,59.63044"><g transform="translate(-209.76811,-150.35145)"><g data-paper-data="{&quot;isPaintingLayer&quot;:true}" fill-rule="nonzero" stroke-linejoin="miter" stroke-miterlimit="10" stroke-dasharray="" stroke-dashoffset="0" style="mix-blend-mode: normal"><path d="M210.76811,208.98189v-57.63044h57.63044v57.63044z" fill="#000000" stroke="#808080" stroke-width="2" stroke-linecap="butt"/><path d="M244.50068,170.75191c1.86778,1.25008 0.51021,1.61875 1.79078,3.14382c1.23484,1.47062 2.68417,0.24471 3.31385,2.16947c0.68946,2.10749 -0.97168,2.506 -1.06156,4.18388c-0.09719,1.81423 1.39665,2.53184 0.78808,4.02315c-0.59163,1.4498 -2.09506,0.8056 -3.16331,2.00632c-1.15337,1.29639 -0.62897,2.22859 -2.0724,2.85641c-1.63856,0.71269 -2.34108,-0.64984 -4.21312,-0.65089c-1.72868,-0.00096 -3.13992,1.479 -4.61844,0.60812c-1.46909,-0.86532 -0.53119,-2.22338 -1.66989,-3.34155c-1.11872,-1.09855 -1.92432,-0.46158 -2.69022,-1.9501c-0.92914,-1.80578 0.75772,-2.36164 0.72183,-3.98546c-0.0375,-1.69663 -1.73508,-2.32991 -1.08693,-3.94305c0.60505,-1.50588 1.95969,-0.43743 3.08409,-1.79537c1.12159,-1.35454 -0.41732,-2.06205 1.70281,-3.54634c1.52703,-1.06906 2.47385,1.45737 4.37864,1.31971c2.69954,-0.1951 3.06463,-2.25678 4.7958,-1.09814z" fill="#fa9350" stroke="none" stroke-width="0" stroke-linecap="butt"/><path d="M233.11539,180c0,-3.80227 3.08235,-6.88461 6.88461,-6.88461c3.80227,0 6.88461,3.08235 6.88461,6.88461c0,3.80227 -3.08235,6.88461 -6.88461,6.88461c-3.80227,0 -6.88461,-3.08235 -6.88461,-6.88461z" fill="#feda7d" stroke="none" stroke-width="0" stroke-linecap="butt"/><g><path d="M260,175.87836c2.33622,0 4.2301,1.84532 4.2301,4.12164c0,2.27632 -1.89388,4.12164 -4.2301,4.12164c-2.33622,0 -4.2301,-1.84532 -4.2301,-4.12164c0,-2.27632 1.89388,-4.12164 4.2301,-4.12164z" fill="#42bfff" stroke="none" stroke-width="0" stroke-linecap="butt"/><path d="M260.43028,176.21688l-4.37901,3.80136" fill="none" stroke="#004ac3" stroke-width="1" stroke-linecap="round"/><path d="M256.56526,182.0378l5.81613,-5.04891" fill="none" stroke="#004ac3" stroke-width="1" stroke-linecap="round"/><path d="M263.65959,178.52608l-5.66396,4.91681" fill="none" stroke="#004ac3" stroke-width="1" stroke-linecap="round"/><path d="M263.88672,180.82645l-3.46658,2.97847" fill="none" stroke="#004ac3" stroke-width="1" stroke-linecap="round"/></g><g data-paper-data="{&quot;index&quot;:null}"><path d="M259.18478,193.8013c0,2.27632 -1.89388,4.12164 -4.2301,4.12164c-2.33622,0 -4.2301,-1.84532 -4.2301,-4.12164c0,-2.27632 1.89388,-4.12164 4.2301,-4.12164c2.33622,0 4.2301,1.84532 4.2301,4.12164z" fill="#fa9350" stroke="none" stroke-width="0" stroke-linecap="butt"/><path d="M257.33882,190.07478c0,0 0.45304,-0.51106 1.13557,-0.6891c0.33115,-0.08638 0.99141,0.42523 0.84099,1.34937c-0.14782,0.9082 -1.10137,1.97629 -1.34449,2.22913c-0.41779,0.4345 -3.6726,4.13116 -5.30234,5.4005c-0.45837,0.35701 -0.97536,0.64641 -1.37567,0.57591c-0.45817,-0.0807 -1.01342,-0.58123 -0.9031,-1.10705c0.16509,-0.78682 0.80837,-1.29686 0.80837,-1.29686" fill="none" stroke="#c50300" stroke-width="1" stroke-linecap="round"/></g><path d="M224.77656,162.20347c2.33622,0 4.2301,1.84532 4.2301,4.12164c0,2.27632 -1.89388,4.12164 -4.2301,4.12164c-2.33622,0 -4.2301,-1.84532 -4.2301,-4.12164c0,-2.27632 1.89388,-4.12164 4.2301,-4.12164z" fill="#fa9350" stroke="none" stroke-width="0" stroke-linecap="butt"/><path d="M225.03206,189.90586c2.33622,0 4.2301,1.84532 4.2301,4.12164c0,2.27632 -1.89388,4.12164 -4.2301,4.12164c-2.33622,0 -4.2301,-1.84532 -4.2301,-4.12164c0,-2.27632 1.89388,-4.12164 4.2301,-4.12164z" fill="#d63838" stroke="none" stroke-width="0" stroke-linecap="butt"/><path d="M231.77381,185.13004z" fill="#42bfff" stroke="none" stroke-width="0" stroke-linecap="butt"/><g stroke="none" stroke-width="0" stroke-linecap="butt"><path d="M239.99967,155.87836v8.24328c0,0 -1.53371,-0.02012 -2.73747,-1.00528c-0.84749,-0.69359 -1.49263,-2.2528 -1.49263,-3.19328c0,-0.94572 0.5763,-2.35551 1.4299,-3.05102c1.20099,-0.97856 2.8002,-0.9937 2.8002,-0.9937z" fill="#feda7d"/><path d="M242.80055,156.87206c0.8536,0.69551 1.42989,2.1053 1.42989,3.05102c0,0.94047 -0.64514,2.49969 -1.49263,3.19328c-1.20376,0.98516 -2.73747,1.00528 -2.73747,1.00528v-8.24328c0,0 1.59922,0.01514 2.80021,0.9937z" data-paper-data="{&quot;index&quot;:null}" fill="#fa9350"/></g><g stroke="none" stroke-width="0" stroke-linecap="butt"><path d="M220,175.87836c2.33622,0 4.2301,1.84532 4.2301,4.12164c0,2.27632 -1.89388,4.12164 -4.2301,4.12164c-2.33622,0 -4.2301,-1.84532 -4.2301,-4.12164c0,-2.27632 1.89388,-4.12164 4.2301,-4.12164z" fill="#004ac3"/><path d="M221.77655,179.39833c0,1.10457 -0.94123,1.23077 -1.53297,1.23077c-0.59173,0 -0.91758,-0.81851 -0.91758,-1.92308c0,-1.10457 0.63354,-1.53846 1.22528,-1.53846c0.59173,0 1.22528,1.1262 1.22528,2.23077z" fill="#42bfff"/><path d="M217.46886,179.17856c0,1.10457 -0.78739,0.53846 -1.37912,0.53846c-0.59173,0 0.33134,-2.07692 0.92308,-2.07692c0.59173,0 0.45605,0.43389 0.45605,1.53846z" fill="#42bfff"/><path d="M218.98534,183.35438c0,1.10457 -2.29671,0.02765 -2.29671,-1.07692c0,-1.10457 0.86431,-0.61538 1.14835,-0.53846c0.57116,0.15468 1.14835,0.51081 1.14835,1.61538z" fill="#42bfff"/><path d="M223.68314,181.9368c0,0 -1.06044,1.47819 -1.06044,0.37362c0,-1.10457 0.4797,-2 1.07143,-2c0.59173,0 -0.01099,1.62638 -0.01099,1.62638z" fill="#42bfff"/></g><g stroke="none" stroke-width="0" stroke-linecap="butt"><path d="M253.58333,162.29503c2.33622,0 4.2301,1.84532 4.2301,4.12164c0,2.27632 -1.89388,4.12164 -4.2301,4.12164c-2.33622,0 -4.2301,-1.84532 -4.2301,-4.12164c0,-2.27632 1.89388,-4.12164 4.2301,-4.12164z" fill="#42bfff"/><path d="M253.70833,163.91667c0,-0.62132 0.50368,-1.125 1.125,-1.125c0.62132,0 1.125,0.50368 1.125,1.125c0,0.62132 -0.50368,1.125 -1.125,1.125c-0.62132,0 -1.125,-0.50368 -1.125,-1.125z" fill="#004ac3"/><path d="M254.95833,166.41667c0,-0.62132 0.50368,-1.125 1.125,-1.125c0.62132,0 1.125,0.50368 1.125,1.125c0,0.62132 -0.50368,1.125 -1.125,1.125c-0.62132,0 -1.125,-0.50368 -1.125,-1.125z" fill="#004ac3"/><path d="M252.45833,166.41667c0,-0.62132 0.50368,-1.125 1.125,-1.125c0.62132,0 1.125,0.50368 1.125,1.125c0,0.62132 -0.50368,1.125 -1.125,1.125c-0.62132,0 -1.125,-0.50368 -1.125,-1.125z" fill="#004ac3"/><path d="M251.20833,163.91667c0,-0.62132 0.50368,-1.125 1.125,-1.125c0.62132,0 1.125,0.50368 1.125,1.125c0,0.62132 -0.50368,1.125 -1.125,1.125c-0.62132,0 -1.125,-0.50368 -1.125,-1.125z" fill="#004ac3"/><path d="M251.20833,168.91667c0,-0.62132 0.50368,-1.125 1.125,-1.125c0.62132,0 1.125,0.50368 1.125,1.125c0,0.62132 -0.50368,1.125 -1.125,1.125c-0.62132,0 -1.125,-0.50368 -1.125,-1.125z" fill="#004ac3"/><path d="M253.70833,168.91667c0,-0.62132 0.50368,-1.125 1.125,-1.125c0.62132,0 1.125,0.50368 1.125,1.125c0,0.62132 -0.50368,1.125 -1.125,1.125c-0.62132,0 -1.125,-0.50368 -1.125,-1.125z" fill="#004ac3"/><path d="M249.95833,166.41667c0,-0.62132 0.50368,-1.125 1.125,-1.125c0.62132,0 1.125,0.50368 1.125,1.125c0,0.62132 -0.50368,1.125 -1.125,1.125c-0.62132,0 -1.125,-0.50368 -1.125,-1.125z" fill="#004ac3"/></g><path d="M240,195.87836c2.33622,0 4.2301,1.84532 4.2301,4.12164c0,2.27632 -1.89388,4.12164 -4.2301,4.12164c-2.33622,0 -4.2301,-1.84532 -4.2301,-4.12164c0,-2.27632 1.89388,-4.12164 4.2301,-4.12164z" fill="#843475" stroke="none" stroke-width="0" stroke-linecap="butt"/><path d="M237.78472,197.97879h4.5" fill="none" stroke="#582052" stroke-width="2" stroke-linecap="round"/><path d="M243.03472,200.96027h-6.16666" fill="none" stroke="#582052" stroke-width="2" stroke-linecap="round"/></g></g></svg>