<svg version="1.1" xmlns="http://www.w3.org/2000/svg" xmlns:xlink="http://www.w3.org/1999/xlink" width="574.41176" height="365.83699" viewBox="0,0,574.41176,365.83699"><g transform="translate(-0.85478,3.44666)"><g data-paper-data="{&quot;isPaintingLayer&quot;:true}" fill-rule="nonzero" stroke-linejoin="miter" stroke-miterlimit="10" stroke-dasharray="" stroke-dashoffset="0" style="mix-blend-mode: normal"><path d="M214.00736,-0.09189v360.18382l-0.92831,-362.96875" fill="none" stroke="#13b5eb" stroke-width="0.5" stroke-linecap="round"/><path d="M244.0717,2.12318v360.18382l-0.92831,-362.96875" fill="none" stroke="#13b5eb" stroke-width="0.5" stroke-linecap="round"/><path d="M273.20773,1.55333v360.18382l-0.92831,-362.96875" fill="none" stroke="#13b5eb" stroke-width="0.5" stroke-linecap="round"/><path d="M303.27207,1.91179v360.18382l-0.92831,-362.96875" fill="none" stroke="#13b5eb" stroke-width="0.5" stroke-linecap="round"/><path d="M332.4081,1.34193v360.18382l-0.92831,-362.96875" fill="none" stroke="#13b5eb" stroke-width="0.5" stroke-linecap="round"/><path d="M362.47244,0.77208v360.18382l-0.92831,-362.96875" fill="none" stroke="#13b5eb" stroke-width="0.5" stroke-linecap="round"/><path d="M393.46508,1.13053v360.18382l-0.92831,-362.96875" fill="none" stroke="#13b5eb" stroke-width="0.5" stroke-linecap="round"/><path d="M423.52942,1.48899v360.18382l-0.92831,-362.96875" fill="none" stroke="#13b5eb" stroke-width="0.5" stroke-linecap="round"/><path d="M453.59376,1.84744v360.18382l-0.92831,-362.96875" fill="none" stroke="#13b5eb" stroke-width="0.5" stroke-linecap="round"/><path d="M481.80148,2.20588v360.18382l-0.92831,-362.96875" fill="none" stroke="#13b5eb" stroke-width="0.5" stroke-linecap="round"/><path d="M214.23714,1.9945v360.18382l-0.92831,-362.96875" fill="none" stroke="#13b5eb" stroke-width="0.5" stroke-linecap="round"/><path d="M480.43199,29.61399h-298.91544h297.49541" fill="none" stroke="#13b5eb" stroke-width="0.5" stroke-linecap="round"/><path d="M183.73162,60.60664h390.81801" fill="none" stroke="#4ec7f0" stroke-width="0" stroke-linecap="round"/><path d="M183.16177,91.5993h390.81802" fill="none" stroke="#4ec7f0" stroke-width="0" stroke-linecap="round"/><path d="M575.26654,119.80702h-390.81801" fill="none" stroke="#4ec7f0" stroke-width="0" stroke-linecap="round"/><path d="M573.76838,149.87134h-390.81801" fill="none" stroke="#4ec7f0" stroke-width="0" stroke-linecap="round"/><path d="M179.59559,179.93569h390.81801" fill="none" stroke="#4ec7f0" stroke-width="0" stroke-linecap="round"/><path d="M182.73898,210.00004h390.81802" fill="none" stroke="#4ec7f0" stroke-width="0" stroke-linecap="round"/><path d="M182.16912,269.77025h390.81801" fill="none" stroke="#4ec7f0" stroke-width="0" stroke-linecap="round"/><path d="M179.74265,299.83457h390.81801" fill="none" stroke="#4ec7f0" stroke-width="0" stroke-linecap="round"/><path d="M180.10111,329.89894h390.81802" fill="none" stroke="#4ec7f0" stroke-width="0" stroke-linecap="round"/><path d="M480.79044,60.60664h-297.98713h296.57152" fill="none" stroke="#13b5eb" stroke-width="0.5" stroke-linecap="round"/><path d="M478.80497,90.67099h-296.57151h297.98713" fill="none" stroke="#13b5eb" stroke-width="0.5" stroke-linecap="round"/><path d="M480.57905,120.73533h-297.98713h296.57152" fill="none" stroke="#13b5eb" stroke-width="0.5" stroke-linecap="round"/><path d="M479.52189,149.87134h-296.57152h297.98713" fill="none" stroke="#13b5eb" stroke-width="0.5" stroke-linecap="round"/><path d="M478.95203,179.93569h-296.57151h297.98713" fill="none" stroke="#13b5eb" stroke-width="0.5" stroke-linecap="round"/><path d="M480.2388,210.92834h-296.57152h297.98713" fill="none" stroke="#13b5eb" stroke-width="0.5" stroke-linecap="round"/><path d="M481.08456,239.13606h-297.98713h296.57151" fill="none" stroke="#13b5eb" stroke-width="0.5" stroke-linecap="round"/><path d="M480.51471,270.1287h-297.98713h296.57151" fill="none" stroke="#13b5eb" stroke-width="0.5" stroke-linecap="round"/><path d="M480.87316,300.19302h-297.98713h296.57151" fill="none" stroke="#13b5eb" stroke-width="0.5" stroke-linecap="round"/><path d="M481.23162,330.25737h-297.98713h296.57152" fill="none" stroke="#13b5eb" stroke-width="0.5" stroke-linecap="round"/><path d="M0.85478,360.45041v-363.89706h211.32052v363.89707z" fill="#fff1f1" stroke="none" stroke-width="0" stroke-linecap="butt"/></g></g></svg>