<svg version="1.1" xmlns="http://www.w3.org/2000/svg" xmlns:xlink="http://www.w3.org/1999/xlink" width="59.63044" height="59.63044" viewBox="0,0,59.63044,59.63044"><g transform="translate(-210.18478,-150.18478)"><g data-paper-data="{&quot;isPaintingLayer&quot;:true}" fill-rule="nonzero" stroke-linejoin="miter" stroke-miterlimit="10" stroke-dasharray="" stroke-dashoffset="0" style="mix-blend-mode: normal"><path d="M211.18478,208.81522v-57.63044h57.63044v57.63044z" fill="#833376" stroke="#808080" stroke-width="2" stroke-linecap="butt"/><g fill="#591f52" stroke="#591f52"><path d="M249.375,159h-18.75" stroke-width="4.5" stroke-linecap="round"/><path d="M230.625,201h18.75" stroke-width="4.5" stroke-linecap="round"/><path d="M218.125,180h43.75" stroke-width="4.5" stroke-linecap="round"/><path d="M218.125,186.75h43.75" stroke-width="4.5" stroke-linecap="round"/><path d="M218.125,173.25h43.75" stroke-width="4.5" stroke-linecap="round"/><path d="M221.875,165.75c0,0 14.44818,0 21.06056,0c5.88631,0 16.68944,0 16.68944,0" stroke-width="4.5" stroke-linecap="round"/><path d="M235.49306,200.625v-41.25h9.01389v41.25z" stroke-width="0" stroke-linecap="butt"/><path d="M221.125,194h37.75" stroke-width="4.5" stroke-linecap="round"/></g><path d="M222.375,180c0,-9.73402 7.89098,-17.625 17.625,-17.625c9.73402,0 17.625,7.89098 17.625,17.625c0,9.73402 -7.89098,17.625 -17.625,17.625c-9.73402,0 -17.625,-7.89098 -17.625,-17.625z" fill="#0d588e" stroke="none" stroke-width="0" stroke-linecap="butt"/><path d="M224.3125,172.25c0,0 1.4808,-2.64467 2.47692,-3.78606c1.00382,-1.1502 3.52308,-3.08894 3.52308,-3.08894l13.125,-0.125c0,0 1.11082,0.5163 1.26665,1.43573c0.12149,0.71677 0.1104,2.32564 0.07269,3.68828c-0.01639,0.59214 -0.14312,2.03176 -1.43683,2.44792c-1.38263,0.44476 -3.95599,-0.13728 -4.56845,0.41138c-1.22255,1.09521 0.37026,7.91622 -0.61223,9.08714c-1.24062,1.47856 -5.31975,1.79578 -6.72182,0.30454c-0.95386,-1.01452 0.60014,-8.9581 -0.73369,-9.73416c-1.7318,-1.00761 -6.39131,-0.64084 -6.39131,-0.64084z" fill="#5fb5ee" stroke="none" stroke-width="0" stroke-linecap="butt"/><path d="M242.6875,179.875c0,-1.18528 0,-2.5825 0,-3.25c0,-0.73964 0.35569,-1.75 1.625,-1.75c0.2738,0 0.55749,0 1,0c0.28663,0 0.71246,0 1,0c0.80161,0 1.5,0.926 1.5,1.625c0,0.71989 0,2.34807 0,3.625c0,0.97803 -0.71852,1.75 -1.25,1.75c-0.46086,0 -1.40768,0 -2.25,0c-0.86798,0 -1.625,-0.91046 -1.625,-2z" fill="#5fb5ee" stroke="none" stroke-width="0" stroke-linecap="butt"/><path d="M228.47267,193.25179c0,0 -0.15733,-0.5412 -0.15733,-1.94514c0,-1.12933 -0.28486,-3.05665 1.7306,-3.05665c1.89353,0 3.08294,0 4.5625,0c2.15977,0 1.7306,1.92732 1.7306,3.05665c0,1.40394 -0.125,5.44335 -0.125,5.44335c0,0 -3.11938,-0.39621 -4.42334,-0.90289c-1.31802,-0.51214 -3.31804,-2.59532 -3.31804,-2.59532z" fill="#5fb5ee" stroke="none" stroke-width="0" stroke-linecap="butt"/><path d="M223.50838,186.5011c0,0 -1.11871,-2.04268 -1.12575,-4.87536c-0.00877,-3.51978 0.65322,-5.12573 0.65322,-5.12573c0,0 1.90129,0 2.75969,0c0.64165,0 1.68193,1.20316 1.68193,2.125c0,1.0259 0,3.45792 0,5.25c0,1.20785 -0.89785,2.125 -1.48773,2.125c-0.86571,0 -2.48136,0.50109 -2.48136,0.50109z" fill="#5fb5ee" stroke="none" stroke-width="0" stroke-linecap="butt"/><path d="M240.6875,197.375c0,0 0,-4.08505 0,-5.875c0,-1.30238 1.67136,-3.375 3,-3.375c2.62947,0 11.625,0 11.625,0c0,0 -1.4873,2.61299 -2.5014,3.7636c-1.13821,1.29144 -3.9986,3.6114 -3.9986,3.6114c0,0 -2.42408,0.93441 -3.71559,1.23245c-1.40694,0.32468 -4.40941,0.64255 -4.40941,0.64255z" fill="#5fb5ee" stroke="none" stroke-width="0" stroke-linecap="butt"/><path d="M249.6875,188.375c0,0 -0.19145,-4.232 0.34177,-7.00638c0.37551,-1.95378 1.80045,-2.74362 2.15823,-2.74362c1.36091,0 5.25,0 5.25,0c0,0 -0.01596,3.7506 -0.30322,5.31948c-0.24888,1.3593 -1.82178,4.30552 -1.82178,4.30552z" fill="#5fb5ee" stroke="none" stroke-width="0" stroke-linecap="butt"/><g fill="none" stroke="#ffffff" stroke-linecap="round"><path d="M245.0625,194.16023h13.875" stroke-width="5"/><path d="M248.3125,190.125h7.625" stroke-width="5.5"/><path d="M250.96904,186h1.93692" stroke-width="5"/></g><g fill="none" stroke="#ffffff" stroke-linecap="round"><path d="M235.8125,166.41024c0,0 -1.06543,0 -2.01775,0c-2.30856,0 -11.85725,0 -11.85725,0" stroke-width="5"/><path d="M225.1875,162.375h7.625" stroke-width="5.5"/><path d="M227.84404,158.25h1.93692" stroke-width="5"/></g></g></g></svg>