<svg version="1.1" xmlns="http://www.w3.org/2000/svg" xmlns:xlink="http://www.w3.org/1999/xlink" width="59.63044" height="59.63044" viewBox="0,0,59.63044,59.63044"><g transform="translate(-210.18481,-150.18478)"><g data-paper-data="{&quot;isPaintingLayer&quot;:true}" fill-rule="nonzero" stroke-linejoin="miter" stroke-miterlimit="10" stroke-dasharray="" stroke-dashoffset="0" style="mix-blend-mode: normal"><path d="M211.18482,208.81522v-57.63044h57.63044v57.63044z" fill="#feedcf" stroke="#808080" stroke-width="2" stroke-linecap="butt"/><path d="" fill="#ffffff" stroke="none" stroke-width="0" stroke-linecap="butt"/><path d="" fill="#ffffff" stroke="none" stroke-width="0" stroke-linecap="butt"/><path d="" fill="#da703f" stroke="none" stroke-width="0" stroke-linecap="butt"/><path d="" fill="#8c3a27" stroke="none" stroke-width="0" stroke-linecap="butt"/><path d="" fill="#da703f" stroke="none" stroke-width="0" stroke-linecap="butt"/><path d="" fill="#da703f" stroke="none" stroke-width="0" stroke-linecap="butt"/><path d="" fill="#ed383c" stroke="none" stroke-width="0" stroke-linecap="butt"/><path d="" fill="#ed383c" stroke="none" stroke-width="0" stroke-linecap="butt"/><path d="" fill="#ed383c" stroke="none" stroke-width="0" stroke-linecap="butt"/><path d="" fill="#ed383c" stroke="none" stroke-width="0" stroke-linecap="butt"/><path d="" fill="#70c793" stroke="none" stroke-width="0" stroke-linecap="butt"/><path d="M221.67903,198.56061c0,-2.48528 2.08934,-4.5 4.66667,-4.5c2.57733,0 4.66667,2.01472 4.66667,4.5c0,2.48528 -2.08934,4.5 -4.66667,4.5c-2.57733,0 -4.66667,-2.01472 -4.66667,-4.5z" fill="#000000" stroke="none" stroke-width="0" stroke-linecap="butt"/><path d="M245.34569,198.56061c0,-2.48528 2.08934,-4.5 4.66667,-4.5c2.57733,0 4.66667,2.01472 4.66667,4.5c0,2.48528 -2.08934,4.5 -4.66667,4.5c-2.57733,0 -4.66667,-2.01472 -4.66667,-4.5z" fill="#000000" stroke="none" stroke-width="0" stroke-linecap="butt"/><path d="M218.67903,198.72728v-12.33333h12.66666v12.33333z" fill="#a63531" stroke="none" stroke-width="0" stroke-linecap="butt"/><path d="M219.34569,190.72727c0,-1.10457 0.89543,-2 2,-2c1.10457,0 2,0.89543 2,2c0,1.10457 -0.89543,2 -2,2c-1.10457,0 -2,-0.89543 -2,-2z" fill="#ffd77e" stroke="none" stroke-width="0" stroke-linecap="butt"/><path d="M225.01236,190.72728c0,-1.10457 0.89543,-2 2,-2c1.10457,0 2,0.89543 2,2c0,1.10457 -0.89543,2 -2,2c-1.10457,0 -2,-0.89543 -2,-2z" fill="#ffd77e" stroke="none" stroke-width="0" stroke-linecap="butt"/><path d="M261.00001,186.8125v-24" fill="none" stroke="#a63531" stroke-width="2" stroke-linecap="round"/><path d="M231.67903,188.72727l4.67572,-26.20833h14.03261l-4.375,26.20833z" fill="none" stroke="#a63531" stroke-width="2" stroke-linecap="butt"/><path d="M231.01236,198.72727v-12.33333h31v12.33333z" fill="#ee3f3c" stroke="none" stroke-width="0" stroke-linecap="butt"/><text transform="translate(241.26805,194.89394) scale(0.22553,0.22553)" font-size="40" xml:space="preserve" fill="#a63531" fill-rule="nonzero" stroke="none" stroke-width="1" stroke-linecap="butt" stroke-linejoin="miter" stroke-miterlimit="10" stroke-dasharray="" stroke-dashoffset="0" font-family="Pixel" font-weight="normal" text-anchor="start" style="mix-blend-mode: normal"><tspan x="0" dy="0">CB</tspan></text><g stroke="none" stroke-width="0" stroke-linecap="butt"><path d="M232.01236,198.89394c0,-2.48528 2.08934,-4.5 4.66666,-4.5c2.57733,0 4.66667,2.01472 4.66667,4.5c0,2.48528 -2.08934,4.5 -4.66667,4.5c-2.57733,0 -4.66666,-2.01472 -4.66666,-4.5z" fill="#000000"/><path d="M234.34569,199.06061c0,-1.28866 1.04467,-2.33333 2.33333,-2.33333c1.28866,0 2.33333,1.04467 2.33333,2.33333c0,1.28866 -1.04467,2.33333 -2.33333,2.33333c-1.28866,0 -2.33333,-1.04467 -2.33333,-2.33333z" fill="#ffffff"/></g><path d="M251.67903,198.89394c0,-2.48528 2.08934,-4.5 4.66666,-4.5c2.57733,0 4.66667,2.01472 4.66667,4.5c0,2.48528 -2.08934,4.5 -4.66667,4.5c-2.57733,0 -4.66666,-2.01472 -4.66666,-4.5z" fill="#000000" stroke="none" stroke-width="0" stroke-linecap="butt"/><path d="M254.01236,199.06061c0,-1.28867 1.04467,-2.33334 2.33333,-2.33334c1.28867,0 2.33334,1.04467 2.33334,2.33334c0,1.28867 -1.04467,2.33333 -2.33334,2.33333c-1.28866,0 -2.33333,-1.04466 -2.33333,-2.33333z" fill="#ffffff" stroke="none" stroke-width="0" stroke-linecap="butt"/><path d="M259.00001,161c0,-1.07005 0.86745,-1.9375 1.9375,-1.9375c1.07005,0 1.9375,0.86745 1.9375,1.9375c0,1.07005 -0.86745,1.9375 -1.9375,1.9375c-1.07005,0 -1.9375,-0.86745 -1.9375,-1.9375z" fill="#ffd77e" stroke="none" stroke-width="0" stroke-linecap="butt"/></g></g></svg>