<svg version="1.1" xmlns="http://www.w3.org/2000/svg" xmlns:xlink="http://www.w3.org/1999/xlink" width="343.18244" height="344.64304" viewBox="0,0,343.18244,344.64304"><g transform="translate(-68.40878,-7.70419)"><g data-paper-data="{&quot;isPaintingLayer&quot;:true}" fill-rule="nonzero" stroke-linejoin="miter" stroke-miterlimit="10" stroke-dasharray="" stroke-dashoffset="0" style="mix-blend-mode: normal"><path d="M110.63723,141.97328c0,0 0.26491,-17.18604 15.8971,-17.18604c15.63219,0 15.89709,17.18604 15.89709,17.18604h-16.67256z" fill="#ffffff" stroke="none" stroke-width="0" stroke-linecap="butt"/><path d="M111.65235,184.23492c0,0 0.2649,-17.18604 15.89709,-17.18604c15.63219,0 15.89709,17.18604 15.89709,17.18604h-16.67256z" fill="#ffffff" stroke="none" stroke-width="0" stroke-linecap="butt"/><path d="M110.94886,227.35585c0,0 0.2649,-17.18605 15.89709,-17.18605c15.63219,0 15.89709,17.18605 15.89709,17.18605h-16.67256z" fill="#ffffff" stroke="none" stroke-width="0" stroke-linecap="butt"/><path d="M111.10467,269.61744c0,0 0.2649,-17.18604 15.89709,-17.18604c15.63219,0 15.89709,17.18604 15.89709,17.18604h-16.67256z" fill="#ffffff" stroke="none" stroke-width="0" stroke-linecap="butt"/><g fill="#ffffff" stroke="none" stroke-width="0" stroke-linecap="butt"><path d="M224.37677,270.32093c0,0 0.2649,-17.18604 15.8971,-17.18604c15.63219,0 15.89709,17.18604 15.89709,17.18604h-16.67256z"/><path d="M224.22095,228.05933c0,0 0.2649,-17.18605 15.89709,-17.18605c15.63219,0 15.89709,17.18605 15.89709,17.18605h-16.67256z"/><path d="M224.92444,184.93841c0,0 0.2649,-17.18605 15.8971,-17.18605c15.63219,0 15.89709,17.18605 15.89709,17.18605h-16.67256z"/><path d="M223.90932,141.81747c0,0 0.2649,-17.18605 15.8971,-17.18605c15.63219,0 15.89709,17.18605 15.89709,17.18605h-16.67256z"/><path d="M181.76932,102.99305h16.67256c0,0 -0.2649,17.18605 -15.89709,17.18605c-15.63219,0 -15.8971,-17.18605 -15.8971,-17.18605z" data-paper-data="{&quot;index&quot;:null}"/><path d="M181.61351,145.25465h16.67256c0,0 -0.2649,17.18605 -15.89709,17.18605c-15.63219,0 -15.8971,-17.18605 -15.8971,-17.18605z" data-paper-data="{&quot;index&quot;:null}"/><path d="M182.317,188.37559h16.67256c0,0 -0.2649,17.18605 -15.89709,17.18605c-15.63219,0 -15.8971,-17.18605 -15.8971,-17.18605z" data-paper-data="{&quot;index&quot;:null}"/><path d="M181.30188,230.63723h16.67256c0,0 -0.2649,17.18605 -15.89709,17.18605c-15.63219,0 -15.8971,-17.18605 -15.8971,-17.18605z" data-paper-data="{&quot;index&quot;:null}"/><path d="M310.15117,249.54187c0,0 0.26491,-17.18605 15.8971,-17.18605c15.63219,0 15.89709,17.18605 15.89709,17.18605h-16.67256z"/><path d="M309.99537,207.28023c0,0 0.26491,-17.18605 15.8971,-17.18605c15.63219,0 15.89709,17.18605 15.89709,17.18605h-16.67256z"/><path d="M310.69885,164.15928c0,0 0.2649,-17.18604 15.89709,-17.18604c15.63219,0 15.89709,17.18604 15.89709,17.18604h-16.67256z"/><path d="M309.68372,121.89769c0,0 0.2649,-17.18605 15.89709,-17.18605c15.63219,0 15.89709,17.18605 15.89709,17.18605h-16.67256z"/></g><path d="M79.61111,341.14488c-8.89503,-7.81144 -9.45233,-17.18604 -9.45233,-17.18604v-144.36279v-142.64419c0,0 4.54948,-12.33676 10.31163,-18.04534c5.76215,-5.70858 17.44406,-9.45233 17.44406,-9.45233h133.19186h145.2221c0,0 11.11599,-1.09986 21.48256,6.87442c10.36657,7.97429 12.03023,18.90465 12.03023,18.90465v144.3628v138.34767c0,0 -0.47657,16.25493 -6.87442,23.20117c-6.39785,6.94623 -23.20116,9.45233 -23.20116,9.45233h-139.20698h-140.06627c0,0 -11.98625,-1.64089 -20.88128,-9.45233z" fill="#edd2bd" stroke="#419acf" stroke-width="3.5" stroke-linecap="butt"/><path d="M126.57212,291.9593v-230.29302" fill="none" stroke="#419acf" stroke-width="4.5" stroke-linecap="round"/><path d="M182.27095,291.8035v-230.29302" fill="none" stroke="#419acf" stroke-width="4.5" stroke-linecap="round"/><path d="M240.11163,78.54071v211.38836" fill="none" stroke="#419acf" stroke-width="4.5" stroke-linecap="round"/><path d="M183.11858,294.42233c0,14.14506 12.70049,25.6119 28.36735,25.6119c15.66685,0 28.36735,-11.46684 28.36735,-25.6119c0,-8.55712 1.36748,5.71841 -6.00127,16.0844c-4.81192,6.76918 -16.96493,10.23895 -23.15405,10.23895c-6.47591,0 -17.82623,-4.06861 -22.44304,-11.18226c-6.55242,-10.09607 -5.13633,-23.43927 -5.13633,-15.14108z" data-paper-data="{&quot;index&quot;:null}" fill="none" stroke="#419acf" stroke-width="4.5" stroke-linecap="butt"/><path d="M131.3057,45.03924c4.54717,-7.11365 15.72627,-11.18226 22.10449,-11.18226c6.09577,0 18.06544,3.46977 22.80478,10.23895c7.25759,10.36599 5.91074,24.64152 5.91074,16.0844c0,-14.14507 -12.5089,-25.6119 -27.93942,-25.6119c-15.43052,0 -27.93942,11.46684 -27.93942,25.61191c0,8.29819 -1.39474,-5.04501 5.05884,-15.14108z" data-paper-data="{&quot;index&quot;:null}" fill="none" stroke="#419acf" stroke-width="4.5" stroke-linecap="butt"/><path d="M120.557,300.55233l6.01512,-6.87441l6.01511,6.87441z" fill="#419acf" stroke="#419acf" stroke-width="4.5" stroke-linecap="butt"/><path d="M326.31569,245.94883v-137.48836" fill="none" stroke="#419acf" stroke-width="4.5" stroke-linecap="round"/><path d="M298.87805,166.44707v-106.71908c0,0 0.95869,-9.22973 2.17293,-13.5006c1.21424,-4.27087 7.11314,-7.07175 7.11314,-7.07175h24.62985h25.44634c0,0 7.49825,-0.82286 9.68276,5.14309c2.18451,5.96595 2.53509,14.14349 2.53509,14.14349v108.00485l0.5367,127.93431h-36.20903h-35.5308z" fill="none" stroke="#cba990" stroke-width="3.5" stroke-linecap="butt"/><text transform="translate(98.32867,329.03841) scale(0.5,0.5)" font-size="40" xml:space="preserve" fill="#419acf" fill-rule="nonzero" stroke="none" stroke-width="1" stroke-linecap="butt" stroke-linejoin="miter" stroke-miterlimit="10" stroke-dasharray="" stroke-dashoffset="0" font-family="Sans Serif" font-weight="normal" text-anchor="start" style="mix-blend-mode: normal"><tspan x="0" dy="0">START</tspan></text><text transform="translate(285.31616,313.10983) scale(0.5,0.5)" font-size="40" xml:space="preserve" fill="#419acf" fill-rule="nonzero" stroke="none" stroke-width="1" stroke-linecap="butt" stroke-linejoin="miter" stroke-miterlimit="10" stroke-dasharray="" stroke-dashoffset="0" font-family="Sans Serif" font-weight="normal" text-anchor="start" style="mix-blend-mode: normal"><tspan x="0" dy="0">FUNCTION</tspan></text></g></g></svg>