<svg version="1.1" xmlns="http://www.w3.org/2000/svg" xmlns:xlink="http://www.w3.org/1999/xlink" width="59.63044" height="59.63044" viewBox="0,0,59.63044,59.63044"><g transform="translate(-210.18478,-150.18478)"><g data-paper-data="{&quot;isPaintingLayer&quot;:true}" fill-rule="nonzero" stroke-linecap="butt" stroke-linejoin="miter" stroke-miterlimit="10" stroke-dasharray="" stroke-dashoffset="0" style="mix-blend-mode: normal"><path d="M211.18478,208.81522v-57.63044h57.63044v57.63044z" fill="#419bcf" stroke="#808080" stroke-width="2"/><path d="M235.27237,205.41384v-23.20812h13.71389v23.20812z" fill="#6d2b57" stroke="none" stroke-width="0"/><path d="M254.26083,204.35893v-23.20812h13.71389v23.20812z" fill="#6d2b57" stroke="none" stroke-width="0"/><path d="M231.71353,199.15627l-0.2862,-17.33697l9.72461,-14.76126l9.6271,12.34979l8.73714,-12.20572l8.51694,11.98237l0.21267,20.28609z" fill="#d0d1d5" stroke="none" stroke-width="0"/><path d="M212.59171,208.05113v-13.71389h55.38301v13.71389z" fill="#6d2b57" stroke="none" stroke-width="0"/><path d="M218.74538,194.33724v-36.21873h13.18643v36.21873z" fill="#d0d1d5" stroke="none" stroke-width="0"/><path d="M212.24007,195.91961v-24.26303h12.65897v24.26303z" fill="#d0d1d5" stroke="none" stroke-width="0"/><path d="M212.22084,208.00099l0.01989,-13.24435l9.14026,-8.71015l8.11255,8.20329l2.65212,13.56579z" fill="#6d2b57" stroke="none" stroke-width="0"/><path d="M234.21746,208.05113v-25.31795h15.29626v25.31795z" fill="#6d2b57" stroke="none" stroke-width="0"/><path d="M253.0301,208.05113v-25.31795h15.29626v25.31795z" fill="#6d2b57" stroke="none" stroke-width="0"/><path d="M239.49203,191.69996v-5.27457h4.74711v5.27457z" fill="#ffaf00" stroke="none" stroke-width="0"/><path d="M239.49203,201.72164v-5.27457h4.74711v5.27457z" fill="#ffaf00" stroke="none" stroke-width="0"/></g></g></svg>