<svg version="1.1" xmlns="http://www.w3.org/2000/svg" xmlns:xlink="http://www.w3.org/1999/xlink" width="62.3533" height="59.63044" viewBox="0,0,62.3533,59.63044"><g transform="translate(-207.46192,-150.18478)"><g data-paper-data="{&quot;isPaintingLayer&quot;:true}" fill-rule="nonzero" stroke-linejoin="miter" stroke-miterlimit="10" stroke-dasharray="" stroke-dashoffset="0" style="mix-blend-mode: normal"><path d="M211.18478,208.81522v-57.63044h57.63044v57.63044z" fill="#70c292" stroke="#808080" stroke-width="2" stroke-linecap="butt"/><g fill="none" stroke="#269b79" stroke-width="2.5" stroke-linecap="round"><path d="M242.24944,204.5812v-6.17469"/><path d="M242.20552,195.06942v-6.17469"/><path d="M242.1616,179.52017v6.17469"/><path d="M242.2549,176.04587v-6.17469"/><path d="M242.21098,166.53409v-6.17469"/></g><g fill="none" stroke="#269b79" stroke-width="2.5" stroke-linecap="round"><path d="M251.67338,204.53728v-6.17469"/><path d="M251.62946,195.0255v-6.17469"/><path d="M251.58554,179.47625v6.17469"/><path d="M251.67884,176.00195v-6.17469"/><path d="M251.63492,160.31549v6.17469"/></g><g fill="none" stroke="#269b79" stroke-width="2.5" stroke-linecap="round"><path d="M261.37175,204.49336v-6.17469"/><path d="M261.32783,194.98159v-6.17469"/><path d="M261.28391,185.60703v-6.17469"/><path d="M261.37721,175.95803v-6.17469"/><path d="M261.33329,166.44626v-6.17469"/></g><g fill="none" stroke="#269b79" stroke-width="2.5" stroke-linecap="round"><path d="M246.82146,199.75011v-6.17469"/><path d="M246.77754,190.23834v-6.17469"/><path d="M246.73363,180.86378v-6.17469"/><path d="M246.82693,171.21479v-6.17469"/><path d="M246.78301,161.70301v-6.17469"/></g><g fill="none" stroke="#269b79" stroke-width="2.5" stroke-linecap="round"><path d="M256.47592,199.66228v-6.17469"/><path d="M256.432,190.15051v-6.17469"/><path d="M256.38808,180.77594v-6.17469"/><path d="M256.48138,171.12695v-6.17469"/><path d="M256.43746,155.44049v6.17469"/></g><path d="M207.46192,168.07938c0,3.84563 0.19689,6.96314 0.43977,6.96314c0.24288,0 0.43977,-3.1175 0.43977,-6.96314c0,-3.84563 -0.19689,-6.96314 -0.43977,-6.96314c-0.24288,0 -0.43977,3.1175 -0.43977,6.96314z" fill="#ffffff" stroke="none" stroke-width="0" stroke-linecap="butt"/><g stroke-width="0" stroke-linecap="butt"><path d="M219.56603,196.28896c0,-3.54361 2.87267,-6.41627 6.41628,-6.41627c3.54361,0 6.41627,2.87266 6.41627,6.41627c0,3.54361 -2.87266,6.41627 -6.41627,6.41627c-3.54361,0 -6.41628,-2.87266 -6.41628,-6.41627z" fill="#269b79" stroke="none"/><path d="M223.19245,196.37049c0,-1.55817 1.26314,-2.8213 2.8213,-2.8213c1.55817,0 2.82131,1.26314 2.82131,2.8213c0,1.55817 -1.26314,2.82131 -2.82131,2.82131c-1.55817,0 -2.8213,-1.26315 -2.8213,-2.82131z" fill="#ffffff" stroke="#000000"/><path d="M223.61876,189.58291c0,-1.50108 1.21687,-2.71794 2.71795,-2.71794c1.50108,0 2.71794,1.21686 2.71794,2.71794c0,1.50108 -1.21686,2.71794 -2.71794,2.71794c-1.50108,0 -2.71795,-1.21686 -2.71795,-2.71794z" fill="#269b79" stroke="none"/><path d="M217.24892,196.32534c0,-1.50108 1.21686,-2.71794 2.71794,-2.71794c1.50108,0 2.71794,1.21686 2.71794,2.71794c0,1.50108 -1.21686,2.71793 -2.71794,2.71793c-1.50108,0 -2.71794,-1.21685 -2.71794,-2.71793z" fill="#269b79" stroke="none"/><path d="M219.11627,191.80467c0,-1.50108 1.21687,-2.71794 2.71795,-2.71794c1.50108,0 2.71794,1.21686 2.71794,2.71794c0,1.50108 -1.21686,2.71794 -2.71794,2.71794c-1.50108,0 -2.71795,-1.21686 -2.71795,-2.71794z" fill="#269b79" stroke="none"/><path d="M227.85778,191.80467c0,-1.50108 1.21687,-2.71794 2.71795,-2.71794c1.50108,0 2.71794,1.21686 2.71794,2.71794c0,1.50108 -1.21686,2.71794 -2.71794,2.71794c-1.50108,0 -2.71795,-1.21686 -2.71795,-2.71794z" fill="#269b79" stroke="none"/><path d="M229.38892,196.19361c0,-1.50108 1.21686,-2.71793 2.71794,-2.71793c1.50108,0 2.71794,1.21685 2.71794,2.71793c0,1.50108 -1.21686,2.71794 -2.71794,2.71794c-1.50108,0 -2.71794,-1.21686 -2.71794,-2.71794z" fill="#269b79" stroke="none"/><path d="M223.5234,202.59982c0,-1.50108 1.21686,-2.71794 2.71794,-2.71794c1.50108,0 2.71794,1.21686 2.71794,2.71794c0,1.50108 -1.21686,2.71794 -2.71794,2.71794c-1.50108,0 -2.71794,-1.21686 -2.71794,-2.71794z" fill="#269b79" stroke="none"/><path d="M219.00273,200.60074c0,-1.50108 1.21686,-2.71794 2.71794,-2.71794c1.50108,0 2.71794,1.21686 2.71794,2.71794c0,1.50108 -1.21686,2.71794 -2.71794,2.71794c-1.50108,0 -2.71794,-1.21686 -2.71794,-2.71794z" fill="#269b79" stroke="none"/><path d="M227.93054,200.78703c0,-1.50108 1.21686,-2.71793 2.71794,-2.71793c1.50108,0 2.71794,1.21685 2.71794,2.71793c0,1.50108 -1.21686,2.71794 -2.71794,2.71794c-1.50108,0 -2.71794,-1.21686 -2.71794,-2.71794z" fill="#269b79" stroke="none"/></g><g fill="none" stroke="#269b79" stroke-width="2.5" stroke-linecap="round"><path d="M227.84183,180.83751v-6.17469"/><path d="M227.93513,171.18852v-6.17469"/><path d="M227.89121,161.67675v-6.17469"/></g><g fill="none" stroke="#269b79" stroke-width="2.5" stroke-linecap="round"><path d="M223.08321,185.48201v-6.17469"/><path d="M223.17651,175.83302v-6.17469"/><path d="M223.13259,160.14655v6.17469"/></g><g fill="none" stroke="#269b79" stroke-width="2.5" stroke-linecap="round"><path d="M218.32459,174.61344v6.17469"/><path d="M218.41789,164.96445v6.17469"/><path d="M218.37397,161.62737v-6.17469"/></g><g fill="none" stroke="#269b79" stroke-width="2.5" stroke-linecap="round"><path d="M232.60045,179.4939v6.17469"/><path d="M232.69375,169.84491v6.17469"/><path d="M232.64983,166.50783v-6.17469"/></g><g fill="none" stroke="#269b79" stroke-width="2.5" stroke-linecap="round"><path d="M237.58412,199.77638v-6.17469"/><path d="M237.5402,184.08992v6.17469"/><path d="M237.49628,174.71536v6.17469"/><path d="M237.58958,171.24105v-6.17469"/><path d="M237.54566,155.55459v6.17469"/></g></g></g></svg>