<svg version="1.1" xmlns="http://www.w3.org/2000/svg" xmlns:xlink="http://www.w3.org/1999/xlink" width="304.04634" height="412.53777" viewBox="0,0,304.04634,412.53777"><g transform="translate(-100.10186,24.73806)"><g data-paper-data="{&quot;isPaintingLayer&quot;:true}" fill-rule="nonzero" stroke-linejoin="miter" stroke-miterlimit="10" stroke-dasharray="" stroke-dashoffset="0" style="mix-blend-mode: normal"><path d="M111.87779,132.06469c0,0 0.33393,-21.6642 20.0394,-21.6642c19.70547,0 20.03939,21.6642 20.03939,21.6642h-21.01693z" fill="#ffffff" stroke="none" stroke-width="0" stroke-linecap="butt"/><path d="M113.1574,185.33843c0,0 0.33393,-21.6642 20.03939,-21.6642c19.70547,0 20.03939,21.6642 20.03939,21.6642h-21.01693z" fill="#ffffff" stroke="none" stroke-width="0" stroke-linecap="butt"/><path d="M112.2706,239.69538c0,0 0.33393,-21.66421 20.03939,-21.66421c19.70547,0 20.03939,21.66421 20.03939,21.66421h-21.01693z" fill="#ffffff" stroke="none" stroke-width="0" stroke-linecap="butt"/><path d="M112.46701,292.96905c0,0 0.33393,-21.6642 20.03939,-21.6642c19.70547,0 20.03939,21.6642 20.03939,21.6642h-21.01693z" fill="#ffffff" stroke="none" stroke-width="0" stroke-linecap="butt"/><g fill="none" stroke="none" stroke-width="0" stroke-linecap="butt"><path d="M255.25442,293.85585c0,0 0.33393,-21.6642 20.0394,-21.6642c19.70547,0 20.03939,21.6642 20.03939,21.6642h-21.01693z"/><path d="M255.05798,240.58216c0,0 0.33393,-21.66421 20.03939,-21.66421c19.70547,0 20.03939,21.66421 20.03939,21.66421h-21.01693z"/><path d="M255.94479,186.22523c0,0 0.33393,-21.66421 20.0394,-21.66421c19.70547,0 20.03939,21.66421 20.03939,21.66421h-21.01693z"/><path d="M254.66516,131.86827c0,0 0.33393,-21.66421 20.0394,-21.66421c19.70547,0 20.03939,21.66421 20.03939,21.66421h-21.01693z"/><path d="M201.54474,82.92736h21.01693c0,0 -0.33393,21.66421 -20.03939,21.66421c-19.70547,0 -20.0394,-21.66421 -20.0394,-21.66421z" data-paper-data="{&quot;index&quot;:null}"/><path d="M201.34832,136.20107h21.01693c0,0 -0.33393,21.66421 -20.03939,21.66421c-19.70547,0 -20.0394,-21.66421 -20.0394,-21.66421z" data-paper-data="{&quot;index&quot;:null}"/><path d="M202.23514,190.55804h21.01693c0,0 -0.33393,21.66421 -20.03939,21.66421c-19.70547,0 -20.0394,-21.66421 -20.0394,-21.66421z" data-paper-data="{&quot;index&quot;:null}"/><path d="M200.9555,243.83178h21.01693c0,0 -0.33393,21.66421 -20.03939,21.66421c-19.70547,0 -20.0394,-21.66421 -20.0394,-21.66421z" data-paper-data="{&quot;index&quot;:null}"/><path d="M363.37902,267.66238c0,0 0.33393,-21.66421 20.0394,-21.66421c19.70547,0 20.03939,21.66421 20.03939,21.66421h-21.01693z"/><path d="M363.18264,214.38866c0,0 0.33393,-21.66421 20.0394,-21.66421c19.70547,0 20.03939,21.66421 20.03939,21.66421h-21.01693z"/><path d="M364.06943,160.03167c0,0 0.33393,-21.6642 20.03939,-21.6642c19.70547,0 20.03939,21.6642 20.03939,21.6642h-21.01693z"/><path d="M362.78979,106.758c0,0 0.33393,-21.66421 20.03939,-21.66421c19.70547,0 20.03939,21.66421 20.03939,21.66421h-21.01693z"/></g><path d="M108.2669,374.71617c-6.03682,-9.36608 -6.41503,-20.60643 -6.41503,-20.60643v-173.09406v-171.03343c0,0 3.08761,-14.79204 6.99822,-21.63675c3.91061,-6.84471 11.8388,-11.33355 11.8388,-11.33355h90.39361h98.55819c0,0 7.54412,-1.31875 14.57961,8.24257c7.0355,9.56134 8.16458,22.66707 8.16458,22.66707v173.09407v165.88181c0,0 -0.32344,19.49001 -4.66548,27.8187c-4.34204,8.32867 -15.74598,11.33355 -15.74598,11.33355h-94.47589h-95.05908c0,0 -8.13474,-1.96746 -14.17154,-11.33355z" fill="#edd2bd" stroke="#419acf" stroke-width="3.5" stroke-linecap="butt"/><path d="M134.33349,30.83209v290.30043" fill="none" stroke="#419acf" stroke-width="4.5" stroke-linecap="round"/><path d="M201.17708,320.93613v-290.30043" fill="none" stroke="#419acf" stroke-width="4.5" stroke-linecap="round"/><path d="M268.45798,7.69185v310.88142" fill="none" stroke="#419acf" stroke-width="4.5" stroke-linecap="round"/><path d="M140.56207,9.87253c5.40784,-8.96725 18.70285,-14.09602 26.2883,-14.09602c7.24955,0 21.48476,4.37389 27.12113,12.90691c8.63127,13.06705 7.02949,31.06236 7.02949,20.27551c0,-17.83084 -14.87651,-32.28559 -33.22763,-32.28559c-18.35112,0 -33.22764,14.45475 -33.22764,32.2856c0,10.46045 -1.65874,-6.35959 6.01635,-19.08639z" data-paper-data="{&quot;index&quot;:null}" fill="none" stroke="#419acf" stroke-width="4.5" stroke-linecap="butt"/><path d="M126.75101,331.96464l7.58248,-8.66567l7.58247,8.66567z" fill="#419acf" stroke="#419acf" stroke-width="4.5" stroke-linecap="butt"/><text transform="translate(108.00531,355.91032) scale(0.46054,0.46054)" font-size="40" xml:space="preserve" fill="#419acf" fill-rule="nonzero" stroke="none" stroke-width="1" stroke-linecap="butt" stroke-linejoin="miter" stroke-miterlimit="10" stroke-dasharray="" stroke-dashoffset="0" font-family="Sans Serif" font-weight="normal" text-anchor="start" style="mix-blend-mode: normal"><tspan x="0" dy="0">START</tspan></text><path d="M207.56208,341.16413c-7.67508,-12.7268 -6.01635,-29.54684 -6.01635,-19.08639c0,17.83085 14.87651,32.2856 33.22764,32.2856c18.35112,0 33.22763,-14.45475 33.22763,-32.28559c0,-10.78685 1.60177,7.20846 -7.02949,20.27551c-5.63637,8.53302 -19.87158,12.90691 -27.12113,12.90691c-7.58545,0 -20.88047,-5.12877 -26.2883,-14.09602z" data-paper-data="{&quot;index&quot;:null}" fill="none" stroke="#419acf" stroke-width="4.5" stroke-linecap="butt"/></g></g></svg>