<svg version="1.1" xmlns="http://www.w3.org/2000/svg" xmlns:xlink="http://www.w3.org/1999/xlink" width="59.63044" height="59.63044" viewBox="0,0,59.63044,59.63044"><g transform="translate(-210.18478,-150.18478)"><g data-paper-data="{&quot;isPaintingLayer&quot;:true}" fill-rule="nonzero" stroke-linecap="butt" stroke-linejoin="miter" stroke-miterlimit="10" stroke-dasharray="" stroke-dashoffset="0" style="mix-blend-mode: normal"><path d="M211.18478,208.81522v-57.63044h57.63044v57.63044z" fill="#fed87b" stroke="#808080" stroke-width="2"/><path d="M237.67702,207.75v-44.5h4.64596v44.5z" fill="#a76100" stroke="none" stroke-width="0"/><path d="M230,196.125v-40.25h20v40.25z" fill="#000000" stroke="none" stroke-width="0"/><path d="M235.125,163.5c0,-2.69239 2.18261,-4.875 4.875,-4.875c2.69239,0 4.875,2.18261 4.875,4.875c0,2.69239 -2.18261,4.875 -4.875,4.875c-2.69239,0 -4.875,-2.18261 -4.875,-4.875z" fill="#ff0000" stroke="none" stroke-width="0"/><path d="M235.00924,175.92029c0,-2.69239 2.18261,-4.875 4.875,-4.875c2.69239,0 4.875,2.18261 4.875,4.875c0,2.69239 -2.18261,4.875 -4.875,4.875c-2.69239,0 -4.875,-2.18261 -4.875,-4.875z" fill="#ffde00" stroke="none" stroke-width="0"/><path d="M235.125,188.25c0,-2.69239 2.18261,-4.875 4.875,-4.875c2.69239,0 4.875,2.18261 4.875,4.875c0,2.69239 -2.18261,4.875 -4.875,4.875c-2.69239,0 -4.875,-2.18261 -4.875,-4.875z" fill="#27b900" stroke="none" stroke-width="0"/></g></g></svg>