<svg version="1.1" xmlns="http://www.w3.org/2000/svg" xmlns:xlink="http://www.w3.org/1999/xlink" width="59.63044" height="59.63044" viewBox="0,0,59.63044,59.63044"><g transform="translate(-210.18478,-150.18478)"><g data-paper-data="{&quot;isPaintingLayer&quot;:true}" fill-rule="nonzero" stroke-linecap="butt" stroke-linejoin="miter" stroke-miterlimit="10" stroke-dasharray="" stroke-dashoffset="0" style="mix-blend-mode: normal"><path d="M211.18478,151.18478h57.63044v57.63044h-57.63044z" data-paper-data="{&quot;index&quot;:null}" fill="#000000" stroke="#808080" stroke-width="2"/><g data-paper-data="{&quot;index&quot;:null}" fill="#ffffff" stroke="none" stroke-width="0"><path d="M262.50567,155.33332c0.77325,0 1.40008,0.62683 1.40008,1.40008c0,0.77325 -0.62683,1.40008 -1.40008,1.40008c-0.77325,0 -1.40008,-0.62683 -1.40008,-1.40008c0,-0.77325 0.62683,-1.40008 1.40008,-1.40008z"/><path d="M262.27226,199.41667c1.47276,0 2.66667,1.09441 2.66667,2.44444c0,1.35003 -1.19392,2.44445 -2.66667,2.44445c-1.47276,0 -2.66666,-1.09442 -2.66666,-2.44445c0,-1.35003 1.19391,-2.44444 2.66666,-2.44444z"/><path d="M220.6056,189.41667c1.47276,0 2.66666,1.09443 2.66666,2.44445c0,1.35002 -1.19391,2.44444 -2.66666,2.44444c-1.47276,0 -2.66666,-1.09442 -2.66666,-2.44444c0,-1.35002 1.19391,-2.44445 2.66666,-2.44445z"/><path d="M258.6056,182c0.82843,0 1.5,0.67157 1.5,1.5c0,0.82843 -0.67157,1.5 -1.5,1.5c-0.82843,0 -1.5,-0.67157 -1.5,-1.5c0,-0.82843 0.67157,-1.5 1.5,-1.5z"/><path d="M246.6056,165c0.82843,0 1.5,0.67157 1.5,1.5c0,0.82843 -0.67157,1.5 -1.5,1.5c-0.82843,0 -1.5,-0.67157 -1.5,-1.5c0,-0.82843 0.67157,-1.5 1.5,-1.5z"/><path d="M226.27226,184.00001c0.82843,0 1.5,0.67157 1.5,1.5c0,0.82843 -0.67157,1.5 -1.5,1.5c-0.82843,0 -1.5,-0.67157 -1.5,-1.5c0,-0.82843 0.67157,-1.5 1.5,-1.5z"/><path d="M228.6056,198.99999c0.82843,0 1.5,0.67157 1.5,1.5c0,0.82843 -0.67157,1.5 -1.5,1.5c-0.82843,0 -1.5,-0.67157 -1.5,-1.5c0,-0.82843 0.67157,-1.5 1.5,-1.5z"/><path d="M216.93893,201.66665c0.82843,0 1.5,0.67158 1.5,1.5c0,0.82843 -0.67157,1.5 -1.5,1.5c-0.82843,0 -1.5,-0.67157 -1.5,-1.5c0,-0.82842 0.67157,-1.5 1.5,-1.5z"/><path d="M251.27226,174.83333c0.55229,0 1,0.44771 1,1c0,0.55229 -0.44771,1 -1,1c-0.55229,0 -1,-0.44771 -1,-1c0,-0.55229 0.44771,-1 1,-1z"/><path d="M241.27226,197.16667c0.55229,0 1,0.44772 1,1c0,0.55228 -0.44771,1 -1,1c-0.55229,0 -1,-0.44772 -1,-1c0,-0.55228 0.44771,-1 1,-1z"/><path d="M250.93892,199.83333c0.55229,0 1,0.44772 1,1c0,0.55228 -0.44771,1 -1,1c-0.55229,0 -1,-0.44772 -1,-1c0,-0.55228 0.44771,-1 1,-1z"/><path d="M236.27226,158.16667c0.55229,0 1,0.44771 1,1c0,0.55229 -0.44771,1 -1,1c-0.55229,0 -1,-0.44771 -1,-1c0,-0.55229 0.44771,-1 1,-1z"/><path d="M233.93892,170.5c0.55229,0 1,0.44771 1,1c0,0.55229 -0.44771,1 -1,1c-0.55229,0 -1,-0.44771 -1,-1c0,-0.55229 0.44771,-1 1,-1z"/><path d="M221.39439,172.66667c0.36819,0 0.66666,0.29847 0.66666,0.66666c0,0.36819 -0.29847,0.66667 -0.66666,0.66667c-0.36819,0 -0.66666,-0.29848 -0.66666,-0.66667c0,-0.36819 0.29847,-0.66666 0.66666,-0.66666z"/><path d="M215.72773,179.33332c0.36819,0 0.66666,0.29847 0.66666,0.66666c0,0.36819 -0.29847,0.66667 -0.66666,0.66667c-0.36819,0 -0.66666,-0.29848 -0.66666,-0.66667c0,-0.36819 0.29847,-0.66666 0.66666,-0.66666z"/><path d="M234.39439,184.33332c0.36819,0 0.66666,0.29847 0.66666,0.66666c0,0.36819 -0.29847,0.66667 -0.66666,0.66667c-0.03959,0 -0.07838,-0.00345 -0.11608,-0.01007c-0.31285,-0.05493 -0.55058,-0.328 -0.55058,-0.6566c0,-0.36819 0.29847,-0.66666 0.66666,-0.66666z"/><path d="M237.06105,203.66667c0.36819,0 0.66666,0.29847 0.66666,0.66667c0,0.36819 -0.29847,0.66667 -0.66666,0.66667c-0.36819,0 -0.66666,-0.29848 -0.66666,-0.66667c0,-0.36819 0.29847,-0.66667 0.66666,-0.66667z"/><path d="M230.06105,155c0.36819,0 0.66666,0.29847 0.66666,0.66666c0,0.36819 -0.29847,0.66667 -0.66666,0.66667c-0.36819,0 -0.66666,-0.29848 -0.66666,-0.66667c0,-0.36819 0.29847,-0.66666 0.66666,-0.66666z"/><path d="M215.72773,155.66667c0.36819,0 0.66667,0.29847 0.66667,0.66666c0,0.36819 -0.29848,0.66667 -0.66667,0.66667c-0.36819,0 -0.66666,-0.29848 -0.66666,-0.66667c0,-0.36819 0.29847,-0.66666 0.66666,-0.66666z"/><path d="M253.39439,160c0.36819,0 0.66666,0.29847 0.66666,0.66666c0,0.36819 -0.29847,0.66667 -0.66666,0.66667c-0.36819,0 -0.66666,-0.29848 -0.66666,-0.66667c0,-0.36819 0.29847,-0.66666 0.66666,-0.66666z"/><path d="M243.39438,155.66667c0.36819,0 0.66666,0.29847 0.66666,0.66666c0,0.36819 -0.29847,0.66667 -0.66666,0.66667c-0.36819,0 -0.66667,-0.29848 -0.66667,-0.66667c0,-0.36819 0.29848,-0.66666 0.66667,-0.66666z"/><path d="M260.06106,171.33332c0.36819,0 0.66666,0.29847 0.66666,0.66666c0,0.36819 -0.29847,0.66667 -0.66666,0.66667c-0.36819,0 -0.66666,-0.29848 -0.66666,-0.66667c0,-0.36819 0.29847,-0.66666 0.66666,-0.66666z"/><path d="M254.39438,189.66667c0.36819,0 0.66666,0.29847 0.66666,0.66666c0,0.36819 -0.29847,0.66667 -0.66666,0.66667c-0.36819,0 -0.66667,-0.29848 -0.66667,-0.66667c0,-0.36819 0.29848,-0.66666 0.66667,-0.66666z"/><path d="M244.39439,180.66666c0.36819,0 0.66666,0.29847 0.66666,0.66666c0,0.36819 -0.29847,0.66667 -0.66666,0.66667c-0.36819,0 -0.66666,-0.29848 -0.66666,-0.66667c0,-0.36819 0.29847,-0.66666 0.66666,-0.66666z"/><path d="M223.20479,160.55c1.36186,0 2.46586,1.01202 2.46586,2.26038c0,1.24836 -1.10401,2.26037 -2.46586,2.26037c-1.36186,0 -2.46586,-1.01201 -2.46586,-2.26037c0,-1.24836 1.10401,-2.26038 2.46586,-2.26038z"/></g><g stroke="none" stroke-width="0"><path d="M236.00001,179.96169c2.33622,0 4.2301,1.84532 4.2301,4.12164c0,0.79151 -0.22898,1.5309 -0.62591,2.15873c-0.74462,1.17776 -2.0803,1.96291 -3.60419,1.96291c-2.33622,0 -4.2301,-1.84532 -4.2301,-4.12164c0,-2.27632 1.89388,-4.12164 4.2301,-4.12164z" fill="#42bfff"/><path d="M236.12501,181.58333c0,-0.62132 0.50368,-1.125 1.125,-1.125c0.62132,0 1.125,0.50368 1.125,1.125c0,0.62132 -0.50368,1.125 -1.125,1.125c-0.62132,0 -1.125,-0.50368 -1.125,-1.125z" fill="#004ac3"/><path d="M237.37501,184.08333c0,-0.62132 0.50368,-1.125 1.125,-1.125c0.62132,0 1.125,0.50368 1.125,1.125c0,0.53242 -0.36986,0.97846 -0.86667,1.0952c-0.08295,0.01949 -0.16944,0.0298 -0.25833,0.0298c-0.62132,0 -1.125,-0.50368 -1.125,-1.125z" fill="#004ac3"/><path d="M234.87501,184.08333c0,-0.62132 0.50368,-1.125 1.125,-1.125c0.62132,0 1.125,0.50368 1.125,1.125c0,0.62132 -0.50368,1.125 -1.125,1.125c-0.62132,0 -1.125,-0.50368 -1.125,-1.125z" fill="#004ac3"/><path d="M233.62501,181.58333c0,-0.62132 0.50368,-1.125 1.125,-1.125c0.62132,0 1.125,0.50368 1.125,1.125c0,0.62132 -0.50368,1.125 -1.125,1.125c-0.62132,0 -1.125,-0.50368 -1.125,-1.125z" fill="#004ac3"/><path d="M233.62501,186.58333c0,-0.62132 0.50368,-1.125 1.125,-1.125c0.62132,0 1.125,0.50368 1.125,1.125c0,0.62132 -0.50368,1.125 -1.125,1.125c-0.26556,0 -0.50963,-0.09201 -0.70207,-0.2459c-0.2578,-0.20615 -0.42293,-0.52334 -0.42293,-0.8791z" fill="#004ac3"/><path d="M236.12501,186.58333c0,-0.62132 0.50368,-1.125 1.125,-1.125c0.62132,0 1.125,0.50368 1.125,1.125c0,0.62132 -0.50368,1.125 -1.125,1.125c-0.62132,0 -1.125,-0.50368 -1.125,-1.125z" fill="#004ac3"/><path d="M232.37501,184.08333c0,-0.62132 0.50368,-1.125 1.125,-1.125c0.62132,0 1.125,0.50368 1.125,1.125c0,0.62132 -0.50368,1.125 -1.125,1.125c-0.62132,0 -1.125,-0.50368 -1.125,-1.125z" fill="#004ac3"/></g></g></g></svg>