<svg version="1.1" xmlns="http://www.w3.org/2000/svg" xmlns:xlink="http://www.w3.org/1999/xlink" width="59.63044" height="59.63044" viewBox="0,0,59.63044,59.63044"><g transform="translate(-210.18478,-150.18478)"><g data-paper-data="{&quot;isPaintingLayer&quot;:true}" fill-rule="nonzero" stroke-linecap="butt" stroke-linejoin="miter" stroke-miterlimit="10" stroke-dasharray="" stroke-dashoffset="0" style="mix-blend-mode: normal"><path d="M211.18478,151.18478h57.63044v57.63044h-57.63044z" data-paper-data="{&quot;index&quot;:null}" fill="#000000" stroke="#808080" stroke-width="2"/><path d="M262.50567,155.33332c0.77325,0 1.40008,0.62683 1.40008,1.40008c0,0.77325 -0.62683,1.40008 -1.40008,1.40008c-0.77325,0 -1.40008,-0.62683 -1.40008,-1.40008c0,-0.77325 0.62683,-1.40008 1.40008,-1.40008z" fill="#ffffff" stroke="none" stroke-width="0"/><path d="M262.27226,199.41667c1.47276,0 2.66667,1.09441 2.66667,2.44444c0,1.35003 -1.19392,2.44445 -2.66667,2.44445c-1.47276,0 -2.66666,-1.09442 -2.66666,-2.44445c0,-1.35003 1.19391,-2.44444 2.66666,-2.44444z" fill="#ffffff" stroke="none" stroke-width="0"/><path d="M220.6056,189.41667c1.47276,0 2.66666,1.09443 2.66666,2.44445c0,1.35002 -1.19391,2.44444 -2.66666,2.44444c-1.47276,0 -2.66666,-1.09442 -2.66666,-2.44444c0,-1.35002 1.19391,-2.44445 2.66666,-2.44445z" fill="#ffffff" stroke="none" stroke-width="0"/><path d="M258.6056,182c0.82843,0 1.5,0.67157 1.5,1.5c0,0.82843 -0.67157,1.5 -1.5,1.5c-0.82843,0 -1.5,-0.67157 -1.5,-1.5c0,-0.82843 0.67157,-1.5 1.5,-1.5z" fill="#ffffff" stroke="none" stroke-width="0"/><path d="M246.6056,165c0.82843,0 1.5,0.67157 1.5,1.5c0,0.82843 -0.67157,1.5 -1.5,1.5c-0.82843,0 -1.5,-0.67157 -1.5,-1.5c0,-0.82843 0.67157,-1.5 1.5,-1.5z" fill="#ffffff" stroke="none" stroke-width="0"/><path d="M226.27226,184.00001c0.82843,0 1.5,0.67157 1.5,1.5c0,0.82843 -0.67157,1.5 -1.5,1.5c-0.82843,0 -1.5,-0.67157 -1.5,-1.5c0,-0.82843 0.67157,-1.5 1.5,-1.5z" fill="#ffffff" stroke="none" stroke-width="0"/><path d="M228.6056,198.99999c0.82843,0 1.5,0.67157 1.5,1.5c0,0.82843 -0.67157,1.5 -1.5,1.5c-0.82843,0 -1.5,-0.67157 -1.5,-1.5c0,-0.82843 0.67157,-1.5 1.5,-1.5z" fill="#ffffff" stroke="none" stroke-width="0"/><path d="M216.93893,201.66665c0.82843,0 1.5,0.67158 1.5,1.5c0,0.82843 -0.67157,1.5 -1.5,1.5c-0.82843,0 -1.5,-0.67157 -1.5,-1.5c0,-0.82842 0.67157,-1.5 1.5,-1.5z" fill="#ffffff" stroke="none" stroke-width="0"/><path d="M241.27226,197.16667c0.55229,0 1,0.44772 1,1c0,0.55228 -0.44771,1 -1,1c-0.55229,0 -1,-0.44772 -1,-1c0,-0.55228 0.44771,-1 1,-1z" fill="#ffffff" stroke="none" stroke-width="0"/><path d="M250.93892,199.83333c0.55229,0 1,0.44772 1,1c0,0.55228 -0.44771,1 -1,1c-0.55229,0 -1,-0.44772 -1,-1c0,-0.55228 0.44771,-1 1,-1z" fill="#ffffff" stroke="none" stroke-width="0"/><path d="M236.27226,158.16667c0.55229,0 1,0.44771 1,1c0,0.55229 -0.44771,1 -1,1c-0.55229,0 -1,-0.44771 -1,-1c0,-0.55229 0.44771,-1 1,-1z" fill="#ffffff" stroke="none" stroke-width="0"/><path d="M233.93892,170.5c0.55229,0 1,0.44771 1,1c0,0.55229 -0.44771,1 -1,1c-0.55229,0 -1,-0.44771 -1,-1c0,-0.55229 0.44771,-1 1,-1z" fill="#ffffff" stroke="none" stroke-width="0"/><path d="M221.39439,172.66667c0.36819,0 0.66666,0.29847 0.66666,0.66666c0,0.36819 -0.29847,0.66667 -0.66666,0.66667c-0.36819,0 -0.66666,-0.29848 -0.66666,-0.66667c0,-0.36819 0.29847,-0.66666 0.66666,-0.66666z" fill="#ffffff" stroke="none" stroke-width="0"/><path d="M215.72773,179.33332c0.36819,0 0.66666,0.29847 0.66666,0.66666c0,0.36819 -0.29847,0.66667 -0.66666,0.66667c-0.36819,0 -0.66666,-0.29848 -0.66666,-0.66667c0,-0.36819 0.29847,-0.66666 0.66666,-0.66666z" fill="#ffffff" stroke="none" stroke-width="0"/><path d="M234.39439,184.33332c0.36819,0 0.66666,0.29847 0.66666,0.66666c0,0.36819 -0.29847,0.66667 -0.66666,0.66667c-0.03959,0 -0.07838,-0.00345 -0.11607,-0.01007c-0.31286,-0.05493 -0.55058,-0.328 -0.55058,-0.6566c0,-0.36819 0.29847,-0.66666 0.66666,-0.66666z" fill="#ffffff" stroke="none" stroke-width="0"/><path d="M237.06105,203.66667c0.36819,0 0.66666,0.29847 0.66666,0.66667c0,0.36819 -0.29847,0.66667 -0.66666,0.66667c-0.36819,0 -0.66666,-0.29848 -0.66666,-0.66667c0,-0.36819 0.29847,-0.66667 0.66666,-0.66667z" fill="#ffffff" stroke="none" stroke-width="0"/><path d="M230.06105,155c0.36819,0 0.66666,0.29847 0.66666,0.66666c0,0.36819 -0.29847,0.66667 -0.66666,0.66667c-0.36819,0 -0.66666,-0.29848 -0.66666,-0.66667c0,-0.36819 0.29847,-0.66666 0.66666,-0.66666z" fill="#ffffff" stroke="none" stroke-width="0"/><path d="M215.72773,155.66667c0.36819,0 0.66667,0.29847 0.66667,0.66666c0,0.36819 -0.29848,0.66667 -0.66667,0.66667c-0.36819,0 -0.66666,-0.29848 -0.66666,-0.66667c0,-0.36819 0.29847,-0.66666 0.66666,-0.66666z" fill="#ffffff" stroke="none" stroke-width="0"/><path d="M253.39439,160c0.36819,0 0.66666,0.29847 0.66666,0.66666c0,0.36819 -0.29847,0.66667 -0.66666,0.66667c-0.36819,0 -0.66666,-0.29848 -0.66666,-0.66667c0,-0.36819 0.29847,-0.66666 0.66666,-0.66666z" fill="#ffffff" stroke="none" stroke-width="0"/><path d="M243.39438,155.66667c0.36819,0 0.66666,0.29847 0.66666,0.66666c0,0.36819 -0.29847,0.66667 -0.66666,0.66667c-0.36819,0 -0.66667,-0.29848 -0.66667,-0.66667c0,-0.36819 0.29848,-0.66666 0.66667,-0.66666z" fill="#ffffff" stroke="none" stroke-width="0"/><path d="M260.06106,171.33332c0.36819,0 0.66666,0.29847 0.66666,0.66666c0,0.36819 -0.29847,0.66667 -0.66666,0.66667c-0.36819,0 -0.66666,-0.29848 -0.66666,-0.66667c0,-0.36819 0.29847,-0.66666 0.66666,-0.66666z" fill="#ffffff" stroke="none" stroke-width="0"/><path d="M254.39438,189.66667c0.36819,0 0.66666,0.29847 0.66666,0.66666c0,0.36819 -0.29847,0.66667 -0.66666,0.66667c-0.36819,0 -0.66667,-0.29848 -0.66667,-0.66667c0,-0.36819 0.29848,-0.66666 0.66667,-0.66666z" fill="#ffffff" stroke="none" stroke-width="0"/><path d="M244.39439,180.66666c0.36819,0 0.66666,0.29847 0.66666,0.66666c0,0.36819 -0.29847,0.66667 -0.66666,0.66667c-0.36819,0 -0.66666,-0.29848 -0.66666,-0.66667c0,-0.36819 0.29847,-0.66666 0.66666,-0.66666z" fill="#ffffff" stroke="none" stroke-width="0"/><path d="M223.20479,160.55c1.36186,0 2.46586,1.01202 2.46586,2.26038c0,1.24836 -1.10401,2.26037 -2.46586,2.26037c-1.36186,0 -2.46586,-1.01201 -2.46586,-2.26037c0,-1.24836 1.10401,-2.26038 2.46586,-2.26038z" fill="#ffffff" stroke="none" stroke-width="0"/><path d="M256.91735,176.00191c1.86777,1.25008 0.51021,1.61875 1.79078,3.14382c1.23485,1.47062 2.68416,0.24471 3.31384,2.16947c0.68946,2.1075 -0.97168,2.506 -1.06156,4.18389c-0.09718,1.81423 1.39664,2.53184 0.78808,4.02315c-0.59162,1.4498 -2.09506,0.8056 -3.16331,2.00632c-1.15338,1.29639 -0.62897,2.22859 -2.0724,2.85641c-1.63856,0.71269 -2.34108,-0.64984 -4.21313,-0.65089c-1.72868,-0.00097 -3.13992,1.479 -4.61844,0.60812c-1.46909,-0.86533 -0.53119,-2.22337 -1.66989,-3.34154c-1.11873,-1.09855 -1.92432,-0.46159 -2.69022,-1.9501c-0.92915,-1.80578 0.75772,-2.36164 0.72183,-3.98546c-0.0375,-1.69663 -1.73508,-2.3299 -1.08694,-3.94305c0.60505,-1.50589 1.95969,-0.43743 3.08409,-1.79537c1.12159,-1.35455 -0.41732,-2.06205 1.70282,-3.54633c1.52703,-1.06906 2.47384,1.45738 4.37864,1.31971c2.69954,-0.1951 3.06463,-2.25679 4.7958,-1.09814z" fill="#fa9350" stroke="none" stroke-width="0"/><path d="M245.53206,185.25c0,-3.80227 3.08235,-6.88461 6.88461,-6.88461c3.80227,0 6.88461,3.08235 6.88461,6.88461c0,3.80227 -3.08235,6.88461 -6.88461,6.88461c-3.80227,0 -6.88461,-3.08235 -6.88461,-6.88461z" fill="#feda7d" stroke="none" stroke-width="0"/></g></g></svg>