<svg version="1.1" xmlns="http://www.w3.org/2000/svg" xmlns:xlink="http://www.w3.org/1999/xlink" width="445.86542" height="333.01268" viewBox="0,0,445.86542,333.01268"><g transform="translate(-30.44577,-18.88385)"><g data-paper-data="{&quot;isPaintingLayer&quot;:true}" fill-rule="nonzero" stroke-linejoin="miter" stroke-miterlimit="10" stroke-dasharray="" stroke-dashoffset="0" style="mix-blend-mode: normal"><path d="M349.43532,59.6261c0,0 21.6642,0.33393 21.6642,20.0394c0,19.70547 -21.6642,20.03939 -21.6642,20.03939v-21.01693z" fill="#ffffff" stroke="none" stroke-width="0" stroke-linecap="butt"/><path d="M296.16158,60.90571c0,0 21.6642,0.33393 21.6642,20.03939c0,19.70547 -21.6642,20.03939 -21.6642,20.03939v-21.01693z" fill="#ffffff" stroke="none" stroke-width="0" stroke-linecap="butt"/><path d="M241.80463,60.01891c0,0 21.66421,0.33394 21.66421,20.0394c0,19.70547 -21.66421,20.03939 -21.66421,20.03939v-21.01693z" fill="#ffffff" stroke="none" stroke-width="0" stroke-linecap="butt"/><path d="M188.53096,60.21532c0,0 21.6642,0.33393 21.6642,20.03939c0,19.70547 -21.6642,20.03939 -21.6642,20.03939v-21.01693z" fill="#ffffff" stroke="none" stroke-width="0" stroke-linecap="butt"/><g fill="none" stroke="none" stroke-width="0" stroke-linecap="butt"><path d="M187.64416,203.00273c0,0 21.6642,0.33393 21.6642,20.0394c0,19.70547 -21.6642,20.03939 -21.6642,20.03939v-21.01693z"/><path d="M240.91785,202.80629c0,0 21.66421,0.33393 21.66421,20.03939c0,19.70547 -21.66421,20.03939 -21.66421,20.03939v-21.01693z"/><path d="M295.27478,203.6931c0,0 21.66421,0.33393 21.66421,20.0394c0,19.70547 -21.66421,20.03939 -21.66421,20.03939v-21.01693z"/><path d="M349.63174,202.41347c0,0 21.66421,0.33393 21.66421,20.0394c0,19.70547 -21.66421,20.03939 -21.66421,20.03939v-21.01693z"/><path d="M398.57265,149.29305v21.01693c0,0 -21.66421,-0.33393 -21.66421,-20.03939c0,-19.70547 21.66421,-20.0394 21.66421,-20.0394z" data-paper-data="{&quot;index&quot;:null}"/><path d="M345.29894,149.09663v21.01693c0,0 -21.66421,-0.33393 -21.66421,-20.03939c0,-19.70547 21.66421,-20.0394 21.66421,-20.0394z" data-paper-data="{&quot;index&quot;:null}"/><path d="M290.94197,149.98345v21.01693c0,0 -21.66421,-0.33393 -21.66421,-20.03939c0,-19.70547 21.66421,-20.0394 21.66421,-20.0394z" data-paper-data="{&quot;index&quot;:null}"/><path d="M237.66823,148.70381v21.01693c0,0 -21.66421,-0.33393 -21.66421,-20.03939c0,-19.70547 21.66421,-20.0394 21.66421,-20.0394z" data-paper-data="{&quot;index&quot;:null}"/><path d="M213.83763,311.12733c0,0 21.66421,0.33393 21.66421,20.0394c0,19.70547 -21.66421,20.03939 -21.66421,20.03939v-21.01693z"/><path d="M267.11135,310.93095c0,0 21.66421,0.33393 21.66421,20.0394c0,19.70547 -21.66421,20.03939 -21.66421,20.03939v-21.01693z"/><path d="M321.46834,311.81774c0,0 21.6642,0.33393 21.6642,20.03939c0,19.70547 -21.6642,20.0394 -21.6642,20.0394v-21.01693z"/><path d="M374.74201,310.5381c0,0 21.66421,0.33393 21.66421,20.0394c0,19.70547 -21.66421,20.03938 -21.66421,20.03938v-21.01693z"/></g><path d="M123.41745,29.78255c8.26956,-6.7031 18.19397,-7.12306 18.19397,-7.12306h152.82939h151.01c0,0 13.06029,3.42839 19.10367,7.77061c6.04338,4.34222 10.0067,13.14546 10.0067,13.14546v100.37038v109.43608c0,0 1.16436,8.37677 -7.27759,16.18877c-8.44196,7.81201 -20.01336,9.06571 -20.01336,9.06571h-152.8294h-146.4615c0,0 -17.20825,-0.35914 -24.56188,-5.18041c-7.35361,-4.82127 -10.0067,-17.48387 -10.0067,-17.48387v-104.90321v-105.55078c0,0 1.73712,-9.03258 10.0067,-15.73566z" fill="#edd2bd" stroke="#419acf" stroke-width="3.5" stroke-linecap="butt"/><text transform="translate(121.68145,114.68054) scale(0.41377,0.41377)" font-size="40" xml:space="preserve" fill="#419acf" fill-rule="nonzero" stroke="none" stroke-width="1" stroke-linecap="butt" stroke-linejoin="miter" stroke-miterlimit="10" stroke-dasharray="" stroke-dashoffset="0" font-family="Sans Serif" font-weight="normal" text-anchor="start" style="mix-blend-mode: normal"><tspan x="0" dy="0">START</tspan></text><path d="M418.18122,158.7365h-241.15358" fill="none" stroke="#419acf" stroke-width="4.5" stroke-linecap="round"/><path d="M160.36749,80.95927h266.10873" fill="none" stroke="#419acf" stroke-width="4.5" stroke-linecap="round"/><path d="M177.14544,216.43072h243.52969" fill="none" stroke="#419acf" stroke-width="4.5" stroke-linecap="round"/><path d="M440.19667,87.85126c8.96725,6.31763 14.09602,21.84933 14.09602,30.71092c0,8.46918 -4.37389,25.09926 -12.90691,31.68386c-13.06705,10.08335 -31.06236,8.2121 -20.27551,8.2121c17.83084,0 32.28559,-17.37927 32.28559,-38.81769c0,-21.43843 -14.45475,-38.8177 -32.2856,-38.8177c-10.46045,0 6.35959,-1.9378 19.08639,7.02851z" data-paper-data="{&quot;index&quot;:null}" fill="none" stroke="#419acf" stroke-width="4.5" stroke-linecap="butt"/><path d="M149.53537,73.00262l8.66567,7.58248l-8.66567,7.58247z" fill="#419acf" stroke="#419acf" stroke-width="4.5" stroke-linecap="butt"/><path d="M46.79181,172.5225c12.7268,-7.67508 29.54684,-6.01635 19.08639,-6.01635c-17.83085,0 -32.2856,14.87651 -32.2856,33.22764c0,18.35112 14.45475,33.22763 32.28559,33.22763c10.78685,0 -7.20846,1.60177 -20.27551,-7.02949c-8.53302,-5.63637 -12.90691,-19.87158 -12.90691,-27.12113c0,-7.58545 5.12877,-20.88048 14.09602,-26.28831z" data-paper-data="{&quot;index&quot;:null}" fill="none" stroke="#419acf" stroke-width="4.5" stroke-linecap="butt"/><path d="M349.43532,59.6261c0,0 21.6642,0.33393 21.6642,20.0394c0,19.70547 -21.6642,20.03939 -21.6642,20.03939v-21.01693z" fill="#ffffff" stroke="none" stroke-width="0" stroke-linecap="butt"/><path d="M296.16158,60.90571c0,0 21.6642,0.33393 21.6642,20.03939c0,19.70547 -21.6642,20.03939 -21.6642,20.03939v-21.01693z" fill="#ffffff" stroke="none" stroke-width="0" stroke-linecap="butt"/><path d="M241.80463,60.01891c0,0 21.66421,0.33394 21.66421,20.0394c0,19.70547 -21.66421,20.03939 -21.66421,20.03939v-21.01693z" fill="#ffffff" stroke="none" stroke-width="0" stroke-linecap="butt"/><path d="M188.53096,60.21532c0,0 21.6642,0.33393 21.6642,20.03939c0,19.70547 -21.6642,20.03939 -21.6642,20.03939v-21.01693z" fill="#ffffff" stroke="none" stroke-width="0" stroke-linecap="butt"/><g fill="#ffffff" stroke="none" stroke-width="0" stroke-linecap="butt"><path d="M187.64416,203.00273c0,0 21.6642,0.33393 21.6642,20.0394c0,19.70547 -21.6642,20.03939 -21.6642,20.03939v-21.01693z"/><path d="M240.91785,202.80629c0,0 21.66421,0.33393 21.66421,20.03939c0,19.70547 -21.66421,20.03939 -21.66421,20.03939v-21.01693z"/><path d="M295.27478,203.6931c0,0 21.66421,0.33393 21.66421,20.0394c0,19.70547 -21.66421,20.03939 -21.66421,20.03939v-21.01693z"/><path d="M349.63174,202.41347c0,0 21.66421,0.33393 21.66421,20.0394c0,19.70547 -21.66421,20.03939 -21.66421,20.03939v-21.01693z"/><path d="M398.57265,149.29305v21.01693c0,0 -21.66421,-0.33393 -21.66421,-20.03939c0,-19.70547 21.66421,-20.0394 21.66421,-20.0394z" data-paper-data="{&quot;index&quot;:null}"/><path d="M345.29894,149.09663v21.01693c0,0 -21.66421,-0.33393 -21.66421,-20.03939c0,-19.70547 21.66421,-20.0394 21.66421,-20.0394z" data-paper-data="{&quot;index&quot;:null}"/><path d="M290.94197,149.98345v21.01693c0,0 -21.66421,-0.33393 -21.66421,-20.03939c0,-19.70547 21.66421,-20.0394 21.66421,-20.0394z" data-paper-data="{&quot;index&quot;:null}"/><path d="M237.66823,148.70381v21.01693c0,0 -21.66421,-0.33393 -21.66421,-20.03939c0,-19.70547 21.66421,-20.0394 21.66421,-20.0394z" data-paper-data="{&quot;index&quot;:null}"/><path d="M213.83763,311.12733c0,0 21.66421,0.33393 21.66421,20.0394c0,19.70547 -21.66421,20.03939 -21.66421,20.03939v-21.01693z"/><path d="M267.11135,310.93095c0,0 21.66421,0.33393 21.66421,20.0394c0,19.70547 -21.66421,20.03939 -21.66421,20.03939v-21.01693z"/><path d="M321.46834,311.81774c0,0 21.6642,0.33393 21.6642,20.03939c0,19.70547 -21.6642,20.0394 -21.6642,20.0394v-21.01693z"/><path d="M374.74201,310.5381c0,0 21.66421,0.33393 21.66421,20.0394c0,19.70547 -21.66421,20.03938 -21.66421,20.03938v-21.01693z"/></g><text transform="translate(188.12129,43.59431) scale(0.5,0.5)" font-size="40" xml:space="preserve" fill="#419acf" fill-rule="nonzero" stroke="none" stroke-width="1" stroke-linecap="butt" stroke-linejoin="miter" stroke-miterlimit="10" stroke-dasharray="" stroke-dashoffset="0" font-family="Sans Serif" font-weight="normal" text-anchor="start" style="mix-blend-mode: normal"><tspan x="0" dy="0">1</tspan></text><text transform="translate(241.01585,42.60749) scale(0.5,0.5)" font-size="40" xml:space="preserve" fill="#419acf" fill-rule="nonzero" stroke="none" stroke-width="1" stroke-linecap="butt" stroke-linejoin="miter" stroke-miterlimit="10" stroke-dasharray="" stroke-dashoffset="0" font-family="Sans Serif" font-weight="normal" text-anchor="start" style="mix-blend-mode: normal"><tspan x="0" dy="0">2</tspan></text><text transform="translate(296.90383,42.36902) scale(0.5,0.5)" font-size="40" xml:space="preserve" fill="#419acf" fill-rule="nonzero" stroke="none" stroke-width="1" stroke-linecap="butt" stroke-linejoin="miter" stroke-miterlimit="10" stroke-dasharray="" stroke-dashoffset="0" font-family="Sans Serif" font-weight="normal" text-anchor="start" style="mix-blend-mode: normal"><tspan x="0" dy="0">3</tspan></text><text transform="translate(349.7984,40.63385) scale(0.5,0.5)" font-size="40" xml:space="preserve" fill="#419acf" fill-rule="nonzero" stroke="none" stroke-width="1" stroke-linecap="butt" stroke-linejoin="miter" stroke-miterlimit="10" stroke-dasharray="" stroke-dashoffset="0" font-family="Sans Serif" font-weight="normal" text-anchor="start" style="mix-blend-mode: normal"><tspan x="0" dy="0">4</tspan></text><path d="M156.27288,165.44146c12.7268,-8.96631 29.54684,-7.02851 19.08639,-7.02851c-17.83085,0 -32.2856,17.37928 -32.2856,38.8177c0,21.43843 14.45475,38.81769 32.28559,38.81769c10.78685,0 -7.20846,1.87126 -20.27551,-8.2121c-8.53302,-6.58461 -12.90691,-23.21468 -12.90691,-31.68386c0,-8.86159 5.12877,-24.3933 14.09602,-30.71093z" data-paper-data="{&quot;index&quot;:null}" fill="none" stroke="#419acf" stroke-width="4.5" stroke-linecap="butt"/></g></g></svg>