<svg version="1.1" xmlns="http://www.w3.org/2000/svg" xmlns:xlink="http://www.w3.org/1999/xlink" width="59.63044" height="59.63044" viewBox="0,0,59.63044,59.63044"><g transform="translate(-210.18478,-150.18479)"><g data-paper-data="{&quot;isPaintingLayer&quot;:true}" fill-rule="nonzero" stroke-linecap="butt" stroke-linejoin="miter" stroke-miterlimit="10" stroke-dasharray="" stroke-dashoffset="0" style="mix-blend-mode: normal"><path d="M216.67899,171.72729v-13.33334h46v13.33334z" fill="#ffffff" stroke="none" stroke-width="0"/><path d="M211.18478,208.81523v-57.63044h57.63044v57.63044z" fill="#ffda7c" stroke="#808080" stroke-width="2"/><path d="M218.67899,170.06062v-11h42.33333v11z" fill="#ffffff" stroke="none" stroke-width="0"/><path d="M218.66667,200.66668v-6h42.66667v6z" fill="#da703f" stroke="none" stroke-width="0"/><path d="M215.34565,197.06062v-6h48.66667v6z" fill="#8c3a27" stroke="none" stroke-width="0"/><path d="M227.15636,182.33335h-2.94814v-21.66667h2.94814z" fill="#da703f" stroke="none" stroke-width="0"/><path d="M255.4897,182.66668h-2.94814v-21.66667h2.94814z" fill="#da703f" stroke="none" stroke-width="0"/><path d="M218.34565,191.72729v-12h43.00001v12z" fill="#8c3a27" stroke="none" stroke-width="0"/><path d="M232.67899,170.72729v-11.33334h4.33333v11.33334z" fill="#ed383c" stroke="none" stroke-width="0"/><path d="M223.34565,170.72729v-11.33334h4.33334v11.33334z" fill="#ed383c" stroke="none" stroke-width="0"/><path d="M242.67899,171.06062v-11.33334h4.33333v11.33334z" fill="#ed383c" stroke="none" stroke-width="0"/><path d="M251.67899,171.39394v-11.33333h4.33333v11.33333z" fill="#ed383c" stroke="none" stroke-width="0"/><path d="M216.34565,160.04039v-2.16139h47.00001v2.16139z" fill="#8c3a27" stroke="none" stroke-width="0"/><path d="M218.67898,170.99796v-2.31309h42.33335v2.31309z" fill="#8c3a27" stroke="none" stroke-width="0"/><path d="M219.67899,190.39394v-9.66667h12.66667v9.66667z" fill="#70c793" stroke="none" stroke-width="0"/><path d="M247.34565,190.39394v-9.66666h12.66666v9.66666z" fill="#ed383c" stroke="none" stroke-width="0"/><path d="M233.66667,190.50001v-9.66666h12.66666v9.66666z" fill="#f19451" stroke="none" stroke-width="0"/></g></g></svg>