<svg version="1.1" xmlns="http://www.w3.org/2000/svg" xmlns:xlink="http://www.w3.org/1999/xlink" width="59.63044" height="59.63044" viewBox="0,0,59.63044,59.63044"><g transform="translate(-210.18478,-150.18478)"><g data-paper-data="{&quot;isPaintingLayer&quot;:true}" fill-rule="nonzero" stroke-linejoin="miter" stroke-miterlimit="10" stroke-dasharray="" stroke-dashoffset="0" style="mix-blend-mode: normal"><path d="M211.18478,208.81522v-57.63044h57.63044v57.63044z" fill="#269b79" stroke="#808080" stroke-width="2" stroke-linecap="butt"/><path d="M239.63905,163.90669v-7.18071h11.7236v7.18071z" fill="#e34b8d" stroke="none" stroke-width="NaN" stroke-linecap="butt"/><path d="M232.89798,176.21647l6.74107,-12.60288l6.88762,12.60288z" fill="#5a2b47" stroke="none" stroke-width="0" stroke-linecap="butt"/><path d="M248.5783,184.86263l6.74107,-12.60288l6.88762,12.60288z" fill="#5a2b47" stroke="none" stroke-width="0" stroke-linecap="butt"/><path d="M217.51075,185.15572l6.74107,-12.60288l6.88762,12.60288z" fill="#5a2b47" stroke="none" stroke-width="0" stroke-linecap="butt"/><path d="M218.09693,205.67203v-19.05086h42.9377v19.05086z" fill="#fbd57a" stroke="none" stroke-width="0" stroke-linecap="butt"/><path d="M230.40671,205.70728v-18.0603h18.55897v18.0603z" fill="#e99856" stroke="none" stroke-width="0" stroke-linecap="butt"/><path d="M234.07034,188.51025v-9.50942h11.43051v9.50942z" fill="#fbd57a" stroke="none" stroke-width="0" stroke-linecap="butt"/><path d="M237.44088,188.58156v-2.9862h4.39635v2.9862z" fill="#e99856" stroke="none" stroke-width="0" stroke-linecap="butt"/><path d="M245.6474,187.79077v-2.34196h17.73195v2.34196z" fill="#e99856" stroke="none" stroke-width="0" stroke-linecap="butt"/><path d="M216.19184,187.79077v-2.34196h17.73195v2.34196z" fill="#e99856" stroke="none" stroke-width="0" stroke-linecap="butt"/><path d="M216.33839,186.9115v-2.34196h15.97341v2.34196z" fill="#e99856" stroke="none" stroke-width="0" stroke-linecap="butt"/><path d="M247.40594,186.61841v-2.34196h15.82687v2.34196z" fill="#e99856" stroke="none" stroke-width="0" stroke-linecap="butt"/><path d="M216.19184,186.52993v-4.5982h2.9309v4.5982z" fill="#e99856" stroke="none" stroke-width="0" stroke-linecap="butt"/><path d="M229.3809,186.67647v-4.5982h2.9309v4.5982z" fill="#e99856" stroke="none" stroke-width="0" stroke-linecap="butt"/><path d="M247.2594,186.67647v-4.5982h2.9309v4.5982z" fill="#e99856" stroke="none" stroke-width="0" stroke-linecap="butt"/><path d="M260.44845,186.52993v-4.5982h2.9309v4.5982z" fill="#e99856" stroke="none" stroke-width="0" stroke-linecap="butt"/><path d="M252.97465,186.67647v-4.5982h4.39635v4.5982z" fill="#e99856" stroke="none" stroke-width="0" stroke-linecap="butt"/><path d="M222.05365,186.52993v-4.5982h4.39635v4.5982z" fill="#e99856" stroke="none" stroke-width="0" stroke-linecap="butt"/><path d="M237.44088,177.73722v-4.5982h4.39635v4.5982z" fill="#e99856" stroke="none" stroke-width="0" stroke-linecap="butt"/><path d="M231.57908,177.73722v-4.5982h3.22399v4.5982z" fill="#e99856" stroke="none" stroke-width="0" stroke-linecap="butt"/><path d="M244.62159,177.73722v-4.5982h3.22399v4.5982z" fill="#e99856" stroke="none" stroke-width="0" stroke-linecap="butt"/><path d="M231.57908,179.05613v-3.86547h16.2665v3.86547z" fill="#e99856" stroke="none" stroke-width="0" stroke-linecap="butt"/><path d="M230.40671,195.17609v-9.58073h4.19755v9.58073z" fill="#e99856" stroke="none" stroke-width="0" stroke-linecap="butt"/><path d="M244.76813,195.17609v-9.58073h4.19755v9.58073z" fill="#e99856" stroke="none" stroke-width="0" stroke-linecap="butt"/><path d="M237.58742,192.39173v-6.64983h4.19755v6.64983z" fill="#e99856" stroke="none" stroke-width="0" stroke-linecap="butt"/><path d="M233.77725,205.67203v-8.20652h11.87015v8.20652z" fill="#5a2b47" stroke="none" stroke-width="0" stroke-linecap="butt"/><path d="M233.77725,198.27151c0,-3.19692 2.65723,-5.78853 5.93508,-5.78853c3.27785,0 5.93508,2.59161 5.93508,5.78853c0,3.19692 -2.65723,5.78853 -5.93508,5.78853c-3.27785,0 -5.93508,-2.59161 -5.93508,-5.78853z" fill="#5a2b47" stroke="none" stroke-width="0" stroke-linecap="butt"/><g fill="#fdf7ec" stroke="none" stroke-width="0" stroke-linecap="butt"><path d="M252.59834,196.00006v-3.54603h5.00243v3.54603z"/><path d="M252.53502,192.8023c0,-1.38138 1.14818,-2.50122 2.56454,-2.50122c1.41636,0 2.56454,1.11983 2.56454,2.50122c0,1.38138 -1.14818,2.50122 -2.56454,2.50122c-1.41636,0 -2.56454,-1.11983 -2.56454,-2.50122z"/></g><g fill="#fdf7ec" stroke="none" stroke-width="0" stroke-linecap="butt"><path d="M221.67733,196.1466v-3.54603h5.00243v3.54603z"/><path d="M221.61401,192.94884c0,-1.38138 1.14818,-2.50122 2.56454,-2.50122c1.41636,0 2.56454,1.11983 2.56454,2.50122c0,1.38138 -1.14818,2.50122 -2.56454,2.50122c-1.41636,0 -2.56454,-1.11983 -2.56454,-2.50122z"/></g><path d="M224.17855,168.6694l4.39635,1.95709l-4.39635,1.99963z" fill="#fbd57a" stroke="none" stroke-width="0" stroke-linecap="butt"/><path d="M255.2461,168.52286l4.39635,1.95709l-4.39635,1.99963z" fill="#fbd57a" stroke="none" stroke-width="0" stroke-linecap="butt"/><path d="M239.34596,155.3338c0,-0.1214 0.22964,-0.21982 0.51291,-0.21982c0.28327,0 0.51291,0.09842 0.51291,0.21982c0,0.1214 -0.22964,0.21982 -0.51291,0.21982c-0.28327,0 -0.51291,-0.09842 -0.51291,-0.21982z" fill="#fbd57a" stroke="none" stroke-width="0" stroke-linecap="butt"/><path d="M239.34596,154.38126c0,-0.2428 0.16402,-0.43964 0.36636,-0.43964c0.20234,0 0.36636,0.19683 0.36636,0.43964c0,0.2428 -0.16402,0.43964 -0.36636,0.43964c-0.20234,0 -0.36636,-0.19683 -0.36636,-0.43964z" fill="#fbd57a" stroke="none" stroke-width="0" stroke-linecap="butt"/><path d="M239.63905,165.95832v-10.84433" fill="none" stroke="#5a2b47" stroke-width="1" stroke-linecap="round"/><path d="M238.32015,154.96744c0,-0.72841 0.59049,-1.31891 1.31891,-1.31891c0.72841,0 1.31891,0.59049 1.31891,1.31891c0,0.72841 -0.59049,1.31891 -1.31891,1.31891c-0.72841,0 -1.31891,-0.59049 -1.31891,-1.31891z" fill="#fbd57a" stroke="none" stroke-width="0" stroke-linecap="butt"/><text transform="translate(241.1045,163.10069) scale(0.18651,0.1656)" font-size="40" xml:space="preserve" fill="#ffffff" fill-rule="nonzero" stroke="none" stroke-width="1" stroke-linecap="butt" stroke-linejoin="miter" stroke-miterlimit="10" stroke-dasharray="" stroke-dashoffset="0" font-family="Pixel" font-weight="normal" text-anchor="start" style="mix-blend-mode: normal"><tspan x="0" dy="0">CB</tspan></text></g></g></svg>