<svg version="1.1" xmlns="http://www.w3.org/2000/svg" xmlns:xlink="http://www.w3.org/1999/xlink" width="59.63044" height="59.63044" viewBox="0,0,59.63044,59.63044"><g transform="translate(-210.18478,-150.18478)"><g data-paper-data="{&quot;isPaintingLayer&quot;:true}" fill-rule="nonzero" stroke-linecap="butt" stroke-linejoin="miter" stroke-miterlimit="10" stroke-dasharray="" stroke-dashoffset="0" style="mix-blend-mode: normal"><path d="M211.18478,208.81522v-57.63044h57.63044v57.63044z" fill="#000000" stroke="#808080" stroke-width="2"/><path d="M245.53427,191.01653l4.84463,-4.67758l4.67758,4.00935l-2.54703,0.43105l1.44318,3.83917l-3.66401,-1.44752l-0.74499,2.69017z" fill="#f6a357" stroke="none" stroke-width="0"/><path d="M243.8637,194.02355l-2.6729,-4.17642l7.18343,-7.18342l4.34347,2.6729z" fill="#fdd98f" stroke="none" stroke-width="0"/><path d="M238.41086,198.99219c0,0 -8.56046,-6.80912 -13.29414,-16.14284c-4.09203,-8.06853 -4.60666,-18.69913 -2.89103,-20.32499c1.86294,-1.76547 12.10255,-1.939 20.03605,1.9633c9.16198,4.50656 16.36286,13.66821 16.36286,13.66821l-6.09017,0.08575l-14.37054,14.59385z" fill="#eb423c" stroke="#eb423c" stroke-width="1.5"/><path d="M230.62186,191.35108c0,0 -2.00503,-2.16372 -3.56532,-4.09483c-0.78416,-0.97052 -2.20861,-3.97136 -2.71073,-4.77379c-1.83373,-2.93039 -2.11101,-6.24122 -2.11101,-6.24122l13.48851,-14.12592c0,0 5.95184,1.57371 7.92599,2.92876c0.82144,0.56383 2.91079,1.61616 4.56635,2.94862c1.94175,1.5628 3.57931,3.05136 3.57931,3.05136z" fill="#ffffff" stroke="#ffffff" stroke-width="1"/><path d="M231.66858,176.1485c0,-2.2143 1.79505,-4.00935 4.00935,-4.00935c2.2143,0 4.00936,1.79505 4.00936,4.00935c0,2.2143 -1.79505,4.00935 -4.00936,4.00935c-2.2143,0 -4.00935,-1.79505 -4.00935,-4.00935z" fill="#5cb8e9" stroke="#000000" stroke-width="2"/></g></g></svg>