<svg version="1.1" xmlns="http://www.w3.org/2000/svg" xmlns:xlink="http://www.w3.org/1999/xlink" width="59.63044" height="59.63044" viewBox="0,0,59.63044,59.63044"><g transform="translate(-210.18478,-150.18478)"><g data-paper-data="{&quot;isPaintingLayer&quot;:true}" fill-rule="nonzero" stroke-linejoin="miter" stroke-miterlimit="10" stroke-dasharray="" stroke-dashoffset="0" style="mix-blend-mode: normal"><path d="M211.18478,208.81522v-57.63044h57.63044v57.63044z" fill="#552745" stroke="#808080" stroke-width="2" stroke-linecap="butt"/><g stroke="none" stroke-width="5" stroke-linecap="butt"><g><path d="M239.62253,201.97733v-18.31835h5.6761v18.31835z" fill="#e99856"/><path d="M234.20443,201.97733v-18.31835h5.6761v18.31835z" fill="#f7c476"/></g><g fill="#6cbd8a"><path d="M221.04618,173.8548c0,-4.70224 3.81192,-8.51416 8.51416,-8.51416c4.70224,0 8.51416,3.81192 8.51416,8.51416c0,4.70224 -3.81192,8.51416 -8.51416,8.51416c-4.70224,0 -8.51416,-3.81192 -8.51416,-8.51416z"/><path d="M241.60399,174.03022c0,-4.70224 3.81191,-8.51416 8.51416,-8.51416c4.70224,0 8.51416,3.81192 8.51416,8.51416c0,4.70224 -3.81192,8.51416 -8.51416,8.51416c-4.70224,0 -8.51416,-3.81191 -8.51416,-8.51416z"/><path d="M223.46107,184.26784c0,-4.70224 3.81192,-8.51416 8.51416,-8.51416c4.70224,0 8.51416,3.81192 8.51416,8.51416c0,4.70224 -3.81192,8.51416 -8.51416,8.51416c-4.70224,0 -8.51416,-3.81192 -8.51416,-8.51416z"/><path d="M238.85878,184.70127c0,-4.70224 3.81192,-8.51416 8.51416,-8.51416c4.70224,0 8.51416,3.81192 8.51416,8.51416c0,4.70224 -3.81192,8.51416 -8.51416,8.51416c-4.70224,0 -8.51416,-3.81192 -8.51416,-8.51416z"/><path d="M231.55207,166.04233c0,-4.70224 3.81192,-8.51416 8.51416,-8.51416c4.70224,0 8.51416,3.81192 8.51416,8.51416c0,4.70224 -3.81192,8.51416 -8.51416,8.51416c-4.70224,0 -8.51416,-3.81192 -8.51416,-8.51416z"/><path d="M230.88176,178.61341c0,-4.70224 3.81192,-8.51416 8.51416,-8.51416c4.70224,0 8.51416,3.81192 8.51416,8.51416c0,4.70224 -3.81191,8.51416 -8.51416,8.51416c-4.70224,0 -8.51416,-3.81192 -8.51416,-8.51416z"/></g></g><g><g><path d="M224.67436,177.95716c0,0 0.1195,-1.05178 0.85945,-1.90828c0.67268,-0.77864 1.67019,-1.21699 2.35408,-1.21699c0.54735,0 1.44752,0.19042 2.01713,0.6061c0.32012,0.23362 1.33228,1.60446 1.33228,1.60446c0,0 0.77458,-0.88369 1.63528,-1.49014c0.60975,-0.42964 1.26273,-0.64419 1.71413,-0.64419c0.45619,0 1.59651,0.34784 2.16919,0.95287c0.87603,0.92552 1.13248,2.24862 1.13248,2.24862" fill="none" stroke="#288f70" stroke-width="1" stroke-linecap="round"/><path d="M230.26774,177.4998c0,-0.46309 0.43409,-0.83849 0.96956,-0.83849c0.53547,0 0.96957,0.3754 0.96957,0.83849c0,0.46309 -0.43409,0.83849 -0.96957,0.83849c-0.53547,0 -0.96956,-0.3754 -0.96956,-0.83849z" fill="#288f70" stroke="none" stroke-width="2" stroke-linecap="butt"/></g><g><path d="M233.98925,169.70033c0,0 0.11951,-1.05177 0.85945,-1.90828c0.67268,-0.77864 1.67018,-1.21699 2.35408,-1.21699c0.54735,0 1.44752,0.19042 2.01713,0.6061c0.32012,0.23362 1.33228,1.60446 1.33228,1.60446c0,0 0.77458,-0.88369 1.63529,-1.49014c0.60975,-0.42964 1.26273,-0.64419 1.71413,-0.64419c0.45619,0 1.59651,0.34784 2.16919,0.95287c0.87603,0.92552 1.13248,2.24862 1.13248,2.24862" fill="none" stroke="#288f70" stroke-width="1" stroke-linecap="round"/><path d="M239.58262,169.24298c0,-0.46309 0.43409,-0.83849 0.96956,-0.83849c0.53547,0 0.96956,0.3754 0.96956,0.83849c0,0.46309 -0.43409,0.83849 -0.96956,0.83849c-0.53547,0 -0.96956,-0.3754 -0.96956,-0.83849z" fill="#288f70" stroke="none" stroke-width="2" stroke-linecap="butt"/></g><g><path d="M233.96104,185.98834c0,0 0.1195,-1.05177 0.85945,-1.90828c0.67268,-0.77864 1.67018,-1.21699 2.35408,-1.21699c0.54735,0 1.44753,0.19042 2.01713,0.6061c0.32012,0.23362 1.33228,1.60446 1.33228,1.60446c0,0 0.77458,-0.88369 1.63528,-1.49014c0.60975,-0.42964 1.26273,-0.64419 1.71413,-0.64419c0.45619,0 1.59651,0.34784 2.16919,0.95287c0.87603,0.92552 1.13248,2.24862 1.13248,2.24862" fill="none" stroke="#288f70" stroke-width="1" stroke-linecap="round"/><path d="M239.55441,185.53098c0,-0.46309 0.43409,-0.83849 0.96956,-0.83849c0.53547,0 0.96956,0.3754 0.96956,0.83849c0,0.46309 -0.43409,0.83849 -0.96956,0.83849c-0.53547,0 -0.96956,-0.3754 -0.96956,-0.83849z" fill="#288f70" stroke="none" stroke-width="2" stroke-linecap="butt"/></g><g><path d="M243.45221,177.9602c0,0 0.1195,-1.05178 0.85945,-1.90829c0.67268,-0.77864 1.67018,-1.21699 2.35408,-1.21699c0.54735,0 1.44753,0.19042 2.01713,0.6061c0.32012,0.23362 1.33228,1.60446 1.33228,1.60446c0,0 0.77458,-0.88369 1.63528,-1.49014c0.60975,-0.42964 1.26273,-0.64419 1.71413,-0.64419c0.45619,0 1.59651,0.34784 2.16919,0.95287c0.87603,0.92552 1.13248,2.24862 1.13248,2.24862" fill="none" stroke="#288f70" stroke-width="1" stroke-linecap="round"/><path d="M249.04559,177.50284c0,-0.46309 0.43409,-0.83849 0.96956,-0.83849c0.53547,0 0.96956,0.3754 0.96956,0.83849c0,0.46309 -0.43409,0.83849 -0.96956,0.83849c-0.53547,0 -0.96956,-0.3754 -0.96956,-0.83849z" fill="#288f70" stroke="none" stroke-width="2" stroke-linecap="butt"/></g></g></g></g></svg>