<svg version="1.1" xmlns="http://www.w3.org/2000/svg" xmlns:xlink="http://www.w3.org/1999/xlink" width="59.63044" height="59.63044" viewBox="0,0,59.63044,59.63044"><g transform="translate(-210.18478,-150.18478)"><g data-paper-data="{&quot;isPaintingLayer&quot;:true}" fill-rule="nonzero" stroke-linecap="butt" stroke-linejoin="miter" stroke-miterlimit="10" stroke-dasharray="" stroke-dashoffset="0" style="mix-blend-mode: normal"><g><path d="M211.18478,208.81522v-57.63044h57.63044v57.63044z" fill="#e7e7e8" stroke="#808080" stroke-width="2"/><g stroke="none" stroke-width="0"><path d="M212.34565,161.39394v-9.33333h9.33333v9.33333z" fill="#cfd2d2"/><path d="M222.01232,170.39394v-9.33333h9.33333v9.33333z" fill="#cfd2d2"/><path d="M231.01232,161.39394v-9.33333h9.33333v9.33333z" fill="#cfd2d2"/><path d="M240.34565,170.39394v-9.33333h9.33333v9.33333z" fill="#cfd2d2"/><path d="M249.01232,161.39394v-9.33333h9.33333v9.33333z" fill="#cfd2d2"/><path d="M258.34565,170.39394v-9.33333h9.33333v9.33333z" fill="#cfd2d2"/></g><g fill="#cfd2d2" stroke="none" stroke-width="0"><path d="M212.33333,180.16667v-9.33333h9.33333v9.33333z"/><path d="M222,189.16667v-9.33333h9.33333v9.33333z"/><path d="M231,180.16667v-9.33333h9.33333v9.33333z"/><path d="M240.33333,189.16667v-9.33333h9.33333v9.33333z"/><path d="M249,180.16667v-9.33333h9.33333v9.33333z"/><path d="M258.33333,189.16667v-9.33333h9.33333v9.33333z"/></g><g fill="#cfd2d2" stroke="none" stroke-width="0"><path d="M212.34565,198.72727v-9.33333h9.33333v9.33333z"/><path d="M222.01232,207.72727v-9.33333h9.33333v9.33333z"/><path d="M231.01232,198.72727v-9.33333h9.33333v9.33333z"/><path d="M240.34565,207.72727v-9.33333h9.33333v9.33333z"/><path d="M249.01232,198.72727v-9.33333h9.33333v9.33333z"/><path d="M258.34565,207.72727v-9.33333h9.33333v9.33333z"/></g></g></g></g></svg>