<svg version="1.1" xmlns="http://www.w3.org/2000/svg" xmlns:xlink="http://www.w3.org/1999/xlink" width="59.63044" height="59.63044" viewBox="0,0,59.63044,59.63044"><g transform="translate(-210.18478,-150.18478)"><g data-paper-data="{&quot;isPaintingLayer&quot;:true}" fill-rule="nonzero" stroke-linejoin="miter" stroke-miterlimit="10" stroke-dasharray="" stroke-dashoffset="0" style="mix-blend-mode: normal"><path d="M211.18478,208.81522v-57.63044h57.63044v57.63044z" fill="#ffd400" stroke="#808080" stroke-width="2" stroke-linecap="butt"/><path d="M213.5625,180.125c0,-5.59188 4.53312,-10.125 10.125,-10.125c5.59188,0 10.125,4.53312 10.125,10.125c0,5.59188 -4.53312,10.125 -10.125,10.125c-5.59188,0 -10.125,-4.53312 -10.125,-10.125z" fill="#ff8700" stroke="none" stroke-width="0" stroke-linecap="butt"/><path d="M212.0625,207.625v-19.75h56v19.75z" fill="#448fbc" stroke="none" stroke-width="0" stroke-linecap="butt"/><path d="M212.12139,189.14082l-0.00342,-2.30489c0,0 1.40655,-0.32326 3.91955,-0.55591c1.57327,-0.14565 2.28088,-0.7009 4.30365,-0.69342c6.04328,0.02235 4.21865,1.11313 10.63177,1.11313c6.25376,0 3.74856,-0.98395 9.1221,-0.98395c5.57432,0 4.46669,1.02935 10.04261,1.02935c5.2861,0 2.52931,-1.00184 9.65514,-1.02123c1.85406,-0.00504 4.08111,0.61221 5.39102,0.74641c2.38006,0.24383 2.57323,0.45642 2.57323,0.45642l-0.00599,2.36174c0,0 -5.13366,-1.26747 -9.30625,-1.25277c-4.61838,0.01628 -5.59887,1.17221 -9.49668,1.08487c-3.10324,-0.06954 -6.09145,-0.92926 -8.7631,-0.92926c-2.46399,0 -5.42789,0.84537 -9.15738,0.8967c-4.28748,0.05901 -6.94278,-1.06841 -10.48287,-1.12273c-3.85961,-0.05923 -8.42338,1.17554 -8.42338,1.17554z" fill="#448fbc" stroke="none" stroke-width="0" stroke-linecap="butt"/><g><path d="M268.3125,205.125c0,1.27716 -12.53603,2.3125 -28,2.3125c-15.46397,0 -28,-1.03534 -28,-2.3125c0,-1.27716 12.53603,-2.3125 28,-2.3125c15.46397,0 28,1.03534 28,2.3125z" fill="#ffb900" stroke="none" stroke-width="0" stroke-linecap="butt"/><path d="M212.0625,209.4375v-4.125h56.625v4.125z" fill="#ffb900" stroke="none" stroke-width="0" stroke-linecap="butt"/><path d="M234.25119,175.64686c-6.83007,0.82693 -13.4028,0.64222 -14.68062,-0.41256c-1.27782,-1.05478 3.22317,-2.5802 10.05323,-3.40712c6.83007,-0.82693 13.4028,-0.64222 14.68062,0.41256c1.27782,1.05478 -3.22317,2.5802 -10.05323,3.40712z" fill="#008f0c" stroke="none" stroke-width="0" stroke-linecap="butt"/><path d="M234.48146,169.84637c-6.43891,-3.82742 -12.18204,-8.88369 -12.82764,-11.2935c-0.6456,-2.40981 4.0508,-1.26061 10.48971,2.56681c6.43891,3.82742 12.18204,8.88369 12.82764,11.2935c0.6456,2.40981 -4.0508,1.26061 -10.48971,-2.56681z" fill="#008f0c" stroke="none" stroke-width="0" stroke-linecap="butt"/><path d="M242.74392,173.75169c-1.94575,-1.0542 -2.45705,-5.91102 -1.14202,-10.848c1.31503,-4.93698 3.95842,-8.08459 5.90418,-7.03039c1.94575,1.0542 2.45705,5.91102 1.14202,10.848c-1.31503,4.93698 -3.95842,8.08459 -5.90418,7.03039z" fill="#008f0c" stroke="none" stroke-width="0" stroke-linecap="butt"/><path d="M236.9375,201.75l5.5,-27.375" fill="#947300" stroke="#986000" stroke-width="4" stroke-linecap="round"/><path d="M254.45375,178.70077c-6.69814,-1.57116 -12.8069,-4.00387 -13.6443,-5.4336c-0.8374,-1.42973 3.91366,-1.31508 10.6118,0.25608c6.69814,1.57116 12.8069,4.00387 13.6443,5.4336c0.8374,1.42973 -3.91366,1.31508 -10.6118,-0.25608z" fill="#008f0c" stroke="none" stroke-width="0" stroke-linecap="butt"/><path d="M248.29016,168.64081c3.56657,-2.92723 7.69907,-5.19386 9.23019,-5.06268c1.53112,0.13118 -0.11894,2.61052 -3.68551,5.53775c-3.56657,2.92723 -7.69907,5.19386 -9.23019,5.06268c-1.53112,-0.13118 0.11894,-2.61052 3.68551,-5.53775z" fill="#008f0c" stroke="none" stroke-width="0" stroke-linecap="butt"/><path d="M238.4375,176c0,-1.38071 1.11929,-2.5 2.5,-2.5c1.38071,0 2.5,1.11929 2.5,2.5c0,1.38071 -1.11929,2.5 -2.5,2.5c-1.38071,0 -2.5,-1.11929 -2.5,-2.5z" fill="#843a00" stroke="#5b2800" stroke-width="0.5" stroke-linecap="butt"/><path d="M242.4375,177.25c0,-1.38071 1.11929,-2.5 2.5,-2.5c1.38071,0 2.5,1.11929 2.5,2.5c0,1.38071 -1.11929,2.5 -2.5,2.5c-1.38071,0 -2.5,-1.11929 -2.5,-2.5z" fill="#843a00" stroke="#5b2800" stroke-width="0.5" stroke-linecap="butt"/><path d="M239.6875,179.875c0,-1.38071 1.11929,-2.5 2.5,-2.5c1.38071,0 2.5,1.11929 2.5,2.5c0,1.38071 -1.11929,2.5 -2.5,2.5c-1.38071,0 -2.5,-1.11929 -2.5,-2.5z" fill="#843a00" stroke="#5b2800" stroke-width="0.5" stroke-linecap="butt"/><path d="M235.6875,179.25c0,-1.38071 1.11929,-2.5 2.5,-2.5c1.38071,0 2.5,1.11929 2.5,2.5c0,1.38071 -1.11929,2.5 -2.5,2.5c-1.38071,0 -2.5,-1.11929 -2.5,-2.5z" fill="#843a00" stroke="#5b2800" stroke-width="0.5" stroke-linecap="butt"/><path d="M244.4375,201.625c0,-1.38071 1.11929,-2.5 2.5,-2.5c1.38071,0 2.5,1.11929 2.5,2.5c0,1.38071 -1.11929,2.5 -2.5,2.5c-1.38071,0 -2.5,-1.11929 -2.5,-2.5z" fill="#843a00" stroke="#5b2800" stroke-width="0.5" stroke-linecap="butt"/><path d="M248.4375,203c0,-1.38071 1.11929,-2.5 2.5,-2.5c1.38071,0 2.5,1.11929 2.5,2.5c0,1.38071 -1.11929,2.5 -2.5,2.5c-1.38071,0 -2.5,-1.11929 -2.5,-2.5z" fill="#843a00" stroke="#5b2800" stroke-width="0.5" stroke-linecap="butt"/><path d="M244.9375,204.75c0,-1.38071 1.11929,-2.5 2.5,-2.5c1.38071,0 2.5,1.11929 2.5,2.5c0,1.38071 -1.11929,2.5 -2.5,2.5c-1.38071,0 -2.5,-1.11929 -2.5,-2.5z" fill="#843a00" stroke="#5b2800" stroke-width="0.5" stroke-linecap="butt"/></g><path d="M211.18478,208.81522v-57.63044h57.63044v57.63044z" fill="none" stroke="#808080" stroke-width="2" stroke-linecap="butt"/></g></g></svg>