<svg version="1.1" xmlns="http://www.w3.org/2000/svg" xmlns:xlink="http://www.w3.org/1999/xlink" width="406.55185" height="329.82212" viewBox="0,0,406.55185,329.82212"><g transform="translate(-96.6937,-35.08894)"><g data-paper-data="{&quot;isPaintingLayer&quot;:true}" fill-rule="nonzero" stroke-linejoin="miter" stroke-miterlimit="10" stroke-dasharray="" stroke-dashoffset="0" style="mix-blend-mode: normal"><path d="M109.6114,45.9195c9.22902,-8.54519 20.30486,-9.08056 20.30486,-9.08056h170.56098h168.5305c0,0 14.57558,4.37056 21.32012,9.90605c6.74454,5.5355 11.1677,16.75796 11.1677,16.75796v127.95319v139.51026c0,0 1.29945,10.6788 -8.12195,20.63761c-9.4214,9.95884 -22.33534,11.55705 -22.33534,11.55705h-170.56099h-163.45427c0,0 -19.20478,-0.45784 -27.4116,-6.60404c-8.2068,-6.1462 -11.1677,-22.28863 -11.1677,-22.28863v-133.7317v-134.55722c0,0 1.93866,-11.51483 11.1677,-20.05998z" fill="#edd2bd" stroke="#419acf" stroke-width="3.5" stroke-linecap="butt"/><text transform="translate(171.07272,55.52143) scale(0.41377,0.41377)" font-size="40" xml:space="preserve" fill="#419acf" fill-rule="nonzero" stroke="none" stroke-width="1" stroke-linecap="butt" stroke-linejoin="miter" stroke-miterlimit="10" stroke-dasharray="" stroke-dashoffset="0" font-family="Sans Serif" font-weight="normal" text-anchor="start" style="mix-blend-mode: normal"><tspan x="0" dy="0">START</tspan></text><path d="M161.31224,205.74796h277.82285" fill="none" stroke="#419acf" stroke-width="4.5" stroke-linecap="round"/><path d="M436.20481,105.61566h-266.10873" fill="none" stroke="#419acf" stroke-width="4.5" stroke-linecap="round"/><path d="M161.43005,303.98909h281.37401" fill="none" stroke="#419acf" stroke-width="4.5" stroke-linecap="round"/><path d="M465.64067,113.76528c8.96725,8.07655 14.09602,27.93253 14.09602,39.26132c0,10.82713 -4.37389,32.08729 -12.90691,40.50514c-13.06705,12.89072 -31.06236,10.49848 -20.27551,10.49848c17.83084,0 32.28559,-22.21793 32.28559,-49.62514c0,-27.40723 -14.45475,-49.62516 -32.2856,-49.62516c-10.46045,0 6.35959,-2.47731 19.08639,8.98536z" data-paper-data="{&quot;index&quot;:null}" fill="none" stroke="#419acf" stroke-width="4.5" stroke-linecap="butt"/><path d="M160.01232,98.40736l8.66567,7.58248l-8.66567,7.58247z" fill="#419acf" stroke="#419acf" stroke-width="4.5" stroke-linecap="butt"/><text transform="translate(188.86964,76.48257) scale(0.5,0.5)" font-size="40" xml:space="preserve" fill="#419acf" fill-rule="nonzero" stroke="none" stroke-width="1" stroke-linecap="butt" stroke-linejoin="miter" stroke-miterlimit="10" stroke-dasharray="" stroke-dashoffset="0" font-family="Sans Serif" font-weight="normal" text-anchor="start" style="mix-blend-mode: normal"><tspan x="0" dy="0">1</tspan></text><text transform="translate(248.49937,76.99246) scale(0.5,0.5)" font-size="40" xml:space="preserve" fill="#419acf" fill-rule="nonzero" stroke="none" stroke-width="1" stroke-linecap="butt" stroke-linejoin="miter" stroke-miterlimit="10" stroke-dasharray="" stroke-dashoffset="0" font-family="Sans Serif" font-weight="normal" text-anchor="start" style="mix-blend-mode: normal"><tspan x="0" dy="0">2</tspan></text><text transform="translate(309.62582,77.50234) scale(0.5,0.5)" font-size="40" xml:space="preserve" fill="#419acf" fill-rule="nonzero" stroke="none" stroke-width="1" stroke-linecap="butt" stroke-linejoin="miter" stroke-miterlimit="10" stroke-dasharray="" stroke-dashoffset="0" font-family="Sans Serif" font-weight="normal" text-anchor="start" style="mix-blend-mode: normal"><tspan x="0" dy="0">3</tspan></text><text transform="translate(367.75886,76.51553) scale(0.5,0.5)" font-size="40" xml:space="preserve" fill="#419acf" fill-rule="nonzero" stroke="none" stroke-width="1" stroke-linecap="butt" stroke-linejoin="miter" stroke-miterlimit="10" stroke-dasharray="" stroke-dashoffset="0" font-family="Sans Serif" font-weight="normal" text-anchor="start" style="mix-blend-mode: normal"><tspan x="0" dy="0">4</tspan></text><text transform="translate(215.57187,178.76842) scale(0.5,0.5)" font-size="40" xml:space="preserve" fill="#419acf" fill-rule="nonzero" stroke="none" stroke-width="1" stroke-linecap="butt" stroke-linejoin="miter" stroke-miterlimit="10" stroke-dasharray="" stroke-dashoffset="0" font-family="Sans Serif" font-weight="normal" text-anchor="start" style="mix-blend-mode: normal"><tspan x="0" dy="0">8</tspan></text><text transform="translate(276.69831,178.52995) scale(0.5,0.5)" font-size="40" xml:space="preserve" fill="#419acf" fill-rule="nonzero" stroke="none" stroke-width="1" stroke-linecap="butt" stroke-linejoin="miter" stroke-miterlimit="10" stroke-dasharray="" stroke-dashoffset="0" font-family="Sans Serif" font-weight="normal" text-anchor="start" style="mix-blend-mode: normal"><tspan x="0" dy="0">7</tspan></text><text transform="translate(337.82476,179.78818) scale(0.5,0.5)" font-size="40" xml:space="preserve" fill="#419acf" fill-rule="nonzero" stroke="none" stroke-width="1" stroke-linecap="butt" stroke-linejoin="miter" stroke-miterlimit="10" stroke-dasharray="" stroke-dashoffset="0" font-family="Sans Serif" font-weight="normal" text-anchor="start" style="mix-blend-mode: normal"><tspan x="0" dy="0">6</tspan></text><text transform="translate(398.20284,179.54971) scale(0.5,0.5)" font-size="40" xml:space="preserve" fill="#419acf" fill-rule="nonzero" stroke="none" stroke-width="1" stroke-linecap="butt" stroke-linejoin="miter" stroke-miterlimit="10" stroke-dasharray="" stroke-dashoffset="0" font-family="Sans Serif" font-weight="normal" text-anchor="start" style="mix-blend-mode: normal"><tspan x="0" dy="0">5</tspan></text><text transform="translate(189.8894,276.56413) scale(0.5,0.5)" font-size="40" xml:space="preserve" fill="#419acf" fill-rule="nonzero" stroke="none" stroke-width="1" stroke-linecap="butt" stroke-linejoin="miter" stroke-miterlimit="10" stroke-dasharray="" stroke-dashoffset="0" font-family="Sans Serif" font-weight="normal" text-anchor="start" style="mix-blend-mode: normal"><tspan x="0" dy="0">9</tspan></text><text transform="translate(242.03561,277.82237) scale(0.5,0.5)" font-size="40" xml:space="preserve" fill="#419acf" fill-rule="nonzero" stroke="none" stroke-width="1" stroke-linecap="butt" stroke-linejoin="miter" stroke-miterlimit="10" stroke-dasharray="" stroke-dashoffset="0" font-family="Sans Serif" font-weight="normal" text-anchor="start" style="mix-blend-mode: normal"><tspan x="0" dy="0">10</tspan></text><text transform="translate(303.16206,277.5839) scale(0.5,0.5)" font-size="40" xml:space="preserve" fill="#419acf" fill-rule="nonzero" stroke="none" stroke-width="1" stroke-linecap="butt" stroke-linejoin="miter" stroke-miterlimit="10" stroke-dasharray="" stroke-dashoffset="0" font-family="Sans Serif" font-weight="normal" text-anchor="start" style="mix-blend-mode: normal"><tspan x="0" dy="0">11</tspan></text><text transform="translate(365.78521,277.34544) scale(0.5,0.5)" font-size="40" xml:space="preserve" fill="#419acf" fill-rule="nonzero" stroke="none" stroke-width="1" stroke-linecap="butt" stroke-linejoin="miter" stroke-miterlimit="10" stroke-dasharray="" stroke-dashoffset="0" font-family="Sans Serif" font-weight="normal" text-anchor="start" style="mix-blend-mode: normal"><tspan x="0" dy="0">12</tspan></text><path d="M130.82889,214.55441c12.7268,-11.46267 29.54684,-8.98536 19.08639,-8.98536c-17.83085,0 -32.2856,22.21793 -32.2856,49.62516c0,27.40722 14.45475,49.62515 32.28559,49.62515c10.78685,0 -7.20846,2.39224 -20.27551,-10.49848c-8.53302,-8.41785 -12.90691,-29.67801 -12.90691,-40.50514c0,-11.32879 5.12877,-31.18476 14.09602,-39.26132z" data-paper-data="{&quot;index&quot;:null}" fill="none" stroke="#419acf" stroke-width="4.5" stroke-linecap="butt"/><path d="M439.65772,97.42054l8.66567,7.58248l-8.66567,7.58247z" fill="#419acf" stroke="#419acf" stroke-width="4.5" stroke-linecap="butt"/><path d="M155.04526,296.99222l8.66567,7.58248l-8.66567,7.58247z" fill="#419acf" stroke="#419acf" stroke-width="4.5" stroke-linecap="butt"/><path d="M162.72411,211.63945l-8.66567,-7.58247l8.66567,-7.58248z" data-paper-data="{&quot;index&quot;:null}" fill="#419acf" stroke="#419acf" stroke-width="4.5" stroke-linecap="butt"/><path d="M125.32423,251.122l-7.58247,8.66567l-7.58248,-8.66567z" data-paper-data="{&quot;index&quot;:null}" fill="#419acf" stroke="#419acf" stroke-width="4.5" stroke-linecap="butt"/><path d="M485.79172,152.10099l-7.58247,8.66567l-7.58248,-8.66567z" data-paper-data="{&quot;index&quot;:null}" fill="#419acf" stroke="#419acf" stroke-width="4.5" stroke-linecap="butt"/><path d="M448.35633,212.89769l-8.66567,-7.58247l8.66567,-7.58248z" data-paper-data="{&quot;index&quot;:null}" fill="#419acf" stroke="#419acf" stroke-width="4.5" stroke-linecap="butt"/></g></g></svg>