<svg version="1.1" xmlns="http://www.w3.org/2000/svg" xmlns:xlink="http://www.w3.org/1999/xlink" width="59.63044" height="59.63044" viewBox="0,0,59.63044,59.63044"><g transform="translate(-210.18478,-150.18478)"><g data-paper-data="{&quot;isPaintingLayer&quot;:true}" fill-rule="nonzero" stroke-linejoin="miter" stroke-miterlimit="10" stroke-dasharray="" stroke-dashoffset="0" style="mix-blend-mode: normal"><g><path d="M211.18478,208.81522v-57.63044h57.63044c0,0 0,51.01756 0,56.189c0,0.82829 0,1.44144 0,1.44144z" fill="#ffc77a" stroke="#808080" stroke-width="2" stroke-linecap="butt"/><path d="M216.73325,202.87154v-1.25h47.97441v1.25z" fill="#b96830" stroke="none" stroke-width="0" stroke-linecap="butt"/><path d="M217.00534,193.62154v-1.25h47.70232v1.25z" fill="#b96830" stroke="none" stroke-width="0" stroke-linecap="butt"/><path d="M217.78997,195.40187h6.39409v2.4488l-4.77426,0.06464l0.0059,2.39873l7.48828,-0.02353l-0.00202,-4.77688l6.94112,-0.02073l0.00074,2.15232l-4.91049,0.03709l0.00797,2.55012l7.07655,-0.08501l0.09227,-4.62748l6.84731,-0.02866l0.00161,2.28997l-4.76636,0.03368l-0.02817,2.40881l7.24301,-0.05724l-0.00531,-4.64815l9.2562,-0.05569l-0.13706,2.15103l-6.94344,-0.06119l0.10783,2.5988l9.53991,0.01294l-0.03435,-4.57004l6.85638,0.17516l0.03427,2.01584l-4.68202,0.05786l0.04523,2.50228l4.32786,0.09017" fill="none" stroke="#de7446" stroke-width="1" stroke-linecap="round"/><path d="M217.51787,181.1172c0,0 0.0153,-4.75303 4.62547,-4.33685c-0.1139,-0.0271 -0.40138,-4.50598 4.08032,-4.3635c0.53366,0.01696 -0.44131,-4.33299 5.62186,-4.5449c-0.37159,0.11933 16.68153,0.26299 16.92463,0.2168c6.05926,-1.15119 6.32099,4.66089 5.78489,4.66083c4.58712,-0.92605 4.87504,3.78751 4.97004,4.10074c5.04188,0.07506 4.7921,4.40293 4.7921,4.40293" fill="#ffc77a" stroke="#b96830" stroke-width="1" stroke-linecap="round"/><g stroke="none" stroke-width="0" stroke-linecap="butt"><path d="M231.12932,180.0653v-19.375h18.5v19.375z" fill="#de7446"/><path d="M235.87932,165.1903c0,-0.75939 0.61561,-1.375 1.375,-1.375c0.75939,0 1.375,0.61561 1.375,1.375c0,0.75939 -0.61561,1.375 -1.375,1.375c-0.75939,0 -1.375,-0.61561 -1.375,-1.375z" fill="#9b3914"/><path d="M242.75432,165.0653c0,-0.75939 0.61561,-1.375 1.375,-1.375c0.75939,0 1.375,0.61561 1.375,1.375c0,0.75939 -0.61561,1.375 -1.375,1.375c-0.75939,0 -1.375,-0.61561 -1.375,-1.375z" fill="#9b3914"/><path d="M236.50432,168.4403h7.75c0,0 -0.3622,3.75487 -3.875,3.875c-3.26558,0.11167 -3.875,-3.875 -3.875,-3.875z" fill="#9b3914"/></g><path d="M226.31092,188.29806c0,0 -0.14359,-3.6352 4.6415,-4.62659c0.1661,-0.03441 0.77065,-3.78774 5.16571,-4.21653c0.15901,0.00803 1.13658,-3.50557 4.39195,-3.37046c3.29623,0.13681 4.00548,3.66544 4.40009,3.65093c5.23004,-0.19229 4.99916,4.72885 5.01926,4.83404c4.16808,-1.28767 4.96781,3.8605 4.96781,3.8605" fill="#ffc77a" stroke="#b96830" stroke-width="1" stroke-linecap="round"/><path d="M240.50939,192.27285v-7.61849l6.66618,7.61849z" fill="#9b3914" stroke="none" stroke-width="0" stroke-linecap="butt"/><path d="M233.94561,192.37525l6.66618,-7.6185v7.6185z" data-paper-data="{&quot;index&quot;:null}" fill="#de7446" stroke="none" stroke-width="0" stroke-linecap="butt"/><path d="M224.04801,172.68245l-4.76156,-2.58485" fill="none" stroke="#b96830" stroke-width="1" stroke-linecap="round"/><path d="M257.34526,173.05694l4.76156,-2.58485" data-paper-data="{&quot;index&quot;:null}" fill="none" stroke="#b96830" stroke-width="1" stroke-linecap="round"/><path d="M252.32745,168.32494l4.79864,-5.46651" data-paper-data="{&quot;index&quot;:null}" fill="none" stroke="#b96830" stroke-width="1" stroke-linecap="round"/><path d="M228.93124,168.42734l-4.79863,-5.4665" data-paper-data="{&quot;index&quot;:null}" fill="none" stroke="#b96830" stroke-width="1" stroke-linecap="round"/></g></g></g></svg>