<svg version="1.1" xmlns="http://www.w3.org/2000/svg" xmlns:xlink="http://www.w3.org/1999/xlink" width="59.63044" height="59.63044" viewBox="0,0,59.63044,59.63044"><g transform="translate(-210.18478,-150.18478)"><g data-paper-data="{&quot;isPaintingLayer&quot;:true}" fill-rule="nonzero" stroke-linejoin="miter" stroke-miterlimit="10" stroke-dasharray="" stroke-dashoffset="0" style="mix-blend-mode: normal"><path d="M211.18478,208.81522v-57.63044h57.63044v57.63044z" data-paper-data="{&quot;index&quot;:null}" fill="#000000" stroke="#808080" stroke-width="2" stroke-linecap="butt"/><path d="M215.33332,157.49433c0,-0.77325 0.62683,-1.40008 1.40008,-1.40008c0.77325,0 1.40008,0.62683 1.40008,1.40008c0,0.77325 -0.62683,1.40008 -1.40008,1.40008c-0.77325,0 -1.40008,-0.62683 -1.40008,-1.40008z" fill="#ffffff" stroke="none" stroke-width="0" stroke-linecap="butt"/><path d="M259.41667,157.72774c0,-1.47276 1.09441,-2.66667 2.44444,-2.66667c1.35003,0 2.44445,1.19392 2.44445,2.66667c0,1.47276 -1.09442,2.66666 -2.44445,2.66666c-1.35003,0 -2.44444,-1.19391 -2.44444,-2.66666z" fill="#ffffff" stroke="none" stroke-width="0" stroke-linecap="butt"/><path d="M249.41667,199.3944c0,-1.47276 1.09443,-2.66666 2.44445,-2.66666c1.35002,0 2.44444,1.19391 2.44444,2.66666c0,1.47276 -1.09442,2.66666 -2.44444,2.66666c-1.35002,0 -2.44445,-1.19391 -2.44445,-2.66666z" fill="#ffffff" stroke="none" stroke-width="0" stroke-linecap="butt"/><path d="M242,161.3944c0,-0.82843 0.67157,-1.5 1.5,-1.5c0.82843,0 1.5,0.67157 1.5,1.5c0,0.82843 -0.67157,1.5 -1.5,1.5c-0.82843,0 -1.5,-0.67157 -1.5,-1.5z" fill="#ffffff" stroke="none" stroke-width="0" stroke-linecap="butt"/><path d="M225,173.3944c0,-0.82843 0.67157,-1.5 1.5,-1.5c0.82843,0 1.5,0.67157 1.5,1.5c0,0.82843 -0.67157,1.5 -1.5,1.5c-0.82843,0 -1.5,-0.67157 -1.5,-1.5z" fill="#ffffff" stroke="none" stroke-width="0" stroke-linecap="butt"/><path d="M258.99999,191.3944c0,-0.82843 0.67157,-1.5 1.5,-1.5c0.82843,0 1.5,0.67157 1.5,1.5c0,0.82843 -0.67157,1.5 -1.5,1.5c-0.82843,0 -1.5,-0.67157 -1.5,-1.5z" fill="#ffffff" stroke="none" stroke-width="0" stroke-linecap="butt"/><path d="M261.66665,203.06107c0,-0.82843 0.67158,-1.5 1.5,-1.5c0.82843,0 1.5,0.67157 1.5,1.5c0,0.82843 -0.67157,1.5 -1.5,1.5c-0.82842,0 -1.5,-0.67157 -1.5,-1.5z" fill="#ffffff" stroke="none" stroke-width="0" stroke-linecap="butt"/><path d="M234.83333,168.72774c0,-0.55229 0.44771,-1 1,-1c0.55229,0 1,0.44771 1,1c0,0.55229 -0.44771,1 -1,1c-0.55229,0 -1,-0.44771 -1,-1z" fill="#ffffff" stroke="none" stroke-width="0" stroke-linecap="butt"/><path d="M257.16667,178.72774c0,-0.55229 0.44772,-1 1,-1c0.55228,0 1,0.44771 1,1c0,0.55229 -0.44772,1 -1,1c-0.55228,0 -1,-0.44771 -1,-1z" fill="#ffffff" stroke="none" stroke-width="0" stroke-linecap="butt"/><path d="M259.83333,169.06108c0,-0.55229 0.44772,-1 1,-1c0.55228,0 1,0.44771 1,1c0,0.55229 -0.44772,1 -1,1c-0.55228,0 -1,-0.44771 -1,-1z" fill="#ffffff" stroke="none" stroke-width="0" stroke-linecap="butt"/><path d="M218.16667,183.72774c0,-0.55229 0.44771,-1 1,-1c0.55229,0 1,0.44771 1,1c0,0.55229 -0.44771,1 -1,1c-0.55229,0 -1,-0.44771 -1,-1z" fill="#ffffff" stroke="none" stroke-width="0" stroke-linecap="butt"/><path d="M230.5,186.06108c0,-0.55229 0.44771,-1 1,-1c0.55229,0 1,0.44771 1,1c0,0.55229 -0.44771,1 -1,1c-0.55229,0 -1,-0.44771 -1,-1z" fill="#ffffff" stroke="none" stroke-width="0" stroke-linecap="butt"/><path d="M232.66667,198.60561c0,-0.36819 0.29847,-0.66666 0.66666,-0.66666c0.36819,0 0.66667,0.29847 0.66667,0.66666c0,0.36819 -0.29848,0.66666 -0.66667,0.66666c-0.36819,0 -0.66666,-0.29847 -0.66666,-0.66666z" fill="#ffffff" stroke="none" stroke-width="0" stroke-linecap="butt"/><path d="M239.33332,204.27227c0,-0.36819 0.29847,-0.66666 0.66666,-0.66666c0.36819,0 0.66667,0.29847 0.66667,0.66666c0,0.36819 -0.29848,0.66666 -0.66667,0.66666c-0.36819,0 -0.66666,-0.29847 -0.66666,-0.66666z" fill="#ffffff" stroke="none" stroke-width="0" stroke-linecap="butt"/><path d="M263.66667,182.93895c0,-0.36819 0.29847,-0.66666 0.66667,-0.66666c0.36819,0 0.66667,0.29847 0.66667,0.66666c0,0.36819 -0.29848,0.66666 -0.66667,0.66666c-0.36819,0 -0.66667,-0.29847 -0.66667,-0.66666z" fill="#ffffff" stroke="none" stroke-width="0" stroke-linecap="butt"/><path d="M215,189.93895c0,-0.36819 0.29847,-0.66666 0.66666,-0.66666c0.36819,0 0.66667,0.29847 0.66667,0.66666c0,0.36819 -0.29848,0.66666 -0.66667,0.66666c-0.36819,0 -0.66666,-0.29847 -0.66666,-0.66666z" fill="#ffffff" stroke="none" stroke-width="0" stroke-linecap="butt"/><path d="M215.66667,204.27227c0,-0.36819 0.29847,-0.66667 0.66666,-0.66667c0.36819,0 0.66667,0.29848 0.66667,0.66667c0,0.36819 -0.29848,0.66666 -0.66667,0.66666c-0.36819,0 -0.66666,-0.29847 -0.66666,-0.66666z" fill="#ffffff" stroke="none" stroke-width="0" stroke-linecap="butt"/><path d="M220,166.60561c0,-0.36819 0.29847,-0.66666 0.66666,-0.66666c0.36819,0 0.66667,0.29847 0.66667,0.66666c0,0.36819 -0.29848,0.66666 -0.66667,0.66666c-0.36819,0 -0.66666,-0.29847 -0.66666,-0.66666z" fill="#ffffff" stroke="none" stroke-width="0" stroke-linecap="butt"/><path d="M215.66667,176.60562c0,-0.36819 0.29847,-0.66666 0.66666,-0.66666c0.36819,0 0.66667,0.29847 0.66667,0.66666c0,0.36819 -0.29848,0.66667 -0.66667,0.66667c-0.36819,0 -0.66666,-0.29848 -0.66666,-0.66667z" fill="#ffffff" stroke="none" stroke-width="0" stroke-linecap="butt"/><path d="M231.33332,159.93894c0,-0.36819 0.29847,-0.66666 0.66666,-0.66666c0.36819,0 0.66667,0.29847 0.66667,0.66666c0,0.36819 -0.29848,0.66666 -0.66667,0.66666c-0.36819,0 -0.66666,-0.29847 -0.66666,-0.66666z" fill="#ffffff" stroke="none" stroke-width="0" stroke-linecap="butt"/><path d="M249.66667,165.60562c0,-0.36819 0.29847,-0.66666 0.66666,-0.66666c0.36819,0 0.66667,0.29847 0.66667,0.66666c0,0.36819 -0.29848,0.66667 -0.66667,0.66667c-0.36819,0 -0.66666,-0.29848 -0.66666,-0.66667z" fill="#ffffff" stroke="none" stroke-width="0" stroke-linecap="butt"/><path d="M240.66666,175.60561c0,-0.36819 0.29847,-0.66666 0.66666,-0.66666c0.36819,0 0.66667,0.29847 0.66667,0.66666c0,0.36819 -0.29848,0.66666 -0.66667,0.66666c-0.36819,0 -0.66666,-0.29847 -0.66666,-0.66666z" fill="#ffffff" stroke="none" stroke-width="0" stroke-linecap="butt"/><path d="M220.55,196.79521c0,-1.36186 1.01202,-2.46586 2.26038,-2.46586c1.24836,0 2.26037,1.10401 2.26037,2.46586c0,1.36186 -1.01201,2.46586 -2.26037,2.46586c-1.24836,0 -2.26038,-1.10401 -2.26038,-2.46586z" fill="#ffffff" stroke="none" stroke-width="0" stroke-linecap="butt"/><g><path d="M244.43682,182.33534c2.33622,0 4.2301,1.84532 4.2301,4.12164c0,2.27632 -1.89388,4.12164 -4.2301,4.12164c-2.33622,0 -4.2301,-1.84532 -4.2301,-4.12164c0,-2.27632 1.89388,-4.12164 4.2301,-4.12164z" fill="#42bfff" stroke="none" stroke-width="0" stroke-linecap="butt"/><path d="M244.86709,182.67386l-4.379,3.80136" fill="none" stroke="#004ac3" stroke-width="1" stroke-linecap="round"/><path d="M241.00208,188.49478l5.81612,-5.04891" fill="none" stroke="#004ac3" stroke-width="1" stroke-linecap="round"/><path d="M242.43244,189.89987l5.66396,-4.91681" fill="none" stroke="#004ac3" stroke-width="1" stroke-linecap="round"/><path d="M248.32354,187.28344l-3.46658,2.97846" fill="none" stroke="#004ac3" stroke-width="1" stroke-linecap="round"/></g></g></g></svg>