<svg version="1.1" xmlns="http://www.w3.org/2000/svg" xmlns:xlink="http://www.w3.org/1999/xlink" width="59.63044" height="59.63044" viewBox="0,0,59.63044,59.63044"><g transform="translate(-210.18478,-150.18478)"><g data-paper-data="{&quot;isPaintingLayer&quot;:true}" fill-rule="nonzero" stroke-linejoin="miter" stroke-miterlimit="10" stroke-dasharray="" stroke-dashoffset="0" style="mix-blend-mode: normal"><path d="M211.18478,208.81522v-57.63044h57.63044v57.63044z" fill="#fed87e" stroke="#808080" stroke-width="2" stroke-linecap="butt"/><g fill="#fa964f" stroke="#f99a50"><path d="M249.375,159h-18.75" stroke-width="4.5" stroke-linecap="round"/><path d="M230.625,201h18.75" stroke-width="4.5" stroke-linecap="round"/><path d="M218.125,180h43.75" stroke-width="4.5" stroke-linecap="round"/><path d="M218.125,186.75h43.75" stroke-width="4.5" stroke-linecap="round"/><path d="M218.125,173.25h43.75" stroke-width="4.5" stroke-linecap="round"/><path d="M221.875,165.75c0,0 14.44818,0 21.06056,0c5.88631,0 16.68944,0 16.68944,0" stroke-width="4.5" stroke-linecap="round"/><path d="M235.49306,200.625v-41.25h9.01389v41.25z" stroke-width="0" stroke-linecap="butt"/><path d="M221.125,194h37.75" stroke-width="4.5" stroke-linecap="round"/></g><path d="M222.375,180c0,-9.73402 7.89098,-17.625 17.625,-17.625c9.73402,0 17.625,7.89098 17.625,17.625c0,9.73402 -7.89098,17.625 -17.625,17.625c-9.73402,0 -17.625,-7.89098 -17.625,-17.625z" fill="#833376" stroke="none" stroke-width="0" stroke-linecap="butt"/><path d="M235.92857,174.85714h8.14286l-4.20714,5.42857z" fill="#591f52" stroke="none" stroke-width="0" stroke-linecap="butt"/><path d="M248.78572,174.85715h8.14286l-4.20715,5.42857z" fill="#591f52" stroke="none" stroke-width="0" stroke-linecap="butt"/><path d="M223.07143,174.85715h8.14286l-4.20714,5.42857z" fill="#591f52" stroke="none" stroke-width="0" stroke-linecap="butt"/><path d="M233.43571,166.28571l4.20714,5.42857h-8.14286z" data-paper-data="{&quot;index&quot;:null}" fill="#591f52" stroke="none" stroke-width="0" stroke-linecap="butt"/><path d="M246.29286,166.28571l4.20715,5.42857h-8.14286z" data-paper-data="{&quot;index&quot;:null}" fill="#591f52" stroke="none" stroke-width="0" stroke-linecap="butt"/><path d="M233.29285,179.71429l4.20714,5.42857h-8.14286z" data-paper-data="{&quot;index&quot;:null}" fill="#591f52" stroke="none" stroke-width="0" stroke-linecap="butt"/><path d="M246.15,179.71429l4.20715,5.42857h-8.14286z" data-paper-data="{&quot;index&quot;:null}" fill="#591f52" stroke="none" stroke-width="0" stroke-linecap="butt"/><path d="M235.92857,188h8.14286l-4.20714,5.42857z" fill="#591f52" stroke="none" stroke-width="0" stroke-linecap="butt"/><path d="M248.78572,188h7.14286l-3.63572,4.85714z" fill="#591f52" stroke="none" stroke-width="0" stroke-linecap="butt"/><path d="M224.35714,188h6.85715l-3.49286,4.57143z" fill="#591f52" stroke="none" stroke-width="0" stroke-linecap="butt"/><path d="M236.21429,162.57143h7.14286l-3.63572,4.57143z" fill="#591f52" stroke="none" stroke-width="0" stroke-linecap="butt"/><path d="M233.29286,192.57143l3.06428,4.71429l-5.28571,-1.85715z" data-paper-data="{&quot;index&quot;:null}" fill="#591f52" stroke="none" stroke-width="0" stroke-linecap="butt"/><path d="M246.15,192.57143l2.92144,2.71429l-6.42858,2z" data-paper-data="{&quot;index&quot;:null}" fill="#591f52" stroke="none" stroke-width="0" stroke-linecap="butt"/></g></g></svg>