<svg version="1.1" xmlns="http://www.w3.org/2000/svg" xmlns:xlink="http://www.w3.org/1999/xlink" width="59.63044" height="59.63044" viewBox="0,0,59.63044,59.63044"><g transform="translate(-210.18478,-150.18478)"><g data-paper-data="{&quot;isPaintingLayer&quot;:true}" fill-rule="nonzero" stroke-linejoin="miter" stroke-miterlimit="10" stroke-dasharray="" stroke-dashoffset="0" style="mix-blend-mode: normal"><g><path d="M211.18478,208.81522v-57.63044h57.63044v57.63044z" fill="#fdc977" stroke="#808080" stroke-width="2" stroke-linecap="butt"/><g stroke="none" stroke-width="0" stroke-linecap="butt"><path d="M232.86929,170.55175v-13.625h13.90689v13.625z" fill="#de7446"/><path d="M236.43998,160.30951c0,-0.57085 0.46277,-1.03362 1.03362,-1.03362c0.57085,0 1.03362,0.46277 1.03362,1.03362c0,0.57085 -0.46277,1.03362 -1.03362,1.03362c-0.57085,0 -1.03362,-0.46277 -1.03362,-1.03362z" fill="#9b3914"/><path d="M241.60809,160.21554c0,-0.57085 0.46277,-1.03363 1.03362,-1.03363c0.57085,0 1.03362,0.46277 1.03362,1.03363c0,0.57085 -0.46277,1.03362 -1.03362,1.03362c-0.57085,0 -1.03362,-0.46277 -1.03362,-1.03362z" fill="#9b3914"/><path d="M236.90981,162.75261h5.82586c0,0 -0.27227,2.82263 -2.91293,2.91294c-2.45481,0.08394 -2.91294,-2.91294 -2.91294,-2.91294z" fill="#9b3914"/></g><g fill="none" stroke="#de7446" stroke-width="1" stroke-linecap="round"><path d="M233.86929,176.92674v-3.75"/><path d="M235.74429,175.05174h-3.75"/></g><g fill="none" stroke="#de7446" stroke-width="1" stroke-linecap="round"><path d="M245.49429,177.05174v-3.75"/><path d="M247.36929,175.17674h-3.75"/></g><g><path d="M215.74429,202.92675v-45.875h1.375v45.875z" fill="#de7446" stroke="none" stroke-width="0" stroke-linecap="butt"/><path d="M224.99429,202.92675v-45.875h1.375v45.875z" fill="#de7446" stroke="none" stroke-width="0" stroke-linecap="butt"/><g fill="none" stroke="#de7446" stroke-width="1" stroke-linecap="round"><path d="M220.99429,161.30174v-3.75"/><path d="M219.11929,159.42674h3.75"/></g><g fill="none" stroke="#de7446" stroke-width="1" stroke-linecap="round"><path d="M221.11929,168.05174v-3.75"/><path d="M219.24429,166.17674h3.75"/></g><g fill="none" stroke="#de7446" stroke-width="1" stroke-linecap="round"><path d="M221.11929,175.17674v-3.75"/><path d="M219.24429,173.30174h3.75"/></g><g fill="none" stroke="#de7446" stroke-width="1" stroke-linecap="round"><path d="M220.99429,181.92674v-3.75"/><path d="M219.11929,180.05174h3.75"/></g><g fill="none" stroke="#de7446" stroke-width="1" stroke-linecap="round"><path d="M220.99429,185.05174v3.75"/><path d="M219.11929,186.92674h3.75"/></g><g fill="none" stroke="#de7446" stroke-width="1" stroke-linecap="round"><path d="M220.99429,191.92674v3.75"/><path d="M222.86929,193.80174h-3.75"/></g><g fill="none" stroke="#de7446" stroke-width="1" stroke-linecap="round"><path d="M220.99429,202.67674v-3.75"/><path d="M219.11929,200.80174h3.75"/></g></g><g><path d="M252.99429,202.67675v-45.875h1.375v45.875z" fill="#de7446" stroke="none" stroke-width="0" stroke-linecap="butt"/><path d="M262.24429,202.67675v-45.875h1.375v45.875z" fill="#de7446" stroke="none" stroke-width="0" stroke-linecap="butt"/><g fill="none" stroke="#de7446" stroke-width="1" stroke-linecap="round"><path d="M258.24429,161.05174v-3.75"/><path d="M256.36929,159.17674h3.75"/></g><g fill="none" stroke="#de7446" stroke-width="1" stroke-linecap="round"><path d="M258.36929,164.05174v3.75"/><path d="M256.49429,165.92674h3.75"/></g><g fill="none" stroke="#de7446" stroke-width="1" stroke-linecap="round"><path d="M258.36929,171.17674v3.75"/><path d="M260.24429,173.05174h-3.75"/></g><g fill="none" stroke="#de7446" stroke-width="1" stroke-linecap="round"><path d="M258.24429,177.92674v3.75"/><path d="M256.36929,179.80174h3.75"/></g><g fill="none" stroke="#de7446" stroke-width="1" stroke-linecap="round"><path d="M258.24429,184.80174v3.75"/><path d="M256.36929,186.67674h3.75"/></g><g fill="none" stroke="#de7446" stroke-width="1" stroke-linecap="round"><path d="M258.24429,191.67674v3.75"/><path d="M256.36929,193.55174h3.75"/></g><g fill="none" stroke="#de7446" stroke-width="1" stroke-linecap="round"><path d="M258.24429,198.67674v3.75"/><path d="M256.36929,200.55174h3.75"/></g></g><path d="M234.24429,192.17674v-11.5h11.375v11.5z" fill="#de7446" stroke="none" stroke-width="NaN" stroke-linecap="butt"/><path d="M237.36929,186.05174c0,-1.38071 1.11929,-2.5 2.5,-2.5c1.38071,0 2.5,1.11929 2.5,2.5c0,1.38071 -1.11929,2.5 -2.5,2.5c-1.38071,0 -2.5,-1.11929 -2.5,-2.5z" fill="#9b3914" stroke="none" stroke-width="0" stroke-linecap="butt"/><path d="M234.11929,180.67674l5.625,-8.125l5.625,8.125z" fill="#9b3914" stroke="none" stroke-width="0" stroke-linecap="butt"/><path d="M234.11929,195.80174v-3.625h2.125z" fill="#de7446" stroke="none" stroke-width="0" stroke-linecap="butt"/><path d="M243.49429,192.05174h2.125v3.625z" data-paper-data="{&quot;index&quot;:null}" fill="#de7446" stroke="none" stroke-width="0" stroke-linecap="butt"/><path d="M237.24429,195.42674v-3.125h4.625v3.125z" fill="#9b3914" stroke="none" stroke-width="0" stroke-linecap="butt"/><path d="M234.61929,202.30174l2.625,-7h4.75l3.125,7c0,0 -1.4854,-1.67139 -2.74188,-1.60233c-0.98424,0.0541 -1.68312,1.85233 -2.38312,1.85233c-0.68096,0 -1.61873,-1.79448 -2.62007,-1.84591c-1.37268,-0.07051 -2.75493,1.59591 -2.75493,1.59591z" fill="#de7446" stroke="none" stroke-width="0" stroke-linecap="butt"/><path d="M232.99429,162.67674c0,0 -1.82773,0.18528 -2.27946,-0.67516c-0.42112,-0.80213 -0.34554,-4.32484 -0.34554,-4.32484" fill="none" stroke="#de7446" stroke-width="1.5" stroke-linecap="round"/><path d="M249.23902,157.80174c0,0 0.07557,3.52271 -0.34554,4.32484c-0.45173,0.86044 -2.27946,0.67516 -2.27946,0.67516" data-paper-data="{&quot;index&quot;:null}" fill="none" stroke="#de7446" stroke-width="1.5" stroke-linecap="round"/></g></g></g></svg>