<svg version="1.1" xmlns="http://www.w3.org/2000/svg" xmlns:xlink="http://www.w3.org/1999/xlink" width="245.02035" height="422.56151" viewBox="0,0,245.02035,422.56151"><g transform="translate(-68.40878,70.96361)"><g data-paper-data="{&quot;isPaintingLayer&quot;:true}" fill-rule="nonzero" stroke-linejoin="miter" stroke-miterlimit="10" stroke-dasharray="" stroke-dashoffset="0" style="mix-blend-mode: normal"><path d="M110.63723,141.97328c0,0 0.26491,-17.18604 15.8971,-17.18604c15.63219,0 15.89709,17.18604 15.89709,17.18604h-16.67256z" fill="#ffffff" stroke="none" stroke-width="0" stroke-linecap="butt"/><path d="M111.65235,184.23492c0,0 0.2649,-17.18604 15.89709,-17.18604c15.63219,0 15.89709,17.18604 15.89709,17.18604h-16.67256z" fill="#ffffff" stroke="none" stroke-width="0" stroke-linecap="butt"/><path d="M110.94886,227.35585c0,0 0.2649,-17.18605 15.89709,-17.18605c15.63219,0 15.89709,17.18605 15.89709,17.18605h-16.67256z" fill="#ffffff" stroke="none" stroke-width="0" stroke-linecap="butt"/><path d="M111.10467,269.61744c0,0 0.2649,-17.18604 15.89709,-17.18604c15.63219,0 15.89709,17.18604 15.89709,17.18604h-16.67256z" fill="#ffffff" stroke="none" stroke-width="0" stroke-linecap="butt"/><path d="M76.87956,338.23659c-6.32453,-9.5956 -6.72078,-21.1114 -6.72078,-21.1114v-177.33584v-175.22471c0,0 3.23476,-15.15453 7.33176,-22.16697c4.09699,-7.01244 12.40304,-11.61128 12.40304,-11.61128h94.70182h103.25553c0,0 7.90367,-1.35107 15.27449,8.44457c7.37082,9.79565 8.55371,23.22255 8.55371,23.22255v177.33586v169.94684c0,0 -0.33885,19.96762 -4.88784,28.50041c-4.54899,8.53278 -16.49644,11.61128 -16.49644,11.61128h-98.97868h-99.58965c0,0 -8.52244,-2.01568 -14.84697,-11.61128z" fill="#edd2bd" stroke="#419acf" stroke-width="3.5" stroke-linecap="butt"/><path d="M125.1531,-11.01863v302.97793" fill="none" stroke="#419acf" stroke-width="4.5" stroke-linecap="round"/><path d="M181.61589,291.8035v-302.2286" fill="none" stroke="#419acf" stroke-width="4.5" stroke-linecap="round"/><path d="M239.88887,11.85043v278.07864" fill="none" stroke="#419acf" stroke-width="4.5" stroke-linecap="round"/><path d="M182.36925,294.42233c0,14.14506 12.70049,25.6119 28.36735,25.6119c15.66685,0 28.36735,-11.46684 28.36735,-25.6119c0,-8.55712 1.36748,5.71841 -6.00127,16.0844c-4.81192,6.76918 -16.96493,10.23895 -23.15405,10.23895c-6.47591,0 -17.82623,-4.06861 -22.44304,-11.18226c-6.55242,-10.09607 -5.13633,-23.43927 -5.13633,-15.14108z" data-paper-data="{&quot;index&quot;:null}" fill="none" stroke="#419acf" stroke-width="4.5" stroke-linecap="butt"/><path d="M130.55637,-29.89366c4.54717,-7.11365 15.72627,-11.18226 22.10449,-11.18226c6.09577,0 18.06544,3.46977 22.80478,10.23895c7.25759,10.36599 5.91074,24.64152 5.91074,16.0844c0,-14.14507 -12.5089,-25.6119 -27.93942,-25.6119c-15.43052,0 -27.93942,11.46684 -27.93942,25.61191c0,8.29819 -1.39474,-5.04501 5.05884,-15.14108z" data-paper-data="{&quot;index&quot;:null}" fill="none" stroke="#419acf" stroke-width="4.5" stroke-linecap="butt"/><path d="M120.557,300.55233l6.01512,-6.87441l6.01511,6.87441z" fill="#419acf" stroke="#419acf" stroke-width="4.5" stroke-linecap="butt"/><text transform="translate(98.32867,329.03841) scale(0.5,0.5)" font-size="40" xml:space="preserve" fill="#419acf" fill-rule="nonzero" stroke="none" stroke-width="1" stroke-linecap="butt" stroke-linejoin="miter" stroke-miterlimit="10" stroke-dasharray="" stroke-dashoffset="0" font-family="Sans Serif" font-weight="normal" text-anchor="start" style="mix-blend-mode: normal"><tspan x="0" dy="0">START</tspan></text></g></g></svg>