<svg version="1.1" xmlns="http://www.w3.org/2000/svg" xmlns:xlink="http://www.w3.org/1999/xlink" width="59.63044" height="59.63044" viewBox="0,0,59.63044,59.63044"><g transform="translate(-210.18478,-150.18478)"><g data-paper-data="{&quot;isPaintingLayer&quot;:true}" fill-rule="nonzero" stroke-linecap="butt" stroke-linejoin="miter" stroke-miterlimit="10" stroke-dasharray="" stroke-dashoffset="0" style="mix-blend-mode: normal"><path d="M211.18478,208.81522v-57.63044h57.63044v57.63044z" fill="#833376" stroke="#808080" stroke-width="2"/><g fill="#591f52" stroke="none" stroke-width="0"><path d="M239.57357,158.9606l4.20714,5.42857h-8.14286z" data-paper-data="{&quot;index&quot;:null}"/><path d="M236.35968,195.00011h8.14286l-4.20714,5.42857z" data-paper-data="{&quot;index&quot;:null}"/><path d="M255.1081,183.94646l-0.02375,-8.14282l5.44082,4.19129z" data-paper-data="{&quot;index&quot;:null}"/><path d="M224.98483,176.52801l0.24727,8.13911l-5.55382,-4.04035z" data-paper-data="{&quot;index&quot;:null}"/><path d="M231.26972,167.35953l-5.67793,5.83672l-0.95755,-6.80092z" data-paper-data="{&quot;index&quot;:null}"/><path d="M226.90858,187.36765l5.27725,6.20136l-6.86082,0.31413z" data-paper-data="{&quot;index&quot;:null}"/><path d="M249.40764,193.37326l4.65426,-6.68162l2.04971,6.55501z" data-paper-data="{&quot;index&quot;:null}"/><path d="M253.76786,172.42702l-5.00097,-6.42624l6.86799,-0.01376z" data-paper-data="{&quot;index&quot;:null}"/></g><path d="M246.26905,207.84283l-2.88028,-10.86964l-14.34803,-29.86714l-11.50729,-14.8473l15.70056,0.08047l2.7732,11.13065l14.86602,29.71334l11.04716,14.85181z" data-paper-data="{&quot;index&quot;:null}" fill="#591f52" stroke="none" stroke-width="0"/><path d="M217.80653,207.88813l11.04716,-14.85181l14.86602,-29.71333l2.7732,-11.13064l15.70056,-0.08048l-11.50728,14.8473l-14.34803,29.86713l-2.88028,10.86964z" data-paper-data="{&quot;index&quot;:null}" fill="#591f52" stroke="none" stroke-width="0"/><path d="M267.84523,197.3913l-13.50292,-7.72467l-31.14606,-11.3064l-11.08387,-2.02949l0.0424,-13.81307c0,0 13.47615,8.37089 13.47615,8.37089l31.40863,10.83414l11.21217,2.03759z" fill="#591f52" stroke="none" stroke-width="0"/><path d="M211.93033,183.8058l11.21217,-2.03759l31.40864,-10.83415l13.47615,-8.37088l0.04239,13.81307l-11.08387,2.02949l-31.14606,11.3064l-13.50293,7.72467z" data-paper-data="{&quot;index&quot;:null}" fill="#591f52" stroke="none" stroke-width="0"/><path d="M224.12427,172.34487c1.6293,-3.37896 4.19535,-6.00235 7.23598,-7.70873c4.84939,-2.72144 10.90594,-3.11038 16.29491,-0.51187c8.76793,4.22782 12.44842,14.76296 8.2206,23.53089c-4.22782,8.76793 -14.76296,12.44842 -23.53089,8.2206c-8.76793,-4.22782 -12.44842,-14.76296 -8.2206,-23.53089z" fill="#fed87e" stroke="none" stroke-width="0"/><path d="M230.18532,194.26037c0.73845,-0.3099 0.55417,-1.0006 1.49179,-1.03504c2.80125,-0.10287 1.88886,1.97969 4.863,1.82621c2.90023,-0.14966 1.79814,-1.9289 4.29016,-2.0575c2.58513,-0.13341 2.009,1.81713 4.59487,1.6837c2.45147,-0.12651 1.2338,-1.93315 4.53963,-2.13994c0.40887,-0.02557 1.65662,0.59621 1.25329,1.05764c-0.58979,0.67474 -0.5479,0.22519 -1.65462,1.3843c-1.68768,1.23324 -8.03813,2.87123 -9.84047,2.80125c-1.43493,-0.05571 -3.49676,-0.86299 -4.73575,-0.79905c-1.1427,0.05898 -5.98143,-2.22658 -4.80189,-2.72159z" fill="#f2a358" stroke="none" stroke-width="0"/><path d="M224.56351,188.36329c0,0 -0.91882,-1.47475 -1.21608,-2.26502c-0.32639,-0.86771 -0.66304,-2.73069 -0.66304,-2.73069c0,0 1.60854,0.08455 3.13299,-0.47029c0.95439,-0.34735 1.37787,-1.65542 2.60722,-1.64399c3.67288,0.03415 2.57688,2.60517 6.47424,2.58563c3.80052,-0.01905 2.26647,-2.32559 5.53206,-2.34196c3.38762,-0.01698 2.72662,2.40734 6.1152,2.39035c3.21246,-0.01611 1.52529,-2.36396 5.85556,-2.43127c1.12669,-0.01752 2.48739,1.42747 3.28503,1.7391c1.44928,0.56622 1.53789,0.68651 1.53789,0.68651c0,0 -0.18043,1.40817 -0.63201,2.22189c-0.26872,0.90838 -1.22401,2.34653 -1.22401,2.34653c0,0 -1.22323,-1.59998 -3.75881,-1.55268c-2.80649,0.05234 -3.38872,2.77402 -5.75851,2.58047c-1.88671,-0.1541 -3.71284,-2.16701 -5.33644,-2.15887c-1.49741,0.00751 -3.28866,2.00477 -5.55454,2.13687c-2.60487,0.15187 -4.23184,-2.49168 -6.38387,-2.60867c-2.34625,-0.12754 -4.01288,1.5161 -4.01288,1.5161z" fill="#f2a358" stroke="none" stroke-width="0"/><path d="M255.54717,171.63671c0,0 0.42295,0.32208 1.14875,2.3914c0.45458,2.70136 0.6197,2.42226 0.6197,2.42226c0,0 -1.50069,0.00647 -3.0092,0.56131c-0.9444,0.34735 -1.36346,1.65542 -2.57995,1.64399c-3.63447,-0.03415 -2.54992,-2.60517 -6.40653,-2.58563c-3.76077,0.01905 -2.24277,2.32559 -5.47421,2.34196c-3.35219,0.01698 -2.6981,-2.40734 -6.05124,-2.39035c-3.17886,0.01611 -1.50934,2.36396 -5.79432,2.43127c-1.11491,0.01752 -2.46137,-1.42747 -3.25067,-1.7391c-1.43412,-0.56622 -1.79202,-0.86856 -1.79202,-0.86856c0,0 0.35869,-2.04534 0.80555,-2.85906c0.26591,-0.90838 0.94099,-1.98243 0.94099,-1.98243c0,0 1.57073,2.05511 4.07979,2.00781c2.77713,-0.05234 3.35328,-2.77402 5.69828,-2.58047c1.86698,0.1541 3.67401,2.16701 5.28063,2.15887c1.48175,-0.00751 3.25427,-2.00477 5.49645,-2.13687c2.57763,-0.15187 4.18758,2.49168 6.3171,2.60867c2.32171,0.12754 3.97091,-1.42507 3.97091,-1.42507z" data-paper-data="{&quot;index&quot;:null}" fill="#f2a358" stroke="none" stroke-width="0"/><path d="M248.66393,166.77685c-2.80277,0.046 -1.8483,-2.01762 -4.82494,-1.92453c-2.90267,0.09078 -1.83691,1.89201 -4.33103,1.97c-2.58731,0.08092 -1.97171,-1.85753 -4.55975,-1.7766c-2.45353,0.07673 -1.27277,1.90771 -4.58212,2.04737c-0.4093,0.01727 -1.64418,-0.62971 -1.23157,-1.08286c0.60336,-0.66263 0.55236,-0.21402 1.68238,-1.35043c1.71236,-1.19874 8.09474,-2.70751 9.89529,-2.60097c1.43351,0.08482 4.57083,0.93377 5.90189,1.44114c0.44092,0.21379 2.58415,1.00278 3.05877,1.63712c0.65846,0.88005 -0.46375,1.63081 -1.00892,1.63976z" data-paper-data="{&quot;index&quot;:null}" fill="#f2a358" stroke="none" stroke-width="0"/></g></g></svg>