<svg version="1.1" xmlns="http://www.w3.org/2000/svg" xmlns:xlink="http://www.w3.org/1999/xlink" width="59.63044" height="59.63044" viewBox="0,0,59.63044,59.63044"><g transform="translate(-210.18478,-150.18478)"><g data-paper-data="{&quot;isPaintingLayer&quot;:true}" fill-rule="nonzero" stroke-linejoin="miter" stroke-miterlimit="10" stroke-dasharray="" stroke-dashoffset="0" style="mix-blend-mode: normal"><path d="M211.18478,208.81522v-57.63044h57.63044v57.63044z" fill="#70c292" stroke="#808080" stroke-width="2" stroke-linecap="butt"/><g fill="none" stroke="#269b79" stroke-width="2.5" stroke-linecap="round"><path d="M218.41243,193.70718v6.17469"/><path d="M218.36851,190.37009v-6.17469"/><path d="M218.32459,174.82084v6.17469"/><path d="M218.41789,165.17185v6.17469"/><path d="M218.37397,161.83477v-6.17469"/></g><g fill="none" stroke="#269b79" stroke-width="2.5" stroke-linecap="round"><path d="M223.17105,204.57573v-6.17469"/><path d="M223.12713,195.06396v-6.17469"/><path d="M223.08321,185.6894v-6.17469"/><path d="M223.17651,176.04041v-6.17469"/><path d="M223.13259,160.35394v6.17469"/></g><g fill="none" stroke="#269b79" stroke-width="2.5" stroke-linecap="round"><path d="M227.92967,193.54916v6.17469"/><path d="M227.88575,184.03738v6.17469"/><path d="M227.84183,180.83751v-6.17469"/><path d="M227.93513,171.18852v-6.17469"/><path d="M227.89121,161.67675v-6.17469"/></g><g fill="none" stroke="#269b79" stroke-width="2.5" stroke-linecap="round"><path d="M232.68828,198.58764v6.17469"/><path d="M232.64437,195.25055v-6.17469"/><path d="M232.60045,179.7013v6.17469"/><path d="M232.69375,170.05231v6.17469"/><path d="M232.64983,166.71523v-6.17469"/></g><g fill="none" stroke="#269b79" stroke-width="2.5" stroke-linecap="round"><path d="M242.24944,204.5812v-6.17469"/><path d="M242.20552,195.06942v-6.17469"/><path d="M242.1616,179.52017v6.17469"/><path d="M242.2549,176.04587v-6.17469"/><path d="M242.21098,166.53409v-6.17469"/></g><g fill="none" stroke="#269b79" stroke-width="2.5" stroke-linecap="round"><path d="M251.67338,204.53728v-6.17469"/><path d="M251.62946,195.0255v-6.17469"/><path d="M251.58554,179.47625v6.17469"/><path d="M251.67884,176.00195v-6.17469"/><path d="M251.63492,160.31549v6.17469"/></g><g fill="none" stroke="#269b79" stroke-width="2.5" stroke-linecap="round"><path d="M261.37175,204.70076v-6.17469"/><path d="M261.32783,195.18899v-6.17469"/><path d="M261.28391,185.81443v-6.17469"/><path d="M261.37721,176.16543v-6.17469"/><path d="M261.33329,166.65366v-6.17469"/></g><g fill="none" stroke="#269b79" stroke-width="2.5" stroke-linecap="round"><path d="M246.82146,199.75011v-6.17469"/><path d="M246.77754,190.23834v-6.17469"/><path d="M246.73363,180.86378v-6.17469"/><path d="M246.82693,171.21479v-6.17469"/><path d="M246.78301,161.70301v-6.17469"/></g><g fill="none" stroke="#269b79" stroke-width="2.5" stroke-linecap="round"><path d="M237.58412,199.77638v-6.17469"/><path d="M237.5402,184.08992v6.17469"/><path d="M237.49628,174.71536v6.17469"/><path d="M237.58958,171.24105v-6.17469"/><path d="M237.54566,155.55459v6.17469"/></g><g fill="none" stroke="#269b79" stroke-width="2.5" stroke-linecap="round"><path d="M256.47592,199.86968v-6.17469"/><path d="M256.432,190.35791v-6.17469"/><path d="M256.38808,180.98334v-6.17469"/><path d="M256.48138,171.33435v-6.17469"/><path d="M256.43746,155.64789v6.17469"/></g></g></g></svg>